<?xml version="1.0" encoding="us-ascii" standalone="no"?><svg xmlns="http://www.w3.org/2000/svg" xmlns:xlink="http://www.w3.org/1999/xlink" contentStyleType="text/css" height="204px" preserveAspectRatio="none" style="width:373px;height:204px;background:#FFFFFF;" version="1.1" viewBox="0 0 373 204" width="373px" zoomAndPan="magnify"><defs/><g><!--entity client--><g id="elem_client"><rect fill="#F1F1F1" height="36.2969" rx="2.5" ry="2.5" style="stroke:#181818;stroke-width:0.5;" width="86" x="104.47" y="142.78"/><text fill="#000000" font-family="sans-serif" font-size="14" lengthAdjust="spacing" textLength="66" x="114.47" y="165.7751">ssh client</text></g><!--entity server--><g id="elem_server"><rect fill="#F1F1F1" height="36.2969" rx="2.5" ry="2.5" style="stroke:#181818;stroke-width:0.5;" width="92" x="232.47" y="7.74"/><text fill="#000000" font-family="sans-serif" font-size="14" lengthAdjust="spacing" textLength="72" x="242.47" y="30.7351">ssh server</text></g><g id="elem_host:hostport"><ellipse cx="296.4749" cy="160.931" fill="#F1F1F1" rx="70.8049" ry="16.561" style="stroke:#181818;stroke-width:0.5;"/><text fill="#000000" font-family="sans-serif" font-size="14" lengthAdjust="spacing" textLength="95" x="245.9749" y="164.6785">host:hostport</text></g><g id="elem_[bind_address:]port"><ellipse cx="93.4744" cy="25.8949" fill="#F1F1F1" rx="87.4744" ry="19.8949" style="stroke:#181818;stroke-width:0.5;"/><text fill="#000000" font-family="sans-serif" font-size="14" lengthAdjust="spacing" textLength="136" x="25.4744" y="28.7416">[bind_address:]port</text></g><!--entity actor--><g id="elem_actor"><ellipse cx="52.47" cy="131.28" fill="#F1F1F1" rx="8" ry="8" style="stroke:#181818;stroke-width:0.5;"/><path d="M52.47,139.28 L52.47,166.28 M39.47,147.28 L65.47,147.28 M52.47,166.28 L39.47,181.28 M52.47,166.28 L65.47,181.28 " fill="none" style="stroke:#181818;stroke-width:0.5;"/><text fill="#000000" font-family="sans-serif" font-size="14" lengthAdjust="spacing" textLength="35" x="34.97" y="195.7751">actor</text></g><!--reverse link server to client--><g id="link_server_client"><path d="M229.2241,47.0647 C213.5541,54.9047 202.06,62.69 189.47,75.78 C170.92,95.09 158.9,124.19 152.66,142.62 " fill="none" id="server-backto-client" style="stroke:#181818;stroke-width:2.0;"/><polygon fill="#181818" points="234.59,44.38,224.7514,44.8297,230.1184,46.6172,228.331,51.9842,234.59,44.38" style="stroke:#181818;stroke-width:2.0;"/><text fill="#000000" font-family="sans-serif" font-size="13" lengthAdjust="spacing" textLength="85" x="190.47" y="88.8469">ssh tunneling</text></g><!--link server to host:hostport--><g id="link_server_host:hostport"><path d="M280.83,44.28 C284.35,70.34 290.1433,113.1845 293.5433,138.2445 " fill="none" id="server-to-host:hostport" style="stroke:#181818;stroke-width:1.0;"/><polygon fill="#181818" points="294.35,144.19,297.1037,134.7339,293.6778,139.2354,289.1763,135.8095,294.35,144.19" style="stroke:#181818;stroke-width:1.0;"/><text fill="#000000" font-family="sans-serif" font-size="13" lengthAdjust="spacing" textLength="64" x="287.47" y="88.8469">forward to</text></g><!--link client to host:hostport--><g id="link_client_host:hostport"><path d="M190.84,160.93 C202.39,160.93 207.94,160.93 219.5,160.93 " fill="none" id="client-to-host:hostport" style="stroke:#181818;stroke-width:1.0;stroke-dasharray:7.0,7.0;"/><polygon fill="#181818" points="225.5,160.93,216.5,156.93,220.5,160.93,216.5,164.93,225.5,160.93" style="stroke:#181818;stroke-width:1.0;"/></g><!--reverse link [bind_address:]port to client--><g id="link_[bind_address:]port_client"><path d="M86.6321,58.0552 C84.2421,71.5152 84.99,77.84 90.47,92.78 C97.64,112.31 113.28,130.04 126.37,142.37 " fill="none" id="[bind_address:]port-backto-client" style="stroke:#181818;stroke-width:1.0;"/><polygon fill="#181818" points="88.73,46.24,83.7426,51.4483,86.6321,58.0552,91.6194,52.8469,88.73,46.24" style="stroke:#181818;stroke-width:1.0;"/><text fill="#000000" font-family="sans-serif" font-size="13" lengthAdjust="spacing" textLength="34" x="91.47" y="88.8469">listen</text></g><!--link actor to client--><g id="link_actor_client"><path d="M70.29,160.93 C81.54,160.93 86.8,160.93 98.06,160.93 " fill="none" id="actor-to-client" style="stroke:#181818;stroke-width:1.0;"/><polygon fill="#181818" points="104.06,160.93,95.06,156.93,99.06,160.93,95.06,164.93,104.06,160.93" style="stroke:#181818;stroke-width:1.0;"/></g><!--SRC=[POxH2eCm34NV-nN19pUe7o3eZumnEfjfeQIInFdxgxPx67i9bvl3IHWdTJH7X4PaWIa696t0IOs6Vm51VYEVG8ccS31iwp3M3deuMDs8C0QQJQsjJplP4TebYVR7M1Fh9UElnBjZ3vg-lex3l6Zt1vlszWpa7yvxHf7-NXHNQ-l7sHQ3A99nawPyz1JbgsNz0G00]--></g></svg>