<?xml version="1.0" encoding="us-ascii" standalone="no"?><svg xmlns="http://www.w3.org/2000/svg" xmlns:xlink="http://www.w3.org/1999/xlink" contentStyleType="text/css" height="202px" preserveAspectRatio="none" style="width:301px;height:202px;background:#FFFFFF;" version="1.1" viewBox="0 0 301 202" width="301px" zoomAndPan="magnify"><defs/><g><!--class AbstractQueuedSynchronizer--><g id="elem_AbstractQueuedSynchronizer"><rect codeLine="1" fill="#F1F1F1" height="64.2969" id="AbstractQueuedSynchronizer" rx="2.5" ry="2.5" style="stroke:#181818;stroke-width:0.5;" width="235" x="33" y="131.29"/><ellipse cx="48" cy="147.29" fill="#A9DCDF" rx="11" ry="11" style="stroke:#181818;stroke-width:1.0;"/><path d="M48.1094,142.6338 L46.9531,147.7119 L49.2813,147.7119 L48.1094,142.6338 Z M46.625,140.3994 L49.6094,140.3994 L52.9688,152.79 L50.5156,152.79 L49.75,149.7275 L46.4688,149.7275 L45.7188,152.79 L43.2813,152.79 L46.625,140.3994 Z " fill="#000000"/><text fill="#000000" font-family="sans-serif" font-size="14" font-style="italic" lengthAdjust="spacing" textLength="203" x="62" y="152.1367">AbstractQueuedSynchronizer</text><line style="stroke:#181818;stroke-width:0.5;" x1="34" x2="267" y1="163.29" y2="163.29"/><text fill="#000000" font-family="sans-serif" font-size="14" lengthAdjust="spacing" textLength="107" x="39" y="180.2851">volatile int state</text><line style="stroke:#181818;stroke-width:0.5;" x1="34" x2="267" y1="187.5869" y2="187.5869"/></g><!--class AbstractOwnableSynchronizer--><g id="elem_AbstractOwnableSynchronizer"><rect codeLine="4" fill="#F1F1F1" height="64.2969" id="AbstractOwnableSynchronizer" rx="2.5" ry="2.5" style="stroke:#181818;stroke-width:0.5;" width="287" x="7" y="7"/><ellipse cx="43.6" cy="23" fill="#A9DCDF" rx="11" ry="11" style="stroke:#181818;stroke-width:1.0;"/><path d="M43.7094,18.3438 L42.5531,23.4219 L44.8813,23.4219 L43.7094,18.3438 Z M42.225,16.1094 L45.2094,16.1094 L48.5688,28.5 L46.1156,28.5 L45.35,25.4375 L42.0688,25.4375 L41.3188,28.5 L38.8813,28.5 L42.225,16.1094 Z " fill="#000000"/><text fill="#000000" font-family="sans-serif" font-size="14" font-style="italic" lengthAdjust="spacing" textLength="207" x="62.4" y="27.8467">AbstractOwnableSynchronizer</text><line style="stroke:#181818;stroke-width:0.5;" x1="8" x2="293" y1="39" y2="39"/><text fill="#000000" font-family="sans-serif" font-size="14" lengthAdjust="spacing" textLength="275" x="13" y="55.9951">transient Thread exclusiveOwnerThread</text><line style="stroke:#181818;stroke-width:0.5;" x1="8" x2="293" y1="63.2969" y2="63.2969"/></g><!--reverse link AbstractOwnableSynchronizer to AbstractQueuedSynchronizer--><g id="link_AbstractOwnableSynchronizer_AbstractQueuedSynchronizer"><path d="M150.5,89.64 C150.5,107.9 150.5,112.81 150.5,131.05 " fill="none" id="AbstractOwnableSynchronizer-backto-AbstractQueuedSynchronizer" style="stroke:#181818;stroke-width:1.0;"/><polygon fill="none" points="150.5,71.64,144.5,89.64,156.5,89.64,150.5,71.64" style="stroke:#181818;stroke-width:1.0;"/></g><!--SRC=[TOvT2i9038JVznIvYYSGqGkakmCDB2aasVf7xsv0eGWwRybycGnF7iOrg7PsfyDdF0qCjFDTwsoBoWD6k0MqxSZngZnrV37FGgbrwHpIGQ917XmeM-7VZ_wdfAqko8ZBRE2M1MeVBYlo1lPUbkq5]--></g></svg>