<?xml version="1.0" encoding="us-ascii" standalone="no"?><svg xmlns="http://www.w3.org/2000/svg" xmlns:xlink="http://www.w3.org/1999/xlink" contentStyleType="text/css" height="389px" preserveAspectRatio="none" style="width:289px;height:389px;background:#FFFFFF;" version="1.1" viewBox="0 0 289 389" width="289px" zoomAndPan="magnify"><defs/><g><!--class Collection--><g id="elem_Collection"><rect codeLine="1" fill="#F1F1F1" height="48" id="Collection" rx="2.5" ry="2.5" style="stroke:#181818;stroke-width:0.5;" width="112" x="60.5" y="10"/><ellipse cx="75.5" cy="26" fill="#B4A7E5" rx="11" ry="11" style="stroke:#181818;stroke-width:1.0;"/><path d="M71.4219,21.7656 L71.4219,19.6094 L78.8125,19.6094 L78.8125,21.7656 L76.3438,21.7656 L76.3438,29.8438 L78.8125,29.8438 L78.8125,32 L71.4219,32 L71.4219,29.8438 L73.8906,29.8438 L73.8906,21.7656 L71.4219,21.7656 Z " fill="#000000"/><text fill="#000000" font-family="sans-serif" font-size="14" font-style="italic" lengthAdjust="spacing" textLength="68" x="89.5" y="30.8467">Collection</text><rect fill="#FFFFFF" height="15.9688" style="stroke:#181818;stroke-width:1.0;stroke-dasharray:2.0,2.0;" width="10" x="165.5" y="7"/><text fill="#000000" font-family="sans-serif" font-size="12" font-style="italic" lengthAdjust="spacing" textLength="8" x="166.5" y="19.1387">E</text><line style="stroke:#181818;stroke-width:0.5;" x1="61.5" x2="171.5" y1="42" y2="42"/><line style="stroke:#181818;stroke-width:0.5;" x1="61.5" x2="171.5" y1="50" y2="50"/></g><!--class List--><g id="elem_List"><rect codeLine="2" fill="#F1F1F1" height="48" id="List" rx="2.5" ry="2.5" style="stroke:#181818;stroke-width:0.5;" width="67" x="7" y="118"/><ellipse cx="22" cy="134" fill="#B4A7E5" rx="11" ry="11" style="stroke:#181818;stroke-width:1.0;"/><path d="M17.9219,129.7656 L17.9219,127.6094 L25.3125,127.6094 L25.3125,129.7656 L22.8438,129.7656 L22.8438,137.8438 L25.3125,137.8438 L25.3125,140 L17.9219,140 L17.9219,137.8438 L20.3906,137.8438 L20.3906,129.7656 L17.9219,129.7656 Z " fill="#000000"/><text fill="#000000" font-family="sans-serif" font-size="14" font-style="italic" lengthAdjust="spacing" textLength="23" x="36" y="138.8467">List</text><rect fill="#FFFFFF" height="15.9688" style="stroke:#181818;stroke-width:1.0;stroke-dasharray:2.0,2.0;" width="10" x="67" y="115"/><text fill="#000000" font-family="sans-serif" font-size="12" font-style="italic" lengthAdjust="spacing" textLength="8" x="68" y="127.1387">E</text><line style="stroke:#181818;stroke-width:0.5;" x1="8" x2="73" y1="150" y2="150"/><line style="stroke:#181818;stroke-width:0.5;" x1="8" x2="73" y1="158" y2="158"/></g><!--class AbstractCollection--><g id="elem_AbstractCollection"><rect codeLine="3" fill="#F1F1F1" height="48" id="AbstractCollection" rx="2.5" ry="2.5" style="stroke:#181818;stroke-width:0.5;" width="169" x="109" y="118"/><ellipse cx="124" cy="134" fill="#A9DCDF" rx="11" ry="11" style="stroke:#181818;stroke-width:1.0;"/><path d="M124.1094,129.3438 L122.9531,134.4219 L125.2813,134.4219 L124.1094,129.3438 Z M122.625,127.1094 L125.6094,127.1094 L128.9688,139.5 L126.5156,139.5 L125.75,136.4375 L122.4688,136.4375 L121.7188,139.5 L119.2813,139.5 L122.625,127.1094 Z " fill="#000000"/><text fill="#000000" font-family="sans-serif" font-size="14" font-style="italic" lengthAdjust="spacing" textLength="125" x="138" y="138.8467">AbstractCollection</text><rect fill="#FFFFFF" height="15.9688" style="stroke:#181818;stroke-width:1.0;stroke-dasharray:2.0,2.0;" width="10" x="271" y="115"/><text fill="#000000" font-family="sans-serif" font-size="12" font-style="italic" lengthAdjust="spacing" textLength="8" x="272" y="127.1387">E</text><line style="stroke:#181818;stroke-width:0.5;" x1="110" x2="277" y1="150" y2="150"/><line style="stroke:#181818;stroke-width:0.5;" x1="110" x2="277" y1="158" y2="158"/></g><!--class AbstractList--><g id="elem_AbstractList"><rect codeLine="4" fill="#F1F1F1" height="48" id="AbstractList" rx="2.5" ry="2.5" style="stroke:#181818;stroke-width:0.5;" width="124" x="54.5" y="226"/><ellipse cx="69.5" cy="242" fill="#A9DCDF" rx="11" ry="11" style="stroke:#181818;stroke-width:1.0;"/><path d="M69.6094,237.3438 L68.4531,242.4219 L70.7813,242.4219 L69.6094,237.3438 Z M68.125,235.1094 L71.1094,235.1094 L74.4688,247.5 L72.0156,247.5 L71.25,244.4375 L67.9688,244.4375 L67.2188,247.5 L64.7813,247.5 L68.125,235.1094 Z " fill="#000000"/><text fill="#000000" font-family="sans-serif" font-size="14" font-style="italic" lengthAdjust="spacing" textLength="80" x="83.5" y="246.8467">AbstractList</text><rect fill="#FFFFFF" height="15.9688" style="stroke:#181818;stroke-width:1.0;stroke-dasharray:2.0,2.0;" width="10" x="171.5" y="223"/><text fill="#000000" font-family="sans-serif" font-size="12" font-style="italic" lengthAdjust="spacing" textLength="8" x="172.5" y="235.1387">E</text><line style="stroke:#181818;stroke-width:0.5;" x1="55.5" x2="177.5" y1="258" y2="258"/><line style="stroke:#181818;stroke-width:0.5;" x1="55.5" x2="177.5" y1="266" y2="266"/></g><!--class AbstractSequentialList--><g id="elem_AbstractSequentialList"><rect codeLine="5" fill="#F1F1F1" height="48" id="AbstractSequentialList" rx="2.5" ry="2.5" style="stroke:#181818;stroke-width:0.5;" width="197" x="18" y="334"/><ellipse cx="33" cy="350" fill="#A9DCDF" rx="11" ry="11" style="stroke:#181818;stroke-width:1.0;"/><path d="M33.1094,345.3438 L31.9531,350.4219 L34.2813,350.4219 L33.1094,345.3438 Z M31.625,343.1094 L34.6094,343.1094 L37.9688,355.5 L35.5156,355.5 L34.75,352.4375 L31.4688,352.4375 L30.7188,355.5 L28.2813,355.5 L31.625,343.1094 Z " fill="#000000"/><text fill="#000000" font-family="sans-serif" font-size="14" font-style="italic" lengthAdjust="spacing" textLength="153" x="47" y="354.8467">AbstractSequentialList</text><rect fill="#FFFFFF" height="15.9688" style="stroke:#181818;stroke-width:1.0;stroke-dasharray:2.0,2.0;" width="10" x="208" y="331"/><text fill="#000000" font-family="sans-serif" font-size="12" font-style="italic" lengthAdjust="spacing" textLength="8" x="209" y="343.1387">E</text><line style="stroke:#181818;stroke-width:0.5;" x1="19" x2="214" y1="366" y2="366"/><line style="stroke:#181818;stroke-width:0.5;" x1="19" x2="214" y1="374" y2="374"/></g><!--reverse link Collection to List--><g id="link_Collection_List"><path d="M89.335,72.891 C76.665,90.571 69.8,100.13 57.14,117.79 " fill="none" id="Collection-backto-List" style="stroke:#181818;stroke-width:1.0;"/><polygon fill="none" points="99.82,58.26,84.458,69.396,94.212,76.386,99.82,58.26" style="stroke:#181818;stroke-width:1.0;"/></g><!--reverse link Collection to AbstractCollection--><g id="link_Collection_AbstractCollection"><path d="M143.9773,72.8244 C156.8173,90.5044 163.81,100.13 176.64,117.79 " fill="none" id="Collection-backto-AbstractCollection" style="stroke:#181818;stroke-width:1.0;stroke-dasharray:7.0,7.0;"/><polygon fill="none" points="133.4,58.26,139.1225,76.3501,148.8321,69.2986,133.4,58.26" style="stroke:#181818;stroke-width:1.0;"/></g><!--reverse link AbstractCollection to AbstractList--><g id="link_AbstractCollection_AbstractList"><path d="M166.0227,180.8244 C153.1827,198.5044 146.19,208.13 133.36,225.79 " fill="none" id="AbstractCollection-backto-AbstractList" style="stroke:#181818;stroke-width:1.0;"/><polygon fill="none" points="176.6,166.26,161.1679,177.2986,170.8775,184.3501,176.6,166.26" style="stroke:#181818;stroke-width:1.0;"/></g><!--reverse link List to AbstractList--><g id="link_List_AbstractList"><path d="M67.665,180.891 C80.335,198.571 87.2,208.13 99.86,225.79 " fill="none" id="List-backto-AbstractList" style="stroke:#181818;stroke-width:1.0;stroke-dasharray:7.0,7.0;"/><polygon fill="none" points="57.18,166.26,62.788,184.386,72.542,177.396,57.18,166.26" style="stroke:#181818;stroke-width:1.0;"/></g><!--reverse link AbstractList to AbstractSequentialList--><g id="link_AbstractList_AbstractSequentialList"><path d="M116.5,292.26 C116.5,309.94 116.5,316.13 116.5,333.79 " fill="none" id="AbstractList-backto-AbstractSequentialList" style="stroke:#181818;stroke-width:1.0;"/><polygon fill="none" points="116.5,274.26,110.5,292.26,122.5,292.26,116.5,274.26" style="stroke:#181818;stroke-width:1.0;"/></g><!--SRC=[oymhIIrAIqnELN3Epyb9JIx9pC-pSRNZoeIB-sGMbm15558hIbBpKegHr74b9XMN52KcboWavoGM5oiuGhae9YbavXRafEQcvfKGenNTCamZaSq3gSPbKd1gOIbGKMPY3YupGU80]--></g></svg>