<?xml version="1.0" encoding="us-ascii" standalone="no"?><svg xmlns="http://www.w3.org/2000/svg" xmlns:xlink="http://www.w3.org/1999/xlink" contentStyleType="text/css" height="389px" preserveAspectRatio="none" style="width:361px;height:389px;background:#FFFFFF;" version="1.1" viewBox="0 0 361 389" width="361px" zoomAndPan="magnify"><defs/><g><!--class Iterable--><g id="elem_Iterable"><rect codeLine="1" fill="#F1F1F1" height="48" id="Iterable" rx="2.5" ry="2.5" style="stroke:#181818;stroke-width:0.5;" width="94" x="126.5" y="10"/><ellipse cx="141.5" cy="26" fill="#B4A7E5" rx="11" ry="11" style="stroke:#181818;stroke-width:1.0;"/><path d="M137.4219,21.7656 L137.4219,19.6094 L144.8125,19.6094 L144.8125,21.7656 L142.3438,21.7656 L142.3438,29.8438 L144.8125,29.8438 L144.8125,32 L137.4219,32 L137.4219,29.8438 L139.8906,29.8438 L139.8906,21.7656 L137.4219,21.7656 Z " fill="#000000"/><text fill="#000000" font-family="sans-serif" font-size="14" font-style="italic" lengthAdjust="spacing" textLength="51" x="155.5" y="30.8467">Iterable</text><rect fill="#FFFFFF" height="15.9688" style="stroke:#181818;stroke-width:1.0;stroke-dasharray:2.0,2.0;" width="9" x="214.5" y="7"/><text fill="#000000" font-family="sans-serif" font-size="12" font-style="italic" lengthAdjust="spacing" textLength="7" x="215.5" y="19.1387">T</text><line style="stroke:#181818;stroke-width:0.5;" x1="127.5" x2="219.5" y1="42" y2="42"/><line style="stroke:#181818;stroke-width:0.5;" x1="127.5" x2="219.5" y1="50" y2="50"/></g><!--class Collection--><g id="elem_Collection"><rect codeLine="2" fill="#F1F1F1" height="48" id="Collection" rx="2.5" ry="2.5" style="stroke:#181818;stroke-width:0.5;" width="112" x="117.5" y="118"/><ellipse cx="132.5" cy="134" fill="#B4A7E5" rx="11" ry="11" style="stroke:#181818;stroke-width:1.0;"/><path d="M128.4219,129.7656 L128.4219,127.6094 L135.8125,127.6094 L135.8125,129.7656 L133.3438,129.7656 L133.3438,137.8438 L135.8125,137.8438 L135.8125,140 L128.4219,140 L128.4219,137.8438 L130.8906,137.8438 L130.8906,129.7656 L128.4219,129.7656 Z " fill="#000000"/><text fill="#000000" font-family="sans-serif" font-size="14" font-style="italic" lengthAdjust="spacing" textLength="68" x="146.5" y="138.8467">Collection</text><rect fill="#FFFFFF" height="15.9688" style="stroke:#181818;stroke-width:1.0;stroke-dasharray:2.0,2.0;" width="10" x="222.5" y="115"/><text fill="#000000" font-family="sans-serif" font-size="12" font-style="italic" lengthAdjust="spacing" textLength="8" x="223.5" y="127.1387">E</text><line style="stroke:#181818;stroke-width:0.5;" x1="118.5" x2="228.5" y1="150" y2="150"/><line style="stroke:#181818;stroke-width:0.5;" x1="118.5" x2="228.5" y1="158" y2="158"/></g><!--class Queue--><g id="elem_Queue"><rect codeLine="3" fill="#F1F1F1" height="48" id="Queue" rx="2.5" ry="2.5" style="stroke:#181818;stroke-width:0.5;" width="91" x="211" y="226"/><ellipse cx="226" cy="242" fill="#B4A7E5" rx="11" ry="11" style="stroke:#181818;stroke-width:1.0;"/><path d="M221.9219,237.7656 L221.9219,235.6094 L229.3125,235.6094 L229.3125,237.7656 L226.8438,237.7656 L226.8438,245.8438 L229.3125,245.8438 L229.3125,248 L221.9219,248 L221.9219,245.8438 L224.3906,245.8438 L224.3906,237.7656 L221.9219,237.7656 Z " fill="#000000"/><text fill="#000000" font-family="sans-serif" font-size="14" font-style="italic" lengthAdjust="spacing" textLength="47" x="240" y="246.8467">Queue</text><rect fill="#FFFFFF" height="15.9688" style="stroke:#181818;stroke-width:1.0;stroke-dasharray:2.0,2.0;" width="10" x="295" y="223"/><text fill="#000000" font-family="sans-serif" font-size="12" font-style="italic" lengthAdjust="spacing" textLength="8" x="296" y="235.1387">E</text><line style="stroke:#181818;stroke-width:0.5;" x1="212" x2="301" y1="258" y2="258"/><line style="stroke:#181818;stroke-width:0.5;" x1="212" x2="301" y1="266" y2="266"/></g><!--class AbstractCollection--><g id="elem_AbstractCollection"><rect codeLine="4" fill="#F1F1F1" height="48" id="AbstractCollection" rx="2.5" ry="2.5" style="stroke:#181818;stroke-width:0.5;" width="169" x="7" y="226"/><ellipse cx="22" cy="242" fill="#A9DCDF" rx="11" ry="11" style="stroke:#181818;stroke-width:1.0;"/><path d="M22.1094,237.3438 L20.9531,242.4219 L23.2813,242.4219 L22.1094,237.3438 Z M20.625,235.1094 L23.6094,235.1094 L26.9688,247.5 L24.5156,247.5 L23.75,244.4375 L20.4688,244.4375 L19.7188,247.5 L17.2813,247.5 L20.625,235.1094 Z " fill="#000000"/><text fill="#000000" font-family="sans-serif" font-size="14" font-style="italic" lengthAdjust="spacing" textLength="125" x="36" y="246.8467">AbstractCollection</text><rect fill="#FFFFFF" height="15.9688" style="stroke:#181818;stroke-width:1.0;stroke-dasharray:2.0,2.0;" width="10" x="169" y="223"/><text fill="#000000" font-family="sans-serif" font-size="12" font-style="italic" lengthAdjust="spacing" textLength="8" x="170" y="235.1387">E</text><line style="stroke:#181818;stroke-width:0.5;" x1="8" x2="175" y1="258" y2="258"/><line style="stroke:#181818;stroke-width:0.5;" x1="8" x2="175" y1="266" y2="266"/></g><!--class AbstractQueue--><g id="elem_AbstractQueue"><rect codeLine="5" fill="#F1F1F1" height="48" id="AbstractQueue" rx="2.5" ry="2.5" style="stroke:#181818;stroke-width:0.5;" width="148" x="17.5" y="334"/><ellipse cx="32.5" cy="350" fill="#A9DCDF" rx="11" ry="11" style="stroke:#181818;stroke-width:1.0;"/><path d="M32.6094,345.3438 L31.4531,350.4219 L33.7813,350.4219 L32.6094,345.3438 Z M31.125,343.1094 L34.1094,343.1094 L37.4688,355.5 L35.0156,355.5 L34.25,352.4375 L30.9688,352.4375 L30.2188,355.5 L27.7813,355.5 L31.125,343.1094 Z " fill="#000000"/><text fill="#000000" font-family="sans-serif" font-size="14" font-style="italic" lengthAdjust="spacing" textLength="104" x="46.5" y="354.8467">AbstractQueue</text><rect fill="#FFFFFF" height="15.9688" style="stroke:#181818;stroke-width:1.0;stroke-dasharray:2.0,2.0;" width="10" x="158.5" y="331"/><text fill="#000000" font-family="sans-serif" font-size="12" font-style="italic" lengthAdjust="spacing" textLength="8" x="159.5" y="343.1387">E</text><line style="stroke:#181818;stroke-width:0.5;" x1="18.5" x2="164.5" y1="366" y2="366"/><line style="stroke:#181818;stroke-width:0.5;" x1="18.5" x2="164.5" y1="374" y2="374"/></g><!--class BlockingQueue--><g id="elem_BlockingQueue"><rect codeLine="6" fill="#F1F1F1" height="48" id="BlockingQueue" rx="2.5" ry="2.5" style="stroke:#181818;stroke-width:0.5;" width="150" x="200.5" y="334"/><ellipse cx="215.5" cy="350" fill="#B4A7E5" rx="11" ry="11" style="stroke:#181818;stroke-width:1.0;"/><path d="M211.4219,345.7656 L211.4219,343.6094 L218.8125,343.6094 L218.8125,345.7656 L216.3438,345.7656 L216.3438,353.8438 L218.8125,353.8438 L218.8125,356 L211.4219,356 L211.4219,353.8438 L213.8906,353.8438 L213.8906,345.7656 L211.4219,345.7656 Z " fill="#000000"/><text fill="#000000" font-family="sans-serif" font-size="14" font-style="italic" lengthAdjust="spacing" textLength="106" x="229.5" y="354.8467">BlockingQueue</text><rect fill="#FFFFFF" height="15.9688" style="stroke:#181818;stroke-width:1.0;stroke-dasharray:2.0,2.0;" width="10" x="343.5" y="331"/><text fill="#000000" font-family="sans-serif" font-size="12" font-style="italic" lengthAdjust="spacing" textLength="8" x="344.5" y="343.1387">E</text><line style="stroke:#181818;stroke-width:0.5;" x1="201.5" x2="349.5" y1="366" y2="366"/><line style="stroke:#181818;stroke-width:0.5;" x1="201.5" x2="349.5" y1="374" y2="374"/></g><!--reverse link Iterable to Collection--><g id="link_Iterable_Collection"><path d="M173.5,76.26 C173.5,93.94 173.5,100.13 173.5,117.79 " fill="none" id="Iterable-backto-Collection" style="stroke:#181818;stroke-width:1.0;"/><polygon fill="none" points="173.5,58.26,167.5,76.26,179.5,76.26,173.5,58.26" style="stroke:#181818;stroke-width:1.0;"/></g><!--reverse link Collection to Queue--><g id="link_Collection_Queue"><path d="M202.8053,180.4337 C216.6453,198.1137 224.5,208.13 238.33,225.79 " fill="none" id="Collection-backto-Queue" style="stroke:#181818;stroke-width:1.0;"/><polygon fill="none" points="191.71,166.26,198.0807,184.1322,207.5299,176.7353,191.71,166.26" style="stroke:#181818;stroke-width:1.0;"/></g><!--reverse link Collection to AbstractCollection--><g id="link_Collection_AbstractCollection"><path d="M144.4898,180.4999 C130.8198,198.1799 123.11,208.13 109.45,225.79 " fill="none" id="Collection-backto-AbstractCollection" style="stroke:#181818;stroke-width:1.0;stroke-dasharray:7.0,7.0;"/><polygon fill="none" points="155.5,166.26,139.7432,176.8299,149.2365,184.17,155.5,166.26" style="stroke:#181818;stroke-width:1.0;"/></g><!--reverse link AbstractCollection to AbstractQueue--><g id="link_AbstractCollection_AbstractQueue"><path d="M91.5,292.26 C91.5,309.94 91.5,316.13 91.5,333.79 " fill="none" id="AbstractCollection-backto-AbstractQueue" style="stroke:#181818;stroke-width:1.0;"/><polygon fill="none" points="91.5,274.26,85.5,292.26,97.5,292.26,91.5,274.26" style="stroke:#181818;stroke-width:1.0;"/></g><!--reverse link Queue to AbstractQueue--><g id="link_Queue_AbstractQueue"><path d="M205.1445,283.9869 C177.7245,301.5969 155.37,315.97 127.91,333.61 " fill="none" id="Queue-backto-AbstractQueue" style="stroke:#181818;stroke-width:1.0;stroke-dasharray:7.0,7.0;"/><polygon fill="none" points="220.29,274.26,201.9022,278.9384,208.3868,289.0354,220.29,274.26" style="stroke:#181818;stroke-width:1.0;"/></g><!--reverse link Queue to BlockingQueue--><g id="link_Queue_BlockingQueue"><path d="M263.8467,291.9775 C267.0167,309.6575 268.17,316.13 271.34,333.79 " fill="none" id="Queue-backto-BlockingQueue" style="stroke:#181818;stroke-width:1.0;"/><polygon fill="none" points="260.67,274.26,257.9409,293.0364,269.7525,290.9186,260.67,274.26" style="stroke:#181818;stroke-width:1.0;"/></g><!--SRC=[oymhIIrAIqnELV04CXAJSb9jGkouCk6YplavEQd99PdvUJQkTWgf5IMfUId5SBL82WDBKqjJaTKWT78b9XMN52KcboWavoGM5oiuGhcePcVc5kIavgRcbH2Z5SCsJ3EH3GGhHtAiKqv-SdPcNZg6CM010000]--></g></svg>