<?xml version="1.0" encoding="us-ascii" standalone="no"?><svg xmlns="http://www.w3.org/2000/svg" xmlns:xlink="http://www.w3.org/1999/xlink" contentStyleType="text/css" height="386px" preserveAspectRatio="none" style="width:214px;height:386px;background:#FFFFFF;" version="1.1" viewBox="0 0 214 386" width="214px" zoomAndPan="magnify"><defs/><g><!--class ExecutorService--><g id="elem_ExecutorService"><rect codeLine="1" fill="#F1F1F1" height="48" id="ExecutorService" rx="2.5" ry="2.5" style="stroke:#181818;stroke-width:0.5;" width="143" x="35.5" y="115"/><ellipse cx="50.5" cy="131" fill="#B4A7E5" rx="11" ry="11" style="stroke:#181818;stroke-width:1.0;"/><path d="M46.4219,126.7656 L46.4219,124.6094 L53.8125,124.6094 L53.8125,126.7656 L51.3438,126.7656 L51.3438,134.8438 L53.8125,134.8438 L53.8125,137 L46.4219,137 L46.4219,134.8438 L48.8906,134.8438 L48.8906,126.7656 L46.4219,126.7656 Z " fill="#000000"/><text fill="#000000" font-family="sans-serif" font-size="14" font-style="italic" lengthAdjust="spacing" textLength="111" x="64.5" y="135.8467">ExecutorService</text><line style="stroke:#181818;stroke-width:0.5;" x1="36.5" x2="177.5" y1="147" y2="147"/><line style="stroke:#181818;stroke-width:0.5;" x1="36.5" x2="177.5" y1="155" y2="155"/></g><!--class Executor--><g id="elem_Executor"><rect fill="#F1F1F1" height="48" id="Executor" rx="2.5" ry="2.5" style="stroke:#181818;stroke-width:0.5;" width="93" x="60.5" y="7"/><ellipse cx="75.5" cy="23" fill="#B4A7E5" rx="11" ry="11" style="stroke:#181818;stroke-width:1.0;"/><path d="M71.4219,18.7656 L71.4219,16.6094 L78.8125,16.6094 L78.8125,18.7656 L76.3438,18.7656 L76.3438,26.8438 L78.8125,26.8438 L78.8125,29 L71.4219,29 L71.4219,26.8438 L73.8906,26.8438 L73.8906,18.7656 L71.4219,18.7656 Z " fill="#000000"/><text fill="#000000" font-family="sans-serif" font-size="14" font-style="italic" lengthAdjust="spacing" textLength="61" x="89.5" y="27.8467">Executor</text><line style="stroke:#181818;stroke-width:0.5;" x1="61.5" x2="152.5" y1="39" y2="39"/><line style="stroke:#181818;stroke-width:0.5;" x1="61.5" x2="152.5" y1="47" y2="47"/></g><!--class AbstractExecutorService--><g id="elem_AbstractExecutorService"><rect codeLine="2" fill="#F1F1F1" height="48" id="AbstractExecutorService" rx="2.5" ry="2.5" style="stroke:#181818;stroke-width:0.5;" width="200" x="7" y="223"/><ellipse cx="22" cy="239" fill="#A9DCDF" rx="11" ry="11" style="stroke:#181818;stroke-width:1.0;"/><path d="M22.1094,234.3438 L20.9531,239.4219 L23.2813,239.4219 L22.1094,234.3438 Z M20.625,232.1094 L23.6094,232.1094 L26.9688,244.5 L24.5156,244.5 L23.75,241.4375 L20.4688,241.4375 L19.7188,244.5 L17.2813,244.5 L20.625,232.1094 Z " fill="#000000"/><text fill="#000000" font-family="sans-serif" font-size="14" font-style="italic" lengthAdjust="spacing" textLength="168" x="36" y="243.8467">AbstractExecutorService</text><line style="stroke:#181818;stroke-width:0.5;" x1="8" x2="206" y1="255" y2="255"/><line style="stroke:#181818;stroke-width:0.5;" x1="8" x2="206" y1="263" y2="263"/></g><!--class ForkJoinPool--><g id="elem_ForkJoinPool"><rect codeLine="4" fill="#F1F1F1" height="48" id="ForkJoinPool" rx="2.5" ry="2.5" style="stroke:#181818;stroke-width:0.5;" width="116" x="49" y="331"/><ellipse cx="64" cy="347" fill="#ADD1B2" rx="11" ry="11" style="stroke:#181818;stroke-width:1.0;"/><path d="M66.9688,352.6406 Q66.3906,352.9375 65.75,353.0781 Q65.1094,353.2344 64.4063,353.2344 Q61.9063,353.2344 60.5781,351.5938 Q59.2656,349.9375 59.2656,346.8125 Q59.2656,343.6875 60.5781,342.0313 Q61.9063,340.375 64.4063,340.375 Q65.1094,340.375 65.75,340.5313 Q66.4063,340.6875 66.9688,340.9844 L66.9688,343.7031 Q66.3438,343.125 65.75,342.8594 Q65.1563,342.5781 64.5313,342.5781 Q63.1875,342.5781 62.5,343.6563 Q61.8125,344.7188 61.8125,346.8125 Q61.8125,348.9063 62.5,349.9844 Q63.1875,351.0469 64.5313,351.0469 Q65.1563,351.0469 65.75,350.7813 Q66.3438,350.5 66.9688,349.9219 L66.9688,352.6406 Z " fill="#000000"/><text fill="#000000" font-family="sans-serif" font-size="14" lengthAdjust="spacing" textLength="84" x="78" y="351.8467">ForkJoinPool</text><line style="stroke:#181818;stroke-width:0.5;" x1="50" x2="164" y1="363" y2="363"/><line style="stroke:#181818;stroke-width:0.5;" x1="50" x2="164" y1="371" y2="371"/></g><!--reverse link Executor to ExecutorService--><g id="link_Executor_ExecutorService"><path d="M107,73.26 C107,90.94 107,97.13 107,114.79 " fill="none" id="Executor-backto-ExecutorService" style="stroke:#181818;stroke-width:1.0;"/><polygon fill="none" points="107,55.26,101,73.26,113,73.26,107,55.26" style="stroke:#181818;stroke-width:1.0;"/></g><!--reverse link ExecutorService to AbstractExecutorService--><g id="link_ExecutorService_AbstractExecutorService"><path d="M107,181.26 C107,198.94 107,205.13 107,222.79 " fill="none" id="ExecutorService-backto-AbstractExecutorService" style="stroke:#181818;stroke-width:1.0;stroke-dasharray:7.0,7.0;"/><polygon fill="none" points="107,163.26,101,181.26,113,181.26,107,163.26" style="stroke:#181818;stroke-width:1.0;"/></g><!--reverse link AbstractExecutorService to ForkJoinPool--><g id="link_AbstractExecutorService_ForkJoinPool"><path d="M107,289.26 C107,306.94 107,313.13 107,330.79 " fill="none" id="AbstractExecutorService-backto-ForkJoinPool" style="stroke:#181818;stroke-width:1.0;"/><polygon fill="none" points="107,271.26,101,289.26,113,289.26,107,271.26" style="stroke:#181818;stroke-width:1.0;"/></g><!--SRC=[oymhIIrAIqnELN2jI4qkBSal2aujAii4ybChIbBpKehXubo9ISKbHOd99Gh9EOd5nGgEK2wwlipSWfpKtDIyac9q8xcu83hTyekolV8pymBoytFWrk0m3W00]--></g></svg>