<?xml version="1.0" encoding="us-ascii" standalone="no"?><svg xmlns="http://www.w3.org/2000/svg" xmlns:xlink="http://www.w3.org/1999/xlink" contentStyleType="text/css" height="173px" preserveAspectRatio="none" style="width:161px;height:173px;background:#FFFFFF;" version="1.1" viewBox="0 0 161 173" width="161px" zoomAndPan="magnify"><defs/><g><!--class Function--><g id="elem_Function"><rect codeLine="1" fill="#F1F1F1" height="48" id="Function" rx="2.5" ry="2.5" style="stroke:#181818;stroke-width:0.5;" width="118" x="19.5" y="10"/><ellipse cx="34.5" cy="26" fill="#B4A7E5" rx="11" ry="11" style="stroke:#181818;stroke-width:1.0;"/><path d="M30.4219,21.7656 L30.4219,19.6094 L37.8125,19.6094 L37.8125,21.7656 L35.3438,21.7656 L35.3438,29.8438 L37.8125,29.8438 L37.8125,32 L30.4219,32 L30.4219,29.8438 L32.8906,29.8438 L32.8906,21.7656 L30.4219,21.7656 Z " fill="#000000"/><text fill="#000000" font-family="sans-serif" font-size="14" font-style="italic" lengthAdjust="spacing" textLength="60" x="48.5" y="30.8467">Function</text><rect fill="#FFFFFF" height="15.9688" style="stroke:#181818;stroke-width:1.0;stroke-dasharray:2.0,2.0;" width="24" x="116.5" y="7"/><text fill="#000000" font-family="sans-serif" font-size="12" font-style="italic" lengthAdjust="spacing" textLength="22" x="117.5" y="19.1387">T, T</text><line style="stroke:#181818;stroke-width:0.5;" x1="20.5" x2="136.5" y1="42" y2="42"/><line style="stroke:#181818;stroke-width:0.5;" x1="20.5" x2="136.5" y1="50" y2="50"/></g><!--class UnaryOperator--><g id="elem_UnaryOperator"><rect codeLine="2" fill="#F1F1F1" height="48" id="UnaryOperator" rx="2.5" ry="2.5" style="stroke:#181818;stroke-width:0.5;" width="143" x="7" y="118"/><ellipse cx="22" cy="134" fill="#B4A7E5" rx="11" ry="11" style="stroke:#181818;stroke-width:1.0;"/><path d="M17.9219,129.7656 L17.9219,127.6094 L25.3125,127.6094 L25.3125,129.7656 L22.8438,129.7656 L22.8438,137.8438 L25.3125,137.8438 L25.3125,140 L17.9219,140 L17.9219,137.8438 L20.3906,137.8438 L20.3906,129.7656 L17.9219,129.7656 Z " fill="#000000"/><text fill="#000000" font-family="sans-serif" font-size="14" font-style="italic" lengthAdjust="spacing" textLength="100" x="36" y="138.8467">UnaryOperator</text><rect fill="#FFFFFF" height="15.9688" style="stroke:#181818;stroke-width:1.0;stroke-dasharray:2.0,2.0;" width="9" x="144" y="115"/><text fill="#000000" font-family="sans-serif" font-size="12" font-style="italic" lengthAdjust="spacing" textLength="7" x="145" y="127.1387">T</text><line style="stroke:#181818;stroke-width:0.5;" x1="8" x2="149" y1="150" y2="150"/><line style="stroke:#181818;stroke-width:0.5;" x1="8" x2="149" y1="158" y2="158"/></g><!--reverse link Function to UnaryOperator--><g id="link_Function_UnaryOperator"><path d="M78.5,76.26 C78.5,93.94 78.5,100.13 78.5,117.79 " fill="none" id="Function-backto-UnaryOperator" style="stroke:#181818;stroke-width:1.0;"/><polygon fill="none" points="78.5,58.26,72.5,76.26,84.5,76.26,78.5,58.26" style="stroke:#181818;stroke-width:1.0;"/></g><!--SRC=[oymhIIrAIqnELN0hpKikoSpFimdHKGYnuyg4IuJc9HPL-XUa5YMMv1VPXDWff5QKfEQb5CDr0000]--></g></svg>