<?xml version="1.0" encoding="us-ascii" standalone="no"?><svg xmlns="http://www.w3.org/2000/svg" xmlns:xlink="http://www.w3.org/1999/xlink" contentStyleType="text/css" height="433px" preserveAspectRatio="none" style="width:313px;height:433px;background:#FFFFFF;" version="1.1" viewBox="0 0 313 433" width="313px" zoomAndPan="magnify"><defs/><g><!--class Collection--><g id="elem_Collection"><rect codeLine="1" fill="#F1F1F1" height="48" id="Collection" rx="2.5" ry="2.5" style="stroke:#181818;stroke-width:0.5;" width="112" x="13" y="10"/><ellipse cx="28" cy="26" fill="#B4A7E5" rx="11" ry="11" style="stroke:#181818;stroke-width:1.0;"/><path d="M23.9219,21.7656 L23.9219,19.6094 L31.3125,19.6094 L31.3125,21.7656 L28.8438,21.7656 L28.8438,29.8438 L31.3125,29.8438 L31.3125,32 L23.9219,32 L23.9219,29.8438 L26.3906,29.8438 L26.3906,21.7656 L23.9219,21.7656 Z " fill="#000000"/><text fill="#000000" font-family="sans-serif" font-size="14" font-style="italic" lengthAdjust="spacing" textLength="68" x="42" y="30.8467">Collection</text><rect fill="#FFFFFF" height="15.9688" style="stroke:#181818;stroke-width:1.0;stroke-dasharray:2.0,2.0;" width="10" x="118" y="7"/><text fill="#000000" font-family="sans-serif" font-size="12" font-style="italic" lengthAdjust="spacing" textLength="8" x="119" y="19.1387">E</text><line style="stroke:#181818;stroke-width:0.5;" x1="14" x2="124" y1="42" y2="42"/><line style="stroke:#181818;stroke-width:0.5;" x1="14" x2="124" y1="50" y2="50"/></g><!--class List--><g id="elem_List"><rect codeLine="2" fill="#F1F1F1" height="48" id="List" rx="2.5" ry="2.5" style="stroke:#181818;stroke-width:0.5;" width="67" x="35.5" y="118"/><ellipse cx="50.5" cy="134" fill="#B4A7E5" rx="11" ry="11" style="stroke:#181818;stroke-width:1.0;"/><path d="M46.4219,129.7656 L46.4219,127.6094 L53.8125,127.6094 L53.8125,129.7656 L51.3438,129.7656 L51.3438,137.8438 L53.8125,137.8438 L53.8125,140 L46.4219,140 L46.4219,137.8438 L48.8906,137.8438 L48.8906,129.7656 L46.4219,129.7656 Z " fill="#000000"/><text fill="#000000" font-family="sans-serif" font-size="14" font-style="italic" lengthAdjust="spacing" textLength="23" x="64.5" y="138.8467">List</text><rect fill="#FFFFFF" height="15.9688" style="stroke:#181818;stroke-width:1.0;stroke-dasharray:2.0,2.0;" width="10" x="95.5" y="115"/><text fill="#000000" font-family="sans-serif" font-size="12" font-style="italic" lengthAdjust="spacing" textLength="8" x="96.5" y="127.1387">E</text><line style="stroke:#181818;stroke-width:0.5;" x1="36.5" x2="101.5" y1="150" y2="150"/><line style="stroke:#181818;stroke-width:0.5;" x1="36.5" x2="101.5" y1="158" y2="158"/></g><!--class AbstractList--><g id="elem_AbstractList"><rect codeLine="3" fill="#F1F1F1" height="48" id="AbstractList" rx="2.5" ry="2.5" style="stroke:#181818;stroke-width:0.5;" width="124" x="7" y="226"/><ellipse cx="22" cy="242" fill="#A9DCDF" rx="11" ry="11" style="stroke:#181818;stroke-width:1.0;"/><path d="M22.1094,237.3438 L20.9531,242.4219 L23.2813,242.4219 L22.1094,237.3438 Z M20.625,235.1094 L23.6094,235.1094 L26.9688,247.5 L24.5156,247.5 L23.75,244.4375 L20.4688,244.4375 L19.7188,247.5 L17.2813,247.5 L20.625,235.1094 Z " fill="#000000"/><text fill="#000000" font-family="sans-serif" font-size="14" font-style="italic" lengthAdjust="spacing" textLength="80" x="36" y="246.8467">AbstractList</text><rect fill="#FFFFFF" height="15.9688" style="stroke:#181818;stroke-width:1.0;stroke-dasharray:2.0,2.0;" width="10" x="124" y="223"/><text fill="#000000" font-family="sans-serif" font-size="12" font-style="italic" lengthAdjust="spacing" textLength="8" x="125" y="235.1387">E</text><line style="stroke:#181818;stroke-width:0.5;" x1="8" x2="130" y1="258" y2="258"/><line style="stroke:#181818;stroke-width:0.5;" x1="8" x2="130" y1="266" y2="266"/></g><!--class ArrayList--><g id="elem_ArrayList"><rect codeLine="4" fill="#F1F1F1" height="92.8906" id="ArrayList" rx="2.5" ry="2.5" style="stroke:#181818;stroke-width:0.5;" width="225" x="39.5" y="334"/><ellipse cx="113.25" cy="350" fill="#ADD1B2" rx="11" ry="11" style="stroke:#181818;stroke-width:1.0;"/><path d="M116.2188,355.6406 Q115.6406,355.9375 115,356.0781 Q114.3594,356.2344 113.6563,356.2344 Q111.1563,356.2344 109.8281,354.5938 Q108.5156,352.9375 108.5156,349.8125 Q108.5156,346.6875 109.8281,345.0313 Q111.1563,343.375 113.6563,343.375 Q114.3594,343.375 115,343.5313 Q115.6563,343.6875 116.2188,343.9844 L116.2188,346.7031 Q115.5938,346.125 115,345.8594 Q114.4063,345.5781 113.7813,345.5781 Q112.4375,345.5781 111.75,346.6563 Q111.0625,347.7188 111.0625,349.8125 Q111.0625,351.9063 111.75,352.9844 Q112.4375,354.0469 113.7813,354.0469 Q114.4063,354.0469 115,353.7813 Q115.5938,353.5 116.2188,352.9219 L116.2188,355.6406 Z " fill="#000000"/><text fill="#000000" font-family="sans-serif" font-size="14" lengthAdjust="spacing" textLength="57" x="133.75" y="354.8467">ArrayList</text><rect fill="#FFFFFF" height="15.9688" style="stroke:#181818;stroke-width:1.0;stroke-dasharray:2.0,2.0;" width="10" x="257.5" y="331"/><text fill="#000000" font-family="sans-serif" font-size="12" font-style="italic" lengthAdjust="spacing" textLength="8" x="258.5" y="343.1387">E</text><line style="stroke:#181818;stroke-width:0.5;" x1="40.5" x2="263.5" y1="366" y2="366"/><text fill="#000000" font-family="sans-serif" font-size="14" lengthAdjust="spacing" textLength="213" x="45.5" y="403.292">transient Object[] elementData</text><text fill="#000000" font-family="sans-serif" font-size="14" lengthAdjust="spacing" textLength="99" x="45.5" y="419.5889">private int size</text><line style="stroke:#181818;stroke-width:1.0;stroke-dasharray:1.0,2.0;" x1="40.5" x2="101.5" y1="382.1484" y2="382.1484"/><text fill="#000000" font-family="sans-serif" font-size="14" lengthAdjust="spacing" textLength="101" x="101.5" y="386.4951">fixed size array</text><line style="stroke:#181818;stroke-width:1.0;stroke-dasharray:1.0,2.0;" x1="202.5" x2="263.5" y1="382.1484" y2="382.1484"/></g><!--class RandomAccess--><g id="elem_RandomAccess"><rect fill="#F1F1F1" height="48" id="RandomAccess" rx="2.5" ry="2.5" style="stroke:#181818;stroke-width:0.5;" width="140" x="166" y="226"/><ellipse cx="181" cy="242" fill="#B4A7E5" rx="11" ry="11" style="stroke:#181818;stroke-width:1.0;"/><path d="M176.9219,237.7656 L176.9219,235.6094 L184.3125,235.6094 L184.3125,237.7656 L181.8438,237.7656 L181.8438,245.8438 L184.3125,245.8438 L184.3125,248 L176.9219,248 L176.9219,245.8438 L179.3906,245.8438 L179.3906,237.7656 L176.9219,237.7656 Z " fill="#000000"/><text fill="#000000" font-family="sans-serif" font-size="14" font-style="italic" lengthAdjust="spacing" textLength="108" x="195" y="246.8467">RandomAccess</text><line style="stroke:#181818;stroke-width:0.5;" x1="167" x2="305" y1="258" y2="258"/><line style="stroke:#181818;stroke-width:0.5;" x1="167" x2="305" y1="266" y2="266"/></g><!--reverse link Collection to List--><g id="link_Collection_List"><path d="M69,76.26 C69,93.93 69,100.13 69,117.79 " fill="none" id="Collection-backto-List" style="stroke:#181818;stroke-width:1.0;"/><polygon fill="none" points="69,58.26,63,76.26,75,76.26,69,58.26" style="stroke:#181818;stroke-width:1.0;"/></g><!--reverse link List to AbstractList--><g id="link_List_AbstractList"><path d="M69,184.26 C69,201.93 69,208.13 69,225.79 " fill="none" id="List-backto-AbstractList" style="stroke:#181818;stroke-width:1.0;stroke-dasharray:7.0,7.0;"/><polygon fill="none" points="69,166.26,63,184.26,75,184.26,69,166.26" style="stroke:#181818;stroke-width:1.0;"/></g><!--reverse link AbstractList to ArrayList--><g id="link_AbstractList_ArrayList"><path d="M93.7987,289.3786 C104.4987,305.9386 109.45,313.6 122.46,333.74 " fill="none" id="AbstractList-backto-ArrayList" style="stroke:#181818;stroke-width:1.0;"/><polygon fill="none" points="84.03,274.26,88.7591,292.6349,98.8382,286.1224,84.03,274.26" style="stroke:#181818;stroke-width:1.0;"/></g><!--reverse link RandomAccess to ArrayList--><g id="link_RandomAccess_ArrayList"><path d="M210.938,289.3245 C200.108,305.8845 195.06,313.6 181.89,333.74 " fill="none" id="RandomAccess-backto-ArrayList" style="stroke:#181818;stroke-width:1.0;stroke-dasharray:7.0,7.0;"/><polygon fill="none" points="220.79,274.26,205.9165,286.0405,215.9595,292.6085,220.79,274.26" style="stroke:#181818;stroke-width:1.0;"/></g><!--SRC=[NOzD2i9034RtSugSe2SGeQWxGN0hBjAP52BpKoP1gkBTZRLASPalttiad9LgZvvWKs8ahrpoQhTs_CltB6e9qAYKWonw3ZlHYbx1HnI1TXw_1ASXKgAiCadStAeLR__I9RhaZfX3IQttPEJ30JGDz3nI0E4x0RvTbjd2y2ni41owYzrtEWDzB5jKjC9G-OfAO9zDi7k-0000]--></g></svg>