<?xml version="1.0" encoding="us-ascii" standalone="no"?><svg xmlns="http://www.w3.org/2000/svg" xmlns:xlink="http://www.w3.org/1999/xlink" contentStyleType="text/css" height="428px" preserveAspectRatio="none" style="width:486px;height:428px;background:#FFFFFF;" version="1.1" viewBox="0 0 486 428" width="486px" zoomAndPan="magnify"><defs/><g><!--class Throwable--><g id="elem_Throwable"><rect codeLine="1" fill="#F1F1F1" height="113.1875" id="Throwable" rx="2.5" ry="2.5" style="stroke:#181818;stroke-width:0.5;" width="236" x="42.5" y="7"/><ellipse cx="120.25" cy="23" fill="#ADD1B2" rx="11" ry="11" style="stroke:#181818;stroke-width:1.0;"/><path d="M123.2188,28.6406 Q122.6406,28.9375 122,29.0781 Q121.3594,29.2344 120.6563,29.2344 Q118.1563,29.2344 116.8281,27.5938 Q115.5156,25.9375 115.5156,22.8125 Q115.5156,19.6875 116.8281,18.0313 Q118.1563,16.375 120.6563,16.375 Q121.3594,16.375 122,16.5313 Q122.6563,16.6875 123.2188,16.9844 L123.2188,19.7031 Q122.5938,19.125 122,18.8594 Q121.4063,18.5781 120.7813,18.5781 Q119.4375,18.5781 118.75,19.6563 Q118.0625,20.7188 118.0625,22.8125 Q118.0625,24.9063 118.75,25.9844 Q119.4375,27.0469 120.7813,27.0469 Q121.4063,27.0469 122,26.7813 Q122.5938,26.5 123.2188,25.9219 L123.2188,28.6406 Z " fill="#000000"/><text fill="#000000" font-family="sans-serif" font-size="14" lengthAdjust="spacing" textLength="72" x="140.75" y="27.8467">Throwable</text><line style="stroke:#181818;stroke-width:0.5;" x1="43.5" x2="277.5" y1="39" y2="39"/><text fill="#000000" font-family="sans-serif" font-size="14" lengthAdjust="spacing" textLength="182" x="48.5" y="55.9951">transient Object backtrace</text><text fill="#000000" font-family="sans-serif" font-size="14" lengthAdjust="spacing" textLength="144" x="48.5" y="72.292">String detailMessage</text><text fill="#000000" font-family="sans-serif" font-size="14" lengthAdjust="spacing" textLength="118" x="48.5" y="88.5889">Throwable cause</text><text fill="#000000" font-family="sans-serif" font-size="14" lengthAdjust="spacing" textLength="224" x="48.5" y="104.8857">StackTraceElement[] stackTrace</text><line style="stroke:#181818;stroke-width:0.5;" x1="43.5" x2="277.5" y1="112.1875" y2="112.1875"/></g><!--class StackTraceElement--><g id="elem_StackTraceElement"><rect codeLine="8" fill="#F1F1F1" height="113.1875" id="StackTraceElement" rx="2.5" ry="2.5" style="stroke:#181818;stroke-width:0.5;" width="166" x="313.5" y="7"/><ellipse cx="328.5" cy="23" fill="#ADD1B2" rx="11" ry="11" style="stroke:#181818;stroke-width:1.0;"/><path d="M331.4688,28.6406 Q330.8906,28.9375 330.25,29.0781 Q329.6094,29.2344 328.9063,29.2344 Q326.4063,29.2344 325.0781,27.5938 Q323.7656,25.9375 323.7656,22.8125 Q323.7656,19.6875 325.0781,18.0313 Q326.4063,16.375 328.9063,16.375 Q329.6094,16.375 330.25,16.5313 Q330.9063,16.6875 331.4688,16.9844 L331.4688,19.7031 Q330.8438,19.125 330.25,18.8594 Q329.6563,18.5781 329.0313,18.5781 Q327.6875,18.5781 327,19.6563 Q326.3125,20.7188 326.3125,22.8125 Q326.3125,24.9063 327,25.9844 Q327.6875,27.0469 329.0313,27.0469 Q329.6563,27.0469 330.25,26.7813 Q330.8438,26.5 331.4688,25.9219 L331.4688,28.6406 Z " fill="#000000"/><text fill="#000000" font-family="sans-serif" font-size="14" lengthAdjust="spacing" textLength="134" x="342.5" y="27.8467">StackTraceElement</text><line style="stroke:#181818;stroke-width:0.5;" x1="314.5" x2="478.5" y1="39" y2="39"/><text fill="#000000" font-family="sans-serif" font-size="14" lengthAdjust="spacing" textLength="144" x="319.5" y="55.9951">String declaringClass</text><text fill="#000000" font-family="sans-serif" font-size="14" lengthAdjust="spacing" textLength="138" x="319.5" y="72.292">String methodName</text><text fill="#000000" font-family="sans-serif" font-size="14" lengthAdjust="spacing" textLength="103" x="319.5" y="88.5889">String fileName</text><text fill="#000000" font-family="sans-serif" font-size="14" lengthAdjust="spacing" textLength="112" x="319.5" y="104.8857">int    lineNumber</text><line style="stroke:#181818;stroke-width:0.5;" x1="314.5" x2="478.5" y1="112.1875" y2="112.1875"/></g><!--class Exception--><g id="elem_Exception"><rect codeLine="14" fill="#F1F1F1" height="48" id="Exception" rx="2.5" ry="2.5" style="stroke:#181818;stroke-width:0.5;" width="100" x="48.5" y="180.19"/><ellipse cx="63.5" cy="196.19" fill="#ADD1B2" rx="11" ry="11" style="stroke:#181818;stroke-width:1.0;"/><path d="M66.4688,201.8306 Q65.8906,202.1275 65.25,202.2681 Q64.6094,202.4244 63.9063,202.4244 Q61.4063,202.4244 60.0781,200.7838 Q58.7656,199.1275 58.7656,196.0025 Q58.7656,192.8775 60.0781,191.2213 Q61.4063,189.565 63.9063,189.565 Q64.6094,189.565 65.25,189.7213 Q65.9063,189.8775 66.4688,190.1744 L66.4688,192.8931 Q65.8438,192.315 65.25,192.0494 Q64.6563,191.7681 64.0313,191.7681 Q62.6875,191.7681 62,192.8463 Q61.3125,193.9088 61.3125,196.0025 Q61.3125,198.0963 62,199.1744 Q62.6875,200.2369 64.0313,200.2369 Q64.6563,200.2369 65.25,199.9713 Q65.8438,199.69 66.4688,199.1119 L66.4688,201.8306 Z " fill="#000000"/><text fill="#000000" font-family="sans-serif" font-size="14" lengthAdjust="spacing" textLength="68" x="77.5" y="201.0367">Exception</text><line style="stroke:#181818;stroke-width:0.5;" x1="49.5" x2="147.5" y1="212.19" y2="212.19"/><line style="stroke:#181818;stroke-width:0.5;" x1="49.5" x2="147.5" y1="220.19" y2="220.19"/></g><!--class Error--><g id="elem_Error"><rect codeLine="15" fill="#F1F1F1" height="48" id="Error" rx="2.5" ry="2.5" style="stroke:#181818;stroke-width:0.5;" width="65" x="201" y="288.19"/><ellipse cx="216" cy="304.19" fill="#ADD1B2" rx="11" ry="11" style="stroke:#181818;stroke-width:1.0;"/><path d="M218.9688,309.8306 Q218.3906,310.1275 217.75,310.2681 Q217.1094,310.4244 216.4063,310.4244 Q213.9063,310.4244 212.5781,308.7838 Q211.2656,307.1275 211.2656,304.0025 Q211.2656,300.8775 212.5781,299.2213 Q213.9063,297.565 216.4063,297.565 Q217.1094,297.565 217.75,297.7213 Q218.4063,297.8775 218.9688,298.1744 L218.9688,300.8931 Q218.3438,300.315 217.75,300.0494 Q217.1563,299.7681 216.5313,299.7681 Q215.1875,299.7681 214.5,300.8463 Q213.8125,301.9088 213.8125,304.0025 Q213.8125,306.0963 214.5,307.1744 Q215.1875,308.2369 216.5313,308.2369 Q217.1563,308.2369 217.75,307.9713 Q218.3438,307.69 218.9688,307.1119 L218.9688,309.8306 Z " fill="#000000"/><text fill="#000000" font-family="sans-serif" font-size="14" lengthAdjust="spacing" textLength="33" x="230" y="309.0367">Error</text><line style="stroke:#181818;stroke-width:0.5;" x1="202" x2="265" y1="320.19" y2="320.19"/><line style="stroke:#181818;stroke-width:0.5;" x1="202" x2="265" y1="328.19" y2="328.19"/></g><!--class RuntimeException--><g id="elem_RuntimeException"><rect codeLine="16" fill="#F1F1F1" height="48" id="RuntimeException" rx="2.5" ry="2.5" style="stroke:#181818;stroke-width:0.5;" width="158" x="8.5" y="288.19"/><ellipse cx="23.5" cy="304.19" fill="#ADD1B2" rx="11" ry="11" style="stroke:#181818;stroke-width:1.0;"/><path d="M26.4688,309.8306 Q25.8906,310.1275 25.25,310.2681 Q24.6094,310.4244 23.9063,310.4244 Q21.4063,310.4244 20.0781,308.7838 Q18.7656,307.1275 18.7656,304.0025 Q18.7656,300.8775 20.0781,299.2213 Q21.4063,297.565 23.9063,297.565 Q24.6094,297.565 25.25,297.7213 Q25.9063,297.8775 26.4688,298.1744 L26.4688,300.8931 Q25.8438,300.315 25.25,300.0494 Q24.6563,299.7681 24.0313,299.7681 Q22.6875,299.7681 22,300.8463 Q21.3125,301.9088 21.3125,304.0025 Q21.3125,306.0963 22,307.1744 Q22.6875,308.2369 24.0313,308.2369 Q24.6563,308.2369 25.25,307.9713 Q25.8438,307.69 26.4688,307.1119 L26.4688,309.8306 Z " fill="#000000"/><text fill="#000000" font-family="sans-serif" font-size="14" lengthAdjust="spacing" textLength="126" x="37.5" y="309.0367">RuntimeException</text><line style="stroke:#181818;stroke-width:0.5;" x1="9.5" x2="165.5" y1="320.19" y2="320.19"/><line style="stroke:#181818;stroke-width:0.5;" x1="9.5" x2="165.5" y1="328.19" y2="328.19"/></g><g id="elem_nce"><path d="M152,396.19 L152,421.3228 L315,421.3228 L315,406.19 L305,396.19 L152,396.19 " fill="#FEFFDD" style="stroke:#181818;stroke-width:0.5;"/><path d="M305,396.19 L305,406.19 L315,406.19 L305,396.19 " fill="#FEFFDD" style="stroke:#181818;stroke-width:1.0;"/><text fill="#000000" font-family="sans-serif" font-size="13" lengthAdjust="spacing" textLength="142" x="158" y="413.2569">unchecked exceptions</text></g><g id="elem_bug"><path d="M6,396.19 L6,421.3228 A0,0 0 0 0 6,421.3228 L117,421.3228 A0,0 0 0 0 117,421.3228 L117,406.19 L107,396.19 L68.77,396.19 L81.07,336.56 L60.77,396.19 L6,396.19 A0,0 0 0 0 6,396.19 " fill="#FEFFDD" style="stroke:#181818;stroke-width:0.5;"/><path d="M107,396.19 L107,406.19 L117,406.19 L107,396.19 " fill="#FEFFDD" style="stroke:#181818;stroke-width:0.5;"/><text fill="#000000" font-family="sans-serif" font-size="13" lengthAdjust="spacing" textLength="90" x="12" y="413.2569">indicate bugs!</text></g><!--reverse link Throwable to StackTraceElement--><g id="link_Throwable_StackTraceElement"><path codeLine="7" d="M290.96,63.59 C302.44,63.59 301.92,63.59 313.4,63.59 " fill="none" id="Throwable-backto-StackTraceElement" style="stroke:#181818;stroke-width:1.0;"/><polygon fill="#181818" points="278.96,63.59,284.96,67.59,290.96,63.59,284.96,59.59,278.96,63.59" style="stroke:#181818;stroke-width:1.0;"/></g><!--reverse link Throwable to Exception--><g id="link_Throwable_Exception"><path d="M128.112,137.0019 C118.842,157.7319 116.17,163.69 108.91,179.92 " fill="none" id="Throwable-backto-Exception" style="stroke:#181818;stroke-width:1.0;"/><polygon fill="none" points="135.46,120.57,122.6347,134.5526,133.5893,139.4512,135.46,120.57" style="stroke:#181818;stroke-width:1.0;"/></g><!--reverse link Throwable to Error--><g id="link_Throwable_Error"><path d="M182.1704,137.8093 C197.7804,190.5293 215.29,249.68 226.57,287.77 " fill="none" id="Throwable-backto-Error" style="stroke:#181818;stroke-width:1.0;"/><polygon fill="none" points="177.06,120.55,176.4172,139.5128,187.9235,136.1059,177.06,120.55" style="stroke:#181818;stroke-width:1.0;"/></g><!--reverse link Exception to RuntimeException--><g id="link_Exception_RuntimeException"><path d="M94.2257,246.3532 C92.3857,264.0232 91.74,270.32 89.91,287.98 " fill="none" id="Exception-backto-RuntimeException" style="stroke:#181818;stroke-width:1.0;"/><polygon fill="none" points="96.09,228.45,88.258,245.7318,100.1934,246.9746,96.09,228.45" style="stroke:#181818;stroke-width:1.0;"/></g><!--link Error to nce--><g id="link_Error_nce"><path codeLine="19" d="M233.5,336.56 C233.5,355.38 233.5,381.05 233.5,395.87 " fill="none" id="Error-nce" style="stroke:#181818;stroke-width:1.0;stroke-dasharray:7.0,7.0;"/></g><!--link RuntimeException to nce--><g id="link_RuntimeException_nce"><path codeLine="20" d="M123.59,336.56 C152.64,355.38 192.27,381.05 215.15,395.87 " fill="none" id="RuntimeException-nce" style="stroke:#181818;stroke-width:1.0;stroke-dasharray:7.0,7.0;"/></g><!--SRC=[TP3DJWCn38JlUGhJ8rBx4gX7YWIz8GxvCRkcMQTA756fwhlZ_M6tqa9EpkUPoIW-sbBWsERqRLr4k1e0oPOB8Gkyk2_q0ixwaqAFkdoJJDn0GB4Kdx4Ks_HuIV2sbb6ehcFlsaViDEtz0yhCpCqibiTjfgQLxTfZ_D1lnOUUSnKLzTDJhrruXzAcSB3TNUrFYZWHqXGzaHWFjNEOjTBuslxYyIoK6F0YoE7kVtuLEQVyx_Qrib27wvYP6CD943QLVOl-X44bqwfim1PW_Q7naTrkkAmo9pu54GVoLYTNc_8mHEZqfqlv3m00]--></g></svg>