<?xml version="1.0" encoding="us-ascii" standalone="no"?><svg xmlns="http://www.w3.org/2000/svg" xmlns:xlink="http://www.w3.org/1999/xlink" contentStyleType="text/css" height="483px" preserveAspectRatio="none" style="width:644px;height:483px;background:#FFFFFF;" version="1.1" viewBox="0 0 644 483" width="644px" zoomAndPan="magnify"><defs/><g><!--class ReentrantLock--><g id="elem_ReentrantLock"><rect codeLine="1" fill="#F1F1F1" height="64.2969" id="ReentrantLock" rx="2.5" ry="2.5" style="stroke:#181818;stroke-width:0.5;" width="133" x="7" y="296.33"/><ellipse cx="22" cy="312.33" fill="#ADD1B2" rx="11" ry="11" style="stroke:#181818;stroke-width:1.0;"/><path d="M24.9688,317.9706 Q24.3906,318.2675 23.75,318.4081 Q23.1094,318.5644 22.4063,318.5644 Q19.9063,318.5644 18.5781,316.9238 Q17.2656,315.2675 17.2656,312.1425 Q17.2656,309.0175 18.5781,307.3613 Q19.9063,305.705 22.4063,305.705 Q23.1094,305.705 23.75,305.8613 Q24.4063,306.0175 24.9688,306.3144 L24.9688,309.0331 Q24.3438,308.455 23.75,308.1894 Q23.1563,307.9081 22.5313,307.9081 Q21.1875,307.9081 20.5,308.9863 Q19.8125,310.0488 19.8125,312.1425 Q19.8125,314.2363 20.5,315.3144 Q21.1875,316.3769 22.5313,316.3769 Q23.1563,316.3769 23.75,316.1113 Q24.3438,315.83 24.9688,315.2519 L24.9688,317.9706 Z " fill="#000000"/><text fill="#000000" font-family="sans-serif" font-size="14" lengthAdjust="spacing" textLength="101" x="36" y="317.1767">ReentrantLock</text><line style="stroke:#181818;stroke-width:0.5;" x1="8" x2="139" y1="328.33" y2="328.33"/><text fill="#000000" font-family="sans-serif" font-size="14" lengthAdjust="spacing" textLength="100" x="13" y="345.3251">final Sync sync</text><line style="stroke:#181818;stroke-width:0.5;" x1="8" x2="139" y1="352.6269" y2="352.6269"/></g><!--class Lock--><g id="elem_Lock"><rect fill="#F1F1F1" height="48" id="Lock" rx="2.5" ry="2.5" style="stroke:#181818;stroke-width:0.5;" width="64" x="41.5" y="155.74"/><ellipse cx="56.5" cy="171.74" fill="#B4A7E5" rx="11" ry="11" style="stroke:#181818;stroke-width:1.0;"/><path d="M52.4219,167.5056 L52.4219,165.3494 L59.8125,165.3494 L59.8125,167.5056 L57.3438,167.5056 L57.3438,175.5837 L59.8125,175.5837 L59.8125,177.74 L52.4219,177.74 L52.4219,175.5837 L54.8906,175.5837 L54.8906,167.5056 L52.4219,167.5056 Z " fill="#000000"/><text fill="#000000" font-family="sans-serif" font-size="14" font-style="italic" lengthAdjust="spacing" textLength="32" x="70.5" y="176.5867">Lock</text><line style="stroke:#181818;stroke-width:0.5;" x1="42.5" x2="104.5" y1="187.74" y2="187.74"/><line style="stroke:#181818;stroke-width:0.5;" x1="42.5" x2="104.5" y1="195.74" y2="195.74"/></g><!--class AbstractOwnableSynchronizer--><g id="elem_AbstractOwnableSynchronizer"><rect codeLine="4" fill="#F1F1F1" height="64.2969" id="AbstractOwnableSynchronizer" rx="2.5" ry="2.5" style="stroke:#181818;stroke-width:0.5;" width="287" x="195" y="7"/><ellipse cx="231.6" cy="23" fill="#A9DCDF" rx="11" ry="11" style="stroke:#181818;stroke-width:1.0;"/><path d="M231.7094,18.3438 L230.5531,23.4219 L232.8813,23.4219 L231.7094,18.3438 Z M230.225,16.1094 L233.2094,16.1094 L236.5688,28.5 L234.1156,28.5 L233.35,25.4375 L230.0688,25.4375 L229.3188,28.5 L226.8813,28.5 L230.225,16.1094 Z " fill="#000000"/><text fill="#000000" font-family="sans-serif" font-size="14" font-style="italic" lengthAdjust="spacing" textLength="207" x="250.4" y="27.8467">AbstractOwnableSynchronizer</text><line style="stroke:#181818;stroke-width:0.5;" x1="196" x2="481" y1="39" y2="39"/><text fill="#000000" font-family="sans-serif" font-size="14" lengthAdjust="spacing" textLength="275" x="201" y="55.9951">transient Thread exclusiveOwnerThread</text><line style="stroke:#181818;stroke-width:0.5;" x1="196" x2="481" y1="63.2969" y2="63.2969"/></g><!--class AbstractQueuedSynchronizer--><g id="elem_AbstractQueuedSynchronizer"><rect codeLine="7" fill="#F1F1F1" height="96.8906" id="AbstractQueuedSynchronizer" rx="2.5" ry="2.5" style="stroke:#181818;stroke-width:0.5;" width="235" x="221" y="131.3"/><ellipse cx="236" cy="147.3" fill="#A9DCDF" rx="11" ry="11" style="stroke:#181818;stroke-width:1.0;"/><path d="M236.1094,142.6437 L234.9531,147.7219 L237.2813,147.7219 L236.1094,142.6437 Z M234.625,140.4094 L237.6094,140.4094 L240.9688,152.8 L238.5156,152.8 L237.75,149.7375 L234.4688,149.7375 L233.7188,152.8 L231.2813,152.8 L234.625,140.4094 Z " fill="#000000"/><text fill="#000000" font-family="sans-serif" font-size="14" font-style="italic" lengthAdjust="spacing" textLength="203" x="250" y="152.1467">AbstractQueuedSynchronizer</text><line style="stroke:#181818;stroke-width:0.5;" x1="222" x2="455" y1="163.3" y2="163.3"/><text fill="#000000" font-family="sans-serif" font-size="14" lengthAdjust="spacing" textLength="192" x="227" y="180.2951">transient volatile Node head</text><text fill="#000000" font-family="sans-serif" font-size="14" lengthAdjust="spacing" textLength="176" x="227" y="196.592">transient volatile Node tail</text><text fill="#000000" font-family="sans-serif" font-size="14" lengthAdjust="spacing" textLength="107" x="227" y="212.8889">volatile int state</text><line style="stroke:#181818;stroke-width:0.5;" x1="222" x2="455" y1="220.1906" y2="220.1906"/></g><!--class Node--><g id="elem_Node"><rect codeLine="12" fill="#F1F1F1" height="80.5938" id="Node" rx="2.5" ry="2.5" style="stroke:#181818;stroke-width:0.5;" width="134" x="351.5" y="288.19"/><ellipse cx="395.75" cy="304.19" fill="#ADD1B2" rx="11" ry="11" style="stroke:#181818;stroke-width:1.0;"/><path d="M398.7188,309.8306 Q398.1406,310.1275 397.5,310.2681 Q396.8594,310.4244 396.1563,310.4244 Q393.6563,310.4244 392.3281,308.7837 Q391.0156,307.1275 391.0156,304.0025 Q391.0156,300.8775 392.3281,299.2212 Q393.6563,297.565 396.1563,297.565 Q396.8594,297.565 397.5,297.7212 Q398.1563,297.8775 398.7188,298.1744 L398.7188,300.8931 Q398.0938,300.315 397.5,300.0494 Q396.9063,299.7681 396.2813,299.7681 Q394.9375,299.7681 394.25,300.8462 Q393.5625,301.9087 393.5625,304.0025 Q393.5625,306.0962 394.25,307.1744 Q394.9375,308.2369 396.2813,308.2369 Q396.9063,308.2369 397.5,307.9712 Q398.0938,307.69 398.7188,307.1119 L398.7188,309.8306 Z " fill="#000000"/><text fill="#000000" font-family="sans-serif" font-size="14" lengthAdjust="spacing" textLength="37" x="416.25" y="309.0367">Node</text><line style="stroke:#181818;stroke-width:0.5;" x1="352.5" x2="484.5" y1="320.19" y2="320.19"/><text fill="#000000" font-family="sans-serif" font-size="14" lengthAdjust="spacing" textLength="122" x="357.5" y="337.1851">volatile Node prev</text><text fill="#000000" font-family="sans-serif" font-size="14" lengthAdjust="spacing" textLength="122" x="357.5" y="353.482">volatile Node next</text><line style="stroke:#181818;stroke-width:0.5;" x1="352.5" x2="484.5" y1="360.7837" y2="360.7837"/></g><!--class Sync--><g id="elem_Sync"><rect codeLine="17" fill="#F1F1F1" height="64.2969" id="Sync" rx="2.5" ry="2.5" style="stroke:#181818;stroke-width:0.5;" width="142" x="174.5" y="296.33"/><ellipse cx="224.75" cy="312.33" fill="#A9DCDF" rx="11" ry="11" style="stroke:#181818;stroke-width:1.0;"/><path d="M224.8594,307.6738 L223.7031,312.7519 L226.0313,312.7519 L224.8594,307.6738 Z M223.375,305.4394 L226.3594,305.4394 L229.7188,317.83 L227.2656,317.83 L226.5,314.7675 L223.2188,314.7675 L222.4688,317.83 L220.0313,317.83 L223.375,305.4394 Z " fill="#000000"/><text fill="#000000" font-family="sans-serif" font-size="14" font-style="italic" lengthAdjust="spacing" textLength="33" x="245.25" y="317.1767">Sync</text><line style="stroke:#181818;stroke-width:0.5;" x1="175.5" x2="315.5" y1="328.33" y2="328.33"/><line style="stroke:#181818;stroke-width:0.5;" x1="175.5" x2="315.5" y1="336.33" y2="336.33"/><text fill="#000000" font-family="sans-serif" font-size="14" lengthAdjust="spacing" textLength="130" x="180.5" y="353.3251">abstract void lock()</text></g><!--class FairSync--><g id="elem_FairSync"><rect codeLine="20" fill="#F1F1F1" height="48" id="FairSync" rx="2.5" ry="2.5" style="stroke:#181818;stroke-width:0.5;" width="89" x="133" y="428.78"/><ellipse cx="148" cy="444.78" fill="#ADD1B2" rx="11" ry="11" style="stroke:#181818;stroke-width:1.0;"/><path d="M150.9688,450.4206 Q150.3906,450.7175 149.75,450.8581 Q149.1094,451.0144 148.4063,451.0144 Q145.9063,451.0144 144.5781,449.3738 Q143.2656,447.7175 143.2656,444.5925 Q143.2656,441.4675 144.5781,439.8113 Q145.9063,438.155 148.4063,438.155 Q149.1094,438.155 149.75,438.3113 Q150.4063,438.4675 150.9688,438.7644 L150.9688,441.4831 Q150.3438,440.905 149.75,440.6394 Q149.1563,440.3581 148.5313,440.3581 Q147.1875,440.3581 146.5,441.4363 Q145.8125,442.4988 145.8125,444.5925 Q145.8125,446.6863 146.5,447.7644 Q147.1875,448.8269 148.5313,448.8269 Q149.1563,448.8269 149.75,448.5613 Q150.3438,448.28 150.9688,447.7019 L150.9688,450.4206 Z " fill="#000000"/><text fill="#000000" font-family="sans-serif" font-size="14" lengthAdjust="spacing" textLength="57" x="162" y="449.6267">FairSync</text><line style="stroke:#181818;stroke-width:0.5;" x1="134" x2="221" y1="460.78" y2="460.78"/><line style="stroke:#181818;stroke-width:0.5;" x1="134" x2="221" y1="468.78" y2="468.78"/></g><!--class NonfairSync--><g id="elem_NonfairSync"><rect codeLine="21" fill="#F1F1F1" height="48" id="NonfairSync" rx="2.5" ry="2.5" style="stroke:#181818;stroke-width:0.5;" width="113" x="257" y="428.78"/><ellipse cx="272" cy="444.78" fill="#ADD1B2" rx="11" ry="11" style="stroke:#181818;stroke-width:1.0;"/><path d="M274.9688,450.4206 Q274.3906,450.7175 273.75,450.8581 Q273.1094,451.0144 272.4063,451.0144 Q269.9063,451.0144 268.5781,449.3738 Q267.2656,447.7175 267.2656,444.5925 Q267.2656,441.4675 268.5781,439.8113 Q269.9063,438.155 272.4063,438.155 Q273.1094,438.155 273.75,438.3113 Q274.4063,438.4675 274.9688,438.7644 L274.9688,441.4831 Q274.3438,440.905 273.75,440.6394 Q273.1563,440.3581 272.5313,440.3581 Q271.1875,440.3581 270.5,441.4363 Q269.8125,442.4988 269.8125,444.5925 Q269.8125,446.6863 270.5,447.7644 Q271.1875,448.8269 272.5313,448.8269 Q273.1563,448.8269 273.75,448.5613 Q274.3438,448.28 274.9688,447.7019 L274.9688,450.4206 Z " fill="#000000"/><text fill="#000000" font-family="sans-serif" font-size="14" lengthAdjust="spacing" textLength="81" x="286" y="449.6267">NonfairSync</text><line style="stroke:#181818;stroke-width:0.5;" x1="258" x2="369" y1="460.78" y2="460.78"/><line style="stroke:#181818;stroke-width:0.5;" x1="258" x2="369" y1="468.78" y2="468.78"/></g><!--class ConditionObject--><g id="elem_ConditionObject"><rect codeLine="22" fill="#F1F1F1" height="48" id="ConditionObject" rx="2.5" ry="2.5" style="stroke:#181818;stroke-width:0.5;" width="143" x="494" y="155.74"/><ellipse cx="509" cy="171.74" fill="#ADD1B2" rx="11" ry="11" style="stroke:#181818;stroke-width:1.0;"/><path d="M511.9688,177.3806 Q511.3906,177.6775 510.75,177.8181 Q510.1094,177.9744 509.4063,177.9744 Q506.9063,177.9744 505.5781,176.3337 Q504.2656,174.6775 504.2656,171.5525 Q504.2656,168.4275 505.5781,166.7712 Q506.9063,165.115 509.4063,165.115 Q510.1094,165.115 510.75,165.2712 Q511.4063,165.4275 511.9688,165.7244 L511.9688,168.4431 Q511.3438,167.865 510.75,167.5994 Q510.1563,167.3181 509.5313,167.3181 Q508.1875,167.3181 507.5,168.3962 Q506.8125,169.4587 506.8125,171.5525 Q506.8125,173.6462 507.5,174.7244 Q508.1875,175.7869 509.5313,175.7869 Q510.1563,175.7869 510.75,175.5212 Q511.3438,175.24 511.9688,174.6619 L511.9688,177.3806 Z " fill="#000000"/><text fill="#000000" font-family="sans-serif" font-size="14" lengthAdjust="spacing" textLength="111" x="523" y="176.5867">ConditionObject</text><line style="stroke:#181818;stroke-width:0.5;" x1="495" x2="636" y1="187.74" y2="187.74"/><line style="stroke:#181818;stroke-width:0.5;" x1="495" x2="636" y1="195.74" y2="195.74"/></g><!--class Condition--><g id="elem_Condition"><rect fill="#F1F1F1" height="48" id="Condition" rx="2.5" ry="2.5" style="stroke:#181818;stroke-width:0.5;" width="98" x="516.5" y="15.15"/><ellipse cx="531.5" cy="31.15" fill="#B4A7E5" rx="11" ry="11" style="stroke:#181818;stroke-width:1.0;"/><path d="M527.4219,26.9156 L527.4219,24.7594 L534.8125,24.7594 L534.8125,26.9156 L532.3438,26.9156 L532.3438,34.9937 L534.8125,34.9937 L534.8125,37.15 L527.4219,37.15 L527.4219,34.9937 L529.8906,34.9937 L529.8906,26.9156 L527.4219,26.9156 Z " fill="#000000"/><text fill="#000000" font-family="sans-serif" font-size="14" font-style="italic" lengthAdjust="spacing" textLength="66" x="545.5" y="35.9967">Condition</text><line style="stroke:#181818;stroke-width:0.5;" x1="517.5" x2="613.5" y1="47.15" y2="47.15"/><line style="stroke:#181818;stroke-width:0.5;" x1="517.5" x2="613.5" y1="55.15" y2="55.15"/></g><!--reverse link Lock to ReentrantLock--><g id="link_Lock_ReentrantLock"><path d="M73.5,221.99 C73.5,246.8 73.5,268.26 73.5,295.88 " fill="none" id="Lock-backto-ReentrantLock" style="stroke:#181818;stroke-width:1.0;stroke-dasharray:7.0,7.0;"/><polygon fill="none" points="73.5,203.99,67.5,221.99,79.5,221.99,73.5,203.99" style="stroke:#181818;stroke-width:1.0;"/></g><!--reverse link AbstractOwnableSynchronizer to AbstractQueuedSynchronizer--><g id="link_AbstractOwnableSynchronizer_AbstractQueuedSynchronizer"><path d="M338.5,89.6 C338.5,107.09 338.5,111.22 338.5,130.82 " fill="none" id="AbstractOwnableSynchronizer-backto-AbstractQueuedSynchronizer" style="stroke:#181818;stroke-width:1.0;"/><polygon fill="none" points="338.5,71.6,332.5,89.6,344.5,89.6,338.5,71.6" style="stroke:#181818;stroke-width:1.0;"/></g><!--reverse link AbstractQueuedSynchronizer to Node--><g id="link_AbstractQueuedSynchronizer_Node"><path codeLine="16" d="M370.2162,238.9147 C380.7162,258.1647 386.94,269.58 396.94,287.93 " fill="none" id="AbstractQueuedSynchronizer-backto-Node" style="stroke:#181818;stroke-width:1.0;"/><polygon fill="#181818" points="364.47,228.38,363.8315,235.5628,370.2162,238.9147,370.8547,231.732,364.47,228.38" style="stroke:#181818;stroke-width:1.0;"/></g><!--reverse link AbstractQueuedSynchronizer to Sync--><g id="link_AbstractQueuedSynchronizer_Sync"><path d="M298.6732,243.583 C284.5632,265.843 277.8,276.52 265.29,296.25 " fill="none" id="AbstractQueuedSynchronizer-backto-Sync" style="stroke:#181818;stroke-width:1.0;"/><polygon fill="none" points="308.31,228.38,293.6055,240.3708,303.7409,246.7953,308.31,228.38" style="stroke:#181818;stroke-width:1.0;"/></g><!--reverse link Sync to FairSync--><g id="link_Sync_FairSync"><path d="M219.2408,376.7106 C207.5108,397.8006 201.08,409.37 190.44,428.5 " fill="none" id="Sync-backto-FairSync" style="stroke:#181818;stroke-width:1.0;"/><polygon fill="none" points="227.99,360.98,213.9973,373.7942,224.4844,379.627,227.99,360.98" style="stroke:#181818;stroke-width:1.0;"/></g><!--reverse link Sync to NonfairSync--><g id="link_Sync_NonfairSync"><path d="M271.7592,376.7106 C283.4892,397.8006 289.92,409.37 300.56,428.5 " fill="none" id="Sync-backto-NonfairSync" style="stroke:#181818;stroke-width:1.0;"/><polygon fill="none" points="263.01,360.98,266.5156,379.627,277.0027,373.7942,263.01,360.98" style="stroke:#181818;stroke-width:1.0;"/></g><!--reverse link Condition to ConditionObject--><g id="link_Condition_ConditionObject"><path d="M565.5,81.34 C565.5,106.93 565.5,129.85 565.5,155.47 " fill="none" id="Condition-backto-ConditionObject" style="stroke:#181818;stroke-width:1.0;stroke-dasharray:7.0,7.0;"/><polygon fill="none" points="565.5,63.34,559.5,81.34,571.5,81.34,565.5,63.34" style="stroke:#181818;stroke-width:1.0;"/></g><!--reverse link ReentrantLock to Sync--><g id="link_ReentrantLock_Sync"><path codeLine="24" d="M152.35,328.48 C163.58,328.48 162.81,328.48 174.03,328.48 " fill="none" id="ReentrantLock-backto-Sync" style="stroke:#181818;stroke-width:1.0;"/><polygon fill="#181818" points="140.35,328.48,146.35,332.48,152.35,328.48,146.35,324.48,140.35,328.48" style="stroke:#181818;stroke-width:1.0;"/></g><!--SRC=[bLBBJWCn3BpdAtoabVOZ459FY8h73tWJLsj8dIh9BeMAVyT9KTGjj1ANI1xFZCT9hCUKu8b8SaJ9zy6-0MztdhQA9AZrmG1iMD33yuTOI7gOBuDzKedDOAl5xK-vVXViFHNc48Fm9yLgKEmJgocy397G0Usj7nDFf0gAH_2oxUD88xcPA-qpYVlFv2bupEm97e8Z6Ch0o-sCxBNTG5P6ofX9GnwpLThXb5EHNQJf5oYQLeLNrbbsNQMUtq2zy_DT_z2N8D2qKs07Nb_lPj7ohf3ZpAqKRHVPN6dV1N6SESYwVoMrF_aYhMNC_1ijkzXLZsy0]--></g></svg>