<?xml version="1.0" encoding="us-ascii" standalone="no"?><svg xmlns="http://www.w3.org/2000/svg" xmlns:xlink="http://www.w3.org/1999/xlink" contentStyleType="text/css" height="562px" preserveAspectRatio="none" style="width:333px;height:562px;background:#FFFFFF;" version="1.1" viewBox="0 0 333 562" width="333px" zoomAndPan="magnify"><defs/><g><!--class Iterable--><g id="elem_Iterable"><rect codeLine="1" fill="#F1F1F1" height="48" id="Iterable" rx="2.5" ry="2.5" style="stroke:#181818;stroke-width:0.5;" width="94" x="107.5" y="10"/><ellipse cx="122.5" cy="26" fill="#B4A7E5" rx="11" ry="11" style="stroke:#181818;stroke-width:1.0;"/><path d="M118.4219,21.7656 L118.4219,19.6094 L125.8125,19.6094 L125.8125,21.7656 L123.3438,21.7656 L123.3438,29.8438 L125.8125,29.8438 L125.8125,32 L118.4219,32 L118.4219,29.8438 L120.8906,29.8438 L120.8906,21.7656 L118.4219,21.7656 Z " fill="#000000"/><text fill="#000000" font-family="sans-serif" font-size="14" font-style="italic" lengthAdjust="spacing" textLength="51" x="136.5" y="30.8467">Iterable</text><rect fill="#FFFFFF" height="15.9688" style="stroke:#181818;stroke-width:1.0;stroke-dasharray:2.0,2.0;" width="9" x="195.5" y="7"/><text fill="#000000" font-family="sans-serif" font-size="12" font-style="italic" lengthAdjust="spacing" textLength="7" x="196.5" y="19.1387">T</text><line style="stroke:#181818;stroke-width:0.5;" x1="108.5" x2="200.5" y1="42" y2="42"/><line style="stroke:#181818;stroke-width:0.5;" x1="108.5" x2="200.5" y1="50" y2="50"/></g><!--class Collection--><g id="elem_Collection"><rect codeLine="2" fill="#F1F1F1" height="48" id="Collection" rx="2.5" ry="2.5" style="stroke:#181818;stroke-width:0.5;" width="112" x="98.5" y="118"/><ellipse cx="113.5" cy="134" fill="#B4A7E5" rx="11" ry="11" style="stroke:#181818;stroke-width:1.0;"/><path d="M109.4219,129.7656 L109.4219,127.6094 L116.8125,127.6094 L116.8125,129.7656 L114.3438,129.7656 L114.3438,137.8438 L116.8125,137.8438 L116.8125,140 L109.4219,140 L109.4219,137.8438 L111.8906,137.8438 L111.8906,129.7656 L109.4219,129.7656 Z " fill="#000000"/><text fill="#000000" font-family="sans-serif" font-size="14" font-style="italic" lengthAdjust="spacing" textLength="68" x="127.5" y="138.8467">Collection</text><rect fill="#FFFFFF" height="15.9688" style="stroke:#181818;stroke-width:1.0;stroke-dasharray:2.0,2.0;" width="10" x="203.5" y="115"/><text fill="#000000" font-family="sans-serif" font-size="12" font-style="italic" lengthAdjust="spacing" textLength="8" x="204.5" y="127.1387">E</text><line style="stroke:#181818;stroke-width:0.5;" x1="99.5" x2="209.5" y1="150" y2="150"/><line style="stroke:#181818;stroke-width:0.5;" x1="99.5" x2="209.5" y1="158" y2="158"/></g><!--class Queue--><g id="elem_Queue"><rect codeLine="3" fill="#F1F1F1" height="48" id="Queue" rx="2.5" ry="2.5" style="stroke:#181818;stroke-width:0.5;" width="91" x="27" y="226"/><ellipse cx="42" cy="242" fill="#B4A7E5" rx="11" ry="11" style="stroke:#181818;stroke-width:1.0;"/><path d="M37.9219,237.7656 L37.9219,235.6094 L45.3125,235.6094 L45.3125,237.7656 L42.8438,237.7656 L42.8438,245.8438 L45.3125,245.8438 L45.3125,248 L37.9219,248 L37.9219,245.8438 L40.3906,245.8438 L40.3906,237.7656 L37.9219,237.7656 Z " fill="#000000"/><text fill="#000000" font-family="sans-serif" font-size="14" font-style="italic" lengthAdjust="spacing" textLength="47" x="56" y="246.8467">Queue</text><rect fill="#FFFFFF" height="15.9688" style="stroke:#181818;stroke-width:1.0;stroke-dasharray:2.0,2.0;" width="10" x="111" y="223"/><text fill="#000000" font-family="sans-serif" font-size="12" font-style="italic" lengthAdjust="spacing" textLength="8" x="112" y="235.1387">E</text><line style="stroke:#181818;stroke-width:0.5;" x1="28" x2="117" y1="258" y2="258"/><line style="stroke:#181818;stroke-width:0.5;" x1="28" x2="117" y1="266" y2="266"/></g><!--class AbstractCollection--><g id="elem_AbstractCollection"><rect codeLine="4" fill="#F1F1F1" height="48" id="AbstractCollection" rx="2.5" ry="2.5" style="stroke:#181818;stroke-width:0.5;" width="169" x="153" y="226"/><ellipse cx="168" cy="242" fill="#A9DCDF" rx="11" ry="11" style="stroke:#181818;stroke-width:1.0;"/><path d="M168.1094,237.3438 L166.9531,242.4219 L169.2813,242.4219 L168.1094,237.3438 Z M166.625,235.1094 L169.6094,235.1094 L172.9688,247.5 L170.5156,247.5 L169.75,244.4375 L166.4688,244.4375 L165.7188,247.5 L163.2813,247.5 L166.625,235.1094 Z " fill="#000000"/><text fill="#000000" font-family="sans-serif" font-size="14" font-style="italic" lengthAdjust="spacing" textLength="125" x="182" y="246.8467">AbstractCollection</text><rect fill="#FFFFFF" height="15.9688" style="stroke:#181818;stroke-width:1.0;stroke-dasharray:2.0,2.0;" width="10" x="315" y="223"/><text fill="#000000" font-family="sans-serif" font-size="12" font-style="italic" lengthAdjust="spacing" textLength="8" x="316" y="235.1387">E</text><line style="stroke:#181818;stroke-width:0.5;" x1="154" x2="321" y1="258" y2="258"/><line style="stroke:#181818;stroke-width:0.5;" x1="154" x2="321" y1="266" y2="266"/></g><!--class AbstractQueue--><g id="elem_AbstractQueue"><rect codeLine="5" fill="#F1F1F1" height="48" id="AbstractQueue" rx="2.5" ry="2.5" style="stroke:#181818;stroke-width:0.5;" width="148" x="80.5" y="334"/><ellipse cx="95.5" cy="350" fill="#A9DCDF" rx="11" ry="11" style="stroke:#181818;stroke-width:1.0;"/><path d="M95.6094,345.3438 L94.4531,350.4219 L96.7813,350.4219 L95.6094,345.3438 Z M94.125,343.1094 L97.1094,343.1094 L100.4688,355.5 L98.0156,355.5 L97.25,352.4375 L93.9688,352.4375 L93.2188,355.5 L90.7813,355.5 L94.125,343.1094 Z " fill="#000000"/><text fill="#000000" font-family="sans-serif" font-size="14" font-style="italic" lengthAdjust="spacing" textLength="104" x="109.5" y="354.8467">AbstractQueue</text><rect fill="#FFFFFF" height="15.9688" style="stroke:#181818;stroke-width:1.0;stroke-dasharray:2.0,2.0;" width="10" x="221.5" y="331"/><text fill="#000000" font-family="sans-serif" font-size="12" font-style="italic" lengthAdjust="spacing" textLength="8" x="222.5" y="343.1387">E</text><line style="stroke:#181818;stroke-width:0.5;" x1="81.5" x2="227.5" y1="366" y2="366"/><line style="stroke:#181818;stroke-width:0.5;" x1="81.5" x2="227.5" y1="374" y2="374"/></g><!--class PriorityQueue--><g id="elem_PriorityQueue"><rect codeLine="6" fill="#F1F1F1" height="113.1875" id="PriorityQueue" rx="2.5" ry="2.5" style="stroke:#181818;stroke-width:0.5;" width="295" x="7" y="442"/><ellipse cx="97.75" cy="458" fill="#ADD1B2" rx="11" ry="11" style="stroke:#181818;stroke-width:1.0;"/><path d="M100.7188,463.6406 Q100.1406,463.9375 99.5,464.0781 Q98.8594,464.2344 98.1563,464.2344 Q95.6563,464.2344 94.3281,462.5938 Q93.0156,460.9375 93.0156,457.8125 Q93.0156,454.6875 94.3281,453.0313 Q95.6563,451.375 98.1563,451.375 Q98.8594,451.375 99.5,451.5313 Q100.1563,451.6875 100.7188,451.9844 L100.7188,454.7031 Q100.0938,454.125 99.5,453.8594 Q98.9063,453.5781 98.2813,453.5781 Q96.9375,453.5781 96.25,454.6563 Q95.5625,455.7188 95.5625,457.8125 Q95.5625,459.9063 96.25,460.9844 Q96.9375,462.0469 98.2813,462.0469 Q98.9063,462.0469 99.5,461.7813 Q100.0938,461.5 100.7188,460.9219 L100.7188,463.6406 Z " fill="#000000"/><text fill="#000000" font-family="sans-serif" font-size="14" lengthAdjust="spacing" textLength="93" x="118.25" y="462.8467">PriorityQueue</text><rect fill="#FFFFFF" height="15.9688" style="stroke:#181818;stroke-width:1.0;stroke-dasharray:2.0,2.0;" width="10" x="295" y="439"/><text fill="#000000" font-family="sans-serif" font-size="12" font-style="italic" lengthAdjust="spacing" textLength="8" x="296" y="451.1387">E</text><line style="stroke:#181818;stroke-width:0.5;" x1="8" x2="301" y1="474" y2="474"/><text fill="#000000" font-family="sans-serif" font-size="14" lengthAdjust="spacing" textLength="169" x="13" y="490.9951">transient Object[] queue</text><text fill="#000000" font-family="sans-serif" font-size="14" lengthAdjust="spacing" textLength="78" x="13" y="507.292">int size = 0</text><text fill="#000000" font-family="sans-serif" font-size="14" lengthAdjust="spacing" textLength="283" x="13" y="523.5889">final Comparator&lt;? super E&gt; comparator</text><text fill="#000000" font-family="sans-serif" font-size="14" lengthAdjust="spacing" textLength="188" x="13" y="539.8857">transient int modCount = 0</text><line style="stroke:#181818;stroke-width:0.5;" x1="8" x2="301" y1="547.1875" y2="547.1875"/></g><!--reverse link Iterable to Collection--><g id="link_Iterable_Collection"><path d="M154.5,76.26 C154.5,93.94 154.5,100.13 154.5,117.79 " fill="none" id="Iterable-backto-Collection" style="stroke:#181818;stroke-width:1.0;"/><polygon fill="none" points="154.5,58.26,148.5,76.26,160.5,76.26,154.5,58.26" style="stroke:#181818;stroke-width:1.0;"/></g><!--reverse link Collection to Queue--><g id="link_Collection_Queue"><path d="M125.4898,180.4999 C111.8198,198.1799 104.11,208.13 90.45,225.79 " fill="none" id="Collection-backto-Queue" style="stroke:#181818;stroke-width:1.0;"/><polygon fill="none" points="136.5,166.26,120.7432,176.8299,130.2365,184.17,136.5,166.26" style="stroke:#181818;stroke-width:1.0;"/></g><!--reverse link Collection to AbstractCollection--><g id="link_Collection_AbstractCollection"><path d="M183.8053,180.4337 C197.6453,198.1137 205.5,208.13 219.33,225.79 " fill="none" id="Collection-backto-AbstractCollection" style="stroke:#181818;stroke-width:1.0;stroke-dasharray:7.0,7.0;"/><polygon fill="none" points="172.71,166.26,179.0807,184.1322,188.5299,176.7353,172.71,166.26" style="stroke:#181818;stroke-width:1.0;"/></g><!--reverse link AbstractCollection to AbstractQueue--><g id="link_AbstractCollection_AbstractQueue"><path d="M208.1947,288.4337 C194.3547,306.1137 186.5,316.13 172.67,333.79 " fill="none" id="AbstractCollection-backto-AbstractQueue" style="stroke:#181818;stroke-width:1.0;"/><polygon fill="none" points="219.29,274.26,203.4701,284.7353,212.9193,292.1322,219.29,274.26" style="stroke:#181818;stroke-width:1.0;"/></g><!--reverse link Queue to AbstractQueue--><g id="link_Queue_AbstractQueue"><path d="M101.5102,288.4999 C115.1802,306.1799 122.89,316.13 136.55,333.79 " fill="none" id="Queue-backto-AbstractQueue" style="stroke:#181818;stroke-width:1.0;stroke-dasharray:7.0,7.0;"/><polygon fill="none" points="90.5,274.26,96.7635,292.17,106.2568,284.8299,90.5,274.26" style="stroke:#181818;stroke-width:1.0;"/></g><!--reverse link AbstractQueue to PriorityQueue--><g id="link_AbstractQueue_PriorityQueue"><path d="M154.5,400.2 C154.5,416.46 154.5,420.92 154.5,441.7 " fill="none" id="AbstractQueue-backto-PriorityQueue" style="stroke:#181818;stroke-width:1.0;"/><polygon fill="none" points="154.5,382.2,148.5,400.2,160.5,400.2,154.5,382.2" style="stroke:#181818;stroke-width:1.0;"/></g><!--SRC=[ZSzB2i9030RWVK-H8tY0gaXnuKe5T-8YdQOGcKUT1_Z0kvjMgIr5S9Ta_dmpmpQIhr4HRAJ0KbD-M6JSJmkdDQd8pkRh1T0ragr2dnq4zuaI3JFVpGpB43sg24fZ2B3wj6ERJQF9a8t_h4vkcvf3i8jdRsBdsNcEjvz4Tm2F341Q6rW4s9PdKOydk7GIW7mS0jy9vZ2JjcQBMjvj6lGOdS-N45937iHN_NH4je9nLU6I5AtoV040]--></g></svg>