<?xml version="1.0" encoding="us-ascii" standalone="no"?><svg xmlns="http://www.w3.org/2000/svg" xmlns:xlink="http://www.w3.org/1999/xlink" contentStyleType="text/css" height="170px" preserveAspectRatio="none" style="width:109px;height:170px;background:#FFFFFF;" version="1.1" viewBox="0 0 109 170" width="109px" zoomAndPan="magnify"><defs/><g><!--class Deque--><g id="elem_Deque"><rect codeLine="1" fill="#F1F1F1" height="48" id="Deque" rx="2.5" ry="2.5" style="stroke:#181818;stroke-width:0.5;" width="91" x="7" y="115"/><ellipse cx="22" cy="131" fill="#B4A7E5" rx="11" ry="11" style="stroke:#181818;stroke-width:1.0;"/><path d="M17.9219,126.7656 L17.9219,124.6094 L25.3125,124.6094 L25.3125,126.7656 L22.8438,126.7656 L22.8438,134.8438 L25.3125,134.8438 L25.3125,137 L17.9219,137 L17.9219,134.8438 L20.3906,134.8438 L20.3906,126.7656 L17.9219,126.7656 Z " fill="#000000"/><text fill="#000000" font-family="sans-serif" font-size="14" font-style="italic" lengthAdjust="spacing" textLength="47" x="36" y="135.8467">Deque</text><rect fill="#FFFFFF" height="15.9688" style="stroke:#181818;stroke-width:1.0;stroke-dasharray:2.0,2.0;" width="10" x="91" y="112"/><text fill="#000000" font-family="sans-serif" font-size="12" font-style="italic" lengthAdjust="spacing" textLength="8" x="92" y="124.1387">E</text><line style="stroke:#181818;stroke-width:0.5;" x1="8" x2="97" y1="147" y2="147"/><line style="stroke:#181818;stroke-width:0.5;" x1="8" x2="97" y1="155" y2="155"/></g><!--class Queue--><g id="elem_Queue"><rect fill="#F1F1F1" height="48" id="Queue" rx="2.5" ry="2.5" style="stroke:#181818;stroke-width:0.5;" width="79" x="13" y="7"/><ellipse cx="28" cy="23" fill="#B4A7E5" rx="11" ry="11" style="stroke:#181818;stroke-width:1.0;"/><path d="M23.9219,18.7656 L23.9219,16.6094 L31.3125,16.6094 L31.3125,18.7656 L28.8438,18.7656 L28.8438,26.8438 L31.3125,26.8438 L31.3125,29 L23.9219,29 L23.9219,26.8438 L26.3906,26.8438 L26.3906,18.7656 L23.9219,18.7656 Z " fill="#000000"/><text fill="#000000" font-family="sans-serif" font-size="14" font-style="italic" lengthAdjust="spacing" textLength="47" x="42" y="27.8467">Queue</text><line style="stroke:#181818;stroke-width:0.5;" x1="14" x2="91" y1="39" y2="39"/><line style="stroke:#181818;stroke-width:0.5;" x1="14" x2="91" y1="47" y2="47"/></g><!--reverse link Queue to Deque--><g id="link_Queue_Deque"><path d="M52.5,73.26 C52.5,90.94 52.5,97.13 52.5,114.79 " fill="none" id="Queue-backto-Deque" style="stroke:#181818;stroke-width:1.0;"/><polygon fill="none" points="52.5,55.26,46.5,73.26,58.5,73.26,52.5,55.26" style="stroke:#181818;stroke-width:1.0;"/></g><!--SRC=[oymhIIrAIqnELN19BInDjN6rKqYjA4dDIobM22nDBKq50000]--></g></svg>