<?xml version="1.0" encoding="us-ascii" standalone="no"?><svg xmlns="http://www.w3.org/2000/svg" xmlns:xlink="http://www.w3.org/1999/xlink" contentStyleType="text/css" height="310px" preserveAspectRatio="none" style="width:299px;height:310px;background:#FFFFFF;" version="1.1" viewBox="0 0 299 310" width="299px" zoomAndPan="magnify"><defs/><g><!--class AbstractStringBuilder--><g id="elem_AbstractStringBuilder"><rect codeLine="1" fill="#F1F1F1" height="80.5938" id="AbstractStringBuilder" rx="2.5" ry="2.5" style="stroke:#181818;stroke-width:0.5;" width="177" x="56" y="115"/><ellipse cx="71" cy="131" fill="#A9DCDF" rx="11" ry="11" style="stroke:#181818;stroke-width:1.0;"/><path d="M71.1094,126.3437 L69.9531,131.4219 L72.2813,131.4219 L71.1094,126.3437 Z M69.625,124.1094 L72.6094,124.1094 L75.9688,136.5 L73.5156,136.5 L72.75,133.4375 L69.4688,133.4375 L68.7188,136.5 L66.2813,136.5 L69.625,124.1094 Z " fill="#000000"/><text fill="#000000" font-family="sans-serif" font-size="14" font-style="italic" lengthAdjust="spacing" textLength="145" x="85" y="135.8467">AbstractStringBuilder</text><line style="stroke:#181818;stroke-width:0.5;" x1="57" x2="232" y1="147" y2="147"/><text fill="#000000" font-family="sans-serif" font-size="14" lengthAdjust="spacing" textLength="80" x="62" y="163.9951">char[] value</text><text fill="#000000" font-family="sans-serif" font-size="14" lengthAdjust="spacing" textLength="61" x="62" y="180.292">int count</text><line style="stroke:#181818;stroke-width:0.5;" x1="57" x2="232" y1="187.5937" y2="187.5937"/></g><!--class Appendable--><g id="elem_Appendable"><rect fill="#F1F1F1" height="48" id="Appendable" rx="2.5" ry="2.5" style="stroke:#181818;stroke-width:0.5;" width="115" x="7" y="7"/><ellipse cx="22" cy="23" fill="#B4A7E5" rx="11" ry="11" style="stroke:#181818;stroke-width:1.0;"/><path d="M17.9219,18.7656 L17.9219,16.6094 L25.3125,16.6094 L25.3125,18.7656 L22.8438,18.7656 L22.8438,26.8438 L25.3125,26.8438 L25.3125,29 L17.9219,29 L17.9219,26.8438 L20.3906,26.8438 L20.3906,18.7656 L17.9219,18.7656 Z " fill="#000000"/><text fill="#000000" font-family="sans-serif" font-size="14" font-style="italic" lengthAdjust="spacing" textLength="83" x="36" y="27.8467">Appendable</text><line style="stroke:#181818;stroke-width:0.5;" x1="8" x2="121" y1="39" y2="39"/><line style="stroke:#181818;stroke-width:0.5;" x1="8" x2="121" y1="47" y2="47"/></g><!--class CharSequence--><g id="elem_CharSequence"><rect fill="#F1F1F1" height="48" id="CharSequence" rx="2.5" ry="2.5" style="stroke:#181818;stroke-width:0.5;" width="135" x="157" y="7"/><ellipse cx="172" cy="23" fill="#B4A7E5" rx="11" ry="11" style="stroke:#181818;stroke-width:1.0;"/><path d="M167.9219,18.7656 L167.9219,16.6094 L175.3125,16.6094 L175.3125,18.7656 L172.8438,18.7656 L172.8438,26.8438 L175.3125,26.8438 L175.3125,29 L167.9219,29 L167.9219,26.8438 L170.3906,26.8438 L170.3906,18.7656 L167.9219,18.7656 Z " fill="#000000"/><text fill="#000000" font-family="sans-serif" font-size="14" font-style="italic" lengthAdjust="spacing" textLength="103" x="186" y="27.8467">CharSequence</text><line style="stroke:#181818;stroke-width:0.5;" x1="158" x2="291" y1="39" y2="39"/><line style="stroke:#181818;stroke-width:0.5;" x1="158" x2="291" y1="47" y2="47"/></g><!--class StringBuilder--><g id="elem_StringBuilder"><rect codeLine="5" fill="#F1F1F1" height="48" id="StringBuilder" rx="2.5" ry="2.5" style="stroke:#181818;stroke-width:0.5;" width="120" x="84.5" y="255.59"/><ellipse cx="99.5" cy="271.59" fill="#ADD1B2" rx="11" ry="11" style="stroke:#181818;stroke-width:1.0;"/><path d="M102.4688,277.2306 Q101.8906,277.5275 101.25,277.6681 Q100.6094,277.8244 99.9063,277.8244 Q97.4063,277.8244 96.0781,276.1838 Q94.7656,274.5275 94.7656,271.4025 Q94.7656,268.2775 96.0781,266.6213 Q97.4063,264.965 99.9063,264.965 Q100.6094,264.965 101.25,265.1213 Q101.9063,265.2775 102.4688,265.5744 L102.4688,268.2931 Q101.8438,267.715 101.25,267.4494 Q100.6563,267.1681 100.0313,267.1681 Q98.6875,267.1681 98,268.2463 Q97.3125,269.3088 97.3125,271.4025 Q97.3125,273.4963 98,274.5744 Q98.6875,275.6369 100.0313,275.6369 Q100.6563,275.6369 101.25,275.3713 Q101.8438,275.09 102.4688,274.5119 L102.4688,277.2306 Z " fill="#000000"/><text fill="#000000" font-family="sans-serif" font-size="14" lengthAdjust="spacing" textLength="88" x="113.5" y="276.4367">StringBuilder</text><line style="stroke:#181818;stroke-width:0.5;" x1="85.5" x2="203.5" y1="287.59" y2="287.59"/><line style="stroke:#181818;stroke-width:0.5;" x1="85.5" x2="203.5" y1="295.59" y2="295.59"/></g><!--reverse link Appendable to AbstractStringBuilder--><g id="link_Appendable_AbstractStringBuilder"><path d="M89.5936,70.3534 C100.5636,87.1234 105.78,95.09 118.62,114.73 " fill="none" id="Appendable-backto-AbstractStringBuilder" style="stroke:#181818;stroke-width:1.0;stroke-dasharray:7.0,7.0;"/><polygon fill="none" points="79.74,55.29,84.5725,73.6379,94.6148,67.0689,79.74,55.29" style="stroke:#181818;stroke-width:1.0;"/></g><!--reverse link CharSequence to AbstractStringBuilder--><g id="link_CharSequence_AbstractStringBuilder"><path d="M199.4064,70.3534 C188.4364,87.1234 183.22,95.09 170.38,114.73 " fill="none" id="CharSequence-backto-AbstractStringBuilder" style="stroke:#181818;stroke-width:1.0;stroke-dasharray:7.0,7.0;"/><polygon fill="none" points="209.26,55.29,194.3852,67.0689,204.4275,73.6379,209.26,55.29" style="stroke:#181818;stroke-width:1.0;"/></g><!--reverse link AbstractStringBuilder to StringBuilder--><g id="link_AbstractStringBuilder_StringBuilder"><path d="M144.5,214 C144.5,233.53 144.5,238.4 144.5,255.11 " fill="none" id="AbstractStringBuilder-backto-StringBuilder" style="stroke:#181818;stroke-width:1.0;"/><polygon fill="none" points="144.5,196,138.5,214,150.5,214,144.5,196" style="stroke:#181818;stroke-width:1.0;"/></g><!--SRC=[TSqn3i8m40J0tg-u1_29m1DIeXGNPqKidI_6FaT8YBzpKcWeKkvgDSjpiyhHA0gtHiClZbQJFguzoO9AAHT1XfeFIe4kF0ikT5kvZdXsQ0Iz0r7quZxHpjBXCQcpMrSBdt3m_onUvjR9wHS0]--></g></svg>