<?xml version="1.0" encoding="us-ascii" standalone="no"?><svg xmlns="http://www.w3.org/2000/svg" xmlns:xlink="http://www.w3.org/1999/xlink" contentStyleType="text/css" height="516px" preserveAspectRatio="none" style="width:570px;height:516px;background:#FFFFFF;" version="1.1" viewBox="0 0 570 516" width="570px" zoomAndPan="magnify"><defs/><g><!--class Sync--><g id="elem_Sync"><rect codeLine="1" fill="#F1F1F1" height="48" id="Sync" rx="2.5" ry="2.5" style="stroke:#181818;stroke-width:0.5;" width="65" x="233" y="312.63"/><ellipse cx="248" cy="328.63" fill="#A9DCDF" rx="11" ry="11" style="stroke:#181818;stroke-width:1.0;"/><path d="M248.1094,323.9738 L246.9531,329.0519 L249.2813,329.0519 L248.1094,323.9738 Z M246.625,321.7394 L249.6094,321.7394 L252.9688,334.13 L250.5156,334.13 L249.75,331.0675 L246.4688,331.0675 L245.7188,334.13 L243.2813,334.13 L246.625,321.7394 Z " fill="#000000"/><text fill="#000000" font-family="sans-serif" font-size="14" font-style="italic" lengthAdjust="spacing" textLength="33" x="262" y="333.4767">Sync</text><line style="stroke:#181818;stroke-width:0.5;" x1="234" x2="297" y1="344.63" y2="344.63"/><line style="stroke:#181818;stroke-width:0.5;" x1="234" x2="297" y1="352.63" y2="352.63"/></g><!--class AbstractQueuedSynchronizer--><g id="elem_AbstractQueuedSynchronizer"><rect codeLine="8" fill="#F1F1F1" height="96.8906" id="AbstractQueuedSynchronizer" rx="2.5" ry="2.5" style="stroke:#181818;stroke-width:0.5;" width="235" x="326" y="131.29"/><ellipse cx="341" cy="147.29" fill="#A9DCDF" rx="11" ry="11" style="stroke:#181818;stroke-width:1.0;"/><path d="M341.1094,142.6338 L339.9531,147.7119 L342.2813,147.7119 L341.1094,142.6338 Z M339.625,140.3994 L342.6094,140.3994 L345.9688,152.79 L343.5156,152.79 L342.75,149.7275 L339.4688,149.7275 L338.7188,152.79 L336.2813,152.79 L339.625,140.3994 Z " fill="#000000"/><text fill="#000000" font-family="sans-serif" font-size="14" font-style="italic" lengthAdjust="spacing" textLength="203" x="355" y="152.1367">AbstractQueuedSynchronizer</text><line style="stroke:#181818;stroke-width:0.5;" x1="327" x2="560" y1="163.29" y2="163.29"/><text fill="#000000" font-family="sans-serif" font-size="14" lengthAdjust="spacing" textLength="127" x="332" y="180.2851">volatile Node head</text><text fill="#000000" font-family="sans-serif" font-size="14" lengthAdjust="spacing" textLength="111" x="332" y="196.582">volatile Node tail</text><text fill="#000000" font-family="sans-serif" font-size="14" lengthAdjust="spacing" textLength="107" x="332" y="212.8789">volatile int state</text><line style="stroke:#181818;stroke-width:0.5;" x1="327" x2="560" y1="220.1806" y2="220.1806"/></g><!--class FairSync--><g id="elem_FairSync"><rect codeLine="2" fill="#F1F1F1" height="64.2969" id="FairSync" rx="2.5" ry="2.5" style="stroke:#181818;stroke-width:0.5;" width="241" x="7" y="445.07"/><ellipse cx="94.75" cy="461.07" fill="#ADD1B2" rx="11" ry="11" style="stroke:#181818;stroke-width:1.0;"/><path d="M97.7188,466.7106 Q97.1406,467.0075 96.5,467.1481 Q95.8594,467.3044 95.1563,467.3044 Q92.6563,467.3044 91.3281,465.6638 Q90.0156,464.0075 90.0156,460.8825 Q90.0156,457.7575 91.3281,456.1013 Q92.6563,454.445 95.1563,454.445 Q95.8594,454.445 96.5,454.6013 Q97.1563,454.7575 97.7188,455.0544 L97.7188,457.7731 Q97.0938,457.195 96.5,456.9294 Q95.9063,456.6481 95.2813,456.6481 Q93.9375,456.6481 93.25,457.7263 Q92.5625,458.7888 92.5625,460.8825 Q92.5625,462.9763 93.25,464.0544 Q93.9375,465.1169 95.2813,465.1169 Q95.9063,465.1169 96.5,464.8513 Q97.0938,464.57 97.7188,463.9919 L97.7188,466.7106 Z " fill="#000000"/><text fill="#000000" font-family="sans-serif" font-size="14" lengthAdjust="spacing" textLength="57" x="115.25" y="465.9167">FairSync</text><line style="stroke:#181818;stroke-width:0.5;" x1="8" x2="247" y1="477.07" y2="477.07"/><line style="stroke:#181818;stroke-width:0.5;" x1="8" x2="247" y1="485.07" y2="485.07"/><text fill="#000000" font-family="sans-serif" font-size="14" lengthAdjust="spacing" textLength="229" x="13" y="502.0651">int tryAcquireShared(int acquires)</text></g><!--class NonfairSync--><g id="elem_NonfairSync"><rect codeLine="5" fill="#F1F1F1" height="64.2969" id="NonfairSync" rx="2.5" ry="2.5" style="stroke:#181818;stroke-width:0.5;" width="241" x="283" y="445.07"/><ellipse cx="358.75" cy="461.07" fill="#ADD1B2" rx="11" ry="11" style="stroke:#181818;stroke-width:1.0;"/><path d="M361.7188,466.7106 Q361.1406,467.0075 360.5,467.1481 Q359.8594,467.3044 359.1563,467.3044 Q356.6563,467.3044 355.3281,465.6638 Q354.0156,464.0075 354.0156,460.8825 Q354.0156,457.7575 355.3281,456.1013 Q356.6563,454.445 359.1563,454.445 Q359.8594,454.445 360.5,454.6013 Q361.1563,454.7575 361.7188,455.0544 L361.7188,457.7731 Q361.0938,457.195 360.5,456.9294 Q359.9063,456.6481 359.2813,456.6481 Q357.9375,456.6481 357.25,457.7263 Q356.5625,458.7888 356.5625,460.8825 Q356.5625,462.9763 357.25,464.0544 Q357.9375,465.1169 359.2813,465.1169 Q359.9063,465.1169 360.5,464.8513 Q361.0938,464.57 361.7188,463.9919 L361.7188,466.7106 Z " fill="#000000"/><text fill="#000000" font-family="sans-serif" font-size="14" lengthAdjust="spacing" textLength="81" x="379.25" y="465.9167">NonfairSync</text><line style="stroke:#181818;stroke-width:0.5;" x1="284" x2="523" y1="477.07" y2="477.07"/><line style="stroke:#181818;stroke-width:0.5;" x1="284" x2="523" y1="485.07" y2="485.07"/><text fill="#000000" font-family="sans-serif" font-size="14" lengthAdjust="spacing" textLength="229" x="289" y="502.0651">int tryAcquireShared(int acquires)</text></g><!--class AbstractOwnableSynchronizer--><g id="elem_AbstractOwnableSynchronizer"><rect codeLine="13" fill="#F1F1F1" height="64.2969" id="AbstractOwnableSynchronizer" rx="2.5" ry="2.5" style="stroke:#181818;stroke-width:0.5;" width="239" x="324" y="7"/><ellipse cx="339" cy="23" fill="#A9DCDF" rx="11" ry="11" style="stroke:#181818;stroke-width:1.0;"/><path d="M339.1094,18.3438 L337.9531,23.4219 L340.2813,23.4219 L339.1094,18.3438 Z M337.625,16.1094 L340.6094,16.1094 L343.9688,28.5 L341.5156,28.5 L340.75,25.4375 L337.4688,25.4375 L336.7188,28.5 L334.2813,28.5 L337.625,16.1094 Z " fill="#000000"/><text fill="#000000" font-family="sans-serif" font-size="14" font-style="italic" lengthAdjust="spacing" textLength="207" x="353" y="27.8467">AbstractOwnableSynchronizer</text><line style="stroke:#181818;stroke-width:0.5;" x1="325" x2="562" y1="39" y2="39"/><text fill="#000000" font-family="sans-serif" font-size="14" lengthAdjust="spacing" textLength="215" x="330" y="55.9951">Thread exclusiveOwnerThread;</text><line style="stroke:#181818;stroke-width:0.5;" x1="325" x2="562" y1="63.2969" y2="63.2969"/></g><!--class Node--><g id="elem_Node"><rect codeLine="16" fill="#F1F1F1" height="96.8906" id="Node" rx="2.5" ry="2.5" style="stroke:#181818;stroke-width:0.5;" width="161" x="363" y="288.18"/><ellipse cx="420.75" cy="304.18" fill="#ADD1B2" rx="11" ry="11" style="stroke:#181818;stroke-width:1.0;"/><path d="M423.7188,309.8206 Q423.1406,310.1175 422.5,310.2581 Q421.8594,310.4144 421.1563,310.4144 Q418.6563,310.4144 417.3281,308.7738 Q416.0156,307.1175 416.0156,303.9925 Q416.0156,300.8675 417.3281,299.2113 Q418.6563,297.555 421.1563,297.555 Q421.8594,297.555 422.5,297.7113 Q423.1563,297.8675 423.7188,298.1644 L423.7188,300.8831 Q423.0938,300.305 422.5,300.0394 Q421.9063,299.7581 421.2813,299.7581 Q419.9375,299.7581 419.25,300.8363 Q418.5625,301.8988 418.5625,303.9925 Q418.5625,306.0863 419.25,307.1644 Q419.9375,308.2269 421.2813,308.2269 Q421.9063,308.2269 422.5,307.9613 Q423.0938,307.68 423.7188,307.1019 L423.7188,309.8206 Z " fill="#000000"/><text fill="#000000" font-family="sans-serif" font-size="14" lengthAdjust="spacing" textLength="37" x="441.25" y="309.0267">Node</text><line style="stroke:#181818;stroke-width:0.5;" x1="364" x2="523" y1="320.18" y2="320.18"/><text fill="#000000" font-family="sans-serif" font-size="14" lengthAdjust="spacing" textLength="122" x="369" y="337.1751">volatile Node prev</text><text fill="#000000" font-family="sans-serif" font-size="14" lengthAdjust="spacing" textLength="122" x="369" y="353.472">volatile Node next</text><text fill="#000000" font-family="sans-serif" font-size="14" lengthAdjust="spacing" textLength="149" x="369" y="369.7689">volatile Thread thread</text><line style="stroke:#181818;stroke-width:0.5;" x1="364" x2="523" y1="377.0706" y2="377.0706"/></g><!--class Semaphore--><g id="elem_Semaphore"><rect codeLine="23" fill="#F1F1F1" height="64.2969" id="Semaphore" rx="2.5" ry="2.5" style="stroke:#181818;stroke-width:0.5;" width="112" x="178.5" y="147.59"/><ellipse cx="193.5" cy="163.59" fill="#ADD1B2" rx="11" ry="11" style="stroke:#181818;stroke-width:1.0;"/><path d="M196.4688,169.2306 Q195.8906,169.5275 195.25,169.6681 Q194.6094,169.8244 193.9063,169.8244 Q191.4063,169.8244 190.0781,168.1838 Q188.7656,166.5275 188.7656,163.4025 Q188.7656,160.2775 190.0781,158.6213 Q191.4063,156.965 193.9063,156.965 Q194.6094,156.965 195.25,157.1213 Q195.9063,157.2775 196.4688,157.5744 L196.4688,160.2931 Q195.8438,159.715 195.25,159.4494 Q194.6563,159.1681 194.0313,159.1681 Q192.6875,159.1681 192,160.2463 Q191.3125,161.3088 191.3125,163.4025 Q191.3125,165.4963 192,166.5744 Q192.6875,167.6369 194.0313,167.6369 Q194.6563,167.6369 195.25,167.3713 Q195.8438,167.09 196.4688,166.5119 L196.4688,169.2306 Z " fill="#000000"/><text fill="#000000" font-family="sans-serif" font-size="14" lengthAdjust="spacing" textLength="80" x="207.5" y="168.4367">Semaphore</text><line style="stroke:#181818;stroke-width:0.5;" x1="179.5" x2="289.5" y1="179.59" y2="179.59"/><text fill="#000000" font-family="sans-serif" font-size="14" lengthAdjust="spacing" textLength="69" x="184.5" y="196.5851">Sync sync</text><line style="stroke:#181818;stroke-width:0.5;" x1="179.5" x2="289.5" y1="203.8869" y2="203.8869"/></g><!--reverse link AbstractQueuedSynchronizer to Sync--><g id="link_AbstractQueuedSynchronizer_Sync"><path d="M375.0619,240.2868 C342.9919,268.1968 317.52,290.36 292.11,312.47 " fill="none" id="AbstractQueuedSynchronizer-backto-Sync" style="stroke:#181818;stroke-width:1.0;"/><polygon fill="none" points="388.64,228.47,371.123,235.7607,379.0009,244.8128,388.64,228.47" style="stroke:#181818;stroke-width:1.0;"/></g><!--reverse link Sync to FairSync--><g id="link_Sync_FairSync"><path d="M229.6999,373.5857 C206.8399,396.5457 184.36,419.11 158.96,444.63 " fill="none" id="Sync-backto-FairSync" style="stroke:#181818;stroke-width:1.0;"/><polygon fill="none" points="242.4,360.83,225.448,369.3523,233.9518,377.819,242.4,360.83" style="stroke:#181818;stroke-width:1.0;"/></g><!--reverse link Sync to NonfairSync--><g id="link_Sync_NonfairSync"><path d="M301.3001,373.5857 C324.1601,396.5457 346.64,419.11 372.04,444.63 " fill="none" id="Sync-backto-NonfairSync" style="stroke:#181818;stroke-width:1.0;"/><polygon fill="none" points="288.6,360.83,297.0482,377.819,305.552,369.3523,288.6,360.83" style="stroke:#181818;stroke-width:1.0;"/></g><!--reverse link AbstractOwnableSynchronizer to AbstractQueuedSynchronizer--><g id="link_AbstractOwnableSynchronizer_AbstractQueuedSynchronizer"><path d="M443.5,89.59 C443.5,107.08 443.5,111.21 443.5,130.82 " fill="none" id="AbstractOwnableSynchronizer-backto-AbstractQueuedSynchronizer" style="stroke:#181818;stroke-width:1.0;"/><polygon fill="none" points="443.5,71.59,437.5,89.59,449.5,89.59,443.5,71.59" style="stroke:#181818;stroke-width:1.0;"/></g><!--reverse link AbstractQueuedSynchronizer to Node--><g id="link_AbstractQueuedSynchronizer_Node"><path codeLine="21" d="M443.5,240.47 C443.5,259.32 443.5,268.93 443.5,287.78 " fill="none" id="AbstractQueuedSynchronizer-backto-Node" style="stroke:#181818;stroke-width:1.0;"/><polygon fill="#181818" points="443.5,228.47,439.5,234.47,443.5,240.47,447.5,234.47,443.5,228.47" style="stroke:#181818;stroke-width:1.0;"/></g><!--reverse link Semaphore to Sync--><g id="link_Semaphore_Sync"><path codeLine="26" d="M243.1272,223.8462 C249.0772,253.5462 255.51,285.71 260.85,312.4 " fill="none" id="Semaphore-backto-Sync" style="stroke:#181818;stroke-width:1.0;"/><polygon fill="#181818" points="240.77,212.08,238.0265,218.7488,243.1272,223.8462,245.8707,217.1774,240.77,212.08" style="stroke:#181818;stroke-width:1.0;"/></g><!--SRC=[fL4n3i8m3DpxYeo0n0kOM1X1g7p094Q95DBYk8M2-3jEMubMLLbO4kNElZixS8vCe5bf3p6gl0bQuOCncAYsFNUii4AJA4j5S4-ahAlUWQDHH_juPKgvm8gfsUfRvGXp2uHcaK3eaBZCtht8lWYN_tHWFCDyxCbaXtk0iyTHJRAj2m_iF4euWyeYc0d8uFmGJA4Y0-Dye3ctaoLna73QLz7LA7L87RWPh4bCfzbAmde21fbp2FO6t5wY-6D3g_MwrSXwsnolKDg2Ek_sNw8S8l9bKazYFW00]--></g></svg>