<?xml version="1.0" encoding="us-ascii" standalone="no"?><svg xmlns="http://www.w3.org/2000/svg" xmlns:xlink="http://www.w3.org/1999/xlink" contentStyleType="text/css" height="186px" preserveAspectRatio="none" style="width:319px;height:186px;background:#FFFFFF;" version="1.1" viewBox="0 0 319 186" width="319px" zoomAndPan="magnify"><defs/><g><!--cluster CountDownLatch--><g id="cluster_CountDownLatch"><path d="M8.5,80 L144.5,80 A3.75,3.75 0 0 1 147,82.5 L154,102.2969 L154.5,102.2969 A2.5,2.5 0 0 1 157,104.7969 L157,176.5 A2.5,2.5 0 0 1 154.5,179 L8.5,179 A2.5,2.5 0 0 1 6,176.5 L6,82.5 A2.5,2.5 0 0 1 8.5,80 " fill="none" style="stroke:#000000;stroke-width:1.5;"/><line style="stroke:#000000;stroke-width:1.5;" x1="6" x2="154" y1="102.2969" y2="102.2969"/><text fill="#000000" font-family="sans-serif" font-size="14" font-weight="bold" lengthAdjust="spacing" textLength="135" x="10" y="94.9951">CountDownLatch</text></g><!--cluster ReentrantLock--><g id="cluster_ReentrantLock"><path d="M183.5,80 L299.5,80 A3.75,3.75 0 0 1 302,82.5 L309,102.2969 L309.5,102.2969 A2.5,2.5 0 0 1 312,104.7969 L312,176.5 A2.5,2.5 0 0 1 309.5,179 L183.5,179 A2.5,2.5 0 0 1 181,176.5 L181,82.5 A2.5,2.5 0 0 1 183.5,80 " fill="none" style="stroke:#000000;stroke-width:1.5;"/><line style="stroke:#000000;stroke-width:1.5;" x1="181" x2="309" y1="102.2969" y2="102.2969"/><text fill="#000000" font-family="sans-serif" font-size="14" font-weight="bold" lengthAdjust="spacing" textLength="115" x="185" y="94.9951">ReentrantLock</text></g><!--class Sync--><g id="elem_Sync"><rect codeLine="1" fill="#F1F1F1" height="48" id="Sync" rx="2.5" ry="2.5" style="stroke:#181818;stroke-width:0.5;" width="65" x="75.5" y="115"/><ellipse cx="90.5" cy="131" fill="#ADD1B2" rx="11" ry="11" style="stroke:#181818;stroke-width:1.0;"/><path d="M93.4688,136.6406 Q92.8906,136.9375 92.25,137.0781 Q91.6094,137.2344 90.9063,137.2344 Q88.4063,137.2344 87.0781,135.5938 Q85.7656,133.9375 85.7656,130.8125 Q85.7656,127.6875 87.0781,126.0313 Q88.4063,124.375 90.9063,124.375 Q91.6094,124.375 92.25,124.5313 Q92.9063,124.6875 93.4688,124.9844 L93.4688,127.7031 Q92.8438,127.125 92.25,126.8594 Q91.6563,126.5781 91.0313,126.5781 Q89.6875,126.5781 89,127.6563 Q88.3125,128.7188 88.3125,130.8125 Q88.3125,132.9063 89,133.9844 Q89.6875,135.0469 91.0313,135.0469 Q91.6563,135.0469 92.25,134.7813 Q92.8438,134.5 93.4688,133.9219 L93.4688,136.6406 Z " fill="#000000"/><text fill="#000000" font-family="sans-serif" font-size="14" lengthAdjust="spacing" textLength="33" x="104.5" y="135.8467">Sync</text><line style="stroke:#181818;stroke-width:0.5;" x1="76.5" x2="139.5" y1="147" y2="147"/><line style="stroke:#181818;stroke-width:0.5;" x1="76.5" x2="139.5" y1="155" y2="155"/></g><!--class Sync--><g id="elem_Sync"><rect codeLine="2" fill="#F1F1F1" height="48" id="Sync" rx="2.5" ry="2.5" style="stroke:#181818;stroke-width:0.5;" width="65" x="197.5" y="115"/><ellipse cx="212.5" cy="131" fill="#ADD1B2" rx="11" ry="11" style="stroke:#181818;stroke-width:1.0;"/><path d="M215.4688,136.6406 Q214.8906,136.9375 214.25,137.0781 Q213.6094,137.2344 212.9063,137.2344 Q210.4063,137.2344 209.0781,135.5938 Q207.7656,133.9375 207.7656,130.8125 Q207.7656,127.6875 209.0781,126.0313 Q210.4063,124.375 212.9063,124.375 Q213.6094,124.375 214.25,124.5313 Q214.9063,124.6875 215.4688,124.9844 L215.4688,127.7031 Q214.8438,127.125 214.25,126.8594 Q213.6563,126.5781 213.0313,126.5781 Q211.6875,126.5781 211,127.6563 Q210.3125,128.7188 210.3125,130.8125 Q210.3125,132.9063 211,133.9844 Q211.6875,135.0469 213.0313,135.0469 Q213.6563,135.0469 214.25,134.7813 Q214.8438,134.5 215.4688,133.9219 L215.4688,136.6406 Z " fill="#000000"/><text fill="#000000" font-family="sans-serif" font-size="14" lengthAdjust="spacing" textLength="33" x="226.5" y="135.8467">Sync</text><line style="stroke:#181818;stroke-width:0.5;" x1="198.5" x2="261.5" y1="147" y2="147"/><line style="stroke:#181818;stroke-width:0.5;" x1="198.5" x2="261.5" y1="155" y2="155"/></g><!--class AbstractQueuedSynchronizer--><g id="elem_AbstractQueuedSynchronizer"><rect codeLine="3" fill="#F1F1F1" height="48" id="AbstractQueuedSynchronizer" rx="2.5" ry="2.5" style="stroke:#181818;stroke-width:0.5;" width="235" x="51.5" y="7"/><ellipse cx="66.5" cy="23" fill="#A9DCDF" rx="11" ry="11" style="stroke:#181818;stroke-width:1.0;"/><path d="M66.6094,18.3438 L65.4531,23.4219 L67.7813,23.4219 L66.6094,18.3438 Z M65.125,16.1094 L68.1094,16.1094 L71.4688,28.5 L69.0156,28.5 L68.25,25.4375 L64.9688,25.4375 L64.2188,28.5 L61.7813,28.5 L65.125,16.1094 Z " fill="#000000"/><text fill="#000000" font-family="sans-serif" font-size="14" font-style="italic" lengthAdjust="spacing" textLength="203" x="80.5" y="27.8467">AbstractQueuedSynchronizer</text><line style="stroke:#181818;stroke-width:0.5;" x1="52.5" x2="285.5" y1="39" y2="39"/><line style="stroke:#181818;stroke-width:0.5;" x1="52.5" x2="285.5" y1="47" y2="47"/></g><!--reverse link AbstractQueuedSynchronizer to Sync--><g id="link_AbstractQueuedSynchronizer_Sync"><path d="M146.6349,70.8628 C136.4649,88.5428 131.52,97.13 121.36,114.79 " fill="none" id="AbstractQueuedSynchronizer-backto-Sync" style="stroke:#181818;stroke-width:1.0;"/><polygon fill="none" points="155.61,55.26,141.4339,67.8711,151.8358,73.8545,155.61,55.26" style="stroke:#181818;stroke-width:1.0;"/></g><!--reverse link AbstractQueuedSynchronizer to Sync--><g id="link_AbstractQueuedSynchronizer_Sync"><path d="M191.3651,70.8628 C201.5351,88.5428 206.48,97.13 216.64,114.79 " fill="none" id="AbstractQueuedSynchronizer-backto-Sync-1" style="stroke:#181818;stroke-width:1.0;"/><polygon fill="none" points="182.39,55.26,186.1642,73.8545,196.5661,67.8711,182.39,55.26" style="stroke:#181818;stroke-width:1.0;"/></g><!--SRC=[Iyv9B2vMSCulpIjnoI_FyqaiISxG2wxCIrP8hIX9pKifLd1CAYufIamk2InDBKrD0Kbb5ENdPLQb5d4bWpK7fQRc0LNabVZa9sSJhJSHAgK0CGItIW00]--></g></svg>