<?xml version="1.0" encoding="us-ascii" standalone="no"?><svg xmlns="http://www.w3.org/2000/svg" xmlns:xlink="http://www.w3.org/1999/xlink" contentStyleType="text/css" height="202px" preserveAspectRatio="none" style="width:270px;height:202px;background:#FFFFFF;" version="1.1" viewBox="0 0 270 202" width="270px" zoomAndPan="magnify"><defs/><g><!--class CopyOnWriteArrayList--><g id="elem_CopyOnWriteArrayList"><rect codeLine="1" fill="#F1F1F1" height="80.5938" id="CopyOnWriteArrayList" rx="2.5" ry="2.5" style="stroke:#181818;stroke-width:0.5;" width="241" x="7" y="115"/><ellipse cx="44.5" cy="131" fill="#ADD1B2" rx="11" ry="11" style="stroke:#181818;stroke-width:1.0;"/><path d="M47.4688,136.6406 Q46.8906,136.9375 46.25,137.0781 Q45.6094,137.2344 44.9063,137.2344 Q42.4063,137.2344 41.0781,135.5938 Q39.7656,133.9375 39.7656,130.8125 Q39.7656,127.6875 41.0781,126.0313 Q42.4063,124.375 44.9063,124.375 Q45.6094,124.375 46.25,124.5313 Q46.9063,124.6875 47.4688,124.9844 L47.4688,127.7031 Q46.8438,127.125 46.25,126.8594 Q45.6563,126.5781 45.0313,126.5781 Q43.6875,126.5781 43,127.6563 Q42.3125,128.7188 42.3125,130.8125 Q42.3125,132.9063 43,133.9844 Q43.6875,135.0469 45.0313,135.0469 Q45.6563,135.0469 46.25,134.7813 Q46.8438,134.5 47.4688,133.9219 L47.4688,136.6406 Z " fill="#000000"/><text fill="#000000" font-family="sans-serif" font-size="14" lengthAdjust="spacing" textLength="147" x="63.5" y="135.8467">CopyOnWriteArrayList</text><rect fill="#FFFFFF" height="15.9688" style="stroke:#181818;stroke-width:1.0;stroke-dasharray:2.0,2.0;" width="10" x="241" y="112"/><text fill="#000000" font-family="sans-serif" font-size="12" font-style="italic" lengthAdjust="spacing" textLength="8" x="242" y="124.1387">E</text><line style="stroke:#181818;stroke-width:0.5;" x1="8" x2="247" y1="147" y2="147"/><text fill="#000000" font-family="sans-serif" font-size="14" lengthAdjust="spacing" textLength="229" x="13" y="163.9951">final transient ReentrantLock lock</text><text fill="#000000" font-family="sans-serif" font-size="14" lengthAdjust="spacing" textLength="208" x="13" y="180.292">transient volatile Object[] array</text><line style="stroke:#181818;stroke-width:0.5;" x1="8" x2="247" y1="187.5938" y2="187.5938"/></g><!--class List--><g id="elem_List"><rect fill="#F1F1F1" height="48" id="List" rx="2.5" ry="2.5" style="stroke:#181818;stroke-width:0.5;" width="55" x="34" y="7"/><ellipse cx="49" cy="23" fill="#B4A7E5" rx="11" ry="11" style="stroke:#181818;stroke-width:1.0;"/><path d="M44.9219,18.7656 L44.9219,16.6094 L52.3125,16.6094 L52.3125,18.7656 L49.8438,18.7656 L49.8438,26.8438 L52.3125,26.8438 L52.3125,29 L44.9219,29 L44.9219,26.8438 L47.3906,26.8438 L47.3906,18.7656 L44.9219,18.7656 Z " fill="#000000"/><text fill="#000000" font-family="sans-serif" font-size="14" font-style="italic" lengthAdjust="spacing" textLength="23" x="63" y="27.8467">List</text><line style="stroke:#181818;stroke-width:0.5;" x1="35" x2="88" y1="39" y2="39"/><line style="stroke:#181818;stroke-width:0.5;" x1="35" x2="88" y1="47" y2="47"/></g><!--class RandomAccess--><g id="elem_RandomAccess"><rect fill="#F1F1F1" height="48" id="RandomAccess" rx="2.5" ry="2.5" style="stroke:#181818;stroke-width:0.5;" width="140" x="123.5" y="7"/><ellipse cx="138.5" cy="23" fill="#B4A7E5" rx="11" ry="11" style="stroke:#181818;stroke-width:1.0;"/><path d="M134.4219,18.7656 L134.4219,16.6094 L141.8125,16.6094 L141.8125,18.7656 L139.3438,18.7656 L139.3438,26.8438 L141.8125,26.8438 L141.8125,29 L134.4219,29 L134.4219,26.8438 L136.8906,26.8438 L136.8906,18.7656 L134.4219,18.7656 Z " fill="#000000"/><text fill="#000000" font-family="sans-serif" font-size="14" font-style="italic" lengthAdjust="spacing" textLength="108" x="152.5" y="27.8467">RandomAccess</text><line style="stroke:#181818;stroke-width:0.5;" x1="124.5" x2="262.5" y1="39" y2="39"/><line style="stroke:#181818;stroke-width:0.5;" x1="124.5" x2="262.5" y1="47" y2="47"/></g><!--reverse link List to CopyOnWriteArrayList--><g id="link_List_CopyOnWriteArrayList"><path d="M82.6184,71.1306 C91.6684,87.9006 95.55,95.09 106.15,114.73 " fill="none" id="List-backto-CopyOnWriteArrayList" style="stroke:#181818;stroke-width:1.0;stroke-dasharray:7.0,7.0;"/><polygon fill="none" points="74.07,55.29,77.3382,73.9801,87.8986,68.2811,74.07,55.29" style="stroke:#181818;stroke-width:1.0;"/></g><!--reverse link RandomAccess to CopyOnWriteArrayList--><g id="link_RandomAccess_CopyOnWriteArrayList"><path d="M172.3816,71.1306 C163.3316,87.9006 159.45,95.09 148.85,114.73 " fill="none" id="RandomAccess-backto-CopyOnWriteArrayList" style="stroke:#181818;stroke-width:1.0;stroke-dasharray:7.0,7.0;"/><polygon fill="none" points="180.93,55.29,167.1014,68.2811,177.6618,73.9801,180.93,55.29" style="stroke:#181818;stroke-width:1.0;"/></g><!--SRC=[HOr12i9G34JtFKKEu154AEAkKEZ6XRY8CK8qFx_yX48HxsxgnbaCpF268KLtEDPv7UtS9BXl3TT1FFQd0qYPbGjRE6pL3YQqUoqz4UVgtK7g8OOAqT1SaeI9qpF5KEa5clR3_i1I5KEKORmzcU9o1Tm-kyyN]--></g></svg>