<?xml version="1.0" encoding="us-ascii" standalone="no"?><svg xmlns="http://www.w3.org/2000/svg" xmlns:xlink="http://www.w3.org/1999/xlink" contentStyleType="text/css" height="81px" preserveAspectRatio="none" style="width:335px;height:81px;background:#FFFFFF;" version="1.1" viewBox="0 0 335 81" width="335px" zoomAndPan="magnify"><defs/><g><!--class Runnable--><g id="elem_Runnable"><rect codeLine="1" fill="#F1F1F1" height="64.2969" id="Runnable" rx="2.5" ry="2.5" style="stroke:#181818;stroke-width:0.5;" width="98" x="7" y="10"/><ellipse cx="22" cy="26" fill="#B4A7E5" rx="11" ry="11" style="stroke:#181818;stroke-width:1.0;"/><path d="M17.9219,21.7656 L17.9219,19.6094 L25.3125,19.6094 L25.3125,21.7656 L22.8438,21.7656 L22.8438,29.8438 L25.3125,29.8438 L25.3125,32 L17.9219,32 L17.9219,29.8438 L20.3906,29.8438 L20.3906,21.7656 L17.9219,21.7656 Z " fill="#000000"/><text fill="#000000" font-family="sans-serif" font-size="14" font-style="italic" lengthAdjust="spacing" textLength="66" x="36" y="30.8467">Runnable</text><line style="stroke:#181818;stroke-width:0.5;" x1="8" x2="104" y1="42" y2="42"/><line style="stroke:#181818;stroke-width:0.5;" x1="8" x2="104" y1="50" y2="50"/><text fill="#000000" font-family="sans-serif" font-size="14" lengthAdjust="spacing" textLength="65" x="13" y="66.9951">void run()</text></g><!--class Callable--><g id="elem_Callable"><rect codeLine="4" fill="#F1F1F1" height="64.2969" id="Callable" rx="2.5" ry="2.5" style="stroke:#181818;stroke-width:0.5;" width="185" x="139.5" y="10"/><ellipse cx="195.25" cy="26" fill="#B4A7E5" rx="11" ry="11" style="stroke:#181818;stroke-width:1.0;"/><path d="M191.1719,21.7656 L191.1719,19.6094 L198.5625,19.6094 L198.5625,21.7656 L196.0938,21.7656 L196.0938,29.8438 L198.5625,29.8438 L198.5625,32 L191.1719,32 L191.1719,29.8438 L193.6406,29.8438 L193.6406,21.7656 L191.1719,21.7656 Z " fill="#000000"/><text fill="#000000" font-family="sans-serif" font-size="14" font-style="italic" lengthAdjust="spacing" textLength="53" x="215.75" y="30.8467">Callable</text><rect fill="#FFFFFF" height="15.9688" style="stroke:#181818;stroke-width:1.0;stroke-dasharray:2.0,2.0;" width="10" x="317.5" y="7"/><text fill="#000000" font-family="sans-serif" font-size="12" font-style="italic" lengthAdjust="spacing" textLength="8" x="318.5" y="19.1387">V</text><line style="stroke:#181818;stroke-width:0.5;" x1="140.5" x2="323.5" y1="42" y2="42"/><line style="stroke:#181818;stroke-width:0.5;" x1="140.5" x2="323.5" y1="50" y2="50"/><text fill="#000000" font-family="sans-serif" font-size="14" lengthAdjust="spacing" textLength="173" x="145.5" y="66.9951">V call() throws Exception;</text></g><!--SRC=[oymhIIrAIqnELGWgpSjBJCf9LQZcKb0eoyzCKIWgpTFGvAhboeIhSKxCoG6fiGcp0oiBKqW6YcXeAfHa5EMN5okuLYId5fHavkTPSzK20000]--></g></svg>