<?xml version="1.0" encoding="us-ascii" standalone="no"?><svg xmlns="http://www.w3.org/2000/svg" xmlns:xlink="http://www.w3.org/1999/xlink" contentStyleType="text/css" height="278px" preserveAspectRatio="none" style="width:121px;height:278px;background:#FFFFFF;" version="1.1" viewBox="0 0 121 278" width="121px" zoomAndPan="magnify"><defs/><g><!--class LongAdder--><g id="elem_LongAdder"><rect codeLine="1" fill="#F1F1F1" height="48" id="LongAdder" rx="2.5" ry="2.5" style="stroke:#181818;stroke-width:0.5;" width="107" x="7" y="223"/><ellipse cx="22" cy="239" fill="#ADD1B2" rx="11" ry="11" style="stroke:#181818;stroke-width:1.0;"/><path d="M24.9688,244.6406 Q24.3906,244.9375 23.75,245.0781 Q23.1094,245.2344 22.4063,245.2344 Q19.9063,245.2344 18.5781,243.5938 Q17.2656,241.9375 17.2656,238.8125 Q17.2656,235.6875 18.5781,234.0313 Q19.9063,232.375 22.4063,232.375 Q23.1094,232.375 23.75,232.5313 Q24.4063,232.6875 24.9688,232.9844 L24.9688,235.7031 Q24.3438,235.125 23.75,234.8594 Q23.1563,234.5781 22.5313,234.5781 Q21.1875,234.5781 20.5,235.6563 Q19.8125,236.7188 19.8125,238.8125 Q19.8125,240.9063 20.5,241.9844 Q21.1875,243.0469 22.5313,243.0469 Q23.1563,243.0469 23.75,242.7813 Q24.3438,242.5 24.9688,241.9219 L24.9688,244.6406 Z " fill="#000000"/><text fill="#000000" font-family="sans-serif" font-size="14" lengthAdjust="spacing" textLength="75" x="36" y="243.8467">LongAdder</text><line style="stroke:#181818;stroke-width:0.5;" x1="8" x2="113" y1="255" y2="255"/><line style="stroke:#181818;stroke-width:0.5;" x1="8" x2="113" y1="263" y2="263"/></g><!--class Striped64--><g id="elem_Striped64"><rect codeLine="2" fill="#F1F1F1" height="48" id="Striped64" rx="2.5" ry="2.5" style="stroke:#181818;stroke-width:0.5;" width="99" x="11" y="115"/><ellipse cx="26" cy="131" fill="#A9DCDF" rx="11" ry="11" style="stroke:#181818;stroke-width:1.0;"/><path d="M26.1094,126.3438 L24.9531,131.4219 L27.2813,131.4219 L26.1094,126.3438 Z M24.625,124.1094 L27.6094,124.1094 L30.9688,136.5 L28.5156,136.5 L27.75,133.4375 L24.4688,133.4375 L23.7188,136.5 L21.2813,136.5 L24.625,124.1094 Z " fill="#000000"/><text fill="#000000" font-family="sans-serif" font-size="14" font-style="italic" lengthAdjust="spacing" textLength="67" x="40" y="135.8467">Striped64</text><line style="stroke:#181818;stroke-width:0.5;" x1="12" x2="109" y1="147" y2="147"/><line style="stroke:#181818;stroke-width:0.5;" x1="12" x2="109" y1="155" y2="155"/></g><!--class Number--><g id="elem_Number"><rect fill="#F1F1F1" height="48" id="Number" rx="2.5" ry="2.5" style="stroke:#181818;stroke-width:0.5;" width="87" x="17" y="7"/><ellipse cx="32" cy="23" fill="#ADD1B2" rx="11" ry="11" style="stroke:#181818;stroke-width:1.0;"/><path d="M34.9688,28.6406 Q34.3906,28.9375 33.75,29.0781 Q33.1094,29.2344 32.4063,29.2344 Q29.9063,29.2344 28.5781,27.5938 Q27.2656,25.9375 27.2656,22.8125 Q27.2656,19.6875 28.5781,18.0313 Q29.9063,16.375 32.4063,16.375 Q33.1094,16.375 33.75,16.5313 Q34.4063,16.6875 34.9688,16.9844 L34.9688,19.7031 Q34.3438,19.125 33.75,18.8594 Q33.1563,18.5781 32.5313,18.5781 Q31.1875,18.5781 30.5,19.6563 Q29.8125,20.7188 29.8125,22.8125 Q29.8125,24.9063 30.5,25.9844 Q31.1875,27.0469 32.5313,27.0469 Q33.1563,27.0469 33.75,26.7813 Q34.3438,26.5 34.9688,25.9219 L34.9688,28.6406 Z " fill="#000000"/><text fill="#000000" font-family="sans-serif" font-size="14" lengthAdjust="spacing" textLength="55" x="46" y="27.8467">Number</text><line style="stroke:#181818;stroke-width:0.5;" x1="18" x2="103" y1="39" y2="39"/><line style="stroke:#181818;stroke-width:0.5;" x1="18" x2="103" y1="47" y2="47"/></g><!--reverse link Striped64 to LongAdder--><g id="link_Striped64_LongAdder"><path d="M60.5,181.26 C60.5,198.94 60.5,205.13 60.5,222.79 " fill="none" id="Striped64-backto-LongAdder" style="stroke:#181818;stroke-width:1.0;"/><polygon fill="none" points="60.5,163.26,54.5,181.26,66.5,181.26,60.5,163.26" style="stroke:#181818;stroke-width:1.0;"/></g><!--reverse link Number to Striped64--><g id="link_Number_Striped64"><path d="M60.5,73.26 C60.5,90.94 60.5,97.13 60.5,114.79 " fill="none" id="Number-backto-Striped64" style="stroke:#181818;stroke-width:1.0;"/><polygon fill="none" points="60.5,55.26,54.5,73.26,66.5,73.26,60.5,55.26" style="stroke:#181818;stroke-width:1.0;"/></g><!--SRC=[Iyv9B2vMyCdFItTCIKajKaYjA4dDIobM22ufoYn8JJ4puKfCAYufIamkKKW6AuLBm9NwbUOcfHO10000]--></g></svg>