<?xml version="1.0" encoding="us-ascii" standalone="no"?><svg xmlns="http://www.w3.org/2000/svg" xmlns:xlink="http://www.w3.org/1999/xlink" contentStyleType="text/css" height="494px" preserveAspectRatio="none" style="width:1057px;height:494px;background:#FFFFFF;" version="1.1" viewBox="0 0 1057 494" width="1057px" zoomAndPan="magnify"><defs/><g><!--class InterruptedException--><g id="elem_InterruptedException"><rect codeLine="1" fill="#F1F1F1" height="48" id="InterruptedException" rx="2.5" ry="2.5" style="stroke:#181818;stroke-width:0.5;" width="177" x="7" y="115"/><ellipse cx="22" cy="131" fill="#ADD1B2" rx="11" ry="11" style="stroke:#181818;stroke-width:1.0;"/><path d="M24.9688,136.6406 Q24.3906,136.9375 23.75,137.0781 Q23.1094,137.2344 22.4063,137.2344 Q19.9063,137.2344 18.5781,135.5938 Q17.2656,133.9375 17.2656,130.8125 Q17.2656,127.6875 18.5781,126.0313 Q19.9063,124.375 22.4063,124.375 Q23.1094,124.375 23.75,124.5313 Q24.4063,124.6875 24.9688,124.9844 L24.9688,127.7031 Q24.3438,127.125 23.75,126.8594 Q23.1563,126.5781 22.5313,126.5781 Q21.1875,126.5781 20.5,127.6563 Q19.8125,128.7188 19.8125,130.8125 Q19.8125,132.9063 20.5,133.9844 Q21.1875,135.0469 22.5313,135.0469 Q23.1563,135.0469 23.75,134.7813 Q24.3438,134.5 24.9688,133.9219 L24.9688,136.6406 Z " fill="#000000"/><text fill="#000000" font-family="sans-serif" font-size="14" lengthAdjust="spacing" textLength="145" x="36" y="135.8467">InterruptedException</text><line style="stroke:#181818;stroke-width:0.5;" x1="8" x2="183" y1="147" y2="147"/><line style="stroke:#181818;stroke-width:0.5;" x1="8" x2="183" y1="155" y2="155"/></g><!--class Exception--><g id="elem_Exception"><rect fill="#F1F1F1" height="48" id="Exception" rx="2.5" ry="2.5" style="stroke:#181818;stroke-width:0.5;" width="100" x="247.5" y="7"/><ellipse cx="262.5" cy="23" fill="#ADD1B2" rx="11" ry="11" style="stroke:#181818;stroke-width:1.0;"/><path d="M265.4688,28.6406 Q264.8906,28.9375 264.25,29.0781 Q263.6094,29.2344 262.9063,29.2344 Q260.4063,29.2344 259.0781,27.5938 Q257.7656,25.9375 257.7656,22.8125 Q257.7656,19.6875 259.0781,18.0313 Q260.4063,16.375 262.9063,16.375 Q263.6094,16.375 264.25,16.5313 Q264.9063,16.6875 265.4688,16.9844 L265.4688,19.7031 Q264.8438,19.125 264.25,18.8594 Q263.6563,18.5781 263.0313,18.5781 Q261.6875,18.5781 261,19.6563 Q260.3125,20.7188 260.3125,22.8125 Q260.3125,24.9063 261,25.9844 Q261.6875,27.0469 263.0313,27.0469 Q263.6563,27.0469 264.25,26.7813 Q264.8438,26.5 265.4688,25.9219 L265.4688,28.6406 Z " fill="#000000"/><text fill="#000000" font-family="sans-serif" font-size="14" lengthAdjust="spacing" textLength="68" x="276.5" y="27.8467">Exception</text><line style="stroke:#181818;stroke-width:0.5;" x1="248.5" x2="346.5" y1="39" y2="39"/><line style="stroke:#181818;stroke-width:0.5;" x1="248.5" x2="346.5" y1="47" y2="47"/></g><!--class RuntimeException--><g id="elem_RuntimeException"><rect codeLine="2" fill="#F1F1F1" height="48" id="RuntimeException" rx="2.5" ry="2.5" style="stroke:#181818;stroke-width:0.5;" width="158" x="218.5" y="115"/><ellipse cx="233.5" cy="131" fill="#ADD1B2" rx="11" ry="11" style="stroke:#181818;stroke-width:1.0;"/><path d="M236.4688,136.6406 Q235.8906,136.9375 235.25,137.0781 Q234.6094,137.2344 233.9063,137.2344 Q231.4063,137.2344 230.0781,135.5938 Q228.7656,133.9375 228.7656,130.8125 Q228.7656,127.6875 230.0781,126.0313 Q231.4063,124.375 233.9063,124.375 Q234.6094,124.375 235.25,124.5313 Q235.9063,124.6875 236.4688,124.9844 L236.4688,127.7031 Q235.8438,127.125 235.25,126.8594 Q234.6563,126.5781 234.0313,126.5781 Q232.6875,126.5781 232,127.6563 Q231.3125,128.7188 231.3125,130.8125 Q231.3125,132.9063 232,133.9844 Q232.6875,135.0469 234.0313,135.0469 Q234.6563,135.0469 235.25,134.7813 Q235.8438,134.5 236.4688,133.9219 L236.4688,136.6406 Z " fill="#000000"/><text fill="#000000" font-family="sans-serif" font-size="14" lengthAdjust="spacing" textLength="126" x="247.5" y="135.8467">RuntimeException</text><line style="stroke:#181818;stroke-width:0.5;" x1="219.5" x2="375.5" y1="147" y2="147"/><line style="stroke:#181818;stroke-width:0.5;" x1="219.5" x2="375.5" y1="155" y2="155"/></g><!--class IOException--><g id="elem_IOException"><rect codeLine="3" fill="#F1F1F1" height="48" id="IOException" rx="2.5" ry="2.5" style="stroke:#181818;stroke-width:0.5;" width="114" x="454.5" y="115"/><ellipse cx="469.5" cy="131" fill="#ADD1B2" rx="11" ry="11" style="stroke:#181818;stroke-width:1.0;"/><path d="M472.4688,136.6406 Q471.8906,136.9375 471.25,137.0781 Q470.6094,137.2344 469.9063,137.2344 Q467.4063,137.2344 466.0781,135.5938 Q464.7656,133.9375 464.7656,130.8125 Q464.7656,127.6875 466.0781,126.0313 Q467.4063,124.375 469.9063,124.375 Q470.6094,124.375 471.25,124.5313 Q471.9063,124.6875 472.4688,124.9844 L472.4688,127.7031 Q471.8438,127.125 471.25,126.8594 Q470.6563,126.5781 470.0313,126.5781 Q468.6875,126.5781 468,127.6563 Q467.3125,128.7188 467.3125,130.8125 Q467.3125,132.9063 468,133.9844 Q468.6875,135.0469 470.0313,135.0469 Q470.6563,135.0469 471.25,134.7813 Q471.8438,134.5 472.4688,133.9219 L472.4688,136.6406 Z " fill="#000000"/><text fill="#000000" font-family="sans-serif" font-size="14" lengthAdjust="spacing" textLength="82" x="483.5" y="135.8467">IOException</text><line style="stroke:#181818;stroke-width:0.5;" x1="455.5" x2="567.5" y1="147" y2="147"/><line style="stroke:#181818;stroke-width:0.5;" x1="455.5" x2="567.5" y1="155" y2="155"/></g><!--class SocketException--><g id="elem_SocketException"><rect codeLine="4" fill="#F1F1F1" height="48" id="SocketException" rx="2.5" ry="2.5" style="stroke:#181818;stroke-width:0.5;" width="148" x="437.5" y="223"/><ellipse cx="452.5" cy="239" fill="#ADD1B2" rx="11" ry="11" style="stroke:#181818;stroke-width:1.0;"/><path d="M455.4688,244.6406 Q454.8906,244.9375 454.25,245.0781 Q453.6094,245.2344 452.9063,245.2344 Q450.4063,245.2344 449.0781,243.5938 Q447.7656,241.9375 447.7656,238.8125 Q447.7656,235.6875 449.0781,234.0313 Q450.4063,232.375 452.9063,232.375 Q453.6094,232.375 454.25,232.5313 Q454.9063,232.6875 455.4688,232.9844 L455.4688,235.7031 Q454.8438,235.125 454.25,234.8594 Q453.6563,234.5781 453.0313,234.5781 Q451.6875,234.5781 451,235.6563 Q450.3125,236.7188 450.3125,238.8125 Q450.3125,240.9063 451,241.9844 Q451.6875,243.0469 453.0313,243.0469 Q453.6563,243.0469 454.25,242.7813 Q454.8438,242.5 455.4688,241.9219 L455.4688,244.6406 Z " fill="#000000"/><text fill="#000000" font-family="sans-serif" font-size="14" lengthAdjust="spacing" textLength="116" x="466.5" y="243.8467">SocketException</text><line style="stroke:#181818;stroke-width:0.5;" x1="438.5" x2="584.5" y1="255" y2="255"/><line style="stroke:#181818;stroke-width:0.5;" x1="438.5" x2="584.5" y1="263" y2="263"/></g><!--class ClosedByInterruptException--><g id="elem_ClosedByInterruptException"><rect codeLine="5" fill="#F1F1F1" height="48" id="ClosedByInterruptException" rx="2.5" ry="2.5" style="stroke:#181818;stroke-width:0.5;" width="224" x="597.5" y="439"/><ellipse cx="612.5" cy="455" fill="#ADD1B2" rx="11" ry="11" style="stroke:#181818;stroke-width:1.0;"/><path d="M615.4688,460.6406 Q614.8906,460.9375 614.25,461.0781 Q613.6094,461.2344 612.9063,461.2344 Q610.4063,461.2344 609.0781,459.5938 Q607.7656,457.9375 607.7656,454.8125 Q607.7656,451.6875 609.0781,450.0313 Q610.4063,448.375 612.9063,448.375 Q613.6094,448.375 614.25,448.5313 Q614.9063,448.6875 615.4688,448.9844 L615.4688,451.7031 Q614.8438,451.125 614.25,450.8594 Q613.6563,450.5781 613.0313,450.5781 Q611.6875,450.5781 611,451.6563 Q610.3125,452.7188 610.3125,454.8125 Q610.3125,456.9063 611,457.9844 Q611.6875,459.0469 613.0313,459.0469 Q613.6563,459.0469 614.25,458.7813 Q614.8438,458.5 615.4688,457.9219 L615.4688,460.6406 Z " fill="#000000"/><text fill="#000000" font-family="sans-serif" font-size="14" lengthAdjust="spacing" textLength="192" x="626.5" y="459.8467">ClosedByInterruptException</text><line style="stroke:#181818;stroke-width:0.5;" x1="598.5" x2="820.5" y1="471" y2="471"/><line style="stroke:#181818;stroke-width:0.5;" x1="598.5" x2="820.5" y1="479" y2="479"/></g><!--class AsynchronousCloseException--><g id="elem_AsynchronousCloseException"><rect codeLine="6" fill="#F1F1F1" height="48" id="AsynchronousCloseException" rx="2.5" ry="2.5" style="stroke:#181818;stroke-width:0.5;" width="238" x="662.5" y="331"/><ellipse cx="677.5" cy="347" fill="#ADD1B2" rx="11" ry="11" style="stroke:#181818;stroke-width:1.0;"/><path d="M680.4688,352.6406 Q679.8906,352.9375 679.25,353.0781 Q678.6094,353.2344 677.9063,353.2344 Q675.4063,353.2344 674.0781,351.5938 Q672.7656,349.9375 672.7656,346.8125 Q672.7656,343.6875 674.0781,342.0313 Q675.4063,340.375 677.9063,340.375 Q678.6094,340.375 679.25,340.5313 Q679.9063,340.6875 680.4688,340.9844 L680.4688,343.7031 Q679.8438,343.125 679.25,342.8594 Q678.6563,342.5781 678.0313,342.5781 Q676.6875,342.5781 676,343.6563 Q675.3125,344.7188 675.3125,346.8125 Q675.3125,348.9063 676,349.9844 Q676.6875,351.0469 678.0313,351.0469 Q678.6563,351.0469 679.25,350.7813 Q679.8438,350.5 680.4688,349.9219 L680.4688,352.6406 Z " fill="#000000"/><text fill="#000000" font-family="sans-serif" font-size="14" lengthAdjust="spacing" textLength="206" x="691.5" y="351.8467">AsynchronousCloseException</text><line style="stroke:#181818;stroke-width:0.5;" x1="663.5" x2="899.5" y1="363" y2="363"/><line style="stroke:#181818;stroke-width:0.5;" x1="663.5" x2="899.5" y1="371" y2="371"/></g><!--class ClosedChannelException--><g id="elem_ClosedChannelException"><rect codeLine="7" fill="#F1F1F1" height="48" id="ClosedChannelException" rx="2.5" ry="2.5" style="stroke:#181818;stroke-width:0.5;" width="205" x="679" y="223"/><ellipse cx="694" cy="239" fill="#ADD1B2" rx="11" ry="11" style="stroke:#181818;stroke-width:1.0;"/><path d="M696.9688,244.6406 Q696.3906,244.9375 695.75,245.0781 Q695.1094,245.2344 694.4063,245.2344 Q691.9063,245.2344 690.5781,243.5938 Q689.2656,241.9375 689.2656,238.8125 Q689.2656,235.6875 690.5781,234.0313 Q691.9063,232.375 694.4063,232.375 Q695.1094,232.375 695.75,232.5313 Q696.4063,232.6875 696.9688,232.9844 L696.9688,235.7031 Q696.3438,235.125 695.75,234.8594 Q695.1563,234.5781 694.5313,234.5781 Q693.1875,234.5781 692.5,235.6563 Q691.8125,236.7188 691.8125,238.8125 Q691.8125,240.9063 692.5,241.9844 Q693.1875,243.0469 694.5313,243.0469 Q695.1563,243.0469 695.75,242.7813 Q696.3438,242.5 696.9688,241.9219 L696.9688,244.6406 Z " fill="#000000"/><text fill="#000000" font-family="sans-serif" font-size="14" lengthAdjust="spacing" textLength="173" x="708" y="243.8467">ClosedChannelException</text><line style="stroke:#181818;stroke-width:0.5;" x1="680" x2="883" y1="255" y2="255"/><line style="stroke:#181818;stroke-width:0.5;" x1="680" x2="883" y1="263" y2="263"/></g><!--class ClosedSelectorException--><g id="elem_ClosedSelectorException"><rect codeLine="8" fill="#F1F1F1" height="48" id="ClosedSelectorException" rx="2.5" ry="2.5" style="stroke:#181818;stroke-width:0.5;" width="205" x="156" y="331"/><ellipse cx="171" cy="347" fill="#ADD1B2" rx="11" ry="11" style="stroke:#181818;stroke-width:1.0;"/><path d="M173.9688,352.6406 Q173.3906,352.9375 172.75,353.0781 Q172.1094,353.2344 171.4063,353.2344 Q168.9063,353.2344 167.5781,351.5938 Q166.2656,349.9375 166.2656,346.8125 Q166.2656,343.6875 167.5781,342.0313 Q168.9063,340.375 171.4063,340.375 Q172.1094,340.375 172.75,340.5313 Q173.4063,340.6875 173.9688,340.9844 L173.9688,343.7031 Q173.3438,343.125 172.75,342.8594 Q172.1563,342.5781 171.5313,342.5781 Q170.1875,342.5781 169.5,343.6563 Q168.8125,344.7188 168.8125,346.8125 Q168.8125,348.9063 169.5,349.9844 Q170.1875,351.0469 171.5313,351.0469 Q172.1563,351.0469 172.75,350.7813 Q173.3438,350.5 173.9688,349.9219 L173.9688,352.6406 Z " fill="#000000"/><text fill="#000000" font-family="sans-serif" font-size="14" lengthAdjust="spacing" textLength="173" x="185" y="351.8467">ClosedSelectorException</text><line style="stroke:#181818;stroke-width:0.5;" x1="157" x2="360" y1="363" y2="363"/><line style="stroke:#181818;stroke-width:0.5;" x1="157" x2="360" y1="371" y2="371"/></g><!--class IllegalStateException--><g id="elem_IllegalStateException"><rect codeLine="9" fill="#F1F1F1" height="48" id="IllegalStateException" rx="2.5" ry="2.5" style="stroke:#181818;stroke-width:0.5;" width="174" x="200.5" y="223"/><ellipse cx="215.5" cy="239" fill="#ADD1B2" rx="11" ry="11" style="stroke:#181818;stroke-width:1.0;"/><path d="M218.4688,244.6406 Q217.8906,244.9375 217.25,245.0781 Q216.6094,245.2344 215.9063,245.2344 Q213.4063,245.2344 212.0781,243.5938 Q210.7656,241.9375 210.7656,238.8125 Q210.7656,235.6875 212.0781,234.0313 Q213.4063,232.375 215.9063,232.375 Q216.6094,232.375 217.25,232.5313 Q217.9063,232.6875 218.4688,232.9844 L218.4688,235.7031 Q217.8438,235.125 217.25,234.8594 Q216.6563,234.5781 216.0313,234.5781 Q214.6875,234.5781 214,235.6563 Q213.3125,236.7188 213.3125,238.8125 Q213.3125,240.9063 214,241.9844 Q214.6875,243.0469 216.0313,243.0469 Q216.6563,243.0469 217.25,242.7813 Q217.8438,242.5 218.4688,241.9219 L218.4688,244.6406 Z " fill="#000000"/><text fill="#000000" font-family="sans-serif" font-size="14" lengthAdjust="spacing" textLength="142" x="229.5" y="243.8467">IllegalStateException</text><line style="stroke:#181818;stroke-width:0.5;" x1="201.5" x2="373.5" y1="255" y2="255"/><line style="stroke:#181818;stroke-width:0.5;" x1="201.5" x2="373.5" y1="263" y2="263"/></g><g id="elem_io"><path d="M396,342.43 L396,367.5628 A0,0 0 0 0 396,367.5628 L627,367.5628 A0,0 0 0 0 627,367.5628 L627,352.43 L617,342.43 L515.5,342.43 L511.5,271.26 L507.5,342.43 L396,342.43 A0,0 0 0 0 396,342.43 " fill="#FEFFDD" style="stroke:#181818;stroke-width:0.5;"/><path d="M617,342.43 L617,352.43 L627,352.43 L617,342.43 " fill="#FEFFDD" style="stroke:#181818;stroke-width:0.5;"/><text fill="#000000" font-family="sans-serif" font-size="13" lengthAdjust="spacing" textLength="210" x="402" y="359.4969">Synchronous socket I/O in java.io</text></g><g id="elem_nio"><path d="M857,450.43 L857,475.5628 L1050,475.5628 L1050,460.43 L1040,450.43 L857,450.43 " fill="#FEFFDD" style="stroke:#181818;stroke-width:0.5;"/><path d="M1040,450.43 L1040,460.43 L1050,460.43 L1040,450.43 " fill="#FEFFDD" style="stroke:#181818;stroke-width:1.0;"/><text fill="#000000" font-family="sans-serif" font-size="13" lengthAdjust="spacing" textLength="172" x="863" y="467.4969">Synchronous I/O in java.nio</text></g><g id="elem_selector"><path d="M149.5,450.43 L149.5,475.5628 A0,0 0 0 0 149.5,475.5628 L367.5,475.5628 A0,0 0 0 0 367.5,475.5628 L367.5,460.43 L357.5,450.43 L262.5,450.43 L258.5,379.26 L254.5,450.43 L149.5,450.43 A0,0 0 0 0 149.5,450.43 " fill="#FEFFDD" style="stroke:#181818;stroke-width:0.5;"/><path d="M357.5,450.43 L357.5,460.43 L367.5,460.43 L357.5,450.43 " fill="#FEFFDD" style="stroke:#181818;stroke-width:0.5;"/><text fill="#000000" font-family="sans-serif" font-size="13" lengthAdjust="spacing" textLength="197" x="155.5" y="467.4969">Asynchronous I/O with Selector</text></g><g id="elem_lock"><path d="M34.5,234.43 L34.5,259.5628 A0,0 0 0 0 34.5,259.5628 L156.5,259.5628 A0,0 0 0 0 156.5,259.5628 L156.5,244.43 L146.5,234.43 L99.5,234.43 L95.5,163.26 L91.5,234.43 L34.5,234.43 A0,0 0 0 0 34.5,234.43 " fill="#FEFFDD" style="stroke:#181818;stroke-width:0.5;"/><path d="M146.5,234.43 L146.5,244.43 L156.5,244.43 L146.5,234.43 " fill="#FEFFDD" style="stroke:#181818;stroke-width:0.5;"/><text fill="#000000" font-family="sans-serif" font-size="13" lengthAdjust="spacing" textLength="101" x="40.5" y="251.4969">Lock acquisition</text></g><!--reverse link Exception to InterruptedException--><g id="link_Exception_InterruptedException"><path d="M237.2311,63.6237 C203.6711,81.2337 173.7,96.97 140.07,114.61 " fill="none" id="Exception-backto-InterruptedException" style="stroke:#181818;stroke-width:1.0;"/><polygon fill="none" points="253.17,55.26,234.4432,58.3107,240.019,68.9366,253.17,55.26" style="stroke:#181818;stroke-width:1.0;"/></g><!--reverse link Exception to RuntimeException--><g id="link_Exception_RuntimeException"><path d="M297.5,73.26 C297.5,90.94 297.5,97.13 297.5,114.79 " fill="none" id="Exception-backto-RuntimeException" style="stroke:#181818;stroke-width:1.0;"/><polygon fill="none" points="297.5,55.26,291.5,73.26,303.5,73.26,297.5,55.26" style="stroke:#181818;stroke-width:1.0;"/></g><!--reverse link Exception to IOException--><g id="link_Exception_IOException"><path d="M360.8595,63.3799 C396.4295,80.9999 428.85,97.06 464.39,114.67 " fill="none" id="Exception-backto-IOException" style="stroke:#181818;stroke-width:1.0;"/><polygon fill="none" points="344.73,55.39,358.1962,68.7564,363.5228,58.0034,344.73,55.39" style="stroke:#181818;stroke-width:1.0;"/></g><!--reverse link IOException to SocketException--><g id="link_IOException_SocketException"><path d="M511.5,181.26 C511.5,198.94 511.5,205.13 511.5,222.79 " fill="none" id="IOException-backto-SocketException" style="stroke:#181818;stroke-width:1.0;"/><polygon fill="none" points="511.5,163.26,505.5,181.26,517.5,181.26,511.5,163.26" style="stroke:#181818;stroke-width:1.0;"/></g><!--reverse link AsynchronousCloseException to ClosedByInterruptException--><g id="link_AsynchronousCloseException_ClosedByInterruptException"><path d="M755.5856,394.1495 C743.5756,411.8295 737.26,421.13 725.26,438.79 " fill="none" id="AsynchronousCloseException-backto-ClosedByInterruptException" style="stroke:#181818;stroke-width:1.0;"/><polygon fill="none" points="765.7,379.26,750.6224,390.7781,760.5487,397.521,765.7,379.26" style="stroke:#181818;stroke-width:1.0;"/></g><!--reverse link ClosedChannelException to AsynchronousCloseException--><g id="link_ClosedChannelException_AsynchronousCloseException"><path d="M781.5,289.26 C781.5,306.94 781.5,313.13 781.5,330.79 " fill="none" id="ClosedChannelException-backto-AsynchronousCloseException" style="stroke:#181818;stroke-width:1.0;"/><polygon fill="none" points="781.5,271.26,775.5,289.26,787.5,289.26,781.5,271.26" style="stroke:#181818;stroke-width:1.0;"/></g><!--reverse link IOException to ClosedChannelException--><g id="link_IOException_ClosedChannelException"><path d="M585.5158,169.0559 C630.5658,186.7359 676.37,204.73 721.99,222.64 " fill="none" id="IOException-backto-ClosedChannelException" style="stroke:#181818;stroke-width:1.0;"/><polygon fill="none" points="568.76,162.48,583.3239,174.6412,587.7078,163.4706,568.76,162.48" style="stroke:#181818;stroke-width:1.0;"/></g><!--reverse link IllegalStateException to ClosedSelectorException--><g id="link_IllegalStateException_ClosedSelectorException"><path d="M276.3873,288.6212 C271.5473,306.3012 269.68,313.13 264.85,330.79 " fill="none" id="IllegalStateException-backto-ClosedSelectorException" style="stroke:#181818;stroke-width:1.0;"/><polygon fill="none" points="281.14,271.26,270.6002,287.037,282.1743,290.2055,281.14,271.26" style="stroke:#181818;stroke-width:1.0;"/></g><!--reverse link RuntimeException to IllegalStateException--><g id="link_RuntimeException_IllegalStateException"><path d="M293.6173,181.1802 C291.9473,198.8602 291.36,205.13 289.69,222.79 " fill="none" id="RuntimeException-backto-IllegalStateException" style="stroke:#181818;stroke-width:1.0;"/><polygon fill="none" points="295.31,163.26,287.6439,180.616,299.5907,181.7445,295.31,163.26" style="stroke:#181818;stroke-width:1.0;"/></g><!--link ClosedChannelException to nio--><g id="link_ClosedChannelException_nio"><path codeLine="17" d="M840.84,271.47 C868.16,285.06 898.81,304.75 918.5,331 C946.33,368.1 952.05,425.68 953.21,450.24 " fill="none" id="ClosedChannelException-nio" style="stroke:#181818;stroke-width:1.0;"/></g><!--link AsynchronousCloseException to nio--><g id="link_AsynchronousCloseException_nio"><path codeLine="18" d="M819.25,379.26 C854.65,401.08 906.18,432.84 933.98,449.97 " fill="none" id="AsynchronousCloseException-nio" style="stroke:#181818;stroke-width:1.0;"/></g><!--SRC=[XPB1RiCW38RlF8NLUxjdsAeT8asgj3m18bP3nqmNErtxzYMCqYWXon7y_V1XOvncXee4kwu_2pRlLuDdiPu0huBKCEGTPIBysPFORrm7gyCwKtlpXJBdHjb4xfrdRDvksNKUUkKRcRRpv7kE-FICPI2VyNVDljL4wCeEq-AgT8qEZVYka70EZzhLecKcMwpbv7GAIf4NX4tzV25mR2vKBmUm12TzqJlhDw0Ph2_WOuuII9aSzowYlrPQU3mjmfmMAV4HhWTjVdhBTb2CZ0kRIat7ljqEIWlj3SL1uv_X9MAfsw6SrOfVFG23rnq0]--></g></svg>