<?xml version="1.0" encoding="us-ascii" standalone="no"?><svg xmlns="http://www.w3.org/2000/svg" xmlns:xlink="http://www.w3.org/1999/xlink" contentStyleType="text/css" height="329px" preserveAspectRatio="none" style="width:366px;height:329px;background:#FFFFFF;" version="1.1" viewBox="0 0 366 329" width="366px" zoomAndPan="magnify"><defs/><g><!--class CompletionService--><g id="elem_CompletionService"><rect codeLine="1" fill="#F1F1F1" height="48" id="CompletionService" rx="2.5" ry="2.5" style="stroke:#181818;stroke-width:0.5;" width="173" x="94.5" y="10"/><ellipse cx="109.5" cy="26" fill="#B4A7E5" rx="11" ry="11" style="stroke:#181818;stroke-width:1.0;"/><path d="M105.4219,21.7656 L105.4219,19.6094 L112.8125,19.6094 L112.8125,21.7656 L110.3438,21.7656 L110.3438,29.8438 L112.8125,29.8438 L112.8125,32 L105.4219,32 L105.4219,29.8438 L107.8906,29.8438 L107.8906,21.7656 L105.4219,21.7656 Z " fill="#000000"/><text fill="#000000" font-family="sans-serif" font-size="14" font-style="italic" lengthAdjust="spacing" textLength="129" x="123.5" y="30.8467">CompletionService</text><rect fill="#FFFFFF" height="15.9688" style="stroke:#181818;stroke-width:1.0;stroke-dasharray:2.0,2.0;" width="10" x="260.5" y="7"/><text fill="#000000" font-family="sans-serif" font-size="12" font-style="italic" lengthAdjust="spacing" textLength="8" x="261.5" y="19.1387">V</text><line style="stroke:#181818;stroke-width:0.5;" x1="95.5" x2="266.5" y1="42" y2="42"/><line style="stroke:#181818;stroke-width:0.5;" x1="95.5" x2="266.5" y1="50" y2="50"/></g><!--class Executor--><g id="elem_Executor"><rect codeLine="2" fill="#F1F1F1" height="48" id="Executor" rx="2.5" ry="2.5" style="stroke:#181818;stroke-width:0.5;" width="93" x="59.5" y="274.89"/><ellipse cx="74.5" cy="290.89" fill="#B4A7E5" rx="11" ry="11" style="stroke:#181818;stroke-width:1.0;"/><path d="M70.4219,286.6556 L70.4219,284.4994 L77.8125,284.4994 L77.8125,286.6556 L75.3438,286.6556 L75.3438,294.7338 L77.8125,294.7338 L77.8125,296.89 L70.4219,296.89 L70.4219,294.7338 L72.8906,294.7338 L72.8906,286.6556 L70.4219,286.6556 Z " fill="#000000"/><text fill="#000000" font-family="sans-serif" font-size="14" font-style="italic" lengthAdjust="spacing" textLength="61" x="88.5" y="295.7367">Executor</text><line style="stroke:#181818;stroke-width:0.5;" x1="60.5" x2="151.5" y1="306.89" y2="306.89"/><line style="stroke:#181818;stroke-width:0.5;" x1="60.5" x2="151.5" y1="314.89" y2="314.89"/></g><!--class BlockingQueue--><g id="elem_BlockingQueue"><rect codeLine="3" fill="#F1F1F1" height="48" id="BlockingQueue" rx="2.5" ry="2.5" style="stroke:#181818;stroke-width:0.5;" width="138" x="188" y="274.89"/><ellipse cx="203" cy="290.89" fill="#B4A7E5" rx="11" ry="11" style="stroke:#181818;stroke-width:1.0;"/><path d="M198.9219,286.6556 L198.9219,284.4994 L206.3125,284.4994 L206.3125,286.6556 L203.8438,286.6556 L203.8438,294.7338 L206.3125,294.7338 L206.3125,296.89 L198.9219,296.89 L198.9219,294.7338 L201.3906,294.7338 L201.3906,286.6556 L198.9219,286.6556 Z " fill="#000000"/><text fill="#000000" font-family="sans-serif" font-size="14" font-style="italic" lengthAdjust="spacing" textLength="106" x="217" y="295.7367">BlockingQueue</text><line style="stroke:#181818;stroke-width:0.5;" x1="189" x2="325" y1="306.89" y2="306.89"/><line style="stroke:#181818;stroke-width:0.5;" x1="189" x2="325" y1="314.89" y2="314.89"/></g><!--class ExecutorCompletionService--><g id="elem_ExecutorCompletionService"><rect codeLine="4" fill="#F1F1F1" height="96.8906" id="ExecutorCompletionService" rx="2.5" ry="2.5" style="stroke:#181818;stroke-width:0.5;" width="348" x="7" y="118"/><ellipse cx="75.75" cy="134" fill="#ADD1B2" rx="11" ry="11" style="stroke:#181818;stroke-width:1.0;"/><path d="M78.7188,139.6406 Q78.1406,139.9375 77.5,140.0781 Q76.8594,140.2344 76.1563,140.2344 Q73.6563,140.2344 72.3281,138.5938 Q71.0156,136.9375 71.0156,133.8125 Q71.0156,130.6875 72.3281,129.0313 Q73.6563,127.375 76.1563,127.375 Q76.8594,127.375 77.5,127.5313 Q78.1563,127.6875 78.7188,127.9844 L78.7188,130.7031 Q78.0938,130.125 77.5,129.8594 Q76.9063,129.5781 76.2813,129.5781 Q74.9375,129.5781 74.25,130.6563 Q73.5625,131.7188 73.5625,133.8125 Q73.5625,135.9063 74.25,136.9844 Q74.9375,138.0469 76.2813,138.0469 Q76.9063,138.0469 77.5,137.7813 Q78.0938,137.5 78.7188,136.9219 L78.7188,139.6406 Z " fill="#000000"/><text fill="#000000" font-family="sans-serif" font-size="14" lengthAdjust="spacing" textLength="190" x="96.25" y="138.8467">ExecutorCompletionService</text><rect fill="#FFFFFF" height="15.9688" style="stroke:#181818;stroke-width:1.0;stroke-dasharray:2.0,2.0;" width="10" x="348" y="115"/><text fill="#000000" font-family="sans-serif" font-size="12" font-style="italic" lengthAdjust="spacing" textLength="8" x="349" y="127.1387">V</text><line style="stroke:#181818;stroke-width:0.5;" x1="8" x2="354" y1="150" y2="150"/><text fill="#000000" font-family="sans-serif" font-size="14" lengthAdjust="spacing" textLength="126" x="13" y="166.9951">Executor executor</text><text fill="#000000" font-family="sans-serif" font-size="14" lengthAdjust="spacing" textLength="197" x="13" y="183.292">AbstractExecutorService aes</text><text fill="#000000" font-family="sans-serif" font-size="14" lengthAdjust="spacing" textLength="336" x="13" y="199.5889">BlockingQueue&lt;Future&lt;V&gt;&gt; completionQueue</text><line style="stroke:#181818;stroke-width:0.5;" x1="8" x2="354" y1="206.8906" y2="206.8906"/></g><!--reverse link CompletionService to ExecutorCompletionService--><g id="link_CompletionService_ExecutorCompletionService"><path d="M181,76.32 C181,92.81 181,97.49 181,117.74 " fill="none" id="CompletionService-backto-ExecutorCompletionService" style="stroke:#181818;stroke-width:1.0;stroke-dasharray:7.0,7.0;"/><polygon fill="none" points="181,58.32,175,76.32,187,76.32,181,58.32" style="stroke:#181818;stroke-width:1.0;"/></g><!--reverse link ExecutorCompletionService to BlockingQueue--><g id="link_ExecutorCompletionService_BlockingQueue"><path codeLine="10" d="M214.9129,225.6474 C226.6929,245.8574 233.82,258.11 243.41,274.56 " fill="none" id="ExecutorCompletionService-backto-BlockingQueue" style="stroke:#181818;stroke-width:1.0;"/><polygon fill="#181818" points="208.87,215.28,208.4357,222.478,214.9129,225.6474,215.3473,218.4494,208.87,215.28" style="stroke:#181818;stroke-width:1.0;"/></g><!--reverse link ExecutorCompletionService to Executor--><g id="link_ExecutorCompletionService_Executor"><path codeLine="11" d="M147.5186,225.683 C135.8986,245.893 128.87,258.11 119.41,274.56 " fill="none" id="ExecutorCompletionService-backto-Executor" style="stroke:#181818;stroke-width:1.0;"/><polygon fill="#181818" points="153.5,215.28,147.0416,218.4877,147.5186,225.683,153.977,222.4753,153.5,215.28" style="stroke:#181818;stroke-width:1.0;"/></g><!--SRC=[VO_B2W8n34Nt_OgiXVc3OS0HtOlWleQh13kjjAa8Cl-kWxJutkRSvDo8LyIzPT0Y32S7bU0tY6TXjDlEICNB2pXhY4-ZtWK-YZ-iCp8CEvjIZNsxHZBD1dXDdpQw6ghRX68Zck-IHijQMCbRf3jzwT2kikOugJhYAdZK6utvsOrcJVFspVzieJS0]--></g></svg>