<?xml version="1.0" encoding="us-ascii" standalone="no"?><svg xmlns="http://www.w3.org/2000/svg" xmlns:xlink="http://www.w3.org/1999/xlink" contentStyleType="text/css" height="386px" preserveAspectRatio="none" style="width:744px;height:386px;background:#FFFFFF;" version="1.1" viewBox="0 0 744 386" width="744px" zoomAndPan="magnify"><defs/><g><!--class Map--><g id="elem_Map"><rect codeLine="1" fill="#F1F1F1" height="48" id="Map" rx="2.5" ry="2.5" style="stroke:#181818;stroke-width:0.5;" width="61" x="460" y="7"/><ellipse cx="475" cy="23" fill="#B4A7E5" rx="11" ry="11" style="stroke:#181818;stroke-width:1.0;"/><path d="M470.9219,18.7656 L470.9219,16.6094 L478.3125,16.6094 L478.3125,18.7656 L475.8438,18.7656 L475.8438,26.8438 L478.3125,26.8438 L478.3125,29 L470.9219,29 L470.9219,26.8438 L473.3906,26.8438 L473.3906,18.7656 L470.9219,18.7656 Z " fill="#000000"/><text fill="#000000" font-family="sans-serif" font-size="14" font-style="italic" lengthAdjust="spacing" textLength="29" x="489" y="27.8467">Map</text><line style="stroke:#181818;stroke-width:0.5;" x1="461" x2="520" y1="39" y2="39"/><line style="stroke:#181818;stroke-width:0.5;" x1="461" x2="520" y1="47" y2="47"/></g><!--class AbstractMap--><g id="elem_AbstractMap"><rect codeLine="2" fill="#F1F1F1" height="48" id="AbstractMap" rx="2.5" ry="2.5" style="stroke:#181818;stroke-width:0.5;" width="118" x="357.5" y="115"/><ellipse cx="372.5" cy="131" fill="#A9DCDF" rx="11" ry="11" style="stroke:#181818;stroke-width:1.0;"/><path d="M372.6094,126.3438 L371.4531,131.4219 L373.7813,131.4219 L372.6094,126.3438 Z M371.125,124.1094 L374.1094,124.1094 L377.4688,136.5 L375.0156,136.5 L374.25,133.4375 L370.9688,133.4375 L370.2188,136.5 L367.7813,136.5 L371.125,124.1094 Z " fill="#000000"/><text fill="#000000" font-family="sans-serif" font-size="14" font-style="italic" lengthAdjust="spacing" textLength="86" x="386.5" y="135.8467">AbstractMap</text><line style="stroke:#181818;stroke-width:0.5;" x1="358.5" x2="474.5" y1="147" y2="147"/><line style="stroke:#181818;stroke-width:0.5;" x1="358.5" x2="474.5" y1="155" y2="155"/></g><!--class HashMap--><g id="elem_HashMap"><rect fill="#F1F1F1" height="48" id="HashMap" rx="2.5" ry="2.5" style="stroke:#181818;stroke-width:0.5;" width="96" x="29.5" y="223"/><ellipse cx="44.5" cy="239" fill="#ADD1B2" rx="11" ry="11" style="stroke:#181818;stroke-width:1.0;"/><path d="M47.4688,244.6406 Q46.8906,244.9375 46.25,245.0781 Q45.6094,245.2344 44.9063,245.2344 Q42.4063,245.2344 41.0781,243.5938 Q39.7656,241.9375 39.7656,238.8125 Q39.7656,235.6875 41.0781,234.0313 Q42.4063,232.375 44.9063,232.375 Q45.6094,232.375 46.25,232.5313 Q46.9063,232.6875 47.4688,232.9844 L47.4688,235.7031 Q46.8438,235.125 46.25,234.8594 Q45.6563,234.5781 45.0313,234.5781 Q43.6875,234.5781 43,235.6563 Q42.3125,236.7188 42.3125,238.8125 Q42.3125,240.9063 43,241.9844 Q43.6875,243.0469 45.0313,243.0469 Q45.6563,243.0469 46.25,242.7813 Q46.8438,242.5 47.4688,241.9219 L47.4688,244.6406 Z " fill="#000000"/><text fill="#000000" font-family="sans-serif" font-size="14" lengthAdjust="spacing" textLength="64" x="58.5" y="243.8467">HashMap</text><line style="stroke:#181818;stroke-width:0.5;" x1="30.5" x2="124.5" y1="255" y2="255"/><line style="stroke:#181818;stroke-width:0.5;" x1="30.5" x2="124.5" y1="263" y2="263"/></g><!--class WeakHashMap--><g id="elem_WeakHashMap"><rect fill="#F1F1F1" height="48" id="WeakHashMap" rx="2.5" ry="2.5" style="stroke:#181818;stroke-width:0.5;" width="134" x="160.5" y="223"/><ellipse cx="175.5" cy="239" fill="#ADD1B2" rx="11" ry="11" style="stroke:#181818;stroke-width:1.0;"/><path d="M178.4688,244.6406 Q177.8906,244.9375 177.25,245.0781 Q176.6094,245.2344 175.9063,245.2344 Q173.4063,245.2344 172.0781,243.5938 Q170.7656,241.9375 170.7656,238.8125 Q170.7656,235.6875 172.0781,234.0313 Q173.4063,232.375 175.9063,232.375 Q176.6094,232.375 177.25,232.5313 Q177.9063,232.6875 178.4688,232.9844 L178.4688,235.7031 Q177.8438,235.125 177.25,234.8594 Q176.6563,234.5781 176.0313,234.5781 Q174.6875,234.5781 174,235.6563 Q173.3125,236.7188 173.3125,238.8125 Q173.3125,240.9063 174,241.9844 Q174.6875,243.0469 176.0313,243.0469 Q176.6563,243.0469 177.25,242.7813 Q177.8438,242.5 178.4688,241.9219 L178.4688,244.6406 Z " fill="#000000"/><text fill="#000000" font-family="sans-serif" font-size="14" lengthAdjust="spacing" textLength="102" x="189.5" y="243.8467">WeakHashMap</text><line style="stroke:#181818;stroke-width:0.5;" x1="161.5" x2="293.5" y1="255" y2="255"/><line style="stroke:#181818;stroke-width:0.5;" x1="161.5" x2="293.5" y1="263" y2="263"/></g><!--class LinkedHashMap--><g id="elem_LinkedHashMap"><rect fill="#F1F1F1" height="48" id="LinkedHashMap" rx="2.5" ry="2.5" style="stroke:#181818;stroke-width:0.5;" width="141" x="7" y="331"/><ellipse cx="22" cy="347" fill="#ADD1B2" rx="11" ry="11" style="stroke:#181818;stroke-width:1.0;"/><path d="M24.9688,352.6406 Q24.3906,352.9375 23.75,353.0781 Q23.1094,353.2344 22.4063,353.2344 Q19.9063,353.2344 18.5781,351.5938 Q17.2656,349.9375 17.2656,346.8125 Q17.2656,343.6875 18.5781,342.0313 Q19.9063,340.375 22.4063,340.375 Q23.1094,340.375 23.75,340.5313 Q24.4063,340.6875 24.9688,340.9844 L24.9688,343.7031 Q24.3438,343.125 23.75,342.8594 Q23.1563,342.5781 22.5313,342.5781 Q21.1875,342.5781 20.5,343.6563 Q19.8125,344.7188 19.8125,346.8125 Q19.8125,348.9063 20.5,349.9844 Q21.1875,351.0469 22.5313,351.0469 Q23.1563,351.0469 23.75,350.7813 Q24.3438,350.5 24.9688,349.9219 L24.9688,352.6406 Z " fill="#000000"/><text fill="#000000" font-family="sans-serif" font-size="14" lengthAdjust="spacing" textLength="109" x="36" y="351.8467">LinkedHashMap</text><line style="stroke:#181818;stroke-width:0.5;" x1="8" x2="147" y1="363" y2="363"/><line style="stroke:#181818;stroke-width:0.5;" x1="8" x2="147" y1="371" y2="371"/></g><!--class ConcurrentHashMap--><g id="elem_ConcurrentHashMap"><rect fill="#F1F1F1" height="48" id="ConcurrentHashMap" rx="2.5" ry="2.5" style="stroke:#181818;stroke-width:0.5;" width="174" x="329.5" y="223"/><ellipse cx="344.5" cy="239" fill="#ADD1B2" rx="11" ry="11" style="stroke:#181818;stroke-width:1.0;"/><path d="M347.4688,244.6406 Q346.8906,244.9375 346.25,245.0781 Q345.6094,245.2344 344.9063,245.2344 Q342.4063,245.2344 341.0781,243.5938 Q339.7656,241.9375 339.7656,238.8125 Q339.7656,235.6875 341.0781,234.0313 Q342.4063,232.375 344.9063,232.375 Q345.6094,232.375 346.25,232.5313 Q346.9063,232.6875 347.4688,232.9844 L347.4688,235.7031 Q346.8438,235.125 346.25,234.8594 Q345.6563,234.5781 345.0313,234.5781 Q343.6875,234.5781 343,235.6563 Q342.3125,236.7188 342.3125,238.8125 Q342.3125,240.9063 343,241.9844 Q343.6875,243.0469 345.0313,243.0469 Q345.6563,243.0469 346.25,242.7813 Q346.8438,242.5 347.4688,241.9219 L347.4688,244.6406 Z " fill="#000000"/><text fill="#000000" font-family="sans-serif" font-size="14" lengthAdjust="spacing" textLength="142" x="358.5" y="243.8467">ConcurrentHashMap</text><line style="stroke:#181818;stroke-width:0.5;" x1="330.5" x2="502.5" y1="255" y2="255"/><line style="stroke:#181818;stroke-width:0.5;" x1="330.5" x2="502.5" y1="263" y2="263"/></g><!--class SortedMap--><g id="elem_SortedMap"><rect codeLine="10" fill="#F1F1F1" height="48" id="SortedMap" rx="2.5" ry="2.5" style="stroke:#181818;stroke-width:0.5;" width="107" x="565" y="115"/><ellipse cx="580" cy="131" fill="#B4A7E5" rx="11" ry="11" style="stroke:#181818;stroke-width:1.0;"/><path d="M575.9219,126.7656 L575.9219,124.6094 L583.3125,124.6094 L583.3125,126.7656 L580.8438,126.7656 L580.8438,134.8438 L583.3125,134.8438 L583.3125,137 L575.9219,137 L575.9219,134.8438 L578.3906,134.8438 L578.3906,126.7656 L575.9219,126.7656 Z " fill="#000000"/><text fill="#000000" font-family="sans-serif" font-size="14" font-style="italic" lengthAdjust="spacing" textLength="75" x="594" y="135.8467">SortedMap</text><line style="stroke:#181818;stroke-width:0.5;" x1="566" x2="671" y1="147" y2="147"/><line style="stroke:#181818;stroke-width:0.5;" x1="566" x2="671" y1="155" y2="155"/></g><!--class NavigableMap--><g id="elem_NavigableMap"><rect codeLine="11" fill="#F1F1F1" height="48" id="NavigableMap" rx="2.5" ry="2.5" style="stroke:#181818;stroke-width:0.5;" width="127" x="610" y="223"/><ellipse cx="625" cy="239" fill="#B4A7E5" rx="11" ry="11" style="stroke:#181818;stroke-width:1.0;"/><path d="M620.9219,234.7656 L620.9219,232.6094 L628.3125,232.6094 L628.3125,234.7656 L625.8438,234.7656 L625.8438,242.8438 L628.3125,242.8438 L628.3125,245 L620.9219,245 L620.9219,242.8438 L623.3906,242.8438 L623.3906,234.7656 L620.9219,234.7656 Z " fill="#000000"/><text fill="#000000" font-family="sans-serif" font-size="14" font-style="italic" lengthAdjust="spacing" textLength="95" x="639" y="243.8467">NavigableMap</text><line style="stroke:#181818;stroke-width:0.5;" x1="611" x2="736" y1="255" y2="255"/><line style="stroke:#181818;stroke-width:0.5;" x1="611" x2="736" y1="263" y2="263"/></g><!--class TreeMap--><g id="elem_TreeMap"><rect fill="#F1F1F1" height="48" id="TreeMap" rx="2.5" ry="2.5" style="stroke:#181818;stroke-width:0.5;" width="93" x="568" y="331"/><ellipse cx="583" cy="347" fill="#ADD1B2" rx="11" ry="11" style="stroke:#181818;stroke-width:1.0;"/><path d="M585.9688,352.6406 Q585.3906,352.9375 584.75,353.0781 Q584.1094,353.2344 583.4063,353.2344 Q580.9063,353.2344 579.5781,351.5938 Q578.2656,349.9375 578.2656,346.8125 Q578.2656,343.6875 579.5781,342.0313 Q580.9063,340.375 583.4063,340.375 Q584.1094,340.375 584.75,340.5313 Q585.4063,340.6875 585.9688,340.9844 L585.9688,343.7031 Q585.3438,343.125 584.75,342.8594 Q584.1563,342.5781 583.5313,342.5781 Q582.1875,342.5781 581.5,343.6563 Q580.8125,344.7188 580.8125,346.8125 Q580.8125,348.9063 581.5,349.9844 Q582.1875,351.0469 583.5313,351.0469 Q584.1563,351.0469 584.75,350.7813 Q585.3438,350.5 585.9688,349.9219 L585.9688,352.6406 Z " fill="#000000"/><text fill="#000000" font-family="sans-serif" font-size="14" lengthAdjust="spacing" textLength="61" x="597" y="351.8467">TreeMap</text><line style="stroke:#181818;stroke-width:0.5;" x1="569" x2="660" y1="363" y2="363"/><line style="stroke:#181818;stroke-width:0.5;" x1="569" x2="660" y1="371" y2="371"/></g><!--reverse link Map to AbstractMap--><g id="link_Map_AbstractMap"><path codeLine="3" d="M463.9579,70.0203 C451.6179,87.7003 445.03,97.13 432.7,114.79 " fill="none" id="Map-backto-AbstractMap" style="stroke:#181818;stroke-width:1.0;"/><polygon fill="none" points="474.26,55.26,459.0378,66.5862,468.878,73.4543,474.26,55.26" style="stroke:#181818;stroke-width:1.0;"/></g><!--reverse link AbstractMap to HashMap--><g id="link_AbstractMap_HashMap"><path codeLine="4" d="M339.9035,162.3759 C284.4635,178.7059 216.74,199.12 143.5,223 C137.73,224.88 131.7,226.9 125.73,228.94 " fill="none" id="AbstractMap-backto-HashMap" style="stroke:#181818;stroke-width:1.0;"/><polygon fill="none" points="357.17,157.29,338.2082,156.6204,341.5988,168.1314,357.17,157.29" style="stroke:#181818;stroke-width:1.0;"/></g><!--reverse link AbstractMap to WeakHashMap--><g id="link_AbstractMap_WeakHashMap"><path codeLine="5" d="M359.3204,172.0648 C327.9204,189.6748 300.67,204.97 269.21,222.61 " fill="none" id="AbstractMap-backto-WeakHashMap" style="stroke:#181818;stroke-width:1.0;"/><polygon fill="none" points="375.02,163.26,356.3855,166.8316,362.2554,177.2979,375.02,163.26" style="stroke:#181818;stroke-width:1.0;"/></g><!--reverse link HashMap to LinkedHashMap--><g id="link_HashMap_LinkedHashMap"><path codeLine="6" d="M77.5,289.26 C77.5,306.94 77.5,313.13 77.5,330.79 " fill="none" id="HashMap-backto-LinkedHashMap" style="stroke:#181818;stroke-width:1.0;"/><polygon fill="none" points="77.5,271.26,71.5,289.26,83.5,289.26,77.5,271.26" style="stroke:#181818;stroke-width:1.0;"/></g><!--reverse link AbstractMap to ConcurrentHashMap--><g id="link_AbstractMap_ConcurrentHashMap"><path codeLine="8" d="M416.5,181.26 C416.5,198.94 416.5,205.13 416.5,222.79 " fill="none" id="AbstractMap-backto-ConcurrentHashMap" style="stroke:#181818;stroke-width:1.0;"/><polygon fill="none" points="416.5,163.26,410.5,181.26,422.5,181.26,416.5,163.26" style="stroke:#181818;stroke-width:1.0;"/></g><!--reverse link Map to SortedMap--><g id="link_Map_SortedMap"><path codeLine="12" d="M532.4509,66.7437 C553.7909,84.4237 569.15,97.13 590.48,114.79 " fill="none" id="Map-backto-SortedMap" style="stroke:#181818;stroke-width:1.0;"/><polygon fill="none" points="518.59,55.26,528.623,71.364,536.2788,62.1233,518.59,55.26" style="stroke:#181818;stroke-width:1.0;"/></g><!--reverse link SortedMap to NavigableMap--><g id="link_SortedMap_NavigableMap"><path codeLine="13" d="M638.8576,179.2386 C648.0276,196.9186 652.29,205.13 661.46,222.79 " fill="none" id="SortedMap-backto-NavigableMap" style="stroke:#181818;stroke-width:1.0;"/><polygon fill="none" points="630.57,163.26,633.5313,182.0011,644.1838,176.4761,630.57,163.26" style="stroke:#181818;stroke-width:1.0;"/></g><!--reverse link AbstractMap to TreeMap--><g id="link_AbstractMap_TreeMap"><path codeLine="14" d="M465.3092,173.7153 C486.8992,189.2553 500.06,200.42 521.5,223 C553.96,257.18 584.09,303.32 600.82,330.74 " fill="none" id="AbstractMap-backto-TreeMap" style="stroke:#181818;stroke-width:1.0;"/><polygon fill="none" points="450.7,163.2,461.804,178.5851,468.8143,168.8456,450.7,163.2" style="stroke:#181818;stroke-width:1.0;"/></g><!--reverse link NavigableMap to TreeMap--><g id="link_NavigableMap_TreeMap"><path codeLine="15" d="M651.8031,286.9919 C641.9731,304.6719 637.25,313.13 627.42,330.79 " fill="none" id="NavigableMap-backto-TreeMap" style="stroke:#181818;stroke-width:1.0;"/><polygon fill="none" points="660.55,271.26,646.5592,284.0763,657.0471,289.9075,660.55,271.26" style="stroke:#181818;stroke-width:1.0;"/></g><!--SRC=[oymhIIrAIqnELV1DBE1AJ2ekAKfCBb58paaiBbPmX791Ka2iO5EZguiYYCI6I7ea5cTWbGXFJSo6IK9fY8HFPbvsQWfC2bEZStvUScbHKMfU2LnD9jpDmVb59Qaf8464c5zYMMPwOb9EAegh4IhXB8W4Yd8CsqEAKi4IoAfGP000]--></g></svg>