<?xml version="1.0" encoding="us-ascii" standalone="no"?><svg xmlns="http://www.w3.org/2000/svg" xmlns:xlink="http://www.w3.org/1999/xlink" contentStyleType="text/css" height="316px" preserveAspectRatio="none" style="width:710px;height:316px;background:#FFFFFF;" version="1.1" viewBox="0 0 710 316" width="710px" zoomAndPan="magnify"><defs/><g><!--class Thread--><g id="elem_Thread"><rect codeLine="1" fill="#F1F1F1" height="96.8906" id="Thread" rx="2.5" ry="2.5" style="stroke:#181818;stroke-width:0.5;" width="233" x="7" y="212.78"/><ellipse cx="94.75" cy="228.78" fill="#ADD1B2" rx="11" ry="11" style="stroke:#181818;stroke-width:1.0;"/><path d="M97.7188,234.4206 Q97.1406,234.7175 96.5,234.8581 Q95.8594,235.0144 95.1563,235.0144 Q92.6563,235.0144 91.3281,233.3738 Q90.0156,231.7175 90.0156,228.5925 Q90.0156,225.4675 91.3281,223.8113 Q92.6563,222.155 95.1563,222.155 Q95.8594,222.155 96.5,222.3113 Q97.1563,222.4675 97.7188,222.7644 L97.7188,225.4831 Q97.0938,224.905 96.5,224.6394 Q95.9063,224.3581 95.2813,224.3581 Q93.9375,224.3581 93.25,225.4363 Q92.5625,226.4988 92.5625,228.5925 Q92.5625,230.6863 93.25,231.7644 Q93.9375,232.8269 95.2813,232.8269 Q95.9063,232.8269 96.5,232.5613 Q97.0938,232.28 97.7188,231.7019 L97.7188,234.4206 Z " fill="#000000"/><text fill="#000000" font-family="sans-serif" font-size="14" lengthAdjust="spacing" textLength="49" x="115.25" y="233.6267">Thread</text><line style="stroke:#181818;stroke-width:0.5;" x1="8" x2="239" y1="244.78" y2="244.78"/><line style="stroke:#181818;stroke-width:0.5;" x1="8" x2="239" y1="252.78" y2="252.78"/><text fill="#000000" font-family="sans-serif" font-size="14" lengthAdjust="spacing" textLength="87" x="13" y="269.7751">interrupted()</text><text fill="#000000" font-family="sans-serif" font-size="14" lengthAdjust="spacing" textLength="41" x="13" y="286.072">yield()</text><text fill="#000000" font-family="sans-serif" font-size="14" lengthAdjust="spacing" textLength="221" x="13" y="302.3689">getUncaughtExceptionHandler()</text></g><!--class Runnable--><g id="elem_Runnable"><rect fill="#F1F1F1" height="48" id="Runnable" rx="2.5" ry="2.5" style="stroke:#181818;stroke-width:0.5;" width="98" x="74.5" y="55.89"/><ellipse cx="89.5" cy="71.89" fill="#B4A7E5" rx="11" ry="11" style="stroke:#181818;stroke-width:1.0;"/><path d="M85.4219,67.6556 L85.4219,65.4994 L92.8125,65.4994 L92.8125,67.6556 L90.3438,67.6556 L90.3438,75.7338 L92.8125,75.7338 L92.8125,77.89 L85.4219,77.89 L85.4219,75.7338 L87.8906,75.7338 L87.8906,67.6556 L85.4219,67.6556 Z " fill="#000000"/><text fill="#000000" font-family="sans-serif" font-size="14" font-style="italic" lengthAdjust="spacing" textLength="66" x="103.5" y="76.7367">Runnable</text><line style="stroke:#181818;stroke-width:0.5;" x1="75.5" x2="171.5" y1="87.89" y2="87.89"/><line style="stroke:#181818;stroke-width:0.5;" x1="75.5" x2="171.5" y1="95.89" y2="95.89"/></g><!--class State--><g id="elem_State"><rect codeLine="6" fill="#F1F1F1" height="145.7813" id="State" rx="2.5" ry="2.5" style="stroke:#181818;stroke-width:0.5;" width="121" x="208" y="7"/><ellipse cx="246.85" cy="23" fill="#EB937F" rx="11" ry="11" style="stroke:#181818;stroke-width:1.0;"/><path d="M250.9594,29 L243.2406,29 L243.2406,16.6094 L250.9594,16.6094 L250.9594,18.7656 L245.6938,18.7656 L245.6938,21.4375 L250.4594,21.4375 L250.4594,23.5938 L245.6938,23.5938 L245.6938,26.8438 L250.9594,26.8438 L250.9594,29 Z " fill="#000000"/><text fill="#000000" font-family="sans-serif" font-size="14" lengthAdjust="spacing" textLength="36" x="266.15" y="27.8467">State</text><line style="stroke:#181818;stroke-width:0.5;" x1="209" x2="328" y1="39" y2="39"/><text fill="#000000" font-family="sans-serif" font-size="14" lengthAdjust="spacing" textLength="32" x="214" y="55.9951">NEW</text><text fill="#000000" font-family="sans-serif" font-size="14" lengthAdjust="spacing" textLength="75" x="214" y="72.292">RUNNABLE</text><text fill="#000000" font-family="sans-serif" font-size="14" lengthAdjust="spacing" textLength="67" x="214" y="88.5889">BLOCKED</text><text fill="#000000" font-family="sans-serif" font-size="14" lengthAdjust="spacing" textLength="58" x="214" y="104.8857">WAITING</text><text fill="#000000" font-family="sans-serif" font-size="14" lengthAdjust="spacing" textLength="109" x="214" y="121.1826">TIMED_WAITING</text><text fill="#000000" font-family="sans-serif" font-size="14" lengthAdjust="spacing" textLength="91" x="214" y="137.4795">TERMINATED</text><line style="stroke:#181818;stroke-width:0.5;" x1="209" x2="328" y1="144.7813" y2="144.7813"/></g><!--class Thread_UncaughtExceptionHandler--><g id="elem_Thread_UncaughtExceptionHandler"><rect codeLine="14" fill="#F1F1F1" height="64.2969" id="Thread_UncaughtExceptionHandler" rx="2.5" ry="2.5" style="stroke:#181818;stroke-width:0.5;" width="339" x="364" y="47.74"/><ellipse cx="408.75" cy="63.74" fill="#B4A7E5" rx="11" ry="11" style="stroke:#181818;stroke-width:1.0;"/><path d="M404.6719,59.5056 L404.6719,57.3494 L412.0625,57.3494 L412.0625,59.5056 L409.5938,59.5056 L409.5938,67.5838 L412.0625,67.5838 L412.0625,69.74 L404.6719,69.74 L404.6719,67.5838 L407.1406,67.5838 L407.1406,59.5056 L404.6719,59.5056 Z " fill="#000000"/><text fill="#000000" font-family="sans-serif" font-size="14" font-style="italic" lengthAdjust="spacing" textLength="241" x="429.25" y="68.5867">Thread.UncaughtExceptionHandler</text><line style="stroke:#181818;stroke-width:0.5;" x1="365" x2="702" y1="79.74" y2="79.74"/><line style="stroke:#181818;stroke-width:0.5;" x1="365" x2="702" y1="87.74" y2="87.74"/><text fill="#000000" font-family="sans-serif" font-size="14" lengthAdjust="spacing" textLength="327" x="370" y="104.7351">void uncaughtException(Thread t, Throwable e)</text></g><!--class ThreadGroup--><g id="elem_ThreadGroup"><rect codeLine="17" fill="#F1F1F1" height="48" id="ThreadGroup" rx="2.5" ry="2.5" style="stroke:#181818;stroke-width:0.5;" width="124" x="471.5" y="237.22"/><ellipse cx="486.5" cy="253.22" fill="#ADD1B2" rx="11" ry="11" style="stroke:#181818;stroke-width:1.0;"/><path d="M489.4688,258.8606 Q488.8906,259.1575 488.25,259.2981 Q487.6094,259.4544 486.9063,259.4544 Q484.4063,259.4544 483.0781,257.8138 Q481.7656,256.1575 481.7656,253.0325 Q481.7656,249.9075 483.0781,248.2513 Q484.4063,246.595 486.9063,246.595 Q487.6094,246.595 488.25,246.7513 Q488.9063,246.9075 489.4688,247.2044 L489.4688,249.9231 Q488.8438,249.345 488.25,249.0794 Q487.6563,248.7981 487.0313,248.7981 Q485.6875,248.7981 485,249.8763 Q484.3125,250.9388 484.3125,253.0325 Q484.3125,255.1263 485,256.2044 Q485.6875,257.2669 487.0313,257.2669 Q487.6563,257.2669 488.25,257.0013 Q488.8438,256.72 489.4688,256.1419 L489.4688,258.8606 Z " fill="#000000"/><text fill="#000000" font-family="sans-serif" font-size="14" lengthAdjust="spacing" textLength="92" x="500.5" y="258.0667">ThreadGroup</text><line style="stroke:#181818;stroke-width:0.5;" x1="472.5" x2="594.5" y1="269.22" y2="269.22"/><line style="stroke:#181818;stroke-width:0.5;" x1="472.5" x2="594.5" y1="277.22" y2="277.22"/></g><!--reverse link Runnable to Thread--><g id="link_Runnable_Thread"><path d="M123.5,122.33 C123.5,149.68 123.5,177.58 123.5,212.52 " fill="none" id="Runnable-backto-Thread" style="stroke:#181818;stroke-width:1.0;stroke-dasharray:7.0,7.0;"/><polygon fill="none" points="123.5,104.33,117.5,122.33,129.5,122.33,123.5,104.33" style="stroke:#181818;stroke-width:1.0;"/></g><!--reverse link Thread_UncaughtExceptionHandler to ThreadGroup--><g id="link_Thread_UncaughtExceptionHandler_ThreadGroup"><path d="M533.5,130.13 C533.5,165.65 533.5,204.85 533.5,236.77 " fill="none" id="Thread_UncaughtExceptionHandler-backto-ThreadGroup" style="stroke:#181818;stroke-width:1.0;stroke-dasharray:7.0,7.0;"/><polygon fill="none" points="533.5,112.13,527.5,130.13,539.5,130.13,533.5,112.13" style="stroke:#181818;stroke-width:1.0;"/></g><!--SRC=[XL3B2i8m4BptAnPF2k8_j3PeKIFKYaU9wLe3QLhIZG_4VpUs2aKGByiCE-pCZjIYQI0xMHGvgBBMMAAX1b9dZ3XeX7i0e0oXjQucp8SZpsyATOSAfAsHmXKdObU9DQdAp8N9DLg_VmHeN0aR4jGTucpdPxhbF8oMpCDekPukMEpHBaooXCyyof8LY_Szpj9LmiFConv16-Ke9CAW2ptvvJy0yNbi_qlJXZfNAWVthHY-Ew7nwqXrQSl0rq-oLzdCLgxkz_R7y0a0]--></g></svg>