<?xml version="1.0" encoding="us-ascii" standalone="no"?><svg xmlns="http://www.w3.org/2000/svg" xmlns:xlink="http://www.w3.org/1999/xlink" contentStyleType="text/css" height="170px" preserveAspectRatio="none" style="width:277px;height:170px;background:#FFFFFF;" version="1.1" viewBox="0 0 277 170" width="277px" zoomAndPan="magnify"><defs/><g><!--class CompletableFuture--><g id="elem_CompletableFuture"><rect codeLine="1" fill="#F1F1F1" height="48" id="CompletableFuture" rx="2.5" ry="2.5" style="stroke:#181818;stroke-width:0.5;" width="175" x="32" y="115"/><ellipse cx="47" cy="131" fill="#ADD1B2" rx="11" ry="11" style="stroke:#181818;stroke-width:1.0;"/><path d="M49.9688,136.6406 Q49.3906,136.9375 48.75,137.0781 Q48.1094,137.2344 47.4063,137.2344 Q44.9063,137.2344 43.5781,135.5938 Q42.2656,133.9375 42.2656,130.8125 Q42.2656,127.6875 43.5781,126.0313 Q44.9063,124.375 47.4063,124.375 Q48.1094,124.375 48.75,124.5313 Q49.4063,124.6875 49.9688,124.9844 L49.9688,127.7031 Q49.3438,127.125 48.75,126.8594 Q48.1563,126.5781 47.5313,126.5781 Q46.1875,126.5781 45.5,127.6563 Q44.8125,128.7188 44.8125,130.8125 Q44.8125,132.9063 45.5,133.9844 Q46.1875,135.0469 47.5313,135.0469 Q48.1563,135.0469 48.75,134.7813 Q49.3438,134.5 49.9688,133.9219 L49.9688,136.6406 Z " fill="#000000"/><text fill="#000000" font-family="sans-serif" font-size="14" lengthAdjust="spacing" textLength="132" x="61" y="135.8467">CompletableFuture</text><rect fill="#FFFFFF" height="15.9688" style="stroke:#181818;stroke-width:1.0;stroke-dasharray:2.0,2.0;" width="9" x="201" y="112"/><text fill="#000000" font-family="sans-serif" font-size="12" font-style="italic" lengthAdjust="spacing" textLength="7" x="202" y="124.1387">T</text><line style="stroke:#181818;stroke-width:0.5;" x1="33" x2="206" y1="147" y2="147"/><line style="stroke:#181818;stroke-width:0.5;" x1="33" x2="206" y1="155" y2="155"/></g><!--class Future--><g id="elem_Future"><rect fill="#F1F1F1" height="48" id="Future" rx="2.5" ry="2.5" style="stroke:#181818;stroke-width:0.5;" width="77" x="7" y="7"/><ellipse cx="22" cy="23" fill="#B4A7E5" rx="11" ry="11" style="stroke:#181818;stroke-width:1.0;"/><path d="M17.9219,18.7656 L17.9219,16.6094 L25.3125,16.6094 L25.3125,18.7656 L22.8438,18.7656 L22.8438,26.8438 L25.3125,26.8438 L25.3125,29 L17.9219,29 L17.9219,26.8438 L20.3906,26.8438 L20.3906,18.7656 L17.9219,18.7656 Z " fill="#000000"/><text fill="#000000" font-family="sans-serif" font-size="14" font-style="italic" lengthAdjust="spacing" textLength="45" x="36" y="27.8467">Future</text><line style="stroke:#181818;stroke-width:0.5;" x1="8" x2="83" y1="39" y2="39"/><line style="stroke:#181818;stroke-width:0.5;" x1="8" x2="83" y1="47" y2="47"/></g><!--class CompletionStage--><g id="elem_CompletionStage"><rect fill="#F1F1F1" height="48" id="CompletionStage" rx="2.5" ry="2.5" style="stroke:#181818;stroke-width:0.5;" width="151" x="119" y="7"/><ellipse cx="134" cy="23" fill="#B4A7E5" rx="11" ry="11" style="stroke:#181818;stroke-width:1.0;"/><path d="M129.9219,18.7656 L129.9219,16.6094 L137.3125,16.6094 L137.3125,18.7656 L134.8438,18.7656 L134.8438,26.8438 L137.3125,26.8438 L137.3125,29 L129.9219,29 L129.9219,26.8438 L132.3906,26.8438 L132.3906,18.7656 L129.9219,18.7656 Z " fill="#000000"/><text fill="#000000" font-family="sans-serif" font-size="14" font-style="italic" lengthAdjust="spacing" textLength="119" x="148" y="27.8467">CompletionStage</text><line style="stroke:#181818;stroke-width:0.5;" x1="120" x2="269" y1="39" y2="39"/><line style="stroke:#181818;stroke-width:0.5;" x1="120" x2="269" y1="47" y2="47"/></g><!--reverse link Future to CompletableFuture--><g id="link_Future_CompletableFuture"><path d="M72.0421,70.0203 C84.3821,87.7003 90.97,97.13 103.3,114.79 " fill="none" id="Future-backto-CompletableFuture" style="stroke:#181818;stroke-width:1.0;stroke-dasharray:7.0,7.0;"/><polygon fill="none" points="61.74,55.26,67.122,73.4543,76.9622,66.5862,61.74,55.26" style="stroke:#181818;stroke-width:1.0;"/></g><!--reverse link CompletionStage to CompletableFuture--><g id="link_CompletionStage_CompletableFuture"><path d="M167.6486,69.9576 C155.1486,87.6376 148.42,97.13 135.92,114.79 " fill="none" id="CompletionStage-backto-CompletableFuture" style="stroke:#181818;stroke-width:1.0;stroke-dasharray:7.0,7.0;"/><polygon fill="none" points="178.04,55.26,162.7494,66.4938,172.5478,73.4214,178.04,55.26" style="stroke:#181818;stroke-width:1.0;"/></g><!--SRC=[Iyv9B2vMSCxFBSX9BKbCoabrAoqfBKgr2R5Jo0I9vQRcbHGhG0HrOEeoy_E2InBJKm40]--></g></svg>