<?xml version="1.0" encoding="us-ascii" standalone="no"?><svg xmlns="http://www.w3.org/2000/svg" xmlns:xlink="http://www.w3.org/1999/xlink" contentStyleType="text/css" height="539px" preserveAspectRatio="none" style="width:578px;height:539px;background:#FFFFFF;" version="1.1" viewBox="0 0 578 539" width="578px" zoomAndPan="magnify"><defs/><g><!--class Collection--><g id="elem_Collection"><rect codeLine="1" fill="#F1F1F1" height="48" id="Collection" rx="2.5" ry="2.5" style="stroke:#181818;stroke-width:0.5;" width="112" x="272" y="10"/><ellipse cx="287" cy="26" fill="#B4A7E5" rx="11" ry="11" style="stroke:#181818;stroke-width:1.0;"/><path d="M282.9219,21.7656 L282.9219,19.6094 L290.3125,19.6094 L290.3125,21.7656 L287.8438,21.7656 L287.8438,29.8438 L290.3125,29.8438 L290.3125,32 L282.9219,32 L282.9219,29.8438 L285.3906,29.8438 L285.3906,21.7656 L282.9219,21.7656 Z " fill="#000000"/><text fill="#000000" font-family="sans-serif" font-size="14" font-style="italic" lengthAdjust="spacing" textLength="68" x="301" y="30.8467">Collection</text><rect fill="#FFFFFF" height="15.9688" style="stroke:#181818;stroke-width:1.0;stroke-dasharray:2.0,2.0;" width="10" x="377" y="7"/><text fill="#000000" font-family="sans-serif" font-size="12" font-style="italic" lengthAdjust="spacing" textLength="8" x="378" y="19.1387">E</text><line style="stroke:#181818;stroke-width:0.5;" x1="273" x2="383" y1="42" y2="42"/><line style="stroke:#181818;stroke-width:0.5;" x1="273" x2="383" y1="50" y2="50"/></g><!--class Queue--><g id="elem_Queue"><rect codeLine="3" fill="#F1F1F1" height="149.7813" id="Queue" rx="2.5" ry="2.5" style="stroke:#181818;stroke-width:0.5;" width="135" x="192.5" y="118"/><ellipse cx="227.3" cy="134" fill="#B4A7E5" rx="11" ry="11" style="stroke:#181818;stroke-width:1.0;"/><path d="M223.2219,129.7656 L223.2219,127.6094 L230.6125,127.6094 L230.6125,129.7656 L228.1438,129.7656 L228.1438,137.8437 L230.6125,137.8437 L230.6125,140 L223.2219,140 L223.2219,137.8437 L225.6906,137.8437 L225.6906,129.7656 L223.2219,129.7656 Z " fill="#000000"/><text fill="#000000" font-family="sans-serif" font-size="14" font-style="italic" lengthAdjust="spacing" textLength="47" x="245.7" y="138.8467">Queue</text><rect fill="#FFFFFF" height="15.9688" style="stroke:#181818;stroke-width:1.0;stroke-dasharray:2.0,2.0;" width="10" x="320.5" y="115"/><text fill="#000000" font-family="sans-serif" font-size="12" font-style="italic" lengthAdjust="spacing" textLength="8" x="321.5" y="127.1387">E</text><line style="stroke:#181818;stroke-width:0.5;" x1="193.5" x2="326.5" y1="150" y2="150"/><text fill="#000000" font-family="sans-serif" font-size="14" lengthAdjust="spacing" textLength="123" x="198.5" y="187.292">boolean offer(E e)</text><line style="stroke:#181818;stroke-width:1.0;stroke-dasharray:1.0,2.0;" x1="193.5" x2="240.5" y1="166.1484" y2="166.1484"/><text fill="#000000" font-family="sans-serif" font-size="14" lengthAdjust="spacing" textLength="39" x="240.5" y="170.4951">Insert</text><line style="stroke:#181818;stroke-width:1.0;stroke-dasharray:1.0,2.0;" x1="279.5" x2="326.5" y1="166.1484" y2="166.1484"/><text fill="#000000" font-family="sans-serif" font-size="14" lengthAdjust="spacing" textLength="47" x="198.5" y="223.8857">E poll()</text><line style="stroke:#181818;stroke-width:1.0;stroke-dasharray:1.0,2.0;" x1="193.5" x2="231.5" y1="202.7422" y2="202.7422"/><text fill="#000000" font-family="sans-serif" font-size="14" lengthAdjust="spacing" textLength="57" x="231.5" y="207.0889">Remove</text><line style="stroke:#181818;stroke-width:1.0;stroke-dasharray:1.0,2.0;" x1="288.5" x2="326.5" y1="202.7422" y2="202.7422"/><text fill="#000000" font-family="sans-serif" font-size="14" lengthAdjust="spacing" textLength="58" x="198.5" y="260.4795">E peek()</text><line style="stroke:#181818;stroke-width:1.0;stroke-dasharray:1.0,2.0;" x1="193.5" x2="231" y1="239.3359" y2="239.3359"/><text fill="#000000" font-family="sans-serif" font-size="14" lengthAdjust="spacing" textLength="58" x="231" y="243.6826">Examine</text><line style="stroke:#181818;stroke-width:1.0;stroke-dasharray:1.0,2.0;" x1="289" x2="326.5" y1="239.3359" y2="239.3359"/></g><!--class Deque--><g id="elem_Deque"><rect codeLine="11" fill="#F1F1F1" height="48" id="Deque" rx="2.5" ry="2.5" style="stroke:#181818;stroke-width:0.5;" width="91" x="193.5" y="327.78"/><ellipse cx="208.5" cy="343.78" fill="#B4A7E5" rx="11" ry="11" style="stroke:#181818;stroke-width:1.0;"/><path d="M204.4219,339.5456 L204.4219,337.3894 L211.8125,337.3894 L211.8125,339.5456 L209.3438,339.5456 L209.3438,347.6238 L211.8125,347.6238 L211.8125,349.78 L204.4219,349.78 L204.4219,347.6238 L206.8906,347.6238 L206.8906,339.5456 L204.4219,339.5456 Z " fill="#000000"/><text fill="#000000" font-family="sans-serif" font-size="14" font-style="italic" lengthAdjust="spacing" textLength="47" x="222.5" y="348.6267">Deque</text><rect fill="#FFFFFF" height="15.9688" style="stroke:#181818;stroke-width:1.0;stroke-dasharray:2.0,2.0;" width="10" x="277.5" y="324.78"/><text fill="#000000" font-family="sans-serif" font-size="12" font-style="italic" lengthAdjust="spacing" textLength="8" x="278.5" y="336.9187">E</text><line style="stroke:#181818;stroke-width:0.5;" x1="194.5" x2="283.5" y1="359.78" y2="359.78"/><line style="stroke:#181818;stroke-width:0.5;" x1="194.5" x2="283.5" y1="367.78" y2="367.78"/></g><g id="elem_GMN7"><path d="M6,339.21 L6,364.3428 A0,0 0 0 0 6,364.3428 L158,364.3428 A0,0 0 0 0 158,364.3428 L158,357.21 L193.01,351.78 L158,349.21 L158,349.21 L148,339.21 L6,339.21 A0,0 0 0 0 6,339.21 " fill="#FEFFDD" style="stroke:#181818;stroke-width:0.5;"/><path d="M148,339.21 L148,349.21 L158,349.21 L148,339.21 " fill="#FEFFDD" style="stroke:#181818;stroke-width:0.5;"/><text fill="#000000" font-family="sans-serif" font-size="13" lengthAdjust="spacing" textLength="131" x="12" y="356.2769">double ended queue</text></g><!--class List--><g id="elem_List"><rect codeLine="14" fill="#F1F1F1" height="48" id="List" rx="2.5" ry="2.5" style="stroke:#181818;stroke-width:0.5;" width="67" x="373.5" y="168.89"/><ellipse cx="388.5" cy="184.89" fill="#B4A7E5" rx="11" ry="11" style="stroke:#181818;stroke-width:1.0;"/><path d="M384.4219,180.6556 L384.4219,178.4994 L391.8125,178.4994 L391.8125,180.6556 L389.3438,180.6556 L389.3438,188.7338 L391.8125,188.7338 L391.8125,190.89 L384.4219,190.89 L384.4219,188.7338 L386.8906,188.7338 L386.8906,180.6556 L384.4219,180.6556 Z " fill="#000000"/><text fill="#000000" font-family="sans-serif" font-size="14" font-style="italic" lengthAdjust="spacing" textLength="23" x="402.5" y="189.7367">List</text><rect fill="#FFFFFF" height="15.9688" style="stroke:#181818;stroke-width:1.0;stroke-dasharray:2.0,2.0;" width="10" x="433.5" y="165.89"/><text fill="#000000" font-family="sans-serif" font-size="12" font-style="italic" lengthAdjust="spacing" textLength="8" x="434.5" y="178.0287">E</text><line style="stroke:#181818;stroke-width:0.5;" x1="374.5" x2="439.5" y1="200.89" y2="200.89"/><line style="stroke:#181818;stroke-width:0.5;" x1="374.5" x2="439.5" y1="208.89" y2="208.89"/></g><!--class AbstractSequentialList--><g id="elem_AbstractSequentialList"><rect codeLine="16" fill="#F1F1F1" height="48" id="AbstractSequentialList" rx="2.5" ry="2.5" style="stroke:#181818;stroke-width:0.5;" width="197" x="319.5" y="327.78"/><ellipse cx="334.5" cy="343.78" fill="#A9DCDF" rx="11" ry="11" style="stroke:#181818;stroke-width:1.0;"/><path d="M334.6094,339.1238 L333.4531,344.2019 L335.7813,344.2019 L334.6094,339.1238 Z M333.125,336.8894 L336.1094,336.8894 L339.4688,349.28 L337.0156,349.28 L336.25,346.2175 L332.9688,346.2175 L332.2188,349.28 L329.7813,349.28 L333.125,336.8894 Z " fill="#000000"/><text fill="#000000" font-family="sans-serif" font-size="14" font-style="italic" lengthAdjust="spacing" textLength="153" x="348.5" y="348.6267">AbstractSequentialList</text><rect fill="#FFFFFF" height="15.9688" style="stroke:#181818;stroke-width:1.0;stroke-dasharray:2.0,2.0;" width="10" x="509.5" y="324.78"/><text fill="#000000" font-family="sans-serif" font-size="12" font-style="italic" lengthAdjust="spacing" textLength="8" x="510.5" y="336.9187">E</text><line style="stroke:#181818;stroke-width:0.5;" x1="320.5" x2="515.5" y1="359.78" y2="359.78"/><line style="stroke:#181818;stroke-width:0.5;" x1="320.5" x2="515.5" y1="367.78" y2="367.78"/></g><!--class LinkedList--><g id="elem_LinkedList"><rect codeLine="18" fill="#F1F1F1" height="96.8906" id="LinkedList" rx="2.5" ry="2.5" style="stroke:#181818;stroke-width:0.5;" width="176" x="240" y="435.78"/><ellipse cx="283.8" cy="451.78" fill="#ADD1B2" rx="11" ry="11" style="stroke:#181818;stroke-width:1.0;"/><path d="M286.7688,457.4206 Q286.1906,457.7175 285.55,457.8581 Q284.9094,458.0144 284.2063,458.0144 Q281.7063,458.0144 280.3781,456.3738 Q279.0656,454.7175 279.0656,451.5925 Q279.0656,448.4675 280.3781,446.8113 Q281.7063,445.155 284.2063,445.155 Q284.9094,445.155 285.55,445.3113 Q286.2063,445.4675 286.7688,445.7644 L286.7688,448.4831 Q286.1438,447.905 285.55,447.6394 Q284.9563,447.3581 284.3313,447.3581 Q282.9875,447.3581 282.3,448.4363 Q281.6125,449.4988 281.6125,451.5925 Q281.6125,453.6863 282.3,454.7644 Q282.9875,455.8269 284.3313,455.8269 Q284.9563,455.8269 285.55,455.5613 Q286.1438,455.28 286.7688,454.7019 L286.7688,457.4206 Z " fill="#000000"/><text fill="#000000" font-family="sans-serif" font-size="14" lengthAdjust="spacing" textLength="68" x="304.2" y="456.6267">LinkedList</text><rect fill="#FFFFFF" height="15.9688" style="stroke:#181818;stroke-width:1.0;stroke-dasharray:2.0,2.0;" width="10" x="409" y="432.78"/><text fill="#000000" font-family="sans-serif" font-size="12" font-style="italic" lengthAdjust="spacing" textLength="8" x="410" y="444.9187">E</text><line style="stroke:#181818;stroke-width:0.5;" x1="241" x2="415" y1="467.78" y2="467.78"/><text fill="#000000" font-family="sans-serif" font-size="14" lengthAdjust="spacing" textLength="143" x="246" y="484.7751">transient int size = 0</text><text fill="#000000" font-family="sans-serif" font-size="14" lengthAdjust="spacing" textLength="164" x="246" y="501.072">transient Node&lt;E&gt; first</text><text fill="#000000" font-family="sans-serif" font-size="14" lengthAdjust="spacing" textLength="163" x="246" y="517.3689">transient Node&lt;E&gt; last</text><line style="stroke:#181818;stroke-width:0.5;" x1="241" x2="415" y1="524.6706" y2="524.6706"/></g><!--class Node--><g id="elem_Node"><rect codeLine="24" fill="#F1F1F1" height="96.8906" id="Node" rx="2.5" ry="2.5" style="stroke:#181818;stroke-width:0.5;" width="116" x="451" y="435.78"/><ellipse cx="481.75" cy="451.78" fill="#ADD1B2" rx="11" ry="11" style="stroke:#181818;stroke-width:1.0;"/><path d="M484.7188,457.4206 Q484.1406,457.7175 483.5,457.8581 Q482.8594,458.0144 482.1563,458.0144 Q479.6563,458.0144 478.3281,456.3738 Q477.0156,454.7175 477.0156,451.5925 Q477.0156,448.4675 478.3281,446.8113 Q479.6563,445.155 482.1563,445.155 Q482.8594,445.155 483.5,445.3113 Q484.1563,445.4675 484.7188,445.7644 L484.7188,448.4831 Q484.0938,447.905 483.5,447.6394 Q482.9063,447.3581 482.2813,447.3581 Q480.9375,447.3581 480.25,448.4363 Q479.5625,449.4988 479.5625,451.5925 Q479.5625,453.6863 480.25,454.7644 Q480.9375,455.8269 482.2813,455.8269 Q482.9063,455.8269 483.5,455.5613 Q484.0938,455.28 484.7188,454.7019 L484.7188,457.4206 Z " fill="#000000"/><text fill="#000000" font-family="sans-serif" font-size="14" lengthAdjust="spacing" textLength="37" x="499.25" y="456.6267">Node</text><rect fill="#FFFFFF" height="15.9688" style="stroke:#181818;stroke-width:1.0;stroke-dasharray:2.0,2.0;" width="10" x="560" y="432.78"/><text fill="#000000" font-family="sans-serif" font-size="12" font-style="italic" lengthAdjust="spacing" textLength="8" x="561" y="444.9187">E</text><line style="stroke:#181818;stroke-width:0.5;" x1="452" x2="566" y1="467.78" y2="467.78"/><text fill="#000000" font-family="sans-serif" font-size="14" lengthAdjust="spacing" textLength="43" x="457" y="484.7751">E item</text><text fill="#000000" font-family="sans-serif" font-size="14" lengthAdjust="spacing" textLength="104" x="457" y="501.072">Node&lt;E&gt; next</text><text fill="#000000" font-family="sans-serif" font-size="14" lengthAdjust="spacing" textLength="104" x="457" y="517.3689">Node&lt;E&gt; prev</text><line style="stroke:#181818;stroke-width:0.5;" x1="452" x2="566" y1="524.6706" y2="524.6706"/></g><!--reverse link Collection to Queue--><g id="link_Collection_Queue"><path d="M310.6639,75.0064 C303.8139,90.8164 301.52,96.1 292.24,117.5 " fill="none" id="Collection-backto-Queue" style="stroke:#181818;stroke-width:1.0;"/><polygon fill="none" points="317.82,58.49,305.1585,72.621,316.1694,77.3917,317.82,58.49" style="stroke:#181818;stroke-width:1.0;"/></g><!--reverse link Queue to Deque--><g id="link_Queue_Deque"><path d="M247.6645,286.0412 C244.7845,307.5812 244.23,311.7 242.11,327.56 " fill="none" id="Queue-backto-Deque" style="stroke:#181818;stroke-width:1.0;"/><polygon fill="none" points="250.05,268.2,241.7175,285.2461,253.6116,286.8364,250.05,268.2" style="stroke:#181818;stroke-width:1.0;"/></g><!--reverse link Collection to List--><g id="link_Collection_List"><path d="M347.9232,74.5679 C362.8532,104.2279 380.31,138.88 395.22,168.5 " fill="none" id="Collection-backto-List" style="stroke:#181818;stroke-width:1.0;"/><polygon fill="none" points="339.83,58.49,342.5639,77.2657,353.2825,71.8702,339.83,58.49" style="stroke:#181818;stroke-width:1.0;"/></g><!--reverse link List to AbstractSequentialList--><g id="link_List_AbstractSequentialList"><path d="M409.9092,235.3359 C411.9892,264.9959 414.28,297.77 416.36,327.39 " fill="none" id="List-backto-AbstractSequentialList" style="stroke:#181818;stroke-width:1.0;stroke-dasharray:7.0,7.0;"/><polygon fill="none" points="408.65,217.38,403.9239,235.7556,415.8945,234.9162,408.65,217.38" style="stroke:#181818;stroke-width:1.0;"/></g><!--reverse link AbstractSequentialList to LinkedList--><g id="link_AbstractSequentialList_LinkedList"><path d="M391.6862,390.9146 C380.3062,407.4046 374.88,415.27 360.91,435.52 " fill="none" id="AbstractSequentialList-backto-LinkedList" style="stroke:#181818;stroke-width:1.0;"/><polygon fill="none" points="401.91,376.1,386.748,387.5067,396.6244,394.3226,401.91,376.1" style="stroke:#181818;stroke-width:1.0;"/></g><!--reverse link Deque to LinkedList--><g id="link_Deque_LinkedList"><path d="M265.0543,390.9692 C276.3043,407.4592 281.64,415.27 295.45,435.52 " fill="none" id="Deque-backto-LinkedList" style="stroke:#181818;stroke-width:1.0;stroke-dasharray:7.0,7.0;"/><polygon fill="none" points="254.91,376.1,260.0978,394.3506,270.0107,387.5878,254.91,376.1" style="stroke:#181818;stroke-width:1.0;"/></g><!--reverse link LinkedList to Node--><g id="link_LinkedList_Node"><path codeLine="29" d="M428.38,484.22 C439.84,484.22 439.29,484.22 450.75,484.22 " fill="none" id="LinkedList-backto-Node" style="stroke:#181818;stroke-width:1.0;"/><polygon fill="#181818" points="416.38,484.22,422.38,488.22,428.38,484.22,422.38,480.22,416.38,484.22" style="stroke:#181818;stroke-width:1.0;"/></g><!--SRC=[RL3HJiCm37pFL_Xn86tY6G4IWZuWJKZ05wJj5QobIPUuqyJ4lsEoTdHJy-JSdSzdinV4nbQWf-0SAk7Wxue7O_X4lFNeeHXXB_1rcYZfO4ZVQaKlFY6ALXaeGt2mdaBJ82uAmjMeUqSRTXXr1NNgjJYnnTwsxASqi57wPnBd6TlpE3cVyK503eteqAFcbkhGbmwaAjIqpRA9qPgJpAzbZ2sJH5i9LSwcH8_3z-FFrmjRDpPpspcqYgNiPyonOSr-W_fomhpDr2C77wwgKfzOOTBCbFWRT4yt5zHhgFCn6euwVPxJHA8d7AADw64uCGlQN8w4rxXdG1Unq_x_dUXw6VdpIvPPyWi0]--></g></svg>