<?xml version="1.0" encoding="us-ascii" standalone="no"?><svg xmlns="http://www.w3.org/2000/svg" xmlns:xlink="http://www.w3.org/1999/xlink" contentStyleType="text/css" height="705px" preserveAspectRatio="none" style="width:1003px;height:705px;background:#FFFFFF;" version="1.1" viewBox="0 0 1003 705" width="1003px" zoomAndPan="magnify"><defs/><g><!--class Executor--><g id="elem_Executor"><rect codeLine="1" fill="#F1F1F1" height="64.2969" id="Executor" rx="2.5" ry="2.5" style="stroke:#181818;stroke-width:0.5;" width="254" x="549.5" y="7"/><ellipse cx="641.75" cy="23" fill="#B4A7E5" rx="11" ry="11" style="stroke:#181818;stroke-width:1.0;"/><path d="M637.6719,18.7656 L637.6719,16.6094 L645.0625,16.6094 L645.0625,18.7656 L642.5938,18.7656 L642.5938,26.8438 L645.0625,26.8438 L645.0625,29 L637.6719,29 L637.6719,26.8438 L640.1406,26.8438 L640.1406,18.7656 L637.6719,18.7656 Z " fill="#000000"/><text fill="#000000" font-family="sans-serif" font-size="14" font-style="italic" lengthAdjust="spacing" textLength="61" x="662.25" y="27.8467">Executor</text><line style="stroke:#181818;stroke-width:0.5;" x1="550.5" x2="802.5" y1="39" y2="39"/><line style="stroke:#181818;stroke-width:0.5;" x1="550.5" x2="802.5" y1="47" y2="47"/><text fill="#000000" font-family="sans-serif" font-size="14" lengthAdjust="spacing" textLength="242" x="555.5" y="63.9951">void execute(Runnable command);</text></g><!--class ExecutorService--><g id="elem_ExecutorService"><rect codeLine="4" fill="#F1F1F1" height="194.6719" id="ExecutorService" rx="2.5" ry="2.5" style="stroke:#181818;stroke-width:0.5;" width="385" x="484" y="131.3"/><ellipse cx="616.75" cy="147.3" fill="#B4A7E5" rx="11" ry="11" style="stroke:#181818;stroke-width:1.0;"/><path d="M612.6719,143.0656 L612.6719,140.9094 L620.0625,140.9094 L620.0625,143.0656 L617.5938,143.0656 L617.5938,151.1438 L620.0625,151.1438 L620.0625,153.3 L612.6719,153.3 L612.6719,151.1438 L615.1406,151.1438 L615.1406,143.0656 L612.6719,143.0656 Z " fill="#000000"/><text fill="#000000" font-family="sans-serif" font-size="14" font-style="italic" lengthAdjust="spacing" textLength="111" x="637.25" y="152.1467">ExecutorService</text><line style="stroke:#181818;stroke-width:0.5;" x1="485" x2="868" y1="163.3" y2="163.3"/><text fill="#000000" font-family="sans-serif" font-size="14" lengthAdjust="spacing" textLength="111" x="490" y="200.592">void shutdown()</text><text fill="#000000" font-family="sans-serif" font-size="14" lengthAdjust="spacing" textLength="226" x="490" y="216.8889">List&lt;Runnable&gt; shutdownNow()</text><text fill="#000000" font-family="sans-serif" font-size="14" lengthAdjust="spacing" textLength="151" x="490" y="233.1857">boolean isShutdown()</text><text fill="#000000" font-family="sans-serif" font-size="14" lengthAdjust="spacing" textLength="160" x="490" y="249.4826">boolean isTerminated()</text><text fill="#000000" font-family="sans-serif" font-size="14" lengthAdjust="spacing" textLength="373" x="490" y="265.7795">boolean awaitTermination(long timeout, TimeUnit unit)</text><line style="stroke:#181818;stroke-width:1.0;stroke-dasharray:1.0,2.0;" x1="485" x2="633" y1="179.4484" y2="179.4484"/><text fill="#000000" font-family="sans-serif" font-size="14" lengthAdjust="spacing" textLength="87" x="633" y="183.7951">task lifecycle</text><line style="stroke:#181818;stroke-width:1.0;stroke-dasharray:1.0,2.0;" x1="720" x2="868" y1="179.4484" y2="179.4484"/><text fill="#000000" font-family="sans-serif" font-size="14" lengthAdjust="spacing" textLength="192" x="490" y="302.3732">Future submit(Callable task)</text><text fill="#000000" font-family="sans-serif" font-size="14" lengthAdjust="spacing" textLength="205" x="490" y="318.6701">Future submit(Runnable task)</text><line style="stroke:#181818;stroke-width:1.0;stroke-dasharray:1.0,2.0;" x1="485" x2="620.5" y1="281.2297" y2="281.2297"/><text fill="#000000" font-family="sans-serif" font-size="14" lengthAdjust="spacing" textLength="112" x="620.5" y="285.5764">task submission</text><line style="stroke:#181818;stroke-width:1.0;stroke-dasharray:1.0,2.0;" x1="732.5" x2="868" y1="281.2297" y2="281.2297"/></g><!--class AbstractExecutorService--><g id="elem_AbstractExecutorService"><rect codeLine="15" fill="#F1F1F1" height="64.2969" id="AbstractExecutorService" rx="2.5" ry="2.5" style="stroke:#181818;stroke-width:0.5;" width="479" x="246" y="385.97"/><ellipse cx="397.25" cy="401.97" fill="#A9DCDF" rx="11" ry="11" style="stroke:#181818;stroke-width:1.0;"/><path d="M397.3594,397.3138 L396.2031,402.3919 L398.5313,402.3919 L397.3594,397.3138 Z M395.875,395.0794 L398.8594,395.0794 L402.2188,407.47 L399.7656,407.47 L399,404.4075 L395.7188,404.4075 L394.9688,407.47 L392.5313,407.47 L395.875,395.0794 Z " fill="#000000"/><text fill="#000000" font-family="sans-serif" font-size="14" font-style="italic" lengthAdjust="spacing" textLength="168" x="417.75" y="406.8167">AbstractExecutorService</text><line style="stroke:#181818;stroke-width:0.5;" x1="247" x2="724" y1="417.97" y2="417.97"/><line style="stroke:#181818;stroke-width:0.5;" x1="247" x2="724" y1="425.97" y2="425.97"/><text fill="#000000" font-family="sans-serif" font-size="14" lengthAdjust="spacing" textLength="467" x="252" y="442.9651">&lt;T&gt; RunnableFuture&lt;T&gt; newTaskFor(Runnable runnable, T value)</text></g><!--class ThreadPoolExecutor--><g id="elem_ThreadPoolExecutor"><rect codeLine="18" fill="#F1F1F1" height="48" id="ThreadPoolExecutor" rx="2.5" ry="2.5" style="stroke:#181818;stroke-width:0.5;" width="172" x="394.5" y="518.41"/><ellipse cx="409.5" cy="534.41" fill="#ADD1B2" rx="11" ry="11" style="stroke:#181818;stroke-width:1.0;"/><path d="M412.4688,540.0506 Q411.8906,540.3475 411.25,540.4881 Q410.6094,540.6444 409.9063,540.6444 Q407.4063,540.6444 406.0781,539.0038 Q404.7656,537.3475 404.7656,534.2225 Q404.7656,531.0975 406.0781,529.4413 Q407.4063,527.785 409.9063,527.785 Q410.6094,527.785 411.25,527.9413 Q411.9063,528.0975 412.4688,528.3944 L412.4688,531.1131 Q411.8438,530.535 411.25,530.2694 Q410.6563,529.9881 410.0313,529.9881 Q408.6875,529.9881 408,531.0663 Q407.3125,532.1288 407.3125,534.2225 Q407.3125,536.3163 408,537.3944 Q408.6875,538.4569 410.0313,538.4569 Q410.6563,538.4569 411.25,538.1913 Q411.8438,537.91 412.4688,537.3319 L412.4688,540.0506 Z " fill="#000000"/><text fill="#000000" font-family="sans-serif" font-size="14" lengthAdjust="spacing" textLength="140" x="423.5" y="539.2567">ThreadPoolExecutor</text><line style="stroke:#181818;stroke-width:0.5;" x1="395.5" x2="565.5" y1="550.41" y2="550.41"/><line style="stroke:#181818;stroke-width:0.5;" x1="395.5" x2="565.5" y1="558.41" y2="558.41"/></g><!--class BlockingQueue--><g id="elem_BlockingQueue"><rect codeLine="20" fill="#F1F1F1" height="48" id="BlockingQueue" rx="2.5" ry="2.5" style="stroke:#181818;stroke-width:0.5;" width="201" x="7" y="642.71"/><ellipse cx="22" cy="658.71" fill="#B4A7E5" rx="11" ry="11" style="stroke:#181818;stroke-width:1.0;"/><path d="M17.9219,654.4756 L17.9219,652.3194 L25.3125,652.3194 L25.3125,654.4756 L22.8438,654.4756 L22.8438,662.5538 L25.3125,662.5538 L25.3125,664.71 L17.9219,664.71 L17.9219,662.5538 L20.3906,662.5538 L20.3906,654.4756 L17.9219,654.4756 Z " fill="#000000"/><text fill="#000000" font-family="sans-serif" font-size="14" font-style="italic" lengthAdjust="spacing" textLength="106" x="36" y="663.5567">BlockingQueue</text><rect fill="#FFFFFF" height="15.9688" style="stroke:#181818;stroke-width:1.0;stroke-dasharray:2.0,2.0;" width="61" x="150" y="639.71"/><text fill="#000000" font-family="sans-serif" font-size="12" font-style="italic" lengthAdjust="spacing" textLength="59" x="151" y="651.8487">Runnable</text><line style="stroke:#181818;stroke-width:0.5;" x1="8" x2="207" y1="674.71" y2="674.71"/><line style="stroke:#181818;stroke-width:0.5;" x1="8" x2="207" y1="682.71" y2="682.71"/></g><!--class ThreadFactory--><g id="elem_ThreadFactory"><rect codeLine="21" fill="#F1F1F1" height="64.2969" id="ThreadFactory" rx="2.5" ry="2.5" style="stroke:#181818;stroke-width:0.5;" width="233" x="126" y="510.27"/><ellipse cx="188.75" cy="526.27" fill="#B4A7E5" rx="11" ry="11" style="stroke:#181818;stroke-width:1.0;"/><path d="M184.6719,522.0356 L184.6719,519.8794 L192.0625,519.8794 L192.0625,522.0356 L189.5938,522.0356 L189.5938,530.1138 L192.0625,530.1138 L192.0625,532.27 L184.6719,532.27 L184.6719,530.1138 L187.1406,530.1138 L187.1406,522.0356 L184.6719,522.0356 Z " fill="#000000"/><text fill="#000000" font-family="sans-serif" font-size="14" font-style="italic" lengthAdjust="spacing" textLength="99" x="209.25" y="531.1167">ThreadFactory</text><line style="stroke:#181818;stroke-width:0.5;" x1="127" x2="358" y1="542.27" y2="542.27"/><line style="stroke:#181818;stroke-width:0.5;" x1="127" x2="358" y1="550.27" y2="550.27"/><text fill="#000000" font-family="sans-serif" font-size="14" lengthAdjust="spacing" textLength="221" x="132" y="567.2651">Thread newThread(Runnable r);</text></g><!--class RejectedExecutionHandler--><g id="elem_RejectedExecutionHandler"><rect codeLine="24" fill="#F1F1F1" height="64.2969" id="RejectedExecutionHandler" rx="2.5" ry="2.5" style="stroke:#181818;stroke-width:0.5;" width="472" x="243.5" y="634.56"/><ellipse cx="383.75" cy="650.56" fill="#B4A7E5" rx="11" ry="11" style="stroke:#181818;stroke-width:1.0;"/><path d="M379.6719,646.3256 L379.6719,644.1694 L387.0625,644.1694 L387.0625,646.3256 L384.5938,646.3256 L384.5938,654.4038 L387.0625,654.4038 L387.0625,656.56 L379.6719,656.56 L379.6719,654.4038 L382.1406,654.4038 L382.1406,646.3256 L379.6719,646.3256 Z " fill="#000000"/><text fill="#000000" font-family="sans-serif" font-size="14" font-style="italic" lengthAdjust="spacing" textLength="183" x="404.25" y="655.4067">RejectedExecutionHandler</text><line style="stroke:#181818;stroke-width:0.5;" x1="244.5" x2="714.5" y1="666.56" y2="666.56"/><line style="stroke:#181818;stroke-width:0.5;" x1="244.5" x2="714.5" y1="674.56" y2="674.56"/><text fill="#000000" font-family="sans-serif" font-size="14" lengthAdjust="spacing" textLength="460" x="249.5" y="691.5551">void rejectedExecution(Runnable r, ThreadPoolExecutor executor);</text></g><!--class ScheduledThreadPoolExecutor--><g id="elem_ScheduledThreadPoolExecutor"><rect codeLine="32" fill="#F1F1F1" height="48" id="ScheduledThreadPoolExecutor" rx="2.5" ry="2.5" style="stroke:#181818;stroke-width:0.5;" width="246" x="750.5" y="642.71"/><ellipse cx="765.5" cy="658.71" fill="#ADD1B2" rx="11" ry="11" style="stroke:#181818;stroke-width:1.0;"/><path d="M768.4688,664.3506 Q767.8906,664.6475 767.25,664.7881 Q766.6094,664.9444 765.9063,664.9444 Q763.4063,664.9444 762.0781,663.3038 Q760.7656,661.6475 760.7656,658.5225 Q760.7656,655.3975 762.0781,653.7413 Q763.4063,652.085 765.9063,652.085 Q766.6094,652.085 767.25,652.2413 Q767.9063,652.3975 768.4688,652.6944 L768.4688,655.4131 Q767.8438,654.835 767.25,654.5694 Q766.6563,654.2881 766.0313,654.2881 Q764.6875,654.2881 764,655.3663 Q763.3125,656.4288 763.3125,658.5225 Q763.3125,660.6163 764,661.6944 Q764.6875,662.7569 766.0313,662.7569 Q766.6563,662.7569 767.25,662.4913 Q767.8438,662.21 768.4688,661.6319 L768.4688,664.3506 Z " fill="#000000"/><text fill="#000000" font-family="sans-serif" font-size="14" lengthAdjust="spacing" textLength="214" x="779.5" y="663.5567">ScheduledThreadPoolExecutor</text><line style="stroke:#181818;stroke-width:0.5;" x1="751.5" x2="995.5" y1="674.71" y2="674.71"/><line style="stroke:#181818;stroke-width:0.5;" x1="751.5" x2="995.5" y1="682.71" y2="682.71"/></g><!--class ScheduledExecutorService--><g id="elem_ScheduledExecutorService"><rect codeLine="33" fill="#F1F1F1" height="48" id="ScheduledExecutorService" rx="2.5" ry="2.5" style="stroke:#181818;stroke-width:0.5;" width="217" x="763" y="394.12"/><ellipse cx="778" cy="410.12" fill="#B4A7E5" rx="11" ry="11" style="stroke:#181818;stroke-width:1.0;"/><path d="M773.9219,405.8856 L773.9219,403.7294 L781.3125,403.7294 L781.3125,405.8856 L778.8438,405.8856 L778.8438,413.9638 L781.3125,413.9638 L781.3125,416.12 L773.9219,416.12 L773.9219,413.9638 L776.3906,413.9638 L776.3906,405.8856 L773.9219,405.8856 Z " fill="#000000"/><text fill="#000000" font-family="sans-serif" font-size="14" font-style="italic" lengthAdjust="spacing" textLength="185" x="792" y="414.9667">ScheduledExecutorService</text><line style="stroke:#181818;stroke-width:0.5;" x1="764" x2="979" y1="426.12" y2="426.12"/><line style="stroke:#181818;stroke-width:0.5;" x1="764" x2="979" y1="434.12" y2="434.12"/></g><!--reverse link Executor to ExecutorService--><g id="link_Executor_ExecutorService"><path d="M676.5,89.53 C676.5,106.1 676.5,109.44 676.5,130.98 " fill="none" id="Executor-backto-ExecutorService" style="stroke:#181818;stroke-width:1.0;"/><polygon fill="none" points="676.5,71.53,670.5,89.53,682.5,89.53,676.5,71.53" style="stroke:#181818;stroke-width:1.0;"/></g><!--reverse link ExecutorService to AbstractExecutorService--><g id="link_ExecutorService_AbstractExecutorService"><path d="M565.0753,339.01 C543.1853,360.5 534.36,369.16 517.5,385.7 " fill="none" id="ExecutorService-backto-AbstractExecutorService" style="stroke:#181818;stroke-width:1.0;stroke-dasharray:7.0,7.0;"/><polygon fill="none" points="577.92,326.4,560.8719,334.7284,569.2786,343.2916,577.92,326.4" style="stroke:#181818;stroke-width:1.0;"/></g><!--reverse link AbstractExecutorService to ThreadPoolExecutor--><g id="link_AbstractExecutorService_ThreadPoolExecutor"><path d="M483.4766,468.5951 C482.6166,489.6851 482.23,499 481.45,518.14 " fill="none" id="AbstractExecutorService-backto-ThreadPoolExecutor" style="stroke:#181818;stroke-width:1.0;"/><polygon fill="none" points="484.21,450.61,477.4816,468.3506,489.4716,468.8395,484.21,450.61" style="stroke:#181818;stroke-width:1.0;"/></g><!--reverse link ThreadPoolExecutor to BlockingQueue--><g id="link_ThreadPoolExecutor_BlockingQueue"><path codeLine="28" d="M397.6171,570.5883 C331.5171,592.2583 245.18,620.57 179.05,642.25 " fill="none" id="ThreadPoolExecutor-backto-BlockingQueue" style="stroke:#181818;stroke-width:1.0;"/><polygon fill="#181818" points="409.02,566.85,402.0725,564.9182,397.6171,570.5883,404.5647,572.5201,409.02,566.85" style="stroke:#181818;stroke-width:1.0;"/></g><!--link ThreadFactory to ThreadPoolExecutor--><g id="link_ThreadFactory_ThreadPoolExecutor"><path codeLine="29" d="M359.18,542.41 C370.87,542.41 370.56,542.41 382.25,542.41 " fill="none" id="ThreadFactory-to-ThreadPoolExecutor" style="stroke:#181818;stroke-width:1.0;"/><polygon fill="#181818" points="394.25,542.41,388.25,538.41,382.25,542.41,388.25,546.41,394.25,542.41" style="stroke:#181818;stroke-width:1.0;"/></g><!--reverse link ThreadPoolExecutor to RejectedExecutionHandler--><g id="link_ThreadPoolExecutor_RejectedExecutionHandler"><path codeLine="30" d="M480.2096,578.7096 C480.0496,597.8296 479.93,613.11 479.76,634.19 " fill="none" id="ThreadPoolExecutor-backto-RejectedExecutionHandler" style="stroke:#181818;stroke-width:1.0;"/><polygon fill="#181818" points="480.31,566.71,476.2599,572.6763,480.2096,578.7096,484.2597,572.7433,480.31,566.71" style="stroke:#181818;stroke-width:1.0;"/></g><!--reverse link ThreadPoolExecutor to ScheduledThreadPoolExecutor--><g id="link_ThreadPoolExecutor_ScheduledThreadPoolExecutor"><path d="M572.9973,572.1974 C642.6473,593.8674 728.44,620.57 798.11,642.25 " fill="none" id="ThreadPoolExecutor-backto-ScheduledThreadPoolExecutor" style="stroke:#181818;stroke-width:1.0;"/><polygon fill="none" points="555.81,566.85,571.2149,577.9266,574.7798,566.4683,555.81,566.85" style="stroke:#181818;stroke-width:1.0;"/></g><!--reverse link ScheduledExecutorService to ScheduledThreadPoolExecutor--><g id="link_ScheduledExecutorService_ScheduledThreadPoolExecutor"><path d="M871.8355,460.3194 C872.2155,507.3194 872.93,595.3 873.31,642.39 " fill="none" id="ScheduledExecutorService-backto-ScheduledThreadPoolExecutor" style="stroke:#181818;stroke-width:1.0;stroke-dasharray:7.0,7.0;"/><polygon fill="none" points="871.69,442.32,865.8357,460.3679,877.8353,460.2709,871.69,442.32" style="stroke:#181818;stroke-width:1.0;"/></g><!--reverse link ExecutorService to ScheduledExecutorService--><g id="link_ExecutorService_ScheduledExecutorService"><path d="M790.115,338.876 C816.375,364.126 829.36,376.6 847.38,393.93 " fill="none" id="ExecutorService-backto-ScheduledExecutorService" style="stroke:#181818;stroke-width:1.0;"/><polygon fill="none" points="777.14,326.4,785.9563,343.201,794.2736,334.551,777.14,326.4" style="stroke:#181818;stroke-width:1.0;"/></g><!--SRC=[VLDBJiCm4Dtd55ucgCq5g2e1ecA14BJX08uzjAQEZVnfMg7U7IVEnsaIDj5uFc_Ul9amOK1zOGBe-Gp46gdGRuJGIJAAeFP0lBL2u9m38h8eiA39VNIDsAXm1-h4t1lE1WJLGy0qHGRh8-Bi2yY5EB0qRVleWpLKbY9EdEULQRDgEwwxs9iiwt0k9GSi4DExiAftPw0A9h01EWZW4ZFJnfWKCPTYZmmhG5gpG9apFWKpoBfF4l3LDY-Orgx24zvOOnLujucVCEUrCbLkCWftmldmDSAvDWeJWmZ7MgE7vdch82j-E1GWZ1w9MscvojQeXVODAu-0CdDjDbBrVLLZk07H2NCB5GdVEpiemFJToTFjgLtS3AqesFaZb-J8nFx3WeL-NK66nzyu6AakDMtlgNdMLa3pvgAsy0t4RT0JSDg_kAlZ49ockiq8m1RJitcZxXHD9DmjbyEfffFuSZZP7DJS254Z_uuSW5eEz9yzJ8I2o-WGRjVKwpYNClf56_yV]--></g></svg>