<?xml version="1.0" encoding="us-ascii" standalone="no"?><svg xmlns="http://www.w3.org/2000/svg" xmlns:xlink="http://www.w3.org/1999/xlink" contentStyleType="text/css" height="494px" preserveAspectRatio="none" style="width:438px;height:494px;background:#FFFFFF;" version="1.1" viewBox="0 0 438 494" width="438px" zoomAndPan="magnify"><defs/><g><!--class ExecutorService--><g id="elem_ExecutorService"><rect codeLine="1" fill="#F1F1F1" height="48" id="ExecutorService" rx="2.5" ry="2.5" style="stroke:#181818;stroke-width:0.5;" width="143" x="135.5" y="115"/><ellipse cx="150.5" cy="131" fill="#B4A7E5" rx="11" ry="11" style="stroke:#181818;stroke-width:1.0;"/><path d="M146.4219,126.7656 L146.4219,124.6094 L153.8125,124.6094 L153.8125,126.7656 L151.3438,126.7656 L151.3438,134.8438 L153.8125,134.8438 L153.8125,137 L146.4219,137 L146.4219,134.8438 L148.8906,134.8438 L148.8906,126.7656 L146.4219,126.7656 Z " fill="#000000"/><text fill="#000000" font-family="sans-serif" font-size="14" font-style="italic" lengthAdjust="spacing" textLength="111" x="164.5" y="135.8467">ExecutorService</text><line style="stroke:#181818;stroke-width:0.5;" x1="136.5" x2="277.5" y1="147" y2="147"/><line style="stroke:#181818;stroke-width:0.5;" x1="136.5" x2="277.5" y1="155" y2="155"/></g><!--class Executor--><g id="elem_Executor"><rect fill="#F1F1F1" height="48" id="Executor" rx="2.5" ry="2.5" style="stroke:#181818;stroke-width:0.5;" width="93" x="160.5" y="7"/><ellipse cx="175.5" cy="23" fill="#B4A7E5" rx="11" ry="11" style="stroke:#181818;stroke-width:1.0;"/><path d="M171.4219,18.7656 L171.4219,16.6094 L178.8125,16.6094 L178.8125,18.7656 L176.3438,18.7656 L176.3438,26.8438 L178.8125,26.8438 L178.8125,29 L171.4219,29 L171.4219,26.8438 L173.8906,26.8438 L173.8906,18.7656 L171.4219,18.7656 Z " fill="#000000"/><text fill="#000000" font-family="sans-serif" font-size="14" font-style="italic" lengthAdjust="spacing" textLength="61" x="189.5" y="27.8467">Executor</text><line style="stroke:#181818;stroke-width:0.5;" x1="161.5" x2="252.5" y1="39" y2="39"/><line style="stroke:#181818;stroke-width:0.5;" x1="161.5" x2="252.5" y1="47" y2="47"/></g><!--class AbstractExecutorService--><g id="elem_AbstractExecutorService"><rect codeLine="2" fill="#F1F1F1" height="48" id="AbstractExecutorService" rx="2.5" ry="2.5" style="stroke:#181818;stroke-width:0.5;" width="200" x="31" y="223"/><ellipse cx="46" cy="239" fill="#A9DCDF" rx="11" ry="11" style="stroke:#181818;stroke-width:1.0;"/><path d="M46.1094,234.3438 L44.9531,239.4219 L47.2813,239.4219 L46.1094,234.3438 Z M44.625,232.1094 L47.6094,232.1094 L50.9688,244.5 L48.5156,244.5 L47.75,241.4375 L44.4688,241.4375 L43.7188,244.5 L41.2813,244.5 L44.625,232.1094 Z " fill="#000000"/><text fill="#000000" font-family="sans-serif" font-size="14" font-style="italic" lengthAdjust="spacing" textLength="168" x="60" y="243.8467">AbstractExecutorService</text><line style="stroke:#181818;stroke-width:0.5;" x1="32" x2="230" y1="255" y2="255"/><line style="stroke:#181818;stroke-width:0.5;" x1="32" x2="230" y1="263" y2="263"/></g><!--class ThreadPoolExecutor--><g id="elem_ThreadPoolExecutor"><rect codeLine="3" fill="#F1F1F1" height="48" id="ThreadPoolExecutor" rx="2.5" ry="2.5" style="stroke:#181818;stroke-width:0.5;" width="172" x="7" y="331"/><ellipse cx="22" cy="347" fill="#ADD1B2" rx="11" ry="11" style="stroke:#181818;stroke-width:1.0;"/><path d="M24.9688,352.6406 Q24.3906,352.9375 23.75,353.0781 Q23.1094,353.2344 22.4063,353.2344 Q19.9063,353.2344 18.5781,351.5938 Q17.2656,349.9375 17.2656,346.8125 Q17.2656,343.6875 18.5781,342.0313 Q19.9063,340.375 22.4063,340.375 Q23.1094,340.375 23.75,340.5313 Q24.4063,340.6875 24.9688,340.9844 L24.9688,343.7031 Q24.3438,343.125 23.75,342.8594 Q23.1563,342.5781 22.5313,342.5781 Q21.1875,342.5781 20.5,343.6563 Q19.8125,344.7188 19.8125,346.8125 Q19.8125,348.9063 20.5,349.9844 Q21.1875,351.0469 22.5313,351.0469 Q23.1563,351.0469 23.75,350.7813 Q24.3438,350.5 24.9688,349.9219 L24.9688,352.6406 Z " fill="#000000"/><text fill="#000000" font-family="sans-serif" font-size="14" lengthAdjust="spacing" textLength="140" x="36" y="351.8467">ThreadPoolExecutor</text><line style="stroke:#181818;stroke-width:0.5;" x1="8" x2="178" y1="363" y2="363"/><line style="stroke:#181818;stroke-width:0.5;" x1="8" x2="178" y1="371" y2="371"/></g><!--class ScheduledExecutorService--><g id="elem_ScheduledExecutorService"><rect codeLine="5" fill="#F1F1F1" height="48" id="ScheduledExecutorService" rx="2.5" ry="2.5" style="stroke:#181818;stroke-width:0.5;" width="217" x="214.5" y="331"/><ellipse cx="229.5" cy="347" fill="#B4A7E5" rx="11" ry="11" style="stroke:#181818;stroke-width:1.0;"/><path d="M225.4219,342.7656 L225.4219,340.6094 L232.8125,340.6094 L232.8125,342.7656 L230.3438,342.7656 L230.3438,350.8438 L232.8125,350.8438 L232.8125,353 L225.4219,353 L225.4219,350.8438 L227.8906,350.8438 L227.8906,342.7656 L225.4219,342.7656 Z " fill="#000000"/><text fill="#000000" font-family="sans-serif" font-size="14" font-style="italic" lengthAdjust="spacing" textLength="185" x="243.5" y="351.8467">ScheduledExecutorService</text><line style="stroke:#181818;stroke-width:0.5;" x1="215.5" x2="430.5" y1="363" y2="363"/><line style="stroke:#181818;stroke-width:0.5;" x1="215.5" x2="430.5" y1="371" y2="371"/></g><!--class ScheduledThreadPoolExecutor--><g id="elem_ScheduledThreadPoolExecutor"><rect codeLine="6" fill="#F1F1F1" height="48" id="ScheduledThreadPoolExecutor" rx="2.5" ry="2.5" style="stroke:#181818;stroke-width:0.5;" width="246" x="85" y="439"/><ellipse cx="100" cy="455" fill="#ADD1B2" rx="11" ry="11" style="stroke:#181818;stroke-width:1.0;"/><path d="M102.9688,460.6406 Q102.3906,460.9375 101.75,461.0781 Q101.1094,461.2344 100.4063,461.2344 Q97.9063,461.2344 96.5781,459.5938 Q95.2656,457.9375 95.2656,454.8125 Q95.2656,451.6875 96.5781,450.0313 Q97.9063,448.375 100.4063,448.375 Q101.1094,448.375 101.75,448.5313 Q102.4063,448.6875 102.9688,448.9844 L102.9688,451.7031 Q102.3438,451.125 101.75,450.8594 Q101.1563,450.5781 100.5313,450.5781 Q99.1875,450.5781 98.5,451.6563 Q97.8125,452.7188 97.8125,454.8125 Q97.8125,456.9063 98.5,457.9844 Q99.1875,459.0469 100.5313,459.0469 Q101.1563,459.0469 101.75,458.7813 Q102.3438,458.5 102.9688,457.9219 L102.9688,460.6406 Z " fill="#000000"/><text fill="#000000" font-family="sans-serif" font-size="14" lengthAdjust="spacing" textLength="214" x="114" y="459.8467">ScheduledThreadPoolExecutor</text><line style="stroke:#181818;stroke-width:0.5;" x1="86" x2="330" y1="471" y2="471"/><line style="stroke:#181818;stroke-width:0.5;" x1="86" x2="330" y1="479" y2="479"/></g><!--reverse link Executor to ExecutorService--><g id="link_Executor_ExecutorService"><path d="M207,73.26 C207,90.94 207,97.13 207,114.79 " fill="none" id="Executor-backto-ExecutorService" style="stroke:#181818;stroke-width:1.0;"/><polygon fill="none" points="207,55.26,201,73.26,213,73.26,207,55.26" style="stroke:#181818;stroke-width:1.0;"/></g><!--reverse link ExecutorService to AbstractExecutorService--><g id="link_ExecutorService_AbstractExecutorService"><path d="M179.835,177.891 C167.165,195.571 160.3,205.13 147.64,222.79 " fill="none" id="ExecutorService-backto-AbstractExecutorService" style="stroke:#181818;stroke-width:1.0;stroke-dasharray:7.0,7.0;"/><polygon fill="none" points="190.32,163.26,174.958,174.396,184.712,181.386,190.32,163.26" style="stroke:#181818;stroke-width:1.0;"/></g><!--reverse link AbstractExecutorService to ThreadPoolExecutor--><g id="link_AbstractExecutorService_ThreadPoolExecutor"><path d="M116.5841,288.2035 C110.2441,305.8835 107.65,313.13 101.32,330.79 " fill="none" id="AbstractExecutorService-backto-ThreadPoolExecutor" style="stroke:#181818;stroke-width:1.0;"/><polygon fill="none" points="122.66,271.26,110.9362,286.1782,122.2319,290.2288,122.66,271.26" style="stroke:#181818;stroke-width:1.0;"/></g><!--reverse link ExecutorService to ScheduledExecutorService--><g id="link_ExecutorService_ScheduledExecutorService"><path d="M228.2105,179.1332 C250.5305,220.2932 288.08,289.58 310.38,330.72 " fill="none" id="ExecutorService-backto-ScheduledExecutorService" style="stroke:#181818;stroke-width:1.0;"/><polygon fill="none" points="219.63,163.31,222.9361,181.9934,233.4849,176.2731,219.63,163.31" style="stroke:#181818;stroke-width:1.0;"/></g><!--reverse link ThreadPoolExecutor to ScheduledThreadPoolExecutor--><g id="link_ThreadPoolExecutor_ScheduledThreadPoolExecutor"><path d="M131.4718,391.4633 C150.6418,409.1433 163.66,421.13 182.82,438.79 " fill="none" id="ThreadPoolExecutor-backto-ScheduledThreadPoolExecutor" style="stroke:#181818;stroke-width:1.0;"/><polygon fill="none" points="118.24,379.26,127.404,395.8739,135.5395,387.0527,118.24,379.26" style="stroke:#181818;stroke-width:1.0;"/></g><!--reverse link ScheduledExecutorService to ScheduledThreadPoolExecutor--><g id="link_ScheduledExecutorService_ScheduledThreadPoolExecutor"><path d="M284.5282,391.4633 C265.3582,409.1433 252.34,421.13 233.18,438.79 " fill="none" id="ScheduledExecutorService-backto-ScheduledThreadPoolExecutor" style="stroke:#181818;stroke-width:1.0;stroke-dasharray:7.0,7.0;"/><polygon fill="none" points="297.76,379.26,280.4605,387.0527,288.596,395.8739,297.76,379.26" style="stroke:#181818;stroke-width:1.0;"/></g><!--SRC=[XO_13eCm34Fl_Oh-oWxSaTWFXDGJbKgBae3uV2PjgpO4u-XOzdDYDiY36BvPmRCLwI1BV6giXXoqtXtrQa9idXEf-jjRxdDnd196PDDzfNi5xuE0GbjA-lYLTTBfNAmpEnuGveHmjVSNMcD_w0VMrpDdu0q0]--></g></svg>