<?xml version="1.0" encoding="us-ascii" standalone="no"?><svg xmlns="http://www.w3.org/2000/svg" xmlns:xlink="http://www.w3.org/1999/xlink" contentStyleType="text/css" height="205px" preserveAspectRatio="none" style="width:744px;height:205px;background:#FFFFFF;" version="1.1" viewBox="0 0 744 205" width="744px" zoomAndPan="magnify"><defs/><g><!--class ReferenceQueue--><g id="elem_ReferenceQueue"><rect codeLine="1" fill="#F1F1F1" height="64.2969" id="ReferenceQueue" rx="2.5" ry="2.5" style="stroke:#181818;stroke-width:0.5;" width="278" x="455" y="18.14"/><ellipse cx="524.75" cy="34.14" fill="#ADD1B2" rx="11" ry="11" style="stroke:#181818;stroke-width:1.0;"/><path d="M527.7188,39.7806 Q527.1406,40.0775 526.5,40.2181 Q525.8594,40.3744 525.1563,40.3744 Q522.6563,40.3744 521.3281,38.7338 Q520.0156,37.0775 520.0156,33.9525 Q520.0156,30.8275 521.3281,29.1713 Q522.6563,27.515 525.1563,27.515 Q525.8594,27.515 526.5,27.6713 Q527.1563,27.8275 527.7188,28.1244 L527.7188,30.8431 Q527.0938,30.265 526.5,29.9994 Q525.9063,29.7181 525.2813,29.7181 Q523.9375,29.7181 523.25,30.7963 Q522.5625,31.8588 522.5625,33.9525 Q522.5625,36.0463 523.25,37.1244 Q523.9375,38.1869 525.2813,38.1869 Q525.9063,38.1869 526.5,37.9213 Q527.0938,37.64 527.7188,37.0619 L527.7188,39.7806 Z " fill="#000000"/><text fill="#000000" font-family="sans-serif" font-size="14" lengthAdjust="spacing" textLength="119" x="545.25" y="38.9867">ReferenceQueue</text><rect fill="#FFFFFF" height="15.9688" style="stroke:#181818;stroke-width:1.0;stroke-dasharray:2.0,2.0;" width="9" x="727" y="15.14"/><text fill="#000000" font-family="sans-serif" font-size="12" font-style="italic" lengthAdjust="spacing" textLength="7" x="728" y="27.2787">T</text><line style="stroke:#181818;stroke-width:0.5;" x1="456" x2="732" y1="50.14" y2="50.14"/><text fill="#000000" font-family="sans-serif" font-size="14" lengthAdjust="spacing" textLength="266" x="461" y="67.1351">volatile Reference&lt;? extends T&gt; head</text><line style="stroke:#181818;stroke-width:0.5;" x1="456" x2="732" y1="74.4369" y2="74.4369"/></g><!--class Reference--><g id="elem_Reference"><rect codeLine="4" fill="#F1F1F1" height="80.5938" id="Reference" rx="2.5" ry="2.5" style="stroke:#181818;stroke-width:0.5;" width="319" x="100.5" y="10"/><ellipse cx="214.25" cy="26" fill="#A9DCDF" rx="11" ry="11" style="stroke:#181818;stroke-width:1.0;"/><path d="M214.3594,21.3438 L213.2031,26.4219 L215.5313,26.4219 L214.3594,21.3438 Z M212.875,19.1094 L215.8594,19.1094 L219.2188,31.5 L216.7656,31.5 L216,28.4375 L212.7188,28.4375 L211.9688,31.5 L209.5313,31.5 L212.875,19.1094 Z " fill="#000000"/><text fill="#000000" font-family="sans-serif" font-size="14" font-style="italic" lengthAdjust="spacing" textLength="72" x="234.75" y="30.8467">Reference</text><rect fill="#FFFFFF" height="15.9688" style="stroke:#181818;stroke-width:1.0;stroke-dasharray:2.0,2.0;" width="9" x="413.5" y="7"/><text fill="#000000" font-family="sans-serif" font-size="12" font-style="italic" lengthAdjust="spacing" textLength="7" x="414.5" y="19.1387">T</text><line style="stroke:#181818;stroke-width:0.5;" x1="101.5" x2="418.5" y1="42" y2="42"/><text fill="#000000" font-family="sans-serif" font-size="14" lengthAdjust="spacing" textLength="68" x="106.5" y="58.9951">T referent</text><text fill="#000000" font-family="sans-serif" font-size="14" lengthAdjust="spacing" textLength="307" x="106.5" y="75.292">volatile ReferenceQueue&lt;? super T&gt; queue</text><line style="stroke:#181818;stroke-width:0.5;" x1="101.5" x2="418.5" y1="82.5938" y2="82.5938"/></g><!--class SoftReference--><g id="elem_SoftReference"><rect codeLine="8" fill="#F1F1F1" height="48" id="SoftReference" rx="2.5" ry="2.5" style="stroke:#181818;stroke-width:0.5;" width="142" x="7" y="150.59"/><ellipse cx="22" cy="166.59" fill="#ADD1B2" rx="11" ry="11" style="stroke:#181818;stroke-width:1.0;"/><path d="M24.9688,172.2306 Q24.3906,172.5275 23.75,172.6681 Q23.1094,172.8244 22.4063,172.8244 Q19.9063,172.8244 18.5781,171.1838 Q17.2656,169.5275 17.2656,166.4025 Q17.2656,163.2775 18.5781,161.6213 Q19.9063,159.965 22.4063,159.965 Q23.1094,159.965 23.75,160.1213 Q24.4063,160.2775 24.9688,160.5744 L24.9688,163.2931 Q24.3438,162.715 23.75,162.4494 Q23.1563,162.1681 22.5313,162.1681 Q21.1875,162.1681 20.5,163.2463 Q19.8125,164.3088 19.8125,166.4025 Q19.8125,168.4963 20.5,169.5744 Q21.1875,170.6369 22.5313,170.6369 Q23.1563,170.6369 23.75,170.3713 Q24.3438,170.09 24.9688,169.5119 L24.9688,172.2306 Z " fill="#000000"/><text fill="#000000" font-family="sans-serif" font-size="14" lengthAdjust="spacing" textLength="99" x="36" y="171.4367">SoftReference</text><rect fill="#FFFFFF" height="15.9688" style="stroke:#181818;stroke-width:1.0;stroke-dasharray:2.0,2.0;" width="9" x="143" y="147.59"/><text fill="#000000" font-family="sans-serif" font-size="12" font-style="italic" lengthAdjust="spacing" textLength="7" x="144" y="159.7287">T</text><line style="stroke:#181818;stroke-width:0.5;" x1="8" x2="148" y1="182.59" y2="182.59"/><line style="stroke:#181818;stroke-width:0.5;" x1="8" x2="148" y1="190.59" y2="190.59"/></g><!--class WeakReference--><g id="elem_WeakReference"><rect codeLine="11" fill="#F1F1F1" height="48" id="WeakReference" rx="2.5" ry="2.5" style="stroke:#181818;stroke-width:0.5;" width="153" x="183.5" y="150.59"/><ellipse cx="198.5" cy="166.59" fill="#ADD1B2" rx="11" ry="11" style="stroke:#181818;stroke-width:1.0;"/><path d="M201.4688,172.2306 Q200.8906,172.5275 200.25,172.6681 Q199.6094,172.8244 198.9063,172.8244 Q196.4063,172.8244 195.0781,171.1838 Q193.7656,169.5275 193.7656,166.4025 Q193.7656,163.2775 195.0781,161.6213 Q196.4063,159.965 198.9063,159.965 Q199.6094,159.965 200.25,160.1213 Q200.9063,160.2775 201.4688,160.5744 L201.4688,163.2931 Q200.8438,162.715 200.25,162.4494 Q199.6563,162.1681 199.0313,162.1681 Q197.6875,162.1681 197,163.2463 Q196.3125,164.3088 196.3125,166.4025 Q196.3125,168.4963 197,169.5744 Q197.6875,170.6369 199.0313,170.6369 Q199.6563,170.6369 200.25,170.3713 Q200.8438,170.09 201.4688,169.5119 L201.4688,172.2306 Z " fill="#000000"/><text fill="#000000" font-family="sans-serif" font-size="14" lengthAdjust="spacing" textLength="110" x="212.5" y="171.4367">WeakReference</text><rect fill="#FFFFFF" height="15.9688" style="stroke:#181818;stroke-width:1.0;stroke-dasharray:2.0,2.0;" width="9" x="330.5" y="147.59"/><text fill="#000000" font-family="sans-serif" font-size="12" font-style="italic" lengthAdjust="spacing" textLength="7" x="331.5" y="159.7287">T</text><line style="stroke:#181818;stroke-width:0.5;" x1="184.5" x2="335.5" y1="182.59" y2="182.59"/><line style="stroke:#181818;stroke-width:0.5;" x1="184.5" x2="335.5" y1="190.59" y2="190.59"/></g><!--class PhantomReference--><g id="elem_PhantomReference"><rect codeLine="12" fill="#F1F1F1" height="48" id="PhantomReference" rx="2.5" ry="2.5" style="stroke:#181818;stroke-width:0.5;" width="177" x="371.5" y="150.59"/><ellipse cx="386.5" cy="166.59" fill="#ADD1B2" rx="11" ry="11" style="stroke:#181818;stroke-width:1.0;"/><path d="M389.4688,172.2306 Q388.8906,172.5275 388.25,172.6681 Q387.6094,172.8244 386.9063,172.8244 Q384.4063,172.8244 383.0781,171.1838 Q381.7656,169.5275 381.7656,166.4025 Q381.7656,163.2775 383.0781,161.6213 Q384.4063,159.965 386.9063,159.965 Q387.6094,159.965 388.25,160.1213 Q388.9063,160.2775 389.4688,160.5744 L389.4688,163.2931 Q388.8438,162.715 388.25,162.4494 Q387.6563,162.1681 387.0313,162.1681 Q385.6875,162.1681 385,163.2463 Q384.3125,164.3088 384.3125,166.4025 Q384.3125,168.4963 385,169.5744 Q385.6875,170.6369 387.0313,170.6369 Q387.6563,170.6369 388.25,170.3713 Q388.8438,170.09 389.4688,169.5119 L389.4688,172.2306 Z " fill="#000000"/><text fill="#000000" font-family="sans-serif" font-size="14" lengthAdjust="spacing" textLength="134" x="400.5" y="171.4367">PhantomReference</text><rect fill="#FFFFFF" height="15.9688" style="stroke:#181818;stroke-width:1.0;stroke-dasharray:2.0,2.0;" width="9" x="542.5" y="147.59"/><text fill="#000000" font-family="sans-serif" font-size="12" font-style="italic" lengthAdjust="spacing" textLength="7" x="543.5" y="159.7287">T</text><line style="stroke:#181818;stroke-width:0.5;" x1="372.5" x2="547.5" y1="182.59" y2="182.59"/><line style="stroke:#181818;stroke-width:0.5;" x1="372.5" x2="547.5" y1="190.59" y2="190.59"/></g><!--reverse link Reference to SoftReference--><g id="link_Reference_SoftReference"><path d="M185.9704,101.0403 C156.9104,120.5703 137.81,133.4 112.94,150.11 " fill="none" id="Reference-backto-SoftReference" style="stroke:#181818;stroke-width:1.0;"/><polygon fill="none" points="200.91,91,182.6236,96.0604,189.3171,106.0202,200.91,91" style="stroke:#181818;stroke-width:1.0;"/></g><!--reverse link Reference to WeakReference--><g id="link_Reference_WeakReference"><path d="M260,109 C260,128.53 260,133.4 260,150.11 " fill="none" id="Reference-backto-WeakReference" style="stroke:#181818;stroke-width:1.0;"/><polygon fill="none" points="260,91,254,109,266,109,260,91" style="stroke:#181818;stroke-width:1.0;"/></g><!--reverse link Reference to PhantomReference--><g id="link_Reference_PhantomReference"><path d="M340.2867,100.39 C372.2267,119.92 394.27,133.4 421.61,150.11 " fill="none" id="Reference-backto-PhantomReference" style="stroke:#181818;stroke-width:1.0;"/><polygon fill="none" points="324.93,91,337.1567,105.5089,343.4167,95.2711,324.93,91" style="stroke:#181818;stroke-width:1.0;"/></g><!--reverse link Reference to ReferenceQueue--><g id="link_Reference_ReferenceQueue"><path codeLine="14" d="M431.82,50.29 C443.39,50.29 442.96,50.29 454.52,50.29 " fill="none" id="Reference-backto-ReferenceQueue" style="stroke:#181818;stroke-width:1.0;"/><polygon fill="#181818" points="419.82,50.29,425.82,54.29,431.82,50.29,425.82,46.29,419.82,50.29" style="stroke:#181818;stroke-width:1.0;"/></g><!--SRC=[XOvD2i8m58JtESLR2xr1iLVmf-3wcKwf61DDNeeWtjsKs9QAw7RcuvlHXaEW7LfuM8rjH4HPh-cXY7fdM4u6SrrMXBl0De4Iqu4RzLHy3E9P2-cbQzJKv7CaNvrvig8Gh_23zZO4oPjrUzVAGZaUcC8qCj47yFat_GOt7Ljnbp-icaTMXIy-Jhy0]--></g></svg>