<?xml version="1.0" encoding="us-ascii" standalone="no"?><svg xmlns="http://www.w3.org/2000/svg" xmlns:xlink="http://www.w3.org/1999/xlink" contentStyleType="text/css" height="202px" preserveAspectRatio="none" style="width:218px;height:202px;background:#FFFFFF;" version="1.1" viewBox="0 0 218 202" width="218px" zoomAndPan="magnify"><defs/><g><!--class ReadWriteLock--><g id="elem_ReadWriteLock"><rect codeLine="1" fill="#F1F1F1" height="80.5938" id="ReadWriteLock" rx="2.5" ry="2.5" style="stroke:#181818;stroke-width:0.5;" width="135" x="41.5" y="7"/><ellipse cx="56.5" cy="23" fill="#B4A7E5" rx="11" ry="11" style="stroke:#181818;stroke-width:1.0;"/><path d="M52.4219,18.7656 L52.4219,16.6094 L59.8125,16.6094 L59.8125,18.7656 L57.3438,18.7656 L57.3438,26.8438 L59.8125,26.8438 L59.8125,29 L52.4219,29 L52.4219,26.8438 L54.8906,26.8438 L54.8906,18.7656 L52.4219,18.7656 Z " fill="#000000"/><text fill="#000000" font-family="sans-serif" font-size="14" font-style="italic" lengthAdjust="spacing" textLength="103" x="70.5" y="27.8467">ReadWriteLock</text><line style="stroke:#181818;stroke-width:0.5;" x1="42.5" x2="175.5" y1="39" y2="39"/><line style="stroke:#181818;stroke-width:0.5;" x1="42.5" x2="175.5" y1="47" y2="47"/><text fill="#000000" font-family="sans-serif" font-size="14" lengthAdjust="spacing" textLength="114" x="47.5" y="63.9951">Lock readLock();</text><text fill="#000000" font-family="sans-serif" font-size="14" lengthAdjust="spacing" textLength="116" x="47.5" y="80.292">Lock writeLock();</text></g><!--class ReentrantReadWriteLock--><g id="elem_ReentrantReadWriteLock"><rect codeLine="5" fill="#F1F1F1" height="48" id="ReentrantReadWriteLock" rx="2.5" ry="2.5" style="stroke:#181818;stroke-width:0.5;" width="204" x="7" y="147.59"/><ellipse cx="22" cy="163.59" fill="#ADD1B2" rx="11" ry="11" style="stroke:#181818;stroke-width:1.0;"/><path d="M24.9688,169.2306 Q24.3906,169.5275 23.75,169.6681 Q23.1094,169.8244 22.4063,169.8244 Q19.9063,169.8244 18.5781,168.1838 Q17.2656,166.5275 17.2656,163.4025 Q17.2656,160.2775 18.5781,158.6213 Q19.9063,156.965 22.4063,156.965 Q23.1094,156.965 23.75,157.1213 Q24.4063,157.2775 24.9688,157.5744 L24.9688,160.2931 Q24.3438,159.715 23.75,159.4494 Q23.1563,159.1681 22.5313,159.1681 Q21.1875,159.1681 20.5,160.2463 Q19.8125,161.3088 19.8125,163.4025 Q19.8125,165.4963 20.5,166.5744 Q21.1875,167.6369 22.5313,167.6369 Q23.1563,167.6369 23.75,167.3713 Q24.3438,167.09 24.9688,166.5119 L24.9688,169.2306 Z " fill="#000000"/><text fill="#000000" font-family="sans-serif" font-size="14" lengthAdjust="spacing" textLength="172" x="36" y="168.4367">ReentrantReadWriteLock</text><line style="stroke:#181818;stroke-width:0.5;" x1="8" x2="210" y1="179.59" y2="179.59"/><line style="stroke:#181818;stroke-width:0.5;" x1="8" x2="210" y1="187.59" y2="187.59"/></g><!--reverse link ReadWriteLock to ReentrantReadWriteLock--><g id="link_ReadWriteLock_ReentrantReadWriteLock"><path d="M109,106 C109,125.53 109,130.4 109,147.11 " fill="none" id="ReadWriteLock-backto-ReentrantReadWriteLock" style="stroke:#181818;stroke-width:1.0;stroke-dasharray:7.0,7.0;"/><polygon fill="none" points="109,88,103,106,115,106,109,88" style="stroke:#181818;stroke-width:1.0;"/></g><!--SRC=[oymhIIrAIqnELGXAJKm9ByeiIVN9JyvMgEPIK00pYe3288Q6fZLCg1oc2YHMovMSarXS3DIUcbTIb9XNWcfEPcv1JcekKAeOrG80]--></g></svg>