<?xml version="1.0" encoding="us-ascii" standalone="no"?><svg xmlns="http://www.w3.org/2000/svg" xmlns:xlink="http://www.w3.org/1999/xlink" contentStyleType="text/css" height="375px" preserveAspectRatio="none" style="width:418px;height:375px;background:#FFFFFF;" version="1.1" viewBox="0 0 418 375" width="418px" zoomAndPan="magnify"><defs/><g><!--class AbstractQueue--><g id="elem_AbstractQueue"><rect codeLine="1" fill="#F1F1F1" height="48" id="AbstractQueue" rx="2.5" ry="2.5" style="stroke:#181818;stroke-width:0.5;" width="148" x="7" y="163.89"/><ellipse cx="22" cy="179.89" fill="#A9DCDF" rx="11" ry="11" style="stroke:#181818;stroke-width:1.0;"/><path d="M22.1094,175.2338 L20.9531,180.3119 L23.2813,180.3119 L22.1094,175.2338 Z M20.625,172.9994 L23.6094,172.9994 L26.9688,185.39 L24.5156,185.39 L23.75,182.3275 L20.4688,182.3275 L19.7188,185.39 L17.2813,185.39 L20.625,172.9994 Z " fill="#000000"/><text fill="#000000" font-family="sans-serif" font-size="14" font-style="italic" lengthAdjust="spacing" textLength="104" x="36" y="184.7367">AbstractQueue</text><rect fill="#FFFFFF" height="15.9688" style="stroke:#181818;stroke-width:1.0;stroke-dasharray:2.0,2.0;" width="10" x="148" y="160.89"/><text fill="#000000" font-family="sans-serif" font-size="12" font-style="italic" lengthAdjust="spacing" textLength="8" x="149" y="173.0287">E</text><line style="stroke:#181818;stroke-width:0.5;" x1="8" x2="154" y1="195.89" y2="195.89"/><line style="stroke:#181818;stroke-width:0.5;" x1="8" x2="154" y1="203.89" y2="203.89"/></g><!--class Queue--><g id="elem_Queue"><rect fill="#F1F1F1" height="48" id="Queue" rx="2.5" ry="2.5" style="stroke:#181818;stroke-width:0.5;" width="79" x="150.5" y="7"/><ellipse cx="165.5" cy="23" fill="#B4A7E5" rx="11" ry="11" style="stroke:#181818;stroke-width:1.0;"/><path d="M161.4219,18.7656 L161.4219,16.6094 L168.8125,16.6094 L168.8125,18.7656 L166.3438,18.7656 L166.3438,26.8438 L168.8125,26.8438 L168.8125,29 L161.4219,29 L161.4219,26.8438 L163.8906,26.8438 L163.8906,18.7656 L161.4219,18.7656 Z " fill="#000000"/><text fill="#000000" font-family="sans-serif" font-size="14" font-style="italic" lengthAdjust="spacing" textLength="47" x="179.5" y="27.8467">Queue</text><line style="stroke:#181818;stroke-width:0.5;" x1="151.5" x2="228.5" y1="39" y2="39"/><line style="stroke:#181818;stroke-width:0.5;" x1="151.5" x2="228.5" y1="47" y2="47"/></g><!--class PriorityBlockingQueue--><g id="elem_PriorityBlockingQueue"><rect codeLine="2" fill="#F1F1F1" height="48" id="PriorityBlockingQueue" rx="2.5" ry="2.5" style="stroke:#181818;stroke-width:0.5;" width="196" x="92" y="320.78"/><ellipse cx="107" cy="336.78" fill="#ADD1B2" rx="11" ry="11" style="stroke:#181818;stroke-width:1.0;"/><path d="M109.9688,342.4206 Q109.3906,342.7175 108.75,342.8581 Q108.1094,343.0144 107.4063,343.0144 Q104.9063,343.0144 103.5781,341.3738 Q102.2656,339.7175 102.2656,336.5925 Q102.2656,333.4675 103.5781,331.8113 Q104.9063,330.155 107.4063,330.155 Q108.1094,330.155 108.75,330.3113 Q109.4063,330.4675 109.9688,330.7644 L109.9688,333.4831 Q109.3438,332.905 108.75,332.6394 Q108.1563,332.3581 107.5313,332.3581 Q106.1875,332.3581 105.5,333.4363 Q104.8125,334.4988 104.8125,336.5925 Q104.8125,338.6863 105.5,339.7644 Q106.1875,340.8269 107.5313,340.8269 Q108.1563,340.8269 108.75,340.5613 Q109.3438,340.28 109.9688,339.7019 L109.9688,342.4206 Z " fill="#000000"/><text fill="#000000" font-family="sans-serif" font-size="14" lengthAdjust="spacing" textLength="152" x="121" y="341.6267">PriorityBlockingQueue</text><rect fill="#FFFFFF" height="15.9688" style="stroke:#181818;stroke-width:1.0;stroke-dasharray:2.0,2.0;" width="10" x="281" y="317.78"/><text fill="#000000" font-family="sans-serif" font-size="12" font-style="italic" lengthAdjust="spacing" textLength="8" x="282" y="329.9187">E</text><line style="stroke:#181818;stroke-width:0.5;" x1="93" x2="287" y1="352.78" y2="352.78"/><line style="stroke:#181818;stroke-width:0.5;" x1="93" x2="287" y1="360.78" y2="360.78"/></g><!--class BlockingQueue--><g id="elem_BlockingQueue"><rect codeLine="3" fill="#F1F1F1" height="145.7813" id="BlockingQueue" rx="2.5" ry="2.5" style="stroke:#181818;stroke-width:0.5;" width="217" x="190.5" y="115"/><ellipse cx="235.75" cy="131" fill="#B4A7E5" rx="11" ry="11" style="stroke:#181818;stroke-width:1.0;"/><path d="M231.6719,126.7656 L231.6719,124.6094 L239.0625,124.6094 L239.0625,126.7656 L236.5938,126.7656 L236.5938,134.8437 L239.0625,134.8437 L239.0625,137 L231.6719,137 L231.6719,134.8437 L234.1406,134.8437 L234.1406,126.7656 L231.6719,126.7656 Z " fill="#000000"/><text fill="#000000" font-family="sans-serif" font-size="14" font-style="italic" lengthAdjust="spacing" textLength="106" x="256.25" y="135.8467">BlockingQueue</text><rect fill="#FFFFFF" height="15.9688" style="stroke:#181818;stroke-width:1.0;stroke-dasharray:2.0,2.0;" width="10" x="400.5" y="112"/><text fill="#000000" font-family="sans-serif" font-size="12" font-style="italic" lengthAdjust="spacing" textLength="8" x="401.5" y="124.1387">E</text><line style="stroke:#181818;stroke-width:0.5;" x1="191.5" x2="406.5" y1="147" y2="147"/><text fill="#000000" font-family="sans-serif" font-size="14" lengthAdjust="spacing" textLength="74" x="196.5" y="184.292">void put(e)</text><text fill="#000000" font-family="sans-serif" font-size="14" lengthAdjust="spacing" textLength="205" x="196.5" y="200.5889">boolean offer(e, timeout, unit)</text><line style="stroke:#181818;stroke-width:1.0;stroke-dasharray:1.0,2.0;" x1="191.5" x2="279.5" y1="163.1484" y2="163.1484"/><text fill="#000000" font-family="sans-serif" font-size="14" lengthAdjust="spacing" textLength="39" x="279.5" y="167.4951">Insert</text><line style="stroke:#181818;stroke-width:1.0;stroke-dasharray:1.0,2.0;" x1="318.5" x2="406.5" y1="163.1484" y2="163.1484"/><text fill="#000000" font-family="sans-serif" font-size="14" lengthAdjust="spacing" textLength="53" x="196.5" y="237.1826">E take()</text><text fill="#000000" font-family="sans-serif" font-size="14" lengthAdjust="spacing" textLength="134" x="196.5" y="253.4795">E poll(timeout, unit)</text><line style="stroke:#181818;stroke-width:1.0;stroke-dasharray:1.0,2.0;" x1="191.5" x2="270.5" y1="216.0391" y2="216.0391"/><text fill="#000000" font-family="sans-serif" font-size="14" lengthAdjust="spacing" textLength="57" x="270.5" y="220.3857">Remove</text><line style="stroke:#181818;stroke-width:1.0;stroke-dasharray:1.0,2.0;" x1="327.5" x2="406.5" y1="216.0391" y2="216.0391"/></g><!--reverse link Queue to AbstractQueue--><g id="link_Queue_AbstractQueue"><path d="M163.3205,69.9101 C142.7705,99.1101 118.03,134.27 97.43,163.54 " fill="none" id="Queue-backto-AbstractQueue" style="stroke:#181818;stroke-width:1.0;stroke-dasharray:7.0,7.0;"/><polygon fill="none" points="173.68,55.19,158.4138,66.4569,168.2272,73.3632,173.68,55.19" style="stroke:#181818;stroke-width:1.0;"/></g><!--reverse link AbstractQueue to PriorityBlockingQueue--><g id="link_AbstractQueue_PriorityBlockingQueue"><path d="M107.6795,226.8001 C128.2295,256.0001 152.97,291.16 173.57,320.43 " fill="none" id="AbstractQueue-backto-PriorityBlockingQueue" style="stroke:#181818;stroke-width:1.0;"/><polygon fill="none" points="97.32,212.08,102.7728,230.2532,112.5862,223.3469,97.32,212.08" style="stroke:#181818;stroke-width:1.0;"/></g><!--reverse link BlockingQueue to PriorityBlockingQueue--><g id="link_BlockingQueue_PriorityBlockingQueue"><path d="M237.9723,275.6114 C222.8523,297.1014 217.69,304.43 206.47,320.38 " fill="none" id="BlockingQueue-backto-PriorityBlockingQueue" style="stroke:#181818;stroke-width:1.0;stroke-dasharray:7.0,7.0;"/><polygon fill="none" points="248.33,260.89,233.0652,272.1588,242.8794,279.0639,248.33,260.89" style="stroke:#181818;stroke-width:1.0;"/></g><!--reverse link Queue to BlockingQueue--><g id="link_Queue_BlockingQueue"><path d="M216.6764,69.9123 C227.8964,85.8623 233.11,93.26 248.28,114.82 " fill="none" id="Queue-backto-BlockingQueue" style="stroke:#181818;stroke-width:1.0;"/><polygon fill="none" points="206.32,55.19,211.7689,73.3644,221.5838,66.4602,206.32,55.19" style="stroke:#181818;stroke-width:1.0;"/></g><!--SRC=[TOn12i8m44NtFSKiMoWzWGWANRXJRv2cln9CCYMP54MykoKLqOAxUSFxJtLHWj92sgeOQVV6KqB2fjsISQE5WvT8-LSitZ4O3aRkUylwQlpbu-CcyFqgz5tvMHJ62yAWDEXlQIay2gAcEVY884qpmyIcfp59YMgcZjb2UU9XG2XHanW7Jb9JyaQgF3x3yOGyRadK5MMLpv6jBLV-ymK0]--></g></svg>