<?xml version="1.0" encoding="us-ascii" standalone="no"?><svg xmlns="http://www.w3.org/2000/svg" xmlns:xlink="http://www.w3.org/1999/xlink" contentStyleType="text/css" height="526px" preserveAspectRatio="none" style="width:477px;height:526px;background:#FFFFFF;" version="1.1" viewBox="0 0 477 526" width="477px" zoomAndPan="magnify"><defs/><g><!--class SortedSet--><g id="elem_SortedSet"><rect codeLine="1" fill="#F1F1F1" height="48" id="SortedSet" rx="2.5" ry="2.5" style="stroke:#181818;stroke-width:0.5;" width="113" x="77" y="223"/><ellipse cx="92" cy="239" fill="#B4A7E5" rx="11" ry="11" style="stroke:#181818;stroke-width:1.0;"/><path d="M87.9219,234.7656 L87.9219,232.6094 L95.3125,232.6094 L95.3125,234.7656 L92.8438,234.7656 L92.8438,242.8438 L95.3125,242.8438 L95.3125,245 L87.9219,245 L87.9219,242.8438 L90.3906,242.8438 L90.3906,234.7656 L87.9219,234.7656 Z " fill="#000000"/><text fill="#000000" font-family="sans-serif" font-size="14" font-style="italic" lengthAdjust="spacing" textLength="69" x="106" y="243.8467">SortedSet</text><rect fill="#FFFFFF" height="15.9688" style="stroke:#181818;stroke-width:1.0;stroke-dasharray:2.0,2.0;" width="10" x="183" y="220"/><text fill="#000000" font-family="sans-serif" font-size="12" font-style="italic" lengthAdjust="spacing" textLength="8" x="184" y="232.1387">E</text><line style="stroke:#181818;stroke-width:0.5;" x1="78" x2="189" y1="255" y2="255"/><line style="stroke:#181818;stroke-width:0.5;" x1="78" x2="189" y1="263" y2="263"/></g><!--class Set--><g id="elem_Set"><rect codeLine="4" fill="#F1F1F1" height="48" id="Set" rx="2.5" ry="2.5" style="stroke:#181818;stroke-width:0.5;" width="67" x="195" y="115"/><ellipse cx="210" cy="131" fill="#B4A7E5" rx="11" ry="11" style="stroke:#181818;stroke-width:1.0;"/><path d="M205.9219,126.7656 L205.9219,124.6094 L213.3125,124.6094 L213.3125,126.7656 L210.8438,126.7656 L210.8438,134.8438 L213.3125,134.8438 L213.3125,137 L205.9219,137 L205.9219,134.8438 L208.3906,134.8438 L208.3906,126.7656 L205.9219,126.7656 Z " fill="#000000"/><text fill="#000000" font-family="sans-serif" font-size="14" font-style="italic" lengthAdjust="spacing" textLength="23" x="224" y="135.8467">Set</text><rect fill="#FFFFFF" height="15.9688" style="stroke:#181818;stroke-width:1.0;stroke-dasharray:2.0,2.0;" width="10" x="255" y="112"/><text fill="#000000" font-family="sans-serif" font-size="12" font-style="italic" lengthAdjust="spacing" textLength="8" x="256" y="124.1387">E</text><line style="stroke:#181818;stroke-width:0.5;" x1="196" x2="261" y1="147" y2="147"/><line style="stroke:#181818;stroke-width:0.5;" x1="196" x2="261" y1="155" y2="155"/></g><!--class NavigableSet--><g id="elem_NavigableSet"><rect codeLine="2" fill="#F1F1F1" height="48" id="NavigableSet" rx="2.5" ry="2.5" style="stroke:#181818;stroke-width:0.5;" width="133" x="7" y="339.14"/><ellipse cx="22" cy="355.14" fill="#B4A7E5" rx="11" ry="11" style="stroke:#181818;stroke-width:1.0;"/><path d="M17.9219,350.9056 L17.9219,348.7494 L25.3125,348.7494 L25.3125,350.9056 L22.8438,350.9056 L22.8438,358.9838 L25.3125,358.9838 L25.3125,361.14 L17.9219,361.14 L17.9219,358.9838 L20.3906,358.9838 L20.3906,350.9056 L17.9219,350.9056 Z " fill="#000000"/><text fill="#000000" font-family="sans-serif" font-size="14" font-style="italic" lengthAdjust="spacing" textLength="89" x="36" y="359.9867">NavigableSet</text><rect fill="#FFFFFF" height="15.9688" style="stroke:#181818;stroke-width:1.0;stroke-dasharray:2.0,2.0;" width="10" x="133" y="336.14"/><text fill="#000000" font-family="sans-serif" font-size="12" font-style="italic" lengthAdjust="spacing" textLength="8" x="134" y="348.2787">E</text><line style="stroke:#181818;stroke-width:0.5;" x1="8" x2="139" y1="371.14" y2="371.14"/><line style="stroke:#181818;stroke-width:0.5;" x1="8" x2="139" y1="379.14" y2="379.14"/></g><!--class AbstractCollection--><g id="elem_AbstractCollection"><rect codeLine="3" fill="#F1F1F1" height="48" id="AbstractCollection" rx="2.5" ry="2.5" style="stroke:#181818;stroke-width:0.5;" width="169" x="297" y="115"/><ellipse cx="312" cy="131" fill="#A9DCDF" rx="11" ry="11" style="stroke:#181818;stroke-width:1.0;"/><path d="M312.1094,126.3438 L310.9531,131.4219 L313.2813,131.4219 L312.1094,126.3438 Z M310.625,124.1094 L313.6094,124.1094 L316.9688,136.5 L314.5156,136.5 L313.75,133.4375 L310.4688,133.4375 L309.7188,136.5 L307.2813,136.5 L310.625,124.1094 Z " fill="#000000"/><text fill="#000000" font-family="sans-serif" font-size="14" font-style="italic" lengthAdjust="spacing" textLength="125" x="326" y="135.8467">AbstractCollection</text><rect fill="#FFFFFF" height="15.9688" style="stroke:#181818;stroke-width:1.0;stroke-dasharray:2.0,2.0;" width="10" x="459" y="112"/><text fill="#000000" font-family="sans-serif" font-size="12" font-style="italic" lengthAdjust="spacing" textLength="8" x="460" y="124.1387">E</text><line style="stroke:#181818;stroke-width:0.5;" x1="298" x2="465" y1="147" y2="147"/><line style="stroke:#181818;stroke-width:0.5;" x1="298" x2="465" y1="155" y2="155"/></g><!--class Collection--><g id="elem_Collection"><rect fill="#F1F1F1" height="48" id="Collection" rx="2.5" ry="2.5" style="stroke:#181818;stroke-width:0.5;" width="100" x="254.5" y="7"/><ellipse cx="269.5" cy="23" fill="#B4A7E5" rx="11" ry="11" style="stroke:#181818;stroke-width:1.0;"/><path d="M265.4219,18.7656 L265.4219,16.6094 L272.8125,16.6094 L272.8125,18.7656 L270.3438,18.7656 L270.3438,26.8438 L272.8125,26.8438 L272.8125,29 L265.4219,29 L265.4219,26.8438 L267.8906,26.8438 L267.8906,18.7656 L265.4219,18.7656 Z " fill="#000000"/><text fill="#000000" font-family="sans-serif" font-size="14" font-style="italic" lengthAdjust="spacing" textLength="68" x="283.5" y="27.8467">Collection</text><line style="stroke:#181818;stroke-width:0.5;" x1="255.5" x2="353.5" y1="39" y2="39"/><line style="stroke:#181818;stroke-width:0.5;" x1="255.5" x2="353.5" y1="47" y2="47"/></g><!--class AbstractSet--><g id="elem_AbstractSet"><rect codeLine="5" fill="#F1F1F1" height="48" id="AbstractSet" rx="2.5" ry="2.5" style="stroke:#181818;stroke-width:0.5;" width="124" x="301.5" y="223"/><ellipse cx="316.5" cy="239" fill="#A9DCDF" rx="11" ry="11" style="stroke:#181818;stroke-width:1.0;"/><path d="M316.6094,234.3438 L315.4531,239.4219 L317.7813,239.4219 L316.6094,234.3438 Z M315.125,232.1094 L318.1094,232.1094 L321.4688,244.5 L319.0156,244.5 L318.25,241.4375 L314.9688,241.4375 L314.2188,244.5 L311.7813,244.5 L315.125,232.1094 Z " fill="#000000"/><text fill="#000000" font-family="sans-serif" font-size="14" font-style="italic" lengthAdjust="spacing" textLength="80" x="330.5" y="243.8467">AbstractSet</text><rect fill="#FFFFFF" height="15.9688" style="stroke:#181818;stroke-width:1.0;stroke-dasharray:2.0,2.0;" width="10" x="418.5" y="220"/><text fill="#000000" font-family="sans-serif" font-size="12" font-style="italic" lengthAdjust="spacing" textLength="8" x="419.5" y="232.1387">E</text><line style="stroke:#181818;stroke-width:0.5;" x1="302.5" x2="424.5" y1="255" y2="255"/><line style="stroke:#181818;stroke-width:0.5;" x1="302.5" x2="424.5" y1="263" y2="263"/></g><!--class HashSet--><g id="elem_HashSet"><rect codeLine="6" fill="#F1F1F1" height="64.2969" id="HashSet" rx="2.5" ry="2.5" style="stroke:#181818;stroke-width:0.5;" width="262" x="174.5" y="331"/><ellipse cx="266.25" cy="347" fill="#ADD1B2" rx="11" ry="11" style="stroke:#181818;stroke-width:1.0;"/><path d="M269.2188,352.6406 Q268.6406,352.9375 268,353.0781 Q267.3594,353.2344 266.6563,353.2344 Q264.1563,353.2344 262.8281,351.5938 Q261.5156,349.9375 261.5156,346.8125 Q261.5156,343.6875 262.8281,342.0313 Q264.1563,340.375 266.6563,340.375 Q267.3594,340.375 268,340.5313 Q268.6563,340.6875 269.2188,340.9844 L269.2188,343.7031 Q268.5938,343.125 268,342.8594 Q267.4063,342.5781 266.7813,342.5781 Q265.4375,342.5781 264.75,343.6563 Q264.0625,344.7188 264.0625,346.8125 Q264.0625,348.9063 264.75,349.9844 Q265.4375,351.0469 266.7813,351.0469 Q267.4063,351.0469 268,350.7813 Q268.5938,350.5 269.2188,349.9219 L269.2188,352.6406 Z " fill="#000000"/><text fill="#000000" font-family="sans-serif" font-size="14" lengthAdjust="spacing" textLength="58" x="286.75" y="351.8467">HashSet</text><rect fill="#FFFFFF" height="15.9688" style="stroke:#181818;stroke-width:1.0;stroke-dasharray:2.0,2.0;" width="10" x="429.5" y="328"/><text fill="#000000" font-family="sans-serif" font-size="12" font-style="italic" lengthAdjust="spacing" textLength="8" x="430.5" y="340.1387">E</text><line style="stroke:#181818;stroke-width:0.5;" x1="175.5" x2="435.5" y1="363" y2="363"/><text fill="#000000" font-family="sans-serif" font-size="14" lengthAdjust="spacing" textLength="250" x="180.5" y="379.9951">transient HashMap&lt;E,Object&gt; map;</text><line style="stroke:#181818;stroke-width:0.5;" x1="175.5" x2="435.5" y1="387.2969" y2="387.2969"/></g><!--class TreeSet--><g id="elem_TreeSet"><rect codeLine="9" fill="#F1F1F1" height="64.2969" id="TreeSet" rx="2.5" ry="2.5" style="stroke:#181818;stroke-width:0.5;" width="276" x="143.5" y="455.29"/><ellipse cx="243.75" cy="471.29" fill="#ADD1B2" rx="11" ry="11" style="stroke:#181818;stroke-width:1.0;"/><path d="M246.7188,476.9306 Q246.1406,477.2275 245.5,477.3681 Q244.8594,477.5244 244.1563,477.5244 Q241.6563,477.5244 240.3281,475.8838 Q239.0156,474.2275 239.0156,471.1025 Q239.0156,467.9775 240.3281,466.3213 Q241.6563,464.665 244.1563,464.665 Q244.8594,464.665 245.5,464.8213 Q246.1563,464.9775 246.7188,465.2744 L246.7188,467.9931 Q246.0938,467.415 245.5,467.1494 Q244.9063,466.8681 244.2813,466.8681 Q242.9375,466.8681 242.25,467.9463 Q241.5625,469.0088 241.5625,471.1025 Q241.5625,473.1963 242.25,474.2744 Q242.9375,475.3369 244.2813,475.3369 Q244.9063,475.3369 245.5,475.0713 Q246.0938,474.79 246.7188,474.2119 L246.7188,476.9306 Z " fill="#000000"/><text fill="#000000" font-family="sans-serif" font-size="14" lengthAdjust="spacing" textLength="55" x="264.25" y="476.1367">TreeSet</text><rect fill="#FFFFFF" height="15.9688" style="stroke:#181818;stroke-width:1.0;stroke-dasharray:2.0,2.0;" width="10" x="412.5" y="452.29"/><text fill="#000000" font-family="sans-serif" font-size="12" font-style="italic" lengthAdjust="spacing" textLength="8" x="413.5" y="464.4287">E</text><line style="stroke:#181818;stroke-width:0.5;" x1="144.5" x2="418.5" y1="487.29" y2="487.29"/><text fill="#000000" font-family="sans-serif" font-size="14" lengthAdjust="spacing" textLength="264" x="149.5" y="504.2851">transient NavigableMap&lt;E,Object&gt; m;</text><line style="stroke:#181818;stroke-width:0.5;" x1="144.5" x2="418.5" y1="511.5869" y2="511.5869"/></g><!--reverse link Set to SortedSet--><g id="link_Set_SortedSet"><path d="M195.6351,176.663 C179.7951,194.333 170.13,205.13 154.3,222.79 " fill="none" id="Set-backto-SortedSet" style="stroke:#181818;stroke-width:1.0;"/><polygon fill="none" points="207.65,163.26,191.1674,172.658,200.1027,180.668,207.65,163.26" style="stroke:#181818;stroke-width:1.0;"/></g><!--reverse link SortedSet to NavigableSet--><g id="link_SortedSet_NavigableSet"><path d="M112.8382,287.3047 C102.4882,307.0047 96.12,319.11 85.77,338.8 " fill="none" id="SortedSet-backto-NavigableSet" style="stroke:#181818;stroke-width:1.0;"/><polygon fill="none" points="121.21,271.37,107.5267,284.5141,118.1498,290.0953,121.21,271.37" style="stroke:#181818;stroke-width:1.0;"/></g><!--reverse link Collection to AbstractCollection--><g id="link_Collection_AbstractCollection"><path d="M331.9812,69.8215 C344.8212,87.4915 351.81,97.13 364.64,114.79 " fill="none" id="Collection-backto-AbstractCollection" style="stroke:#181818;stroke-width:1.0;stroke-dasharray:7.0,7.0;"/><polygon fill="none" points="321.4,55.26,327.1274,73.3486,336.8351,66.2945,321.4,55.26" style="stroke:#181818;stroke-width:1.0;"/></g><!--reverse link Collection to Set--><g id="link_Collection_Set"><path d="M277.3311,69.8882 C264.6611,87.5582 257.8,97.13 245.14,114.79 " fill="none" id="Collection-backto-Set" style="stroke:#181818;stroke-width:1.0;"/><polygon fill="none" points="287.82,55.26,272.4551,66.3919,282.2072,73.3845,287.82,55.26" style="stroke:#181818;stroke-width:1.0;"/></g><!--reverse link AbstractCollection to AbstractSet--><g id="link_AbstractCollection_AbstractSet"><path d="M374.5371,181.0061 C371.5371,198.6761 370.44,205.13 367.44,222.79 " fill="none" id="AbstractCollection-backto-AbstractSet" style="stroke:#181818;stroke-width:1.0;"/><polygon fill="none" points="377.55,163.26,368.6217,180.0017,380.4524,182.0104,377.55,163.26" style="stroke:#181818;stroke-width:1.0;"/></g><!--reverse link Set to AbstractSet--><g id="link_Set_AbstractSet"><path d="M272.2863,174.3775 C294.7863,192.0475 311.45,205.13 333.94,222.79 " fill="none" id="Set-backto-AbstractSet" style="stroke:#181818;stroke-width:1.0;stroke-dasharray:7.0,7.0;"/><polygon fill="none" points="258.13,163.26,268.5805,179.0962,275.9922,169.6587,258.13,163.26" style="stroke:#181818;stroke-width:1.0;"/></g><!--reverse link AbstractSet to HashSet--><g id="link_AbstractSet_HashSet"><path d="M343.4689,287.4187 C334.7889,304.5087 331.07,311.83 321.54,330.58 " fill="none" id="AbstractSet-backto-HashSet" style="stroke:#181818;stroke-width:1.0;"/><polygon fill="none" points="351.62,271.37,338.1193,284.7016,348.8184,290.1357,351.62,271.37" style="stroke:#181818;stroke-width:1.0;"/></g><!--reverse link Set to HashSet--><g id="link_Set_HashSet"><path d="M242.4891,180.3559 C256.3991,220.4559 278.91,285.44 294.56,330.59 " fill="none" id="Set-backto-HashSet" style="stroke:#181818;stroke-width:1.0;stroke-dasharray:7.0,7.0;"/><polygon fill="none" points="236.59,163.35,236.8204,182.3223,248.1577,178.3896,236.59,163.35" style="stroke:#181818;stroke-width:1.0;"/></g><!--reverse link AbstractSet to TreeSet--><g id="link_AbstractSet_TreeSet"><path d="M416.176,282.0299 C435.936,296.4899 443.62,306.35 454.5,331 C466.04,357.14 469.26,370.83 454.5,395.29 C438.45,421.89 411.77,441.12 384.12,454.85 " fill="none" id="AbstractSet-backto-TreeSet" style="stroke:#181818;stroke-width:1.0;"/><polygon fill="none" points="401.65,271.4,412.6327,286.8719,419.7193,277.1879,401.65,271.4" style="stroke:#181818;stroke-width:1.0;"/></g><!--reverse link NavigableSet to TreeSet--><g id="link_NavigableSet_TreeSet"><path d="M128.628,396.5609 C161.158,415.6809 192.03,433.84 227.89,454.92 " fill="none" id="NavigableSet-backto-TreeSet" style="stroke:#181818;stroke-width:1.0;stroke-dasharray:7.0,7.0;"/><polygon fill="none" points="113.11,387.44,125.5877,401.7336,131.6683,391.3883,113.11,387.44" style="stroke:#181818;stroke-width:1.0;"/></g><!--SRC=[ZP1D2i8m44RtESKSm1jO2Y85D-gYNc2QZXf9qv8PYY3UtLHh3Ia5ivkVzxqXnWdvCsg2ilL2TKcI5JdGNSZL3A5KPbevO6ykM5bAjxwemeh5enRG5fbXCvRRrbhIObetOARfB3NaXE4tY3H9UhIp49y0Sski7Cxyu3lawm8QsWa33mNXXQbZ4vflUezTLgoErIreScYmMwld67xoHF-5nxywiqp3H1L4Bm00]--></g></svg>