<?xml version="1.0" encoding="us-ascii" standalone="no"?><svg xmlns="http://www.w3.org/2000/svg" xmlns:xlink="http://www.w3.org/1999/xlink" contentStyleType="text/css" height="267px" preserveAspectRatio="none" style="width:508px;height:267px;background:#FFFFFF;" version="1.1" viewBox="0 0 508 267" width="508px" zoomAndPan="magnify"><defs/><g><!--class Lock--><g id="elem_Lock"><rect codeLine="1" fill="#F1F1F1" height="145.7813" id="Lock" rx="2.5" ry="2.5" style="stroke:#181818;stroke-width:0.5;" width="494" x="7" y="7"/><ellipse cx="233.75" cy="23" fill="#B4A7E5" rx="11" ry="11" style="stroke:#181818;stroke-width:1.0;"/><path d="M229.6719,18.7656 L229.6719,16.6094 L237.0625,16.6094 L237.0625,18.7656 L234.5938,18.7656 L234.5938,26.8438 L237.0625,26.8438 L237.0625,29 L229.6719,29 L229.6719,26.8438 L232.1406,26.8438 L232.1406,18.7656 L229.6719,18.7656 Z " fill="#000000"/><text fill="#000000" font-family="sans-serif" font-size="14" font-style="italic" lengthAdjust="spacing" textLength="32" x="254.25" y="27.8467">Lock</text><line style="stroke:#181818;stroke-width:0.5;" x1="8" x2="500" y1="39" y2="39"/><line style="stroke:#181818;stroke-width:0.5;" x1="8" x2="500" y1="47" y2="47"/><text fill="#000000" font-family="sans-serif" font-size="14" lengthAdjust="spacing" textLength="70" x="13" y="63.9951">void lock()</text><text fill="#000000" font-family="sans-serif" font-size="14" lengthAdjust="spacing" textLength="351" x="13" y="80.292">void lockInterruptibly() throws InterruptedException</text><text fill="#000000" font-family="sans-serif" font-size="14" lengthAdjust="spacing" textLength="119" x="13" y="96.5889">boolean tryLock()</text><text fill="#000000" font-family="sans-serif" font-size="14" lengthAdjust="spacing" textLength="482" x="13" y="112.8857">boolean tryLock(long time, TimeUnit unit) throws InterruptedException</text><text fill="#000000" font-family="sans-serif" font-size="14" lengthAdjust="spacing" textLength="88" x="13" y="129.1826">void unlock()</text><text fill="#000000" font-family="sans-serif" font-size="14" lengthAdjust="spacing" textLength="175" x="13" y="145.4795">Condition newCondition()</text></g><!--class ReentrantLock--><g id="elem_ReentrantLock"><rect codeLine="9" fill="#F1F1F1" height="48" id="ReentrantLock" rx="2.5" ry="2.5" style="stroke:#181818;stroke-width:0.5;" width="133" x="187.5" y="212.78"/><ellipse cx="202.5" cy="228.78" fill="#ADD1B2" rx="11" ry="11" style="stroke:#181818;stroke-width:1.0;"/><path d="M205.4688,234.4206 Q204.8906,234.7175 204.25,234.8581 Q203.6094,235.0144 202.9063,235.0144 Q200.4063,235.0144 199.0781,233.3738 Q197.7656,231.7175 197.7656,228.5925 Q197.7656,225.4675 199.0781,223.8113 Q200.4063,222.155 202.9063,222.155 Q203.6094,222.155 204.25,222.3113 Q204.9063,222.4675 205.4688,222.7644 L205.4688,225.4831 Q204.8438,224.905 204.25,224.6394 Q203.6563,224.3581 203.0313,224.3581 Q201.6875,224.3581 201,225.4363 Q200.3125,226.4988 200.3125,228.5925 Q200.3125,230.6863 201,231.7644 Q201.6875,232.8269 203.0313,232.8269 Q203.6563,232.8269 204.25,232.5613 Q204.8438,232.28 205.4688,231.7019 L205.4688,234.4206 Z " fill="#000000"/><text fill="#000000" font-family="sans-serif" font-size="14" lengthAdjust="spacing" textLength="101" x="216.5" y="233.6267">ReentrantLock</text><line style="stroke:#181818;stroke-width:0.5;" x1="188.5" x2="319.5" y1="244.78" y2="244.78"/><line style="stroke:#181818;stroke-width:0.5;" x1="188.5" x2="319.5" y1="252.78" y2="252.78"/></g><!--reverse link Lock to ReentrantLock--><g id="link_Lock_ReentrantLock"><path d="M254,170.89 C254,192.38 254,196.43 254,212.38 " fill="none" id="Lock-backto-ReentrantLock" style="stroke:#181818;stroke-width:1.0;stroke-dasharray:7.0,7.0;"/><polygon fill="none" points="254,152.89,248,170.89,260,170.89,254,152.89" style="stroke:#181818;stroke-width:1.0;"/></g><!--SRC=[XKz12i903Bpt5Jcsu2_4Wz2Jw0EsswZ1tQJiPgr5_BjfmI9Ul0pCJ3BC42kci_C8hVWRF2k0kr0FmLZTVBFzV9dAeDI5gMv0hqd63AkC_UxXqMnXU-j40Ze6JLFxYVhLWl05b29ku6XuOb8e1l-obqg5rufRuPvc3nZ7bPZrgdnmESC1aJKvrcKZnI5WD2Klczy0]--></g></svg>