<?xml version="1.0" encoding="us-ascii" standalone="no"?><svg xmlns="http://www.w3.org/2000/svg" xmlns:xlink="http://www.w3.org/1999/xlink" contentStyleType="text/css" height="427px" preserveAspectRatio="none" style="width:599px;height:427px;background:#FFFFFF;" version="1.1" viewBox="0 0 599 427" width="599px" zoomAndPan="magnify"><defs/><g><!--class Future--><g id="elem_Future"><rect codeLine="1" fill="#F1F1F1" height="129.4844" id="Future" rx="2.5" ry="2.5" style="stroke:#181818;stroke-width:0.5;" width="339" x="7" y="10"/><ellipse cx="143.75" cy="26" fill="#B4A7E5" rx="11" ry="11" style="stroke:#181818;stroke-width:1.0;"/><path d="M139.6719,21.7656 L139.6719,19.6094 L147.0625,19.6094 L147.0625,21.7656 L144.5938,21.7656 L144.5938,29.8438 L147.0625,29.8438 L147.0625,32 L139.6719,32 L139.6719,29.8438 L142.1406,29.8438 L142.1406,21.7656 L139.6719,21.7656 Z " fill="#000000"/><text fill="#000000" font-family="sans-serif" font-size="14" font-style="italic" lengthAdjust="spacing" textLength="45" x="164.25" y="30.8467">Future</text><rect fill="#FFFFFF" height="15.9688" style="stroke:#181818;stroke-width:1.0;stroke-dasharray:2.0,2.0;" width="10" x="339" y="7"/><text fill="#000000" font-family="sans-serif" font-size="12" font-style="italic" lengthAdjust="spacing" textLength="8" x="340" y="19.1387">V</text><line style="stroke:#181818;stroke-width:0.5;" x1="8" x2="345" y1="42" y2="42"/><line style="stroke:#181818;stroke-width:0.5;" x1="8" x2="345" y1="50" y2="50"/><text fill="#000000" font-family="sans-serif" font-size="14" lengthAdjust="spacing" textLength="327" x="13" y="66.9951">boolean cancel(boolean mayInterruptIfRunning)</text><text fill="#000000" font-family="sans-serif" font-size="14" lengthAdjust="spacing" textLength="149" x="13" y="83.292">boolean isCancelled()</text><text fill="#000000" font-family="sans-serif" font-size="14" lengthAdjust="spacing" textLength="119" x="13" y="99.5889">boolean isDone()</text><text fill="#000000" font-family="sans-serif" font-size="14" lengthAdjust="spacing" textLength="113" x="13" y="115.8857">V get() throws ...</text><text fill="#000000" font-family="sans-serif" font-size="14" lengthAdjust="spacing" textLength="299" x="13" y="132.1826">V get(long timeout, TimeUnit unit) throws ...</text></g><!--class Runnable--><g id="elem_Runnable"><rect codeLine="8" fill="#F1F1F1" height="64.2969" id="Runnable" rx="2.5" ry="2.5" style="stroke:#181818;stroke-width:0.5;" width="98" x="380.5" y="42.59"/><ellipse cx="395.5" cy="58.59" fill="#B4A7E5" rx="11" ry="11" style="stroke:#181818;stroke-width:1.0;"/><path d="M391.4219,54.3556 L391.4219,52.1994 L398.8125,52.1994 L398.8125,54.3556 L396.3438,54.3556 L396.3438,62.4338 L398.8125,62.4338 L398.8125,64.59 L391.4219,64.59 L391.4219,62.4338 L393.8906,62.4338 L393.8906,54.3556 L391.4219,54.3556 Z " fill="#000000"/><text fill="#000000" font-family="sans-serif" font-size="14" font-style="italic" lengthAdjust="spacing" textLength="66" x="409.5" y="63.4367">Runnable</text><line style="stroke:#181818;stroke-width:0.5;" x1="381.5" x2="477.5" y1="74.59" y2="74.59"/><line style="stroke:#181818;stroke-width:0.5;" x1="381.5" x2="477.5" y1="82.59" y2="82.59"/><text fill="#000000" font-family="sans-serif" font-size="14" lengthAdjust="spacing" textLength="33" x="386.5" y="99.5851">run()</text></g><!--class RunnableFuture--><g id="elem_RunnableFuture"><rect codeLine="11" fill="#F1F1F1" height="48" id="RunnableFuture" rx="2.5" ry="2.5" style="stroke:#181818;stroke-width:0.5;" width="155" x="225" y="199.48"/><ellipse cx="240" cy="215.48" fill="#B4A7E5" rx="11" ry="11" style="stroke:#181818;stroke-width:1.0;"/><path d="M235.9219,211.2456 L235.9219,209.0894 L243.3125,209.0894 L243.3125,211.2456 L240.8438,211.2456 L240.8438,219.3238 L243.3125,219.3238 L243.3125,221.48 L235.9219,221.48 L235.9219,219.3238 L238.3906,219.3238 L238.3906,211.2456 L235.9219,211.2456 Z " fill="#000000"/><text fill="#000000" font-family="sans-serif" font-size="14" font-style="italic" lengthAdjust="spacing" textLength="111" x="254" y="220.3267">RunnableFuture</text><rect fill="#FFFFFF" height="15.9688" style="stroke:#181818;stroke-width:1.0;stroke-dasharray:2.0,2.0;" width="10" x="373" y="196.48"/><text fill="#000000" font-family="sans-serif" font-size="12" font-style="italic" lengthAdjust="spacing" textLength="8" x="374" y="208.6187">V</text><line style="stroke:#181818;stroke-width:0.5;" x1="226" x2="379" y1="231.48" y2="231.48"/><line style="stroke:#181818;stroke-width:0.5;" x1="226" x2="379" y1="239.48" y2="239.48"/></g><!--class FutureTask--><g id="elem_FutureTask"><rect codeLine="12" fill="#F1F1F1" height="113.1875" id="FutureTask" rx="2.5" ry="2.5" style="stroke:#181818;stroke-width:0.5;" width="182" x="211.5" y="307.48"/><ellipse cx="253.5" cy="323.48" fill="#ADD1B2" rx="11" ry="11" style="stroke:#181818;stroke-width:1.0;"/><path d="M256.4688,329.1206 Q255.8906,329.4175 255.25,329.5581 Q254.6094,329.7144 253.9063,329.7144 Q251.4063,329.7144 250.0781,328.0738 Q248.7656,326.4175 248.7656,323.2925 Q248.7656,320.1675 250.0781,318.5113 Q251.4063,316.855 253.9063,316.855 Q254.6094,316.855 255.25,317.0113 Q255.9063,317.1675 256.4688,317.4644 L256.4688,320.1831 Q255.8438,319.605 255.25,319.3394 Q254.6563,319.0581 254.0313,319.0581 Q252.6875,319.0581 252,320.1363 Q251.3125,321.1988 251.3125,323.2925 Q251.3125,325.3863 252,326.4644 Q252.6875,327.5269 254.0313,327.5269 Q254.6563,327.5269 255.25,327.2613 Q255.8438,326.98 256.4688,326.4019 L256.4688,329.1206 Z " fill="#000000"/><text fill="#000000" font-family="sans-serif" font-size="14" lengthAdjust="spacing" textLength="78" x="273.5" y="328.3267">FutureTask</text><rect fill="#FFFFFF" height="15.9688" style="stroke:#181818;stroke-width:1.0;stroke-dasharray:2.0,2.0;" width="10" x="386.5" y="304.48"/><text fill="#000000" font-family="sans-serif" font-size="12" font-style="italic" lengthAdjust="spacing" textLength="8" x="387.5" y="316.6187">V</text><line style="stroke:#181818;stroke-width:0.5;" x1="212.5" x2="392.5" y1="339.48" y2="339.48"/><text fill="#000000" font-family="sans-serif" font-size="14" lengthAdjust="spacing" textLength="141" x="217.5" y="356.4751">Callable&lt;V&gt; callable</text><text fill="#000000" font-family="sans-serif" font-size="14" lengthAdjust="spacing" textLength="111" x="217.5" y="372.772">Object outcome</text><text fill="#000000" font-family="sans-serif" font-size="14" lengthAdjust="spacing" textLength="150" x="217.5" y="389.0689">volatile Thread runner</text><text fill="#000000" font-family="sans-serif" font-size="14" lengthAdjust="spacing" textLength="170" x="217.5" y="405.3657">volatile WaitNode waiters</text><line style="stroke:#181818;stroke-width:0.5;" x1="212.5" x2="392.5" y1="412.6675" y2="412.6675"/></g><!--class WaitNode--><g id="elem_WaitNode"><rect codeLine="19" fill="#F1F1F1" height="80.5938" id="WaitNode" rx="2.5" ry="2.5" style="stroke:#181818;stroke-width:0.5;" width="163" x="429" y="323.78"/><ellipse cx="473.25" cy="339.78" fill="#ADD1B2" rx="11" ry="11" style="stroke:#181818;stroke-width:1.0;"/><path d="M476.2188,345.4206 Q475.6406,345.7175 475,345.8581 Q474.3594,346.0144 473.6563,346.0144 Q471.1563,346.0144 469.8281,344.3738 Q468.5156,342.7175 468.5156,339.5925 Q468.5156,336.4675 469.8281,334.8113 Q471.1563,333.155 473.6563,333.155 Q474.3594,333.155 475,333.3113 Q475.6563,333.4675 476.2188,333.7644 L476.2188,336.4831 Q475.5938,335.905 475,335.6394 Q474.4063,335.3581 473.7813,335.3581 Q472.4375,335.3581 471.75,336.4363 Q471.0625,337.4988 471.0625,339.5925 Q471.0625,341.6863 471.75,342.7644 Q472.4375,343.8269 473.7813,343.8269 Q474.4063,343.8269 475,343.5613 Q475.5938,343.28 476.2188,342.7019 L476.2188,345.4206 Z " fill="#000000"/><text fill="#000000" font-family="sans-serif" font-size="14" lengthAdjust="spacing" textLength="66" x="493.75" y="344.6267">WaitNode</text><line style="stroke:#181818;stroke-width:0.5;" x1="430" x2="591" y1="355.78" y2="355.78"/><text fill="#000000" font-family="sans-serif" font-size="14" lengthAdjust="spacing" textLength="149" x="435" y="372.7751">volatile Thread thread</text><text fill="#000000" font-family="sans-serif" font-size="14" lengthAdjust="spacing" textLength="151" x="435" y="389.072">volatile WaitNode next</text><line style="stroke:#181818;stroke-width:0.5;" x1="430" x2="591" y1="396.3738" y2="396.3738"/></g><!--reverse link Runnable to RunnableFuture--><g id="link_Runnable_RunnableFuture"><path d="M390.4789,120.8291 C366.5689,148.4491 344.13,174.38 322.63,199.23 " fill="none" id="Runnable-backto-RunnableFuture" style="stroke:#181818;stroke-width:1.0;"/><polygon fill="none" points="402.26,107.22,385.9426,116.902,395.0153,124.7561,402.26,107.22" style="stroke:#181818;stroke-width:1.0;"/></g><!--reverse link Future to RunnableFuture--><g id="link_Future_RunnableFuture"><path d="M243.1265,153.3361 C261.2965,174.4961 268.65,183.07 282.47,199.16 " fill="none" id="Future-backto-RunnableFuture" style="stroke:#181818;stroke-width:1.0;"/><polygon fill="none" points="231.4,139.68,238.5744,157.245,247.6785,149.4273,231.4,139.68" style="stroke:#181818;stroke-width:1.0;"/></g><!--reverse link RunnableFuture to FutureTask--><g id="link_RunnableFuture_FutureTask"><path d="M302.5,265.68 C302.5,281.94 302.5,286.4 302.5,307.18 " fill="none" id="RunnableFuture-backto-FutureTask" style="stroke:#181818;stroke-width:1.0;stroke-dasharray:7.0,7.0;"/><polygon fill="none" points="302.5,247.68,296.5,265.68,308.5,265.68,302.5,247.68" style="stroke:#181818;stroke-width:1.0;"/></g><!--reverse link FutureTask to WaitNode--><g id="link_FutureTask_WaitNode"><path codeLine="24" d="M405.91,364.08 C417.44,364.08 416.98,364.08 428.52,364.08 " fill="none" id="FutureTask-backto-WaitNode" style="stroke:#181818;stroke-width:1.0;"/><polygon fill="#181818" points="393.91,364.08,399.91,368.08,405.91,364.08,399.91,360.08,393.91,364.08" style="stroke:#181818;stroke-width:1.0;"/></g><!--SRC=[RK_1JiCm3BttAtpiqDOlG5o6a7O12PLnTbEl2qkSAN4OQEBVIQgIRQYNn7v-VdvFiv3VeI9uYX8ztMyVu5m1TCuPGWQ5hCZKVwt5xqtUyF4eczrhPDOyBAxuEgp73KDzVOi_EgOHsi90KYz0zjwT0ZHDKq3ZU03HbboK9RIfU6Cj4DDpm_-fTF6TJM1dQBJj8wSRS-DBFFeIuZwKoNAANYc38KnDY-6GoTeU3LbY2V-KndDhD2P3cQccEi4ltGSfWHH2EPk1JsTGTFBOxZrXdsqo-Ul1EsfvTZt1AHNaGyem-IcJyuoGZD-i4AUSMUMI1-vMVbK8lm00]--></g></svg>