<?xml version="1.0" encoding="us-ascii" standalone="no"?><svg xmlns="http://www.w3.org/2000/svg" xmlns:xlink="http://www.w3.org/1999/xlink" contentStyleType="text/css" height="170px" preserveAspectRatio="none" style="width:191px;height:170px;background:#FFFFFF;" version="1.1" viewBox="0 0 191 170" width="191px" zoomAndPan="magnify"><defs/><g><!--class InterruptedException--><g id="elem_InterruptedException"><rect codeLine="1" fill="#F1F1F1" height="48" id="InterruptedException" rx="2.5" ry="2.5" style="stroke:#181818;stroke-width:0.5;" width="177" x="7" y="115"/><ellipse cx="22" cy="131" fill="#ADD1B2" rx="11" ry="11" style="stroke:#181818;stroke-width:1.0;"/><path d="M24.9688,136.6406 Q24.3906,136.9375 23.75,137.0781 Q23.1094,137.2344 22.4063,137.2344 Q19.9063,137.2344 18.5781,135.5938 Q17.2656,133.9375 17.2656,130.8125 Q17.2656,127.6875 18.5781,126.0313 Q19.9063,124.375 22.4063,124.375 Q23.1094,124.375 23.75,124.5313 Q24.4063,124.6875 24.9688,124.9844 L24.9688,127.7031 Q24.3438,127.125 23.75,126.8594 Q23.1563,126.5781 22.5313,126.5781 Q21.1875,126.5781 20.5,127.6563 Q19.8125,128.7188 19.8125,130.8125 Q19.8125,132.9063 20.5,133.9844 Q21.1875,135.0469 22.5313,135.0469 Q23.1563,135.0469 23.75,134.7813 Q24.3438,134.5 24.9688,133.9219 L24.9688,136.6406 Z " fill="#000000"/><text fill="#000000" font-family="sans-serif" font-size="14" lengthAdjust="spacing" textLength="145" x="36" y="135.8467">InterruptedException</text><line style="stroke:#181818;stroke-width:0.5;" x1="8" x2="183" y1="147" y2="147"/><line style="stroke:#181818;stroke-width:0.5;" x1="8" x2="183" y1="155" y2="155"/></g><!--class Exception--><g id="elem_Exception"><rect fill="#F1F1F1" height="48" id="Exception" rx="2.5" ry="2.5" style="stroke:#181818;stroke-width:0.5;" width="100" x="45.5" y="7"/><ellipse cx="60.5" cy="23" fill="#ADD1B2" rx="11" ry="11" style="stroke:#181818;stroke-width:1.0;"/><path d="M63.4688,28.6406 Q62.8906,28.9375 62.25,29.0781 Q61.6094,29.2344 60.9063,29.2344 Q58.4063,29.2344 57.0781,27.5938 Q55.7656,25.9375 55.7656,22.8125 Q55.7656,19.6875 57.0781,18.0313 Q58.4063,16.375 60.9063,16.375 Q61.6094,16.375 62.25,16.5313 Q62.9063,16.6875 63.4688,16.9844 L63.4688,19.7031 Q62.8438,19.125 62.25,18.8594 Q61.6563,18.5781 61.0313,18.5781 Q59.6875,18.5781 59,19.6563 Q58.3125,20.7188 58.3125,22.8125 Q58.3125,24.9063 59,25.9844 Q59.6875,27.0469 61.0313,27.0469 Q61.6563,27.0469 62.25,26.7813 Q62.8438,26.5 63.4688,25.9219 L63.4688,28.6406 Z " fill="#000000"/><text fill="#000000" font-family="sans-serif" font-size="14" lengthAdjust="spacing" textLength="68" x="74.5" y="27.8467">Exception</text><line style="stroke:#181818;stroke-width:0.5;" x1="46.5" x2="144.5" y1="39" y2="39"/><line style="stroke:#181818;stroke-width:0.5;" x1="46.5" x2="144.5" y1="47" y2="47"/></g><!--reverse link Exception to InterruptedException--><g id="link_Exception_InterruptedException"><path d="M95.5,73.26 C95.5,90.94 95.5,97.13 95.5,114.79 " fill="none" id="Exception-backto-InterruptedException" style="stroke:#181818;stroke-width:1.0;"/><polygon fill="none" points="95.5,55.26,89.5,73.26,101.5,73.26,95.5,55.26" style="stroke:#181818;stroke-width:1.0;"/></g><!--SRC=[Iyv9B2vMyCmhIIqgAYqeIKrnhKXEBIZ9pCzJIAqeISrBALQ0Ym00]--></g></svg>