<?xml version="1.0" encoding="us-ascii" standalone="no"?><svg xmlns="http://www.w3.org/2000/svg" xmlns:xlink="http://www.w3.org/1999/xlink" contentStyleType="text/css" height="345px" preserveAspectRatio="none" style="width:475px;height:345px;background:#FFFFFF;" version="1.1" viewBox="0 0 475 345" width="475px" zoomAndPan="magnify"><defs/><g><ellipse cx="174" cy="20" fill="#222222" rx="10" ry="10" style="stroke:#222222;stroke-width:1.0;"/><rect fill="#F1F1F1" height="33.9688" rx="12.5" ry="12.5" style="stroke:#181818;stroke-width:0.5;" width="139" x="104.5" y="50"/><text fill="#000000" font-family="sans-serif" font-size="12" lengthAdjust="spacing" textLength="119" x="114.5" y="71.1387">execute(Runnable)</text><polygon fill="#F1F1F1" points="125.5,103.9688,222.5,103.9688,234.5,115.9688,222.5,127.9688,125.5,127.9688,113.5,115.9688,125.5,103.9688" style="stroke:#181818;stroke-width:0.5;"/><text fill="#000000" font-family="sans-serif" font-size="11" lengthAdjust="spacing" textLength="97" x="125.5" y="119.7769">running threads?</text><text fill="#000000" font-family="sans-serif" font-size="11" lengthAdjust="spacing" textLength="85" x="28.5" y="113.3745">&lt; corePoolSize</text><text fill="#000000" font-family="sans-serif" font-size="11" lengthAdjust="spacing" textLength="229" x="234.5" y="113.3745">&gt; corePoolSize &amp;&amp; &lt; maximumPoolSize</text><rect fill="#F1F1F1" height="33.9688" rx="12.5" ry="12.5" style="stroke:#181818;stroke-width:0.5;" width="148" x="11" y="137.9688"/><text fill="#000000" font-family="sans-serif" font-size="12" lengthAdjust="spacing" textLength="128" x="21" y="159.1074">create a new thread</text><rect fill="#F1F1F1" height="33.9688" rx="12.5" ry="12.5" style="stroke:#181818;stroke-width:0.5;" width="148" x="189" y="186.3711"/><text fill="#000000" font-family="sans-serif" font-size="12" lengthAdjust="spacing" textLength="128" x="199" y="207.5098">create a new thread</text><polygon fill="#F1F1F1" points="235.5,137.9688,290.5,137.9688,302.5,149.9688,290.5,161.9688,235.5,161.9688,223.5,149.9688,235.5,137.9688" style="stroke:#181818;stroke-width:0.5;"/><text fill="#000000" font-family="sans-serif" font-size="11" lengthAdjust="spacing" textLength="17" x="267" y="172.1792">full</text><text fill="#000000" font-family="sans-serif" font-size="11" lengthAdjust="spacing" textLength="55" x="235.5" y="153.7769">queue is?</text><polygon fill="#F1F1F1" points="263,240.3398,275,252.3398,263,264.3398,251,252.3398,263,240.3398" style="stroke:#181818;stroke-width:0.5;"/><polygon fill="#F1F1F1" points="174,270.3398,186,282.3398,174,294.3398,162,282.3398,174,270.3398" style="stroke:#181818;stroke-width:0.5;"/><ellipse cx="174" cy="324.3398" fill="none" rx="10" ry="10" style="stroke:#222222;stroke-width:1.5;"/><line style="stroke:#222222;stroke-width:2.5;" x1="167.8128" x2="180.1872" y1="318.1527" y2="330.527"/><line style="stroke:#222222;stroke-width:2.5;" x1="180.1872" x2="167.8128" y1="318.1527" y2="330.527"/><line style="stroke:#181818;stroke-width:1.0;" x1="174" x2="174" y1="30" y2="50"/><polygon fill="#181818" points="170,40,174,50,178,40,174,44" style="stroke:#181818;stroke-width:1.0;"/><line style="stroke:#181818;stroke-width:1.0;" x1="263" x2="263" y1="161.9688" y2="186.3711"/><polygon fill="#181818" points="259,176.3711,263,186.3711,267,176.3711,263,180.3711" style="stroke:#181818;stroke-width:1.0;"/><line style="stroke:#181818;stroke-width:1.0;" x1="302.5" x2="347" y1="149.9688" y2="149.9688"/><polygon fill="#181818" points="343,193.3555,347,203.3555,351,193.3555,347,197.3555" style="stroke:#181818;stroke-width:1.0;"/><line style="stroke:#181818;stroke-width:1.0;" x1="347" x2="347" y1="149.9688" y2="252.3398"/><line style="stroke:#181818;stroke-width:1.0;" x1="347" x2="275" y1="252.3398" y2="252.3398"/><polygon fill="#181818" points="285,248.3398,275,252.3398,285,256.3398,281,252.3398" style="stroke:#181818;stroke-width:1.0;"/><line style="stroke:#181818;stroke-width:1.0;" x1="263" x2="263" y1="220.3398" y2="240.3398"/><polygon fill="#181818" points="259,230.3398,263,240.3398,267,230.3398,263,234.3398" style="stroke:#181818;stroke-width:1.0;"/><line style="stroke:#181818;stroke-width:1.0;" x1="113.5" x2="85" y1="115.9688" y2="115.9688"/><line style="stroke:#181818;stroke-width:1.0;" x1="85" x2="85" y1="115.9688" y2="137.9688"/><polygon fill="#181818" points="81,127.9688,85,137.9688,89,127.9688,85,131.9688" style="stroke:#181818;stroke-width:1.0;"/><line style="stroke:#181818;stroke-width:1.0;" x1="234.5" x2="263" y1="115.9688" y2="115.9688"/><line style="stroke:#181818;stroke-width:1.0;" x1="263" x2="263" y1="115.9688" y2="137.9688"/><polygon fill="#181818" points="259,127.9688,263,137.9688,267,127.9688,263,131.9688" style="stroke:#181818;stroke-width:1.0;"/><line style="stroke:#181818;stroke-width:1.0;" x1="85" x2="85" y1="171.9375" y2="282.3398"/><line style="stroke:#181818;stroke-width:1.0;" x1="85" x2="162" y1="282.3398" y2="282.3398"/><polygon fill="#181818" points="152,278.3398,162,282.3398,152,286.3398,156,282.3398" style="stroke:#181818;stroke-width:1.0;"/><line style="stroke:#181818;stroke-width:1.0;" x1="263" x2="263" y1="264.3398" y2="282.3398"/><line style="stroke:#181818;stroke-width:1.0;" x1="263" x2="186" y1="282.3398" y2="282.3398"/><polygon fill="#181818" points="196,278.3398,186,282.3398,196,286.3398,192,282.3398" style="stroke:#181818;stroke-width:1.0;"/><line style="stroke:#181818;stroke-width:1.0;" x1="174" x2="174" y1="83.9688" y2="103.9688"/><polygon fill="#181818" points="170,93.9688,174,103.9688,178,93.9688,174,97.9688" style="stroke:#181818;stroke-width:1.0;"/><line style="stroke:#181818;stroke-width:1.0;" x1="174" x2="174" y1="294.3398" y2="314.3398"/><polygon fill="#181818" points="170,304.3398,174,314.3398,178,304.3398,174,308.3398" style="stroke:#181818;stroke-width:1.0;"/><!--SRC=[TOrT2i8m48JVSufzAiaLsg9N43r1JAUwa1zCibWylQcKeW_Emy8mE_ELQdDLFHOugT1dYT5UFSoWU2QTc-LuethFi5Cv6k92UYINCauf-Gk_O5gAgAYfT-sjWYn5FBVIeE0BI1z-IjHrD5Am2mS9-z9dPEK-18B6se2pUF-5-OzQ4yI9PxNVDm00]--></g></svg>