<?xml version="1.0" encoding="us-ascii" standalone="no"?><svg xmlns="http://www.w3.org/2000/svg" xmlns:xlink="http://www.w3.org/1999/xlink" contentStyleType="text/css" height="294px" preserveAspectRatio="none" style="width:566px;height:294px;background:#FFFFFF;" version="1.1" viewBox="0 0 566 294" width="566px" zoomAndPan="magnify"><defs/><g><!--class InputStream--><g id="elem_InputStream"><rect codeLine="1" fill="#F1F1F1" height="48" id="InputStream" rx="2.5" ry="2.5" style="stroke:#181818;stroke-width:0.5;" width="116" x="313.5" y="7"/><ellipse cx="328.5" cy="23" fill="#A9DCDF" rx="11" ry="11" style="stroke:#181818;stroke-width:1.0;"/><path d="M328.6094,18.3438 L327.4531,23.4219 L329.7813,23.4219 L328.6094,18.3438 Z M327.125,16.1094 L330.1094,16.1094 L333.4688,28.5 L331.0156,28.5 L330.25,25.4375 L326.9688,25.4375 L326.2188,28.5 L323.7813,28.5 L327.125,16.1094 Z " fill="#000000"/><text fill="#000000" font-family="sans-serif" font-size="14" font-style="italic" lengthAdjust="spacing" textLength="84" x="342.5" y="27.8467">InputStream</text><line style="stroke:#181818;stroke-width:0.5;" x1="314.5" x2="428.5" y1="39" y2="39"/><line style="stroke:#181818;stroke-width:0.5;" x1="314.5" x2="428.5" y1="47" y2="47"/></g><!--class FileInputStream--><g id="elem_FileInputStream"><rect codeLine="2" fill="#F1F1F1" height="48" id="FileInputStream" rx="2.5" ry="2.5" style="stroke:#181818;stroke-width:0.5;" width="139" x="7" y="123.15"/><ellipse cx="22" cy="139.15" fill="#ADD1B2" rx="11" ry="11" style="stroke:#181818;stroke-width:1.0;"/><path d="M24.9688,144.7906 Q24.3906,145.0875 23.75,145.2281 Q23.1094,145.3844 22.4063,145.3844 Q19.9063,145.3844 18.5781,143.7438 Q17.2656,142.0875 17.2656,138.9625 Q17.2656,135.8375 18.5781,134.1813 Q19.9063,132.525 22.4063,132.525 Q23.1094,132.525 23.75,132.6813 Q24.4063,132.8375 24.9688,133.1344 L24.9688,135.8531 Q24.3438,135.275 23.75,135.0094 Q23.1563,134.7281 22.5313,134.7281 Q21.1875,134.7281 20.5,135.8063 Q19.8125,136.8688 19.8125,138.9625 Q19.8125,141.0563 20.5,142.1344 Q21.1875,143.1969 22.5313,143.1969 Q23.1563,143.1969 23.75,142.9313 Q24.3438,142.65 24.9688,142.0719 L24.9688,144.7906 Z " fill="#000000"/><text fill="#000000" font-family="sans-serif" font-size="14" lengthAdjust="spacing" textLength="107" x="36" y="143.9967">FileInputStream</text><line style="stroke:#181818;stroke-width:0.5;" x1="8" x2="145" y1="155.15" y2="155.15"/><line style="stroke:#181818;stroke-width:0.5;" x1="8" x2="145" y1="163.15" y2="163.15"/></g><!--class ByteArrayInputStream--><g id="elem_ByteArrayInputStream"><rect codeLine="3" fill="#F1F1F1" height="48" id="ByteArrayInputStream" rx="2.5" ry="2.5" style="stroke:#181818;stroke-width:0.5;" width="181" x="181" y="123.15"/><ellipse cx="196" cy="139.15" fill="#ADD1B2" rx="11" ry="11" style="stroke:#181818;stroke-width:1.0;"/><path d="M198.9688,144.7906 Q198.3906,145.0875 197.75,145.2281 Q197.1094,145.3844 196.4063,145.3844 Q193.9063,145.3844 192.5781,143.7438 Q191.2656,142.0875 191.2656,138.9625 Q191.2656,135.8375 192.5781,134.1813 Q193.9063,132.525 196.4063,132.525 Q197.1094,132.525 197.75,132.6813 Q198.4063,132.8375 198.9688,133.1344 L198.9688,135.8531 Q198.3438,135.275 197.75,135.0094 Q197.1563,134.7281 196.5313,134.7281 Q195.1875,134.7281 194.5,135.8063 Q193.8125,136.8688 193.8125,138.9625 Q193.8125,141.0563 194.5,142.1344 Q195.1875,143.1969 196.5313,143.1969 Q197.1563,143.1969 197.75,142.9313 Q198.3438,142.65 198.9688,142.0719 L198.9688,144.7906 Z " fill="#000000"/><text fill="#000000" font-family="sans-serif" font-size="14" lengthAdjust="spacing" textLength="149" x="210" y="143.9967">ByteArrayInputStream</text><line style="stroke:#181818;stroke-width:0.5;" x1="182" x2="361" y1="155.15" y2="155.15"/><line style="stroke:#181818;stroke-width:0.5;" x1="182" x2="361" y1="163.15" y2="163.15"/></g><!--class FilterInputStream--><g id="elem_FilterInputStream"><rect codeLine="4" fill="#F1F1F1" height="64.2969" id="FilterInputStream" rx="2.5" ry="2.5" style="stroke:#181818;stroke-width:0.5;" width="149" x="397" y="115"/><ellipse cx="412" cy="131" fill="#ADD1B2" rx="11" ry="11" style="stroke:#181818;stroke-width:1.0;"/><path d="M414.9688,136.6406 Q414.3906,136.9375 413.75,137.0781 Q413.1094,137.2344 412.4063,137.2344 Q409.9063,137.2344 408.5781,135.5938 Q407.2656,133.9375 407.2656,130.8125 Q407.2656,127.6875 408.5781,126.0313 Q409.9063,124.375 412.4063,124.375 Q413.1094,124.375 413.75,124.5313 Q414.4063,124.6875 414.9688,124.9844 L414.9688,127.7031 Q414.3438,127.125 413.75,126.8594 Q413.1563,126.5781 412.5313,126.5781 Q411.1875,126.5781 410.5,127.6563 Q409.8125,128.7188 409.8125,130.8125 Q409.8125,132.9063 410.5,133.9844 Q411.1875,135.0469 412.5313,135.0469 Q413.1563,135.0469 413.75,134.7813 Q414.3438,134.5 414.9688,133.9219 L414.9688,136.6406 Z " fill="#000000"/><text fill="#000000" font-family="sans-serif" font-size="14" lengthAdjust="spacing" textLength="117" x="426" y="135.8467">FilterInputStream</text><line style="stroke:#181818;stroke-width:0.5;" x1="398" x2="545" y1="147" y2="147"/><text fill="#000000" font-family="sans-serif" font-size="14" lengthAdjust="spacing" textLength="100" x="403" y="163.9951">InputStream in</text><line style="stroke:#181818;stroke-width:0.5;" x1="398" x2="545" y1="171.2969" y2="171.2969"/></g><!--class BufferedInputStream--><g id="elem_BufferedInputStream"><rect codeLine="7" fill="#F1F1F1" height="48" id="BufferedInputStream" rx="2.5" ry="2.5" style="stroke:#181818;stroke-width:0.5;" width="175" x="384" y="239.3"/><ellipse cx="399" cy="255.3" fill="#ADD1B2" rx="11" ry="11" style="stroke:#181818;stroke-width:1.0;"/><path d="M401.9688,260.9406 Q401.3906,261.2375 400.75,261.3781 Q400.1094,261.5344 399.4063,261.5344 Q396.9063,261.5344 395.5781,259.8938 Q394.2656,258.2375 394.2656,255.1125 Q394.2656,251.9875 395.5781,250.3313 Q396.9063,248.675 399.4063,248.675 Q400.1094,248.675 400.75,248.8313 Q401.4063,248.9875 401.9688,249.2844 L401.9688,252.0031 Q401.3438,251.425 400.75,251.1594 Q400.1563,250.8781 399.5313,250.8781 Q398.1875,250.8781 397.5,251.9563 Q396.8125,253.0188 396.8125,255.1125 Q396.8125,257.2063 397.5,258.2844 Q398.1875,259.3469 399.5313,259.3469 Q400.1563,259.3469 400.75,259.0813 Q401.3438,258.8 401.9688,258.2219 L401.9688,260.9406 Z " fill="#000000"/><text fill="#000000" font-family="sans-serif" font-size="14" lengthAdjust="spacing" textLength="143" x="413" y="260.1467">BufferedInputStream</text><line style="stroke:#181818;stroke-width:0.5;" x1="385" x2="558" y1="271.3" y2="271.3"/><line style="stroke:#181818;stroke-width:0.5;" x1="385" x2="558" y1="279.3" y2="279.3"/></g><!--reverse link InputStream to FileInputStream--><g id="link_InputStream_FileInputStream"><path d="M296.4321,61.0535 C245.5521,80.7335 188.78,102.71 137.2,122.67 " fill="none" id="InputStream-backto-FileInputStream" style="stroke:#181818;stroke-width:1.0;"/><polygon fill="none" points="313.22,54.56,294.2676,55.4575,298.5965,66.6494,313.22,54.56" style="stroke:#181818;stroke-width:1.0;"/></g><!--reverse link InputStream to ByteArrayInputStream--><g id="link_InputStream_ByteArrayInputStream"><path d="M339.1621,68.9221 C321.9121,88.6221 309.2,103.12 291.95,122.81 " fill="none" id="InputStream-backto-ByteArrayInputStream" style="stroke:#181818;stroke-width:1.0;"/><polygon fill="none" points="351.02,55.38,334.648,64.9695,343.6761,72.8748,351.02,55.38" style="stroke:#181818;stroke-width:1.0;"/></g><!--reverse link InputStream to FilterInputStream--><g id="link_InputStream_FilterInputStream"><path d="M392.0253,69.9531 C404.4153,87.0431 413.98,95.84 432.3,114.58 " fill="none" id="InputStream-backto-FilterInputStream" style="stroke:#181818;stroke-width:1.0;"/><polygon fill="none" points="381.46,55.38,387.1676,73.4748,396.883,66.4313,381.46,55.38" style="stroke:#181818;stroke-width:1.0;"/></g><!--reverse link FilterInputStream to InputStream--><g id="link_FilterInputStream_InputStream"><path codeLine="8" d="M448.752,105.0696 C434.332,86.3296 420.82,72.47 403.12,55.38 " fill="none" id="FilterInputStream-backto-InputStream" style="stroke:#181818;stroke-width:1.0;"/><polygon fill="#181818" points="456.07,114.58,455.5811,107.3855,448.752,105.0696,449.2409,112.2642,456.07,114.58" style="stroke:#181818;stroke-width:1.0;"/></g><!--reverse link FilterInputStream to BufferedInputStream--><g id="link_FilterInputStream_BufferedInputStream"><path d="M471.5,197.65 C471.5,216.39 471.5,221.77 471.5,238.88 " fill="none" id="FilterInputStream-backto-BufferedInputStream" style="stroke:#181818;stroke-width:1.0;"/><polygon fill="none" points="471.5,179.65,465.5,197.65,477.5,197.65,471.5,179.65" style="stroke:#181818;stroke-width:1.0;"/></g><!--SRC=[IqmgBYbAJ2vHICv9B2vMyCmhA2q9BYbAJSpbWeYuPUQa8eagf5QKfEQbO5FfL5cIwbXKb5X9d7AWmIMfHGJKAbHpAQ3mC_EuQc7sbQQbfHQbfc0p0iDmBaphj7HraOq60000]--></g></svg>