<?xml version="1.0" encoding="us-ascii" standalone="no"?><svg xmlns="http://www.w3.org/2000/svg" xmlns:xlink="http://www.w3.org/1999/xlink" contentStyleType="text/css" height="405px" preserveAspectRatio="none" style="width:369px;height:405px;background:#FFFFFF;" version="1.1" viewBox="0 0 369 405" width="369px" zoomAndPan="magnify"><defs/><g><!--class Iterable--><g id="elem_Iterable"><rect codeLine="1" fill="#F1F1F1" height="64.2969" id="Iterable" rx="2.5" ry="2.5" style="stroke:#181818;stroke-width:0.5;" width="157" x="28" y="26.3"/><ellipse cx="70.9" cy="42.3" fill="#B4A7E5" rx="11" ry="11" style="stroke:#181818;stroke-width:1.0;"/><path d="M66.8219,38.0656 L66.8219,35.9094 L74.2125,35.9094 L74.2125,38.0656 L71.7438,38.0656 L71.7438,46.1438 L74.2125,46.1438 L74.2125,48.3 L66.8219,48.3 L66.8219,46.1438 L69.2906,46.1438 L69.2906,38.0656 L66.8219,38.0656 Z " fill="#000000"/><text fill="#000000" font-family="sans-serif" font-size="14" font-style="italic" lengthAdjust="spacing" textLength="51" x="91.1" y="47.1467">Iterable</text><rect fill="#FFFFFF" height="15.9688" style="stroke:#181818;stroke-width:1.0;stroke-dasharray:2.0,2.0;" width="10" x="178" y="23.3"/><text fill="#000000" font-family="sans-serif" font-size="12" font-style="italic" lengthAdjust="spacing" textLength="8" x="179" y="35.4387">E</text><line style="stroke:#181818;stroke-width:0.5;" x1="29" x2="184" y1="58.3" y2="58.3"/><line style="stroke:#181818;stroke-width:0.5;" x1="29" x2="184" y1="66.3" y2="66.3"/><text fill="#000000" font-family="sans-serif" font-size="14" lengthAdjust="spacing" textLength="145" x="34" y="83.2951">Iterator&lt;E&gt; iterator()</text></g><!--class Collection--><g id="elem_Collection"><rect codeLine="5" fill="#F1F1F1" height="231.2656" id="Collection" rx="2.5" ry="2.5" style="stroke:#181818;stroke-width:0.5;" width="199" x="7" y="166.89"/><ellipse cx="62.25" cy="182.89" fill="#B4A7E5" rx="11" ry="11" style="stroke:#181818;stroke-width:1.0;"/><path d="M58.1719,178.6556 L58.1719,176.4994 L65.5625,176.4994 L65.5625,178.6556 L63.0938,178.6556 L63.0938,186.7338 L65.5625,186.7338 L65.5625,188.89 L58.1719,188.89 L58.1719,186.7338 L60.6406,186.7338 L60.6406,178.6556 L58.1719,178.6556 Z " fill="#000000"/><text fill="#000000" font-family="sans-serif" font-size="14" font-style="italic" lengthAdjust="spacing" textLength="68" x="82.75" y="187.7367">Collection</text><rect fill="#FFFFFF" height="15.9688" style="stroke:#181818;stroke-width:1.0;stroke-dasharray:2.0,2.0;" width="10" x="199" y="163.89"/><text fill="#000000" font-family="sans-serif" font-size="12" font-style="italic" lengthAdjust="spacing" textLength="8" x="200" y="176.0287">E</text><line style="stroke:#181818;stroke-width:0.5;" x1="8" x2="205" y1="198.89" y2="198.89"/><text fill="#000000" font-family="sans-serif" font-size="14" lengthAdjust="spacing" textLength="59" x="13" y="236.182">int size()</text><text fill="#000000" font-family="sans-serif" font-size="14" lengthAdjust="spacing" textLength="124" x="13" y="252.4789">boolean isEmpty()</text><text fill="#000000" font-family="sans-serif" font-size="14" lengthAdjust="spacing" textLength="187" x="13" y="268.7757">boolean contains(Object o)</text><text fill="#000000" font-family="sans-serif" font-size="14" lengthAdjust="spacing" textLength="117" x="13" y="285.0726">Object[] toArray()</text><text fill="#000000" font-family="sans-serif" font-size="14" lengthAdjust="spacing" textLength="149" x="13" y="301.3695">&lt;T&gt; T[] toArray(T[] a)</text><line style="stroke:#181818;stroke-width:1.0;stroke-dasharray:1.0,2.0;" x1="8" x2="86" y1="215.0384" y2="215.0384"/><text fill="#000000" font-family="sans-serif" font-size="14" lengthAdjust="spacing" textLength="41" x="86" y="219.3851">Query</text><line style="stroke:#181818;stroke-width:1.0;stroke-dasharray:1.0,2.0;" x1="127" x2="205" y1="215.0384" y2="215.0384"/><text fill="#000000" font-family="sans-serif" font-size="14" lengthAdjust="spacing" textLength="118" x="13" y="337.9632">boolean add(E e)</text><text fill="#000000" font-family="sans-serif" font-size="14" lengthAdjust="spacing" textLength="180" x="13" y="354.2601">boolean remove(Object o)</text><line style="stroke:#181818;stroke-width:1.0;stroke-dasharray:1.0,2.0;" x1="8" x2="65.5" y1="316.8197" y2="316.8197"/><text fill="#000000" font-family="sans-serif" font-size="14" lengthAdjust="spacing" textLength="82" x="65.5" y="321.1664">Modification</text><line style="stroke:#181818;stroke-width:1.0;stroke-dasharray:1.0,2.0;" x1="147.5" x2="205" y1="316.8197" y2="316.8197"/><text fill="#000000" font-family="sans-serif" font-size="14" lengthAdjust="spacing" textLength="75" x="13" y="390.8539">void clear()</text><line style="stroke:#181818;stroke-width:1.0;stroke-dasharray:1.0,2.0;" x1="8" x2="91.5" y1="369.7103" y2="369.7103"/><text fill="#000000" font-family="sans-serif" font-size="14" lengthAdjust="spacing" textLength="30" x="91.5" y="374.057">Bulk</text><line style="stroke:#181818;stroke-width:1.0;stroke-dasharray:1.0,2.0;" x1="121.5" x2="205" y1="369.7103" y2="369.7103"/></g><!--class Iterator--><g id="elem_Iterator"><rect codeLine="19" fill="#F1F1F1" height="96.8906" id="Iterator" rx="2.5" ry="2.5" style="stroke:#181818;stroke-width:0.5;" width="138" x="220.5" y="10"/><ellipse cx="255.75" cy="26" fill="#B4A7E5" rx="11" ry="11" style="stroke:#181818;stroke-width:1.0;"/><path d="M251.6719,21.7656 L251.6719,19.6094 L259.0625,19.6094 L259.0625,21.7656 L256.5938,21.7656 L256.5938,29.8438 L259.0625,29.8438 L259.0625,32 L251.6719,32 L251.6719,29.8438 L254.1406,29.8438 L254.1406,21.7656 L251.6719,21.7656 Z " fill="#000000"/><text fill="#000000" font-family="sans-serif" font-size="14" font-style="italic" lengthAdjust="spacing" textLength="49" x="274.25" y="30.8467">Iterator</text><rect fill="#FFFFFF" height="15.9688" style="stroke:#181818;stroke-width:1.0;stroke-dasharray:2.0,2.0;" width="10" x="351.5" y="7"/><text fill="#000000" font-family="sans-serif" font-size="12" font-style="italic" lengthAdjust="spacing" textLength="8" x="352.5" y="19.1387">E</text><line style="stroke:#181818;stroke-width:0.5;" x1="221.5" x2="357.5" y1="42" y2="42"/><line style="stroke:#181818;stroke-width:0.5;" x1="221.5" x2="357.5" y1="50" y2="50"/><text fill="#000000" font-family="sans-serif" font-size="14" lengthAdjust="spacing" textLength="126" x="226.5" y="66.9951">boolean hasNext()</text><text fill="#000000" font-family="sans-serif" font-size="14" lengthAdjust="spacing" textLength="53" x="226.5" y="83.292">E next()</text><text fill="#000000" font-family="sans-serif" font-size="14" lengthAdjust="spacing" textLength="94" x="226.5" y="99.5889">void remove()</text></g><!--reverse link Iterable to Collection--><g id="link_Iterable_Collection"><path d="M106.5,108.8 C106.5,129 106.5,138.65 106.5,166.62 " fill="none" id="Iterable-backto-Collection" style="stroke:#181818;stroke-width:1.0;"/><polygon fill="none" points="106.5,90.8,100.5,108.8,112.5,108.8,106.5,90.8" style="stroke:#181818;stroke-width:1.0;"/></g><!--reverse link Iterable to Iterator--><g id="link_Iterable_Iterator"><path codeLine="25" d="M197.49,58.45 C209,58.45 208.51,58.45 220.02,58.45 " fill="none" id="Iterable-backto-Iterator" style="stroke:#181818;stroke-width:1.0;"/><polygon fill="#181818" points="185.49,58.45,191.49,62.45,197.49,58.45,191.49,54.45,185.49,58.45" style="stroke:#181818;stroke-width:1.0;"/></g><!--SRC=[PP31RW8n34Jl-nK-BfNW2n1IY_R00QfAtAeUl8a1GuYh9A1Ir7-liu7L8cxZnFF66lQ9mWODmK85jewcpGok5PGvISWpttGzglwgYdlFN9mZarXytgAVHDx6djHX9XFuE56ugD19hH3vbnG4q8euGWySc-DtkZoy6V49sSVwlTrh0aZ-BFhp2vAyXe35CLtFO3ruonf79NafbZTiC5zO3hZpqTgw0Hf61ZhAcHu25V5sSeTYFGjRCBhwLCEmgkk0kCEuqbAwCnlmTzc1RcaTgI_iPHnukqlZdlWF]--></g></svg>