<?xml version="1.0" encoding="us-ascii" standalone="no"?><svg xmlns="http://www.w3.org/2000/svg" xmlns:xlink="http://www.w3.org/1999/xlink" contentStyleType="text/css" height="418px" preserveAspectRatio="none" style="width:997px;height:418px;background:#FFFFFF;" version="1.1" viewBox="0 0 997 418" width="997px" zoomAndPan="magnify"><defs/><g><rect fill="#FFFFFF" height="283.0625" style="stroke:#181818;stroke-width:1.0;" width="10" x="85.5" y="75.4297"/><rect fill="#FFFFFF" height="34.1328" style="stroke:#181818;stroke-width:1.0;" width="10" x="90.5" y="117.5625"/><rect fill="#FFFFFF" height="63.2656" style="stroke:#181818;stroke-width:1.0;" width="10" x="90.5" y="260.0938"/><line style="stroke:#181818;stroke-width:0.5;stroke-dasharray:5.0,5.0;" x1="90" x2="90" y1="36.2969" y2="383.4922"/><line style="stroke:#181818;stroke-width:0.5;stroke-dasharray:5.0,5.0;" x1="354" x2="354" y1="36.2969" y2="383.4922"/><line style="stroke:#181818;stroke-width:0.5;stroke-dasharray:5.0,5.0;" x1="535" x2="535" y1="36.2969" y2="383.4922"/><line style="stroke:#181818;stroke-width:0.5;stroke-dasharray:5.0,5.0;" x1="693" x2="693" y1="36.2969" y2="383.4922"/><line style="stroke:#181818;stroke-width:0.5;stroke-dasharray:5.0,5.0;" x1="885" x2="885" y1="36.2969" y2="383.4922"/><rect fill="#E2E2F0" height="30.2969" rx="2.5" ry="2.5" style="stroke:#181818;stroke-width:0.5;" width="171" x="5" y="5"/><text fill="#000000" font-family="sans-serif" font-size="14" lengthAdjust="spacing" textLength="157" x="12" y="24.9951">TransactionInterceptor</text><rect fill="#E2E2F0" height="30.2969" rx="2.5" ry="2.5" style="stroke:#181818;stroke-width:0.5;" width="171" x="5" y="382.4922"/><text fill="#000000" font-family="sans-serif" font-size="14" lengthAdjust="spacing" textLength="157" x="12" y="402.4873">TransactionInterceptor</text><rect fill="#E2E2F0" height="30.2969" rx="2.5" ry="2.5" style="stroke:#181818;stroke-width:0.5;" width="201" x="254" y="5"/><text fill="#000000" font-family="sans-serif" font-size="14" lengthAdjust="spacing" textLength="187" x="261" y="24.9951">DefaultListableBeanFactory</text><rect fill="#E2E2F0" height="30.2969" rx="2.5" ry="2.5" style="stroke:#181818;stroke-width:0.5;" width="201" x="254" y="382.4922"/><text fill="#000000" font-family="sans-serif" font-size="14" lengthAdjust="spacing" textLength="187" x="261" y="402.4873">DefaultListableBeanFactory</text><rect fill="#E2E2F0" height="30.2969" rx="2.5" ry="2.5" style="stroke:#181818;stroke-width:0.5;" width="141" x="465" y="5"/><text fill="#000000" font-family="sans-serif" font-size="14" lengthAdjust="spacing" textLength="127" x="472" y="24.9951">InvocationCallback</text><rect fill="#E2E2F0" height="30.2969" rx="2.5" ry="2.5" style="stroke:#181818;stroke-width:0.5;" width="141" x="465" y="382.4922"/><text fill="#000000" font-family="sans-serif" font-size="14" lengthAdjust="spacing" textLength="127" x="472" y="402.4873">InvocationCallback</text><rect fill="#E2E2F0" height="30.2969" rx="2.5" ry="2.5" style="stroke:#181818;stroke-width:0.5;" width="154" x="616" y="5"/><text fill="#000000" font-family="sans-serif" font-size="14" lengthAdjust="spacing" textLength="140" x="623" y="24.9951">TransactionAttribute</text><rect fill="#E2E2F0" height="30.2969" rx="2.5" ry="2.5" style="stroke:#181818;stroke-width:0.5;" width="154" x="616" y="382.4922"/><text fill="#000000" font-family="sans-serif" font-size="14" lengthAdjust="spacing" textLength="140" x="623" y="402.4873">TransactionAttribute</text><rect fill="#E2E2F0" height="30.2969" rx="2.5" ry="2.5" style="stroke:#181818;stroke-width:0.5;" width="211" x="780" y="5"/><text fill="#000000" font-family="sans-serif" font-size="14" lengthAdjust="spacing" textLength="197" x="787" y="24.9951">PlatformTransactionManager</text><rect fill="#E2E2F0" height="30.2969" rx="2.5" ry="2.5" style="stroke:#181818;stroke-width:0.5;" width="211" x="780" y="382.4922"/><text fill="#000000" font-family="sans-serif" font-size="14" lengthAdjust="spacing" textLength="197" x="787" y="402.4873">PlatformTransactionManager</text><rect fill="#FFFFFF" height="283.0625" style="stroke:#181818;stroke-width:1.0;" width="10" x="85.5" y="75.4297"/><rect fill="#FFFFFF" height="34.1328" style="stroke:#181818;stroke-width:1.0;" width="10" x="90.5" y="117.5625"/><rect fill="#FFFFFF" height="63.2656" style="stroke:#181818;stroke-width:1.0;" width="10" x="90.5" y="260.0938"/><line style="stroke:#181818;stroke-width:1.0;" x1="90.5" x2="137.5" y1="62.4297" y2="62.4297"/><line style="stroke:#181818;stroke-width:1.0;" x1="137.5" x2="137.5" y1="62.4297" y2="75.4297"/><line style="stroke:#181818;stroke-width:1.0;" x1="96.5" x2="137.5" y1="75.4297" y2="75.4297"/><polygon fill="#181818" points="106.5,71.4297,96.5,75.4297,106.5,79.4297,102.5,75.4297" style="stroke:#181818;stroke-width:1.0;"/><text fill="#000000" font-family="sans-serif" font-size="13" lengthAdjust="spacing" textLength="153" x="102.5" y="57.3638">invokeWithinTransaction</text><line style="stroke:#181818;stroke-width:1.0;" x1="95.5" x2="142.5" y1="104.5625" y2="104.5625"/><line style="stroke:#181818;stroke-width:1.0;" x1="142.5" x2="142.5" y1="104.5625" y2="117.5625"/><line style="stroke:#181818;stroke-width:1.0;" x1="101.5" x2="142.5" y1="117.5625" y2="117.5625"/><polygon fill="#181818" points="111.5,113.5625,101.5,117.5625,111.5,121.5625,107.5,117.5625" style="stroke:#181818;stroke-width:1.0;"/><text fill="#000000" font-family="sans-serif" font-size="13" lengthAdjust="spacing" textLength="196" x="107.5" y="99.4966">determineTransactionManager</text><polygon fill="#181818" points="342.5,147.6953,352.5,151.6953,342.5,155.6953,346.5,151.6953" style="stroke:#181818;stroke-width:1.0;"/><line style="stroke:#181818;stroke-width:1.0;" x1="95.5" x2="348.5" y1="151.6953" y2="151.6953"/><text fill="#000000" font-family="sans-serif" font-size="13" lengthAdjust="spacing" textLength="230" x="102.5" y="146.6294">getBean(TransactionManager.class)</text><line style="stroke:#181818;stroke-width:1.0;" x1="95.5" x2="137.5" y1="180.8281" y2="180.8281"/><line style="stroke:#181818;stroke-width:1.0;" x1="137.5" x2="137.5" y1="180.8281" y2="193.8281"/><line style="stroke:#181818;stroke-width:1.0;" x1="96.5" x2="137.5" y1="193.8281" y2="193.8281"/><polygon fill="#181818" points="106.5,189.8281,96.5,193.8281,106.5,197.8281,102.5,193.8281" style="stroke:#181818;stroke-width:1.0;"/><text fill="#000000" font-family="sans-serif" font-size="13" lengthAdjust="spacing" textLength="189" x="102.5" y="175.7622">createTransactionIfNecessary</text><polygon fill="#181818" points="523.5,218.9609,533.5,222.9609,523.5,226.9609,527.5,222.9609" style="stroke:#181818;stroke-width:1.0;"/><line style="stroke:#181818;stroke-width:1.0;" x1="95.5" x2="529.5" y1="222.9609" y2="222.9609"/><text fill="#000000" font-family="sans-serif" font-size="13" lengthAdjust="spacing" textLength="144" x="102.5" y="217.895">proceedWithInvocation</text><line style="stroke:#181818;stroke-width:1.0;" x1="95.5" x2="142.5" y1="247.0938" y2="247.0938"/><line style="stroke:#181818;stroke-width:1.0;" x1="142.5" x2="142.5" y1="247.0938" y2="260.0938"/><line style="stroke:#181818;stroke-width:1.0;" x1="101.5" x2="142.5" y1="260.0938" y2="260.0938"/><polygon fill="#181818" points="111.5,256.0938,101.5,260.0938,111.5,264.0938,107.5,260.0938" style="stroke:#181818;stroke-width:1.0;"/><text fill="#000000" font-family="sans-serif" font-size="13" lengthAdjust="spacing" textLength="221" x="107.5" y="242.0278">completeTransactionAfterThrowing</text><polygon fill="#181818" points="681,290.2266,691,294.2266,681,298.2266,685,294.2266" style="stroke:#181818;stroke-width:1.0;"/><line style="stroke:#181818;stroke-width:1.0;" x1="100.5" x2="687" y1="294.2266" y2="294.2266"/><text fill="#000000" font-family="sans-serif" font-size="13" lengthAdjust="spacing" textLength="99" x="107.5" y="289.1606">rollbackOn(ex)?</text><polygon fill="#181818" points="873.5,319.3594,883.5,323.3594,873.5,327.3594,877.5,323.3594" style="stroke:#181818;stroke-width:1.0;"/><line style="stroke:#181818;stroke-width:1.0;" x1="95.5" x2="879.5" y1="323.3594" y2="323.3594"/><text fill="#000000" font-family="sans-serif" font-size="13" lengthAdjust="spacing" textLength="49" x="102.5" y="318.2935">rollback</text><line style="stroke:#181818;stroke-width:1.0;" x1="95.5" x2="137.5" y1="357.4922" y2="357.4922"/><line style="stroke:#181818;stroke-width:1.0;" x1="137.5" x2="137.5" y1="357.4922" y2="370.4922"/><line style="stroke:#181818;stroke-width:1.0;" x1="90.5" x2="137.5" y1="370.4922" y2="370.4922"/><polygon fill="#181818" points="100.5,366.4922,90.5,370.4922,100.5,374.4922,96.5,370.4922" style="stroke:#181818;stroke-width:1.0;"/><text fill="#000000" font-family="sans-serif" font-size="13" lengthAdjust="spacing" textLength="215" x="102.5" y="352.4263">commitTransactionAfterReturning</text><!--SRC=[jL7BJiD03BpdA_RO7k03SW0L458bNaAHE3kRIRhghZVoEeN-FLbnQA1G19IJPSrunlPKGfp8gekyP8LOz1h5d9oPwbEaD8utSOqdfol74qwHouOKNmmMrO-T6enDS8m9uPQOEiWVtAxGqk3rnYMbskC2nDSZCSgsD1qqzxDzmrFhAQLvqU3uTrh1g3T5spjOf4IoFI2t78Emb85ByhuckovDBz42JKvd1_zcfHXwZtTBBTeHhrOIdnrtnqbxeIgk7XIbaVXsmZtFy38_Fp3_u4dRA64_evtA_yGKGt3wyIEFq44ul-HRprS0]--></g></svg>