<?xml version="1.0" encoding="us-ascii" standalone="no"?><svg xmlns="http://www.w3.org/2000/svg" xmlns:xlink="http://www.w3.org/1999/xlink" contentStyleType="text/css" height="145px" preserveAspectRatio="none" style="width:525px;height:145px;background:#FFFFFF;" version="1.1" viewBox="0 0 525 145" width="525px" zoomAndPan="magnify"><defs/><g><g id="elem_compress"><rect fill="#F1F1F1" height="36.2969" style="stroke:#181818;stroke-width:0.5;" width="157" x="213" y="7"/><text fill="#000000" font-family="sans-serif" font-size="14" lengthAdjust="spacing" textLength="143" x="220" y="21.9951">commons-compress</text><line style="stroke:#181818;stroke-width:0.5;" x1="214" x2="369" y1="27.2969" y2="27.2969"/></g><g id="elem_codec"><rect fill="#F1F1F1" height="36.2969" style="stroke:#181818;stroke-width:0.5;" width="131" x="52" y="103.29"/><text fill="#000000" font-family="sans-serif" font-size="14" lengthAdjust="spacing" textLength="117" x="59" y="118.2851">commons-codec</text><line style="stroke:#181818;stroke-width:0.5;" x1="53" x2="182" y1="123.5869" y2="123.5869"/></g><g id="elem_io"><rect fill="#F1F1F1" height="36.2969" style="stroke:#181818;stroke-width:0.5;" width="100" x="241.5" y="103.29"/><text fill="#000000" font-family="sans-serif" font-size="14" lengthAdjust="spacing" textLength="86" x="248.5" y="118.2851">commons-io</text><line style="stroke:#181818;stroke-width:0.5;" x1="242.5" x2="340.5" y1="123.5869" y2="123.5869"/></g><g id="elem_lang3"><rect fill="#F1F1F1" height="36.2969" style="stroke:#181818;stroke-width:0.5;" width="126" x="387.5" y="103.29"/><text fill="#000000" font-family="sans-serif" font-size="14" lengthAdjust="spacing" textLength="112" x="394.5" y="118.2851">commons-lang3</text><line style="stroke:#181818;stroke-width:0.5;" x1="388.5" x2="512.5" y1="123.5869" y2="123.5869"/></g><g id="elem_text"><rect fill="#F1F1F1" height="36.2969" style="stroke:#181818;stroke-width:0.5;" width="114" x="405.5" y="7"/><text fill="#000000" font-family="sans-serif" font-size="14" lengthAdjust="spacing" textLength="100" x="412.5" y="21.9951">commons-text</text><line style="stroke:#181818;stroke-width:0.5;" x1="406.5" x2="518.5" y1="27.2969" y2="27.2969"/></g><g id="elem_collections4"><rect fill="#F1F1F1" height="36.2969" style="stroke:#181818;stroke-width:0.5;" width="171" x="7" y="7"/><text fill="#000000" font-family="sans-serif" font-size="14" lengthAdjust="spacing" textLength="157" x="14" y="21.9951">commons-collections4</text><line style="stroke:#181818;stroke-width:0.5;" x1="8" x2="177" y1="27.2969" y2="27.2969"/></g><!--link compress to codec--><g id="link_compress_codec"><path codeLine="8" d="M259.18,43.66 C228.02,60.54 186.415,83.091 155.215,100.001 " fill="none" id="compress-to-codec" style="stroke:#181818;stroke-width:1.0;"/><polygon fill="#181818" points="149.94,102.86,159.7586,102.0882,154.3359,100.4775,155.9466,95.0548,149.94,102.86" style="stroke:#181818;stroke-width:1.0;"/></g><!--link compress to io--><g id="link_compress_io"><path codeLine="9" d="M291.5,43.44 C291.5,60.35 291.5,79.96 291.5,96.94 " fill="none" id="compress-to-io" style="stroke:#181818;stroke-width:1.0;"/><polygon fill="#181818" points="291.5,102.94,295.5,93.94,291.5,97.94,287.5,93.94,291.5,102.94" style="stroke:#181818;stroke-width:1.0;"/></g><!--link compress to lang3--><g id="link_compress_lang3"><path codeLine="10" d="M321.03,43.66 C349.5,60.54 387.1899,82.8884 415.6899,99.7984 " fill="none" id="compress-to-lang3" style="stroke:#181818;stroke-width:1.0;"/><polygon fill="#181818" points="420.85,102.86,415.151,94.8275,416.5499,100.3086,411.0688,101.7076,420.85,102.86" style="stroke:#181818;stroke-width:1.0;"/></g><!--link text to lang3--><g id="link_text_lang3"><path codeLine="11" d="M460.3,43.44 C458.15,60.35 455.6471,80.008 453.4871,96.988 " fill="none" id="text-to-lang3" style="stroke:#181818;stroke-width:1.0;"/><polygon fill="#181818" points="452.73,102.94,457.8337,94.5167,453.361,97.98,449.8977,93.5072,452.73,102.94" style="stroke:#181818;stroke-width:1.0;"/></g><!--link collections4 to codec--><g id="link_collections4_codec"><path codeLine="12" d="M97.09,43.44 C101.57,60.35 106.823,80.1602 111.323,97.1402 " fill="none" id="collections4-to-codec" style="stroke:#181818;stroke-width:1.0;"/><polygon fill="#181818" points="112.86,102.94,114.421,93.2156,111.5791,98.1068,106.6879,95.265,112.86,102.94" style="stroke:#181818;stroke-width:1.0;"/></g><!--SRC=[ROwn3e0W34HtleAuC-dilo0IWm5gXC7FjrG849nwlTVq3hPJgyWd1Sw13mBdTUiG9Yu3Bmk3uMhNAf-W6hW1WWO6OgK_PeAa1Xxr4madyPDhBHe6zPBZgy5OwSk5M7Eppi8-tVvLI4dDshwiZru0]--></g></svg>