<?xml version="1.0" encoding="us-ascii" standalone="no"?><svg xmlns="http://www.w3.org/2000/svg" xmlns:xlink="http://www.w3.org/1999/xlink" contentStyleType="text/css" height="234px" preserveAspectRatio="none" style="width:796px;height:234px;background:#FFFFFF;" version="1.1" viewBox="0 0 796 234" width="796px" zoomAndPan="magnify"><defs/><g><rect fill="#FFFFFF" height="76.2656" style="stroke:#181818;stroke-width:1.0;" width="10" x="411.5" y="104.5625"/><line style="stroke:#181818;stroke-width:0.5;stroke-dasharray:5.0,5.0;" x1="140" x2="140" y1="36.2969" y2="198.8281"/><line style="stroke:#181818;stroke-width:0.5;stroke-dasharray:5.0,5.0;" x1="416" x2="416" y1="36.2969" y2="198.8281"/><line style="stroke:#181818;stroke-width:0.5;stroke-dasharray:5.0,5.0;" x1="674" x2="674" y1="36.2969" y2="198.8281"/><rect fill="#E2E2F0" height="30.2969" rx="2.5" ry="2.5" style="stroke:#181818;stroke-width:0.5;" width="270" x="5" y="5"/><text fill="#000000" font-family="sans-serif" font-size="14" lengthAdjust="spacing" textLength="256" x="12" y="24.9951">HandlerExceptionResolverComposite</text><rect fill="#E2E2F0" height="30.2969" rx="2.5" ry="2.5" style="stroke:#181818;stroke-width:0.5;" width="270" x="5" y="197.8281"/><text fill="#000000" font-family="sans-serif" font-size="14" lengthAdjust="spacing" textLength="256" x="12" y="217.8232">HandlerExceptionResolverComposite</text><rect fill="#E2E2F0" height="30.2969" rx="2.5" ry="2.5" style="stroke:#181818;stroke-width:0.5;" width="263" x="285" y="5"/><text fill="#000000" font-family="sans-serif" font-size="14" lengthAdjust="spacing" textLength="249" x="292" y="24.9951">ExceptionHandlerExceptionResolver</text><rect fill="#E2E2F0" height="30.2969" rx="2.5" ry="2.5" style="stroke:#181818;stroke-width:0.5;" width="263" x="285" y="197.8281"/><text fill="#000000" font-family="sans-serif" font-size="14" lengthAdjust="spacing" textLength="249" x="292" y="217.8232">ExceptionHandlerExceptionResolver</text><rect fill="#E2E2F0" height="30.2969" rx="2.5" ry="2.5" style="stroke:#181818;stroke-width:0.5;" width="232" x="558" y="5"/><text fill="#000000" font-family="sans-serif" font-size="14" lengthAdjust="spacing" textLength="218" x="565" y="24.9951">ServletInvocableHandlerMethod</text><rect fill="#E2E2F0" height="30.2969" rx="2.5" ry="2.5" style="stroke:#181818;stroke-width:0.5;" width="232" x="558" y="197.8281"/><text fill="#000000" font-family="sans-serif" font-size="14" lengthAdjust="spacing" textLength="218" x="565" y="217.8232">ServletInvocableHandlerMethod</text><rect fill="#FFFFFF" height="76.2656" style="stroke:#181818;stroke-width:1.0;" width="10" x="411.5" y="104.5625"/><polygon fill="#181818" points="404.5,63.4297,414.5,67.4297,404.5,71.4297,408.5,67.4297" style="stroke:#181818;stroke-width:1.0;"/><line style="stroke:#181818;stroke-width:1.0;" x1="140" x2="410.5" y1="67.4297" y2="67.4297"/><text fill="#000000" font-family="sans-serif" font-size="13" lengthAdjust="spacing" textLength="108" x="147" y="62.3638">resolveException</text><line style="stroke:#181818;stroke-width:1.0;" x1="416.5" x2="463.5" y1="91.5625" y2="91.5625"/><line style="stroke:#181818;stroke-width:1.0;" x1="463.5" x2="463.5" y1="91.5625" y2="104.5625"/><line style="stroke:#181818;stroke-width:1.0;" x1="422.5" x2="463.5" y1="104.5625" y2="104.5625"/><polygon fill="#181818" points="432.5,100.5625,422.5,104.5625,432.5,108.5625,428.5,104.5625" style="stroke:#181818;stroke-width:1.0;"/><text fill="#000000" font-family="sans-serif" font-size="13" lengthAdjust="spacing" textLength="225" x="428.5" y="86.4966">doResolveHandlerMethodException</text><line style="stroke:#181818;stroke-width:1.0;" x1="421.5" x2="463.5" y1="138.6953" y2="138.6953"/><line style="stroke:#181818;stroke-width:1.0;" x1="463.5" x2="463.5" y1="138.6953" y2="151.6953"/><line style="stroke:#181818;stroke-width:1.0;" x1="422.5" x2="463.5" y1="151.6953" y2="151.6953"/><polygon fill="#181818" points="432.5,147.6953,422.5,151.6953,432.5,155.6953,428.5,151.6953" style="stroke:#181818;stroke-width:1.0;"/><text fill="#000000" font-family="sans-serif" font-size="13" lengthAdjust="spacing" textLength="181" x="428.5" y="133.6294">getExceptionHandlerMethod</text><polygon fill="#181818" points="662,176.8281,672,180.8281,662,184.8281,666,180.8281" style="stroke:#181818;stroke-width:1.0;"/><line style="stroke:#181818;stroke-width:1.0;" x1="416.5" x2="668" y1="180.8281" y2="180.8281"/><text fill="#000000" font-family="sans-serif" font-size="13" lengthAdjust="spacing" textLength="111" x="423.5" y="175.7622">invokeAndHandle</text><!--SRC=[yqZCIyb9BNAjI4ujACdCpmjABSxFAKijSixFBSWlpYn9LT2rKu3BUk1GRQLG1671PRW8wY7Iu9HyA1kgn3Ur92C_1M5FOd99PbaYq9q4pQAQaz9JIz1LGLn5d0t1gKLbEQabddbb-Sc9IJce7hDIo0IAPwSwvgL0nBbIKedt8W00]--></g></svg>