<?xml version="1.0" encoding="us-ascii" standalone="no"?><svg xmlns="http://www.w3.org/2000/svg" xmlns:xlink="http://www.w3.org/1999/xlink" contentStyleType="text/css" height="506px" preserveAspectRatio="none" style="width:1694px;height:506px;background:#FFFFFF;" version="1.1" viewBox="0 0 1694 506" width="1694px" zoomAndPan="magnify"><defs/><g><rect fill="#FFFFFF" height="240.9297" style="stroke:#181818;stroke-width:1.0;" width="10" x="365" y="104.5625"/><rect fill="#FFFFFF" height="163.6641" style="stroke:#181818;stroke-width:1.0;" width="10" x="370" y="146.6953"/><rect fill="#FFFFFF" height="29.1328" style="stroke:#181818;stroke-width:1.0;" width="10" x="652.5" y="222.9609"/><rect fill="#FFFFFF" height="29.1328" style="stroke:#181818;stroke-width:1.0;" width="10" x="652.5" y="281.2266"/><rect fill="#FFFFFF" height="71.2656" style="stroke:#181818;stroke-width:1.0;" width="10" x="1248.5" y="381.625"/><line style="stroke:#181818;stroke-width:0.5;stroke-dasharray:5.0,5.0;" x1="124" x2="124" y1="36.2969" y2="470.8906"/><line style="stroke:#181818;stroke-width:0.5;stroke-dasharray:5.0,5.0;" x1="370" x2="370" y1="36.2969" y2="470.8906"/><line style="stroke:#181818;stroke-width:0.5;stroke-dasharray:5.0,5.0;" x1="657" x2="657" y1="36.2969" y2="470.8906"/><line style="stroke:#181818;stroke-width:0.5;stroke-dasharray:5.0,5.0;" x1="953" x2="953" y1="36.2969" y2="470.8906"/><line style="stroke:#181818;stroke-width:0.5;stroke-dasharray:5.0,5.0;" x1="1253" x2="1253" y1="36.2969" y2="470.8906"/><line style="stroke:#181818;stroke-width:0.5;stroke-dasharray:5.0,5.0;" x1="1559" x2="1559" y1="36.2969" y2="470.8906"/><rect fill="#E2E2F0" height="30.2969" rx="2.5" ry="2.5" style="stroke:#181818;stroke-width:0.5;" width="239" x="5" y="5"/><text fill="#000000" font-family="sans-serif" font-size="14" lengthAdjust="spacing" textLength="225" x="12" y="24.9951">RequestMappingHandlerAdapter</text><rect fill="#E2E2F0" height="30.2969" rx="2.5" ry="2.5" style="stroke:#181818;stroke-width:0.5;" width="239" x="5" y="469.8906"/><text fill="#000000" font-family="sans-serif" font-size="14" lengthAdjust="spacing" textLength="225" x="12" y="489.8857">RequestMappingHandlerAdapter</text><rect fill="#E2E2F0" height="30.2969" rx="2.5" ry="2.5" style="stroke:#181818;stroke-width:0.5;" width="232" x="254" y="5"/><text fill="#000000" font-family="sans-serif" font-size="14" lengthAdjust="spacing" textLength="218" x="261" y="24.9951">ServletInvocableHandlerMethod</text><rect fill="#E2E2F0" height="30.2969" rx="2.5" ry="2.5" style="stroke:#181818;stroke-width:0.5;" width="232" x="254" y="469.8906"/><text fill="#000000" font-family="sans-serif" font-size="14" lengthAdjust="spacing" textLength="218" x="261" y="489.8857">ServletInvocableHandlerMethod</text><rect fill="#E2E2F0" height="30.2969" rx="2.5" ry="2.5" style="stroke:#181818;stroke-width:0.5;" width="323" x="496" y="5"/><text fill="#000000" font-family="sans-serif" font-size="14" lengthAdjust="spacing" textLength="309" x="503" y="24.9951">HandlerMethodArgumentResolverComposite</text><rect fill="#E2E2F0" height="30.2969" rx="2.5" ry="2.5" style="stroke:#181818;stroke-width:0.5;" width="323" x="496" y="469.8906"/><text fill="#000000" font-family="sans-serif" font-size="14" lengthAdjust="spacing" textLength="309" x="503" y="489.8857">HandlerMethodArgumentResolverComposite</text><rect fill="#E2E2F0" height="30.2969" rx="2.5" ry="2.5" style="stroke:#181818;stroke-width:0.5;" width="248" x="829" y="5"/><text fill="#000000" font-family="sans-serif" font-size="14" lengthAdjust="spacing" textLength="234" x="836" y="24.9951">HandlerMethodArgumentResolver</text><rect fill="#E2E2F0" height="30.2969" rx="2.5" ry="2.5" style="stroke:#181818;stroke-width:0.5;" width="248" x="829" y="469.8906"/><text fill="#000000" font-family="sans-serif" font-size="14" lengthAdjust="spacing" textLength="234" x="836" y="489.8857">HandlerMethodArgumentResolver</text><rect fill="#E2E2F0" height="30.2969" rx="2.5" ry="2.5" style="stroke:#181818;stroke-width:0.5;" width="333" x="1087" y="5"/><text fill="#000000" font-family="sans-serif" font-size="14" lengthAdjust="spacing" textLength="319" x="1094" y="24.9951">HandlerMethodReturnValueHandlerComposite</text><rect fill="#E2E2F0" height="30.2969" rx="2.5" ry="2.5" style="stroke:#181818;stroke-width:0.5;" width="333" x="1087" y="469.8906"/><text fill="#000000" font-family="sans-serif" font-size="14" lengthAdjust="spacing" textLength="319" x="1094" y="489.8857">HandlerMethodReturnValueHandlerComposite</text><rect fill="#E2E2F0" height="30.2969" rx="2.5" ry="2.5" style="stroke:#181818;stroke-width:0.5;" width="258" x="1430" y="5"/><text fill="#000000" font-family="sans-serif" font-size="14" lengthAdjust="spacing" textLength="244" x="1437" y="24.9951">HandlerMethodReturnValueHandler</text><rect fill="#E2E2F0" height="30.2969" rx="2.5" ry="2.5" style="stroke:#181818;stroke-width:0.5;" width="258" x="1430" y="469.8906"/><text fill="#000000" font-family="sans-serif" font-size="14" lengthAdjust="spacing" textLength="244" x="1437" y="489.8857">HandlerMethodReturnValueHandler</text><rect fill="#FFFFFF" height="240.9297" style="stroke:#181818;stroke-width:1.0;" width="10" x="365" y="104.5625"/><rect fill="#FFFFFF" height="163.6641" style="stroke:#181818;stroke-width:1.0;" width="10" x="370" y="146.6953"/><rect fill="#FFFFFF" height="29.1328" style="stroke:#181818;stroke-width:1.0;" width="10" x="652.5" y="222.9609"/><rect fill="#FFFFFF" height="29.1328" style="stroke:#181818;stroke-width:1.0;" width="10" x="652.5" y="281.2266"/><rect fill="#FFFFFF" height="71.2656" style="stroke:#181818;stroke-width:1.0;" width="10" x="1248.5" y="381.625"/><polygon fill="#181818" points="358,63.4297,368,67.4297,358,71.4297,362,67.4297" style="stroke:#181818;stroke-width:1.0;"/><line style="stroke:#181818;stroke-width:1.0;" x1="124.5" x2="364" y1="67.4297" y2="67.4297"/><text fill="#000000" font-family="sans-serif" font-size="13" lengthAdjust="spacing" textLength="111" x="131.5" y="62.3638">invokeAndHandle</text><line style="stroke:#181818;stroke-width:1.0;" x1="370" x2="417" y1="91.5625" y2="91.5625"/><line style="stroke:#181818;stroke-width:1.0;" x1="417" x2="417" y1="91.5625" y2="104.5625"/><line style="stroke:#181818;stroke-width:1.0;" x1="376" x2="417" y1="104.5625" y2="104.5625"/><polygon fill="#181818" points="386,100.5625,376,104.5625,386,108.5625,382,104.5625" style="stroke:#181818;stroke-width:1.0;"/><text fill="#000000" font-family="sans-serif" font-size="13" lengthAdjust="spacing" textLength="212" x="382" y="86.4966">invokeForRequest -&gt; returnValue</text><line style="stroke:#181818;stroke-width:1.0;" x1="375" x2="422" y1="133.6953" y2="133.6953"/><line style="stroke:#181818;stroke-width:1.0;" x1="422" x2="422" y1="133.6953" y2="146.6953"/><line style="stroke:#181818;stroke-width:1.0;" x1="381" x2="422" y1="146.6953" y2="146.6953"/><polygon fill="#181818" points="391,142.6953,381,146.6953,391,150.6953,387,146.6953" style="stroke:#181818;stroke-width:1.0;"/><text fill="#000000" font-family="sans-serif" font-size="13" lengthAdjust="spacing" textLength="176" x="387" y="128.6294">getMethodArgumentValues</text><line style="stroke:#181818;stroke-width:1.0;" x1="380" x2="422" y1="180.8281" y2="180.8281"/><line style="stroke:#181818;stroke-width:1.0;" x1="422" x2="422" y1="180.8281" y2="193.8281"/><line style="stroke:#181818;stroke-width:1.0;" x1="381" x2="422" y1="193.8281" y2="193.8281"/><polygon fill="#181818" points="391,189.8281,381,193.8281,391,197.8281,387,193.8281" style="stroke:#181818;stroke-width:1.0;"/><text fill="#000000" font-family="sans-serif" font-size="13" lengthAdjust="spacing" textLength="144" x="387" y="175.7622">getMethodParameters</text><polygon fill="#181818" points="640.5,218.9609,650.5,222.9609,640.5,226.9609,644.5,222.9609" style="stroke:#181818;stroke-width:1.0;"/><line style="stroke:#181818;stroke-width:1.0;" x1="380" x2="646.5" y1="222.9609" y2="222.9609"/><text fill="#000000" font-family="sans-serif" font-size="13" lengthAdjust="spacing" textLength="124" x="387" y="217.895">supportsParameter</text><polygon fill="#181818" points="941,248.0938,951,252.0938,941,256.0938,945,252.0938" style="stroke:#181818;stroke-width:1.0;"/><line style="stroke:#181818;stroke-width:1.0;" x1="657.5" x2="947" y1="252.0938" y2="252.0938"/><text fill="#000000" font-family="sans-serif" font-size="13" lengthAdjust="spacing" textLength="124" x="664.5" y="247.0278">supportsParameter</text><polygon fill="#181818" points="640.5,277.2266,650.5,281.2266,640.5,285.2266,644.5,281.2266" style="stroke:#181818;stroke-width:1.0;"/><line style="stroke:#181818;stroke-width:1.0;" x1="380" x2="646.5" y1="281.2266" y2="281.2266"/><text fill="#000000" font-family="sans-serif" font-size="13" lengthAdjust="spacing" textLength="110" x="387" y="276.1606">resolveArgument</text><polygon fill="#181818" points="941,306.3594,951,310.3594,941,314.3594,945,310.3594" style="stroke:#181818;stroke-width:1.0;"/><line style="stroke:#181818;stroke-width:1.0;" x1="657.5" x2="947" y1="310.3594" y2="310.3594"/><text fill="#000000" font-family="sans-serif" font-size="13" lengthAdjust="spacing" textLength="110" x="664.5" y="305.2935">resolveArgument</text><line style="stroke:#181818;stroke-width:1.0;" x1="375" x2="417" y1="344.4922" y2="344.4922"/><line style="stroke:#181818;stroke-width:1.0;" x1="417" x2="417" y1="344.4922" y2="357.4922"/><line style="stroke:#181818;stroke-width:1.0;" x1="370" x2="417" y1="357.4922" y2="357.4922"/><polygon fill="#181818" points="380,353.4922,370,357.4922,380,361.4922,376,357.4922" style="stroke:#181818;stroke-width:1.0;"/><text fill="#000000" font-family="sans-serif" font-size="13" lengthAdjust="spacing" textLength="57" x="382" y="339.4263">doInvoke</text><polygon fill="#181818" points="1236.5,377.625,1246.5,381.625,1236.5,385.625,1240.5,381.625" style="stroke:#181818;stroke-width:1.0;"/><line style="stroke:#181818;stroke-width:1.0;" x1="370" x2="1242.5" y1="381.625" y2="381.625"/><text fill="#000000" font-family="sans-serif" font-size="13" lengthAdjust="spacing" textLength="121" x="377" y="376.5591">handleReturnValue</text><line style="stroke:#181818;stroke-width:1.0;" x1="1258.5" x2="1300.5" y1="410.7578" y2="410.7578"/><line style="stroke:#181818;stroke-width:1.0;" x1="1300.5" x2="1300.5" y1="410.7578" y2="423.7578"/><line style="stroke:#181818;stroke-width:1.0;" x1="1259.5" x2="1300.5" y1="423.7578" y2="423.7578"/><polygon fill="#181818" points="1269.5,419.7578,1259.5,423.7578,1269.5,427.7578,1265.5,423.7578" style="stroke:#181818;stroke-width:1.0;"/><text fill="#000000" font-family="sans-serif" font-size="13" lengthAdjust="spacing" textLength="88" x="1265.5" y="405.6919">selectHandler</text><polygon fill="#181818" points="1547,448.8906,1557,452.8906,1547,456.8906,1551,452.8906" style="stroke:#181818;stroke-width:1.0;"/><line style="stroke:#181818;stroke-width:1.0;" x1="1253.5" x2="1553" y1="452.8906" y2="452.8906"/><text fill="#000000" font-family="sans-serif" font-size="13" lengthAdjust="spacing" textLength="121" x="1260.5" y="447.8247">handleReturnValue</text><!--SRC=[nLHBQiCm5Dpx5Bv0Bv15m1HAiWWK5Rf_iGR7H9RKfoUVludjD6bm79ccxKuCevdH-qZX8oB8XholRRKYgmsuqEG5d3yjypTmQo1hsxgIjWO3OmFPERt8wmE-Hs5rZsUJz6Iz5yUgptMymf38zfrCH4Qbr2q9fdL-7AE2zCU2gzZ0IkSU_jp-bPWQ75eHxcj-0qwv5O8pBVZPDTw5Mh38G_JUiOGlxVEhqYIoDDhTJ6DHDEQ6ULXTk8TEZF-hodMG-JMvkF6xWwhTkblOTCUP_LBdtH_mYuxjEaIDVG-f8bagSLwo08DI1loH7cEFlZKV4qwV]--></g></svg>