<?xml version="1.0" encoding="us-ascii" standalone="no"?><svg xmlns="http://www.w3.org/2000/svg" xmlns:xlink="http://www.w3.org/1999/xlink" contentStyleType="text/css" height="221px" preserveAspectRatio="none" style="width:770px;height:221px;background:#FFFFFF;" version="1.1" viewBox="0 0 770 221" width="770px" zoomAndPan="magnify"><defs/><g><rect fill="#FFFFFF" height="92.3984" style="stroke:#181818;stroke-width:1.0;" width="10" x="151" y="75.4297"/><line style="stroke:#181818;stroke-width:0.5;stroke-dasharray:5.0,5.0;" x1="156" x2="156" y1="36.2969" y2="185.8281"/><line style="stroke:#181818;stroke-width:0.5;stroke-dasharray:5.0,5.0;" x1="404" x2="404" y1="36.2969" y2="185.8281"/><line style="stroke:#181818;stroke-width:0.5;stroke-dasharray:5.0,5.0;" x1="632" x2="632" y1="36.2969" y2="185.8281"/><rect fill="#E2E2F0" height="30.2969" rx="2.5" ry="2.5" style="stroke:#181818;stroke-width:0.5;" width="302" x="5" y="5"/><text fill="#000000" font-family="sans-serif" font-size="14" lengthAdjust="spacing" textLength="288" x="12" y="24.9951">RequestResponseBodyMethodProcessor</text><rect fill="#E2E2F0" height="30.2969" rx="2.5" ry="2.5" style="stroke:#181818;stroke-width:0.5;" width="302" x="5" y="184.8281"/><text fill="#000000" font-family="sans-serif" font-size="14" lengthAdjust="spacing" textLength="288" x="12" y="204.8232">RequestResponseBodyMethodProcessor</text><rect fill="#E2E2F0" height="30.2969" rx="2.5" ry="2.5" style="stroke:#181818;stroke-width:0.5;" width="174" x="317" y="5"/><text fill="#000000" font-family="sans-serif" font-size="14" lengthAdjust="spacing" textLength="160" x="324" y="24.9951">HttpMessageConverter</text><rect fill="#E2E2F0" height="30.2969" rx="2.5" ry="2.5" style="stroke:#181818;stroke-width:0.5;" width="174" x="317" y="184.8281"/><text fill="#000000" font-family="sans-serif" font-size="14" lengthAdjust="spacing" textLength="160" x="324" y="204.8232">HttpMessageConverter</text><rect fill="#E2E2F0" height="30.2969" rx="2.5" ry="2.5" style="stroke:#181818;stroke-width:0.5;" width="263" x="501" y="5"/><text fill="#000000" font-family="sans-serif" font-size="14" lengthAdjust="spacing" textLength="249" x="508" y="24.9951">RequestResponseBodyAdviceChain</text><rect fill="#E2E2F0" height="30.2969" rx="2.5" ry="2.5" style="stroke:#181818;stroke-width:0.5;" width="263" x="501" y="184.8281"/><text fill="#000000" font-family="sans-serif" font-size="14" lengthAdjust="spacing" textLength="249" x="508" y="204.8232">RequestResponseBodyAdviceChain</text><rect fill="#FFFFFF" height="92.3984" style="stroke:#181818;stroke-width:1.0;" width="10" x="151" y="75.4297"/><line style="stroke:#181818;stroke-width:1.0;" x1="156" x2="203" y1="62.4297" y2="62.4297"/><line style="stroke:#181818;stroke-width:1.0;" x1="203" x2="203" y1="62.4297" y2="75.4297"/><line style="stroke:#181818;stroke-width:1.0;" x1="162" x2="203" y1="75.4297" y2="75.4297"/><polygon fill="#181818" points="172,71.4297,162,75.4297,172,79.4297,168,75.4297" style="stroke:#181818;stroke-width:1.0;"/><text fill="#000000" font-family="sans-serif" font-size="13" lengthAdjust="spacing" textLength="184" x="168" y="57.3638">writeWithMessageConverters</text><polygon fill="#181818" points="392,105.5625,402,109.5625,392,113.5625,396,109.5625" style="stroke:#181818;stroke-width:1.0;"/><line style="stroke:#181818;stroke-width:1.0;" x1="161" x2="398" y1="109.5625" y2="109.5625"/><text fill="#000000" font-family="sans-serif" font-size="13" lengthAdjust="spacing" textLength="55" x="168" y="104.4966">canWrite</text><polygon fill="#181818" points="620.5,134.6953,630.5,138.6953,620.5,142.6953,624.5,138.6953" style="stroke:#181818;stroke-width:1.0;"/><line style="stroke:#181818;stroke-width:1.0;" x1="161" x2="626.5" y1="138.6953" y2="138.6953"/><text fill="#000000" font-family="sans-serif" font-size="13" lengthAdjust="spacing" textLength="105" x="168" y="133.6294">beforeBodyWrite</text><polygon fill="#181818" points="392,163.8281,402,167.8281,392,171.8281,396,167.8281" style="stroke:#181818;stroke-width:1.0;"/><line style="stroke:#181818;stroke-width:1.0;" x1="156" x2="398" y1="167.8281" y2="167.8281"/><text fill="#000000" font-family="sans-serif" font-size="13" lengthAdjust="spacing" textLength="30" x="163" y="162.7622">write</text><!--SRC=[bP0n3i8m40Hxly8Vu0Cka20DJIJa9hMn5-p65-uE8tuFf4IHSDhLQdQq7lS7H3rafYeuKdgDq4pfp1GXGcntU-l_jfnzSb5CHVFu2S8D0zK6Lh2O4BMqeEZW6DybT5ATVtUSZQ5ENujEo4hha5g9678erTaBhiHBl8MwhhQyOn8sNF46]--></g></svg>