<?xml version="1.0" encoding="us-ascii" standalone="no"?><svg xmlns="http://www.w3.org/2000/svg" xmlns:xlink="http://www.w3.org/1999/xlink" contentStyleType="text/css" height="620px" preserveAspectRatio="none" style="width:1550px;height:620px;background:#FFFFFF;" version="1.1" viewBox="0 0 1550 620" width="1550px" zoomAndPan="magnify"><defs/><g><rect fill="#FFFFFF" height="34.1328" style="stroke:#181818;stroke-width:1.0;" width="10" x="240" y="289.2266"/><rect fill="#FFFFFF" height="34.1328" style="stroke:#181818;stroke-width:1.0;" width="10" x="405" y="75.4297"/><rect fill="#FFFFFF" height="141.3984" style="stroke:#181818;stroke-width:1.0;" width="10" x="405" y="418.7578"/><rect fill="#FFFFFF" height="34.1328" style="stroke:#181818;stroke-width:1.0;" width="10" x="410" y="460.8906"/><rect fill="#FFFFFF" height="28" style="stroke:#181818;stroke-width:1.0;" width="10" x="410" y="532.1563"/><line style="stroke:#181818;stroke-width:0.5;stroke-dasharray:5.0,5.0;" x1="76" x2="76" y1="36.2969" y2="585.1563"/><line style="stroke:#181818;stroke-width:0.5;stroke-dasharray:5.0,5.0;" x1="245" x2="245" y1="36.2969" y2="585.1563"/><line style="stroke:#181818;stroke-width:0.5;stroke-dasharray:5.0,5.0;" x1="410" x2="410" y1="36.2969" y2="585.1563"/><line style="stroke:#181818;stroke-width:0.5;stroke-dasharray:5.0,5.0;" x1="967.5" x2="967.5" y1="36.2969" y2="585.1563"/><line style="stroke:#181818;stroke-width:0.5;stroke-dasharray:5.0,5.0;" x1="1218.5" x2="1218.5" y1="36.2969" y2="585.1563"/><line style="stroke:#181818;stroke-width:0.5;stroke-dasharray:5.0,5.0;" x1="1446.5" x2="1446.5" y1="36.2969" y2="585.1563"/><rect fill="#E2E2F0" height="30.2969" rx="2.5" ry="2.5" style="stroke:#181818;stroke-width:0.5;" width="143" x="5" y="5"/><text fill="#000000" font-family="sans-serif" font-size="14" lengthAdjust="spacing" textLength="129" x="12" y="24.9951">HandlerInterceptor</text><rect fill="#E2E2F0" height="30.2969" rx="2.5" ry="2.5" style="stroke:#181818;stroke-width:0.5;" width="143" x="5" y="584.1563"/><text fill="#000000" font-family="sans-serif" font-size="14" lengthAdjust="spacing" textLength="129" x="12" y="604.1514">HandlerInterceptor</text><rect fill="#E2E2F0" height="30.2969" rx="2.5" ry="2.5" style="stroke:#181818;stroke-width:0.5;" width="174" x="158" y="5"/><text fill="#000000" font-family="sans-serif" font-size="14" lengthAdjust="spacing" textLength="160" x="165" y="24.9951">HandlerExecutionChain</text><rect fill="#E2E2F0" height="30.2969" rx="2.5" ry="2.5" style="stroke:#181818;stroke-width:0.5;" width="174" x="158" y="584.1563"/><text fill="#000000" font-family="sans-serif" font-size="14" lengthAdjust="spacing" textLength="160" x="165" y="604.1514">HandlerExecutionChain</text><rect fill="#E2E2F0" height="30.2969" rx="2.5" ry="2.5" style="stroke:#181818;stroke-width:0.5;" width="136" x="342" y="5"/><text fill="#000000" font-family="sans-serif" font-size="14" lengthAdjust="spacing" textLength="122" x="349" y="24.9951">DispatcherServlet</text><rect fill="#E2E2F0" height="30.2969" rx="2.5" ry="2.5" style="stroke:#181818;stroke-width:0.5;" width="136" x="342" y="584.1563"/><text fill="#000000" font-family="sans-serif" font-size="14" lengthAdjust="spacing" textLength="122" x="349" y="604.1514">DispatcherServlet</text><rect fill="#E2E2F0" height="30.2969" rx="2.5" ry="2.5" style="stroke:#181818;stroke-width:0.5;" width="239" x="848.5" y="5"/><text fill="#000000" font-family="sans-serif" font-size="14" lengthAdjust="spacing" textLength="225" x="855.5" y="24.9951">RequestMappingHandlerAdapter</text><rect fill="#E2E2F0" height="30.2969" rx="2.5" ry="2.5" style="stroke:#181818;stroke-width:0.5;" width="239" x="848.5" y="584.1563"/><text fill="#000000" font-family="sans-serif" font-size="14" lengthAdjust="spacing" textLength="225" x="855.5" y="604.1514">RequestMappingHandlerAdapter</text><rect fill="#E2E2F0" height="30.2969" rx="2.5" ry="2.5" style="stroke:#181818;stroke-width:0.5;" width="242" x="1097.5" y="5"/><text fill="#000000" font-family="sans-serif" font-size="14" lengthAdjust="spacing" textLength="228" x="1104.5" y="24.9951">StandardServletMultipartResolver</text><rect fill="#E2E2F0" height="30.2969" rx="2.5" ry="2.5" style="stroke:#181818;stroke-width:0.5;" width="242" x="1097.5" y="584.1563"/><text fill="#000000" font-family="sans-serif" font-size="14" lengthAdjust="spacing" textLength="228" x="1104.5" y="604.1514">StandardServletMultipartResolver</text><rect fill="#E2E2F0" height="30.2969" rx="2.5" ry="2.5" style="stroke:#181818;stroke-width:0.5;" width="195" x="1349.5" y="5"/><text fill="#000000" font-family="sans-serif" font-size="14" lengthAdjust="spacing" textLength="181" x="1356.5" y="24.9951">HandlerExceptionResolver</text><rect fill="#E2E2F0" height="30.2969" rx="2.5" ry="2.5" style="stroke:#181818;stroke-width:0.5;" width="195" x="1349.5" y="584.1563"/><text fill="#000000" font-family="sans-serif" font-size="14" lengthAdjust="spacing" textLength="181" x="1356.5" y="604.1514">HandlerExceptionResolver</text><rect fill="#FFFFFF" height="34.1328" style="stroke:#181818;stroke-width:1.0;" width="10" x="240" y="289.2266"/><rect fill="#FFFFFF" height="34.1328" style="stroke:#181818;stroke-width:1.0;" width="10" x="405" y="75.4297"/><rect fill="#FFFFFF" height="141.3984" style="stroke:#181818;stroke-width:1.0;" width="10" x="405" y="418.7578"/><rect fill="#FFFFFF" height="34.1328" style="stroke:#181818;stroke-width:1.0;" width="10" x="410" y="460.8906"/><rect fill="#FFFFFF" height="28" style="stroke:#181818;stroke-width:1.0;" width="10" x="410" y="532.1563"/><line style="stroke:#181818;stroke-width:1.0;" x1="410" x2="457" y1="62.4297" y2="62.4297"/><line style="stroke:#181818;stroke-width:1.0;" x1="457" x2="457" y1="62.4297" y2="75.4297"/><line style="stroke:#181818;stroke-width:1.0;" x1="416" x2="457" y1="75.4297" y2="75.4297"/><polygon fill="#181818" points="426,71.4297,416,75.4297,426,79.4297,422,75.4297" style="stroke:#181818;stroke-width:1.0;"/><text fill="#000000" font-family="sans-serif" font-size="13" lengthAdjust="spacing" textLength="93" x="422" y="57.3638">checkMultipart</text><polygon fill="#181818" points="1206.5,105.5625,1216.5,109.5625,1206.5,113.5625,1210.5,109.5625" style="stroke:#181818;stroke-width:1.0;"/><line style="stroke:#181818;stroke-width:1.0;" x1="410" x2="1212.5" y1="109.5625" y2="109.5625"/><text fill="#000000" font-family="sans-serif" font-size="13" lengthAdjust="spacing" textLength="102" x="417" y="104.4966">resolveMultipart</text><line style="stroke:#181818;stroke-width:1.0;" x1="410" x2="452" y1="138.6953" y2="138.6953"/><line style="stroke:#181818;stroke-width:1.0;" x1="452" x2="452" y1="138.6953" y2="151.6953"/><line style="stroke:#181818;stroke-width:1.0;" x1="411" x2="452" y1="151.6953" y2="151.6953"/><polygon fill="#181818" points="421,147.6953,411,151.6953,421,155.6953,417,151.6953" style="stroke:#181818;stroke-width:1.0;"/><text fill="#000000" font-family="sans-serif" font-size="13" lengthAdjust="spacing" textLength="544" x="417" y="133.6294">getHandler (from RequestMappingHandlerMapping, WebSocketHandlerMapping, etc.)</text><line style="stroke:#181818;stroke-width:1.0;" x1="410" x2="452" y1="180.8281" y2="180.8281"/><line style="stroke:#181818;stroke-width:1.0;" x1="452" x2="452" y1="180.8281" y2="193.8281"/><line style="stroke:#181818;stroke-width:1.0;" x1="411" x2="452" y1="193.8281" y2="193.8281"/><polygon fill="#181818" points="421,189.8281,411,193.8281,421,197.8281,417,193.8281" style="stroke:#181818;stroke-width:1.0;"/><text fill="#000000" font-family="sans-serif" font-size="13" lengthAdjust="spacing" textLength="409" x="417" y="175.7622">getHandlerAdapter (from RequestMappingHandlerAdapter, etc.)</text><polygon fill="#181818" points="256,218.9609,246,222.9609,256,226.9609,252,222.9609" style="stroke:#181818;stroke-width:1.0;"/><line style="stroke:#181818;stroke-width:1.0;" x1="250" x2="409" y1="222.9609" y2="222.9609"/><text fill="#000000" font-family="sans-serif" font-size="13" lengthAdjust="spacing" textLength="100" x="262" y="217.895">applyPreHandle</text><polygon fill="#181818" points="87.5,248.0938,77.5,252.0938,87.5,256.0938,83.5,252.0938" style="stroke:#181818;stroke-width:1.0;"/><line style="stroke:#181818;stroke-width:1.0;" x1="81.5" x2="244" y1="252.0938" y2="252.0938"/><text fill="#000000" font-family="sans-serif" font-size="13" lengthAdjust="spacing" textLength="66" x="93.5" y="247.0278">preHandle</text><line style="stroke:#181818;stroke-width:1.0;" x1="245" x2="292" y1="276.2266" y2="276.2266"/><line style="stroke:#181818;stroke-width:1.0;" x1="292" x2="292" y1="276.2266" y2="289.2266"/><line style="stroke:#181818;stroke-width:1.0;" x1="251" x2="292" y1="289.2266" y2="289.2266"/><polygon fill="#181818" points="261,285.2266,251,289.2266,261,293.2266,257,289.2266" style="stroke:#181818;stroke-width:1.0;"/><text fill="#000000" font-family="sans-serif" font-size="13" lengthAdjust="spacing" textLength="146" x="257" y="271.1606">triggerAfterCompletion</text><polygon fill="#181818" points="87.5,319.3594,77.5,323.3594,87.5,327.3594,83.5,323.3594" style="stroke:#181818;stroke-width:1.0;"/><line style="stroke:#181818;stroke-width:1.0;" x1="81.5" x2="244" y1="323.3594" y2="323.3594"/><text fill="#000000" font-family="sans-serif" font-size="13" lengthAdjust="spacing" textLength="103" x="93.5" y="318.2935">afterCompletion</text><polygon fill="#181818" points="956,348.4922,966,352.4922,956,356.4922,960,352.4922" style="stroke:#181818;stroke-width:1.0;"/><line style="stroke:#181818;stroke-width:1.0;" x1="410" x2="962" y1="352.4922" y2="352.4922"/><text fill="#000000" font-family="sans-serif" font-size="13" lengthAdjust="spacing" textLength="43" x="417" y="347.4263">handle</text><polygon fill="#181818" points="256,377.625,246,381.625,256,385.625,252,381.625" style="stroke:#181818;stroke-width:1.0;"/><line style="stroke:#181818;stroke-width:1.0;" x1="250" x2="409" y1="381.625" y2="381.625"/><text fill="#000000" font-family="sans-serif" font-size="13" lengthAdjust="spacing" textLength="107" x="262" y="376.5591">applyPostHandle</text><line style="stroke:#181818;stroke-width:1.0;" x1="410" x2="457" y1="405.7578" y2="405.7578"/><line style="stroke:#181818;stroke-width:1.0;" x1="457" x2="457" y1="405.7578" y2="418.7578"/><line style="stroke:#181818;stroke-width:1.0;" x1="416" x2="457" y1="418.7578" y2="418.7578"/><polygon fill="#181818" points="426,414.7578,416,418.7578,426,422.7578,422,418.7578" style="stroke:#181818;stroke-width:1.0;"/><text fill="#000000" font-family="sans-serif" font-size="13" lengthAdjust="spacing" textLength="145" x="422" y="400.6919">processDispatchResult</text><line style="stroke:#181818;stroke-width:1.0;" x1="415" x2="462" y1="447.8906" y2="447.8906"/><line style="stroke:#181818;stroke-width:1.0;" x1="462" x2="462" y1="447.8906" y2="460.8906"/><line style="stroke:#181818;stroke-width:1.0;" x1="421" x2="462" y1="460.8906" y2="460.8906"/><polygon fill="#181818" points="431,456.8906,421,460.8906,431,464.8906,427,460.8906" style="stroke:#181818;stroke-width:1.0;"/><text fill="#000000" font-family="sans-serif" font-size="13" lengthAdjust="spacing" textLength="162" x="427" y="442.8247">processHandlerException</text><polygon fill="#181818" points="1435,491.0234,1445,495.0234,1435,499.0234,1439,495.0234" style="stroke:#181818;stroke-width:1.0;"/><line style="stroke:#181818;stroke-width:1.0;" x1="415" x2="1441" y1="495.0234" y2="495.0234"/><text fill="#000000" font-family="sans-serif" font-size="13" lengthAdjust="spacing" textLength="108" x="422" y="489.9575">resolveException</text><line style="stroke:#181818;stroke-width:1.0;" x1="420" x2="462" y1="524.1563" y2="524.1563"/><line style="stroke:#181818;stroke-width:1.0;" x1="462" x2="462" y1="524.1563" y2="537.1563"/><line style="stroke:#181818;stroke-width:1.0;" x1="421" x2="462" y1="537.1563" y2="537.1563"/><polygon fill="#181818" points="431,533.1563,421,537.1563,431,541.1563,427,537.1563" style="stroke:#181818;stroke-width:1.0;"/><text fill="#000000" font-family="sans-serif" font-size="13" lengthAdjust="spacing" textLength="42" x="427" y="519.0903">render</text><!--SRC=[hLH1ReCm4Bpx5JwsKji7SAXKfPNQGwGe77fspGQi4DjTBwZzVHtXG03B2LLkMBCxCum7h41IKbcXYRyBNTI07ve09LWooEmSVli1sP0oUbK9fKSJhyfPGR82p07R6cY4Rk6x0KThOQtIPM1xAOJrSgF1d3mci0WawwOcTSItu4pT-c4s4-AFptFrZFk3tFVxJ4XIhI2868qoNZAISUoU1ea2bef4R9T08Hv-jqDpY4SNJW_y4xvo8_VzKWy0oQVxVwY6Iqc9Xv6aHhGm6VSyzUy6eOCPYuwTxP_rCUEstxkqDfKbL6NfZUyysyeSh3VfmQ4JyNelCYSct6TbYBF7Sqi5dl6gU_tbYHj7fyYlhOH58y6v4-9xxulERj3mGDpxFIOukeqhgQS4iozpeBxDfucW2_y7IZ0bPLBW7m00]--></g></svg>