<?xml version="1.0" encoding="us-ascii" standalone="no"?><svg xmlns="http://www.w3.org/2000/svg" xmlns:xlink="http://www.w3.org/1999/xlink" contentStyleType="text/css" height="254px" preserveAspectRatio="none" style="width:700px;height:254px;background:#FFFFFF;" version="1.1" viewBox="0 0 700 254" width="700px" zoomAndPan="magnify"><defs/><g><ellipse cx="367" cy="20" fill="#222222" rx="10" ry="10" style="stroke:#222222;stroke-width:1.0;"/><polygon fill="#F1F1F1" points="219,50,515,50,527,62,515,74,219,74,207,62,219,50" style="stroke:#181818;stroke-width:0.5;"/><text fill="#000000" font-family="sans-serif" font-size="11" lengthAdjust="spacing" textLength="296" x="219" y="65.8081">Route Lookup: destination IP is in the same subnet?</text><text fill="#000000" font-family="sans-serif" font-size="11" lengthAdjust="spacing" textLength="20" x="187" y="59.4058">yes</text><text fill="#000000" font-family="sans-serif" font-size="11" lengthAdjust="spacing" textLength="14" x="527" y="59.4058">no</text><rect fill="#F1F1F1" height="33.9688" rx="12.5" ry="12.5" style="stroke:#181818;stroke-width:0.5;" width="273" x="56" y="84"/><text fill="#000000" font-family="sans-serif" font-size="12" lengthAdjust="spacing" textLength="253" x="66" y="105.1387">use ARP to get destination MAC address</text><rect fill="#F1F1F1" height="33.9688" rx="12.5" ry="12.5" style="stroke:#181818;stroke-width:0.5;" width="363" x="11" y="137.9688"/><text fill="#000000" font-family="sans-serif" font-size="12" lengthAdjust="spacing" textLength="343" x="21" y="159.1074">send ICMP request directly to destination MAC address</text><rect fill="#F1F1F1" height="33.9688" rx="12.5" ry="12.5" style="stroke:#181818;stroke-width:0.5;" width="254" x="414.5" y="84"/><text fill="#000000" font-family="sans-serif" font-size="12" lengthAdjust="spacing" textLength="234" x="424.5" y="105.1387">use ARP to get gateway MAC address</text><rect fill="#F1F1F1" height="33.9688" rx="12.5" ry="12.5" style="stroke:#181818;stroke-width:0.5;" width="295" x="394" y="137.9688"/><text fill="#000000" font-family="sans-serif" font-size="12" lengthAdjust="spacing" textLength="275" x="404" y="159.1074">send ICMP request to gateway MAC address</text><polygon fill="#F1F1F1" points="367,177.9375,379,189.9375,367,201.9375,355,189.9375,367,177.9375" style="stroke:#181818;stroke-width:0.5;"/><ellipse cx="367" cy="232.9375" fill="none" rx="11" ry="11" style="stroke:#222222;stroke-width:1.0;"/><ellipse cx="367" cy="232.9375" fill="#222222" rx="6" ry="6" style="stroke:#222222;stroke-width:1.0;"/><line style="stroke:#181818;stroke-width:1.0;" x1="192.5" x2="192.5" y1="117.9688" y2="137.9688"/><polygon fill="#181818" points="188.5,127.9688,192.5,137.9688,196.5,127.9688,192.5,131.9688" style="stroke:#181818;stroke-width:1.0;"/><line style="stroke:#181818;stroke-width:1.0;" x1="541.5" x2="541.5" y1="117.9688" y2="137.9688"/><polygon fill="#181818" points="537.5,127.9688,541.5,137.9688,545.5,127.9688,541.5,131.9688" style="stroke:#181818;stroke-width:1.0;"/><line style="stroke:#181818;stroke-width:1.0;" x1="207" x2="192.5" y1="62" y2="62"/><line style="stroke:#181818;stroke-width:1.0;" x1="192.5" x2="192.5" y1="62" y2="84"/><polygon fill="#181818" points="188.5,74,192.5,84,196.5,74,192.5,78" style="stroke:#181818;stroke-width:1.0;"/><line style="stroke:#181818;stroke-width:1.0;" x1="527" x2="541.5" y1="62" y2="62"/><line style="stroke:#181818;stroke-width:1.0;" x1="541.5" x2="541.5" y1="62" y2="84"/><polygon fill="#181818" points="537.5,74,541.5,84,545.5,74,541.5,78" style="stroke:#181818;stroke-width:1.0;"/><line style="stroke:#181818;stroke-width:1.0;" x1="192.5" x2="192.5" y1="171.9375" y2="189.9375"/><line style="stroke:#181818;stroke-width:1.0;" x1="192.5" x2="355" y1="189.9375" y2="189.9375"/><polygon fill="#181818" points="345,185.9375,355,189.9375,345,193.9375,349,189.9375" style="stroke:#181818;stroke-width:1.0;"/><line style="stroke:#181818;stroke-width:1.0;" x1="541.5" x2="541.5" y1="171.9375" y2="189.9375"/><line style="stroke:#181818;stroke-width:1.0;" x1="541.5" x2="379" y1="189.9375" y2="189.9375"/><polygon fill="#181818" points="389,185.9375,379,189.9375,389,193.9375,385,189.9375" style="stroke:#181818;stroke-width:1.0;"/><line style="stroke:#181818;stroke-width:1.0;" x1="367" x2="367" y1="30" y2="50"/><polygon fill="#181818" points="363,40,367,50,371,40,367,44" style="stroke:#181818;stroke-width:1.0;"/><line style="stroke:#181818;stroke-width:1.0;" x1="367" x2="367" y1="201.9375" y2="221.9375"/><polygon fill="#181818" points="363,211.9375,367,221.9375,371,211.9375,367,215.9375" style="stroke:#181818;stroke-width:1.0;"/><!--SRC=[ZOr12eCm44Ntdk8lzGfsKSILK25uWxGPRQZDsCo4uksRB0iMkfd5yDv_eZPgvMVK4oSbN9WVQMlXIDG7gvu31WCly05w9uXzvfEkWVJSb4z0lPCq5T0c8NIJWJ8Mqg-DiUjXdOiaSYgeK70O-j4WqYjb4Cv7kkcw5_kdIMjEr86FSejLUjlzZrGHZk0C-haIvUq3]--></g></svg>